<svg width="198" height="192" viewBox="0 0 198 192" fill="none" xmlns="http://www.w3.org/2000/svg">
<g filter="url(#filter0_d_254_4461)">
<path d="M97.1983 136.378C95.4234 140.51 92.0864 143.769 87.9166 145.444L87.8091 145.486C79.521 148.794 71.611 146.299 69.3309 145.492L21.0256 126.61C8.50302 121.715 2.09039 108.154 6.70059 96.3227C11.3108 84.491 25.1983 78.8659 37.7209 83.7606C37.9099 83.8946 49.2288 90.2316 88.1741 111.955C97.1323 116.952 101.018 127.465 97.1983 136.378Z" fill="#459696"/>
<path d="M133.668 76.8618C137.518 74.5432 142.126 73.8461 146.487 74.9229L146.599 74.9501C155.252 77.1139 160.218 83.7603 161.589 85.7496L189.786 129.324C197.094 140.622 194.391 155.386 183.751 162.302C173.113 169.218 158.562 165.666 151.256 154.368C151.181 154.149 145.69 142.384 126.754 101.972C122.394 92.6791 125.373 81.8699 133.668 76.8618Z" fill="#459696"/>
<path d="M97.3128 183.12H78.8526C73.4851 183.12 68.9881 180.227 68.4523 176.425L66.3247 161.391C65.6554 156.65 71.3285 152.691 77.9745 153.261L98.5585 155.025C103.81 155.475 107.762 158.647 107.762 162.411V175.68C107.765 179.789 103.085 183.12 97.3128 183.12Z" fill="#459696"/>
<path d="M117.649 184H134.272C139.107 184 143.154 181.105 143.637 177.305L145.55 162.271C146.154 157.531 141.043 153.569 135.059 154.139L116.521 155.904C111.794 156.354 108.235 159.524 108.235 163.289V176.559C108.235 180.667 112.459 184 117.649 184Z" fill="#459696"/>
<path d="M170.099 116.632C169.952 115.769 169.589 113.627 168.359 113.336C168.279 113.317 168.198 113.306 168.117 113.305C168.047 113.301 167.981 113.27 167.933 113.218C167.886 113.166 167.86 113.098 167.862 113.028C167.857 108.437 167.422 103.857 166.562 99.3488C166.552 99.2972 166.557 99.2438 166.576 99.1949C166.595 99.146 166.628 99.1036 166.67 99.0728C166.713 99.042 166.763 99.0241 166.816 99.0211C166.868 99.0182 166.92 99.0303 166.966 99.0561C167.85 99.5408 168.61 99.7269 168.745 99.5699C169.07 99.1821 166.231 96.2563 165.715 95.3567C165.702 95.3343 165.693 95.3101 165.687 95.285L165.647 95.1182C165.84 94.936 167.388 96.6499 167.968 96.2815C168.428 95.9849 168.115 94.4474 167.388 93.3732C167.314 93.2647 166.117 91.5352 165.067 91.8221C165.031 91.8334 164.993 91.8372 164.955 91.8335C164.918 91.8298 164.882 91.8186 164.849 91.8005C164.816 91.7824 164.786 91.7578 164.763 91.7282C164.74 91.6986 164.723 91.6646 164.713 91.6282C163.733 88.2306 162.52 84.9046 161.084 81.6741C153.442 64.6818 134.554 40.9577 107.376 39.5327C107.33 39.5302 107.285 39.5159 107.245 39.4911C107.205 39.4664 107.173 39.432 107.15 39.3911C107.127 39.3503 107.115 39.3044 107.115 39.2576C107.114 39.2108 107.126 39.1647 107.148 39.1236C108.171 37.2816 108.974 35.399 108.328 34.8484C107.624 34.2434 105.322 35.3505 104.336 36.8008C104.139 37.0904 103.976 37.4021 103.85 37.7295C103.687 38.2013 103.618 38.7007 103.647 39.1992C103.649 39.2362 103.642 39.2731 103.629 39.3077C103.616 39.3423 103.597 39.374 103.571 39.4008C103.546 39.4277 103.515 39.4493 103.482 39.4643C103.448 39.4792 103.411 39.4873 103.375 39.4881L102.893 39.5017C102.851 39.5031 102.809 39.495 102.77 39.4778C102.732 39.4607 102.698 39.4351 102.67 39.4028C102.026 38.6175 101.231 37.5531 100.692 37.716C100.318 37.8284 100.1 38.5245 100.082 39.4454C100.081 39.5128 100.055 39.5773 100.01 39.6267C99.9641 39.6761 99.9018 39.7068 99.8349 39.713C65.6514 43.1487 50.0577 80.9722 48.4136 85.1408C48.1563 85.7981 47.754 86.814 47.284 88.1422C46.2171 91.2018 45.3456 94.3265 44.6747 97.4972C44.6661 97.538 44.6484 97.5762 44.623 97.6092C44.5975 97.6421 44.565 97.6689 44.5279 97.6875C44.4907 97.7062 44.4498 97.7162 44.4083 97.7168C44.3667 97.7174 44.3256 97.7086 44.2879 97.6911C43.9442 97.5479 43.5798 97.4608 43.2086 97.4332C40.992 97.2684 39.0887 99.3062 39.3401 99.9538C39.5026 100.369 40.5007 100.103 41.5896 100.068C41.6527 100.066 41.7145 100.086 41.7649 100.124C41.8152 100.162 41.851 100.216 41.8664 100.278C41.8817 100.339 41.8757 100.404 41.8493 100.461C41.8229 100.519 41.7777 100.565 41.7212 100.594C40.7927 101.053 40.0771 101.712 40.1061 102.226C40.1525 103.087 42.3169 103.583 43.342 104.165C43.3904 104.192 43.4296 104.233 43.4548 104.282C43.4799 104.331 43.4898 104.387 43.4832 104.442C43.46 104.621 43.4388 104.801 43.4155 104.981C43.4097 105.033 43.3896 105.081 43.3575 105.122C43.3253 105.162 43.2824 105.193 43.2337 105.21C42.7579 105.373 42.1177 105.573 41.6864 106.164C40.7521 107.43 41.2666 109.803 42.0887 110.02C42.252 110.054 42.422 110.026 42.5664 109.943C42.6096 109.921 42.6578 109.91 42.7062 109.913C42.7546 109.915 42.8015 109.93 42.8422 109.957C42.883 109.983 42.9161 110.019 42.9383 110.063C42.9605 110.106 42.971 110.154 42.9687 110.203C42.5258 118.67 43.4388 128.535 47.5973 138.192C47.6148 138.23 47.6236 138.271 47.6229 138.313C47.6223 138.355 47.6124 138.396 47.5938 138.433C47.5752 138.47 47.5485 138.503 47.5156 138.528C47.4827 138.554 47.4446 138.571 47.4039 138.58C45.4968 138.943 43.901 139.48 43.9223 139.675C43.9513 139.912 46.4252 139.807 48.2144 139.906C48.2633 139.909 48.3106 139.925 48.3511 139.953C48.3917 139.98 48.4239 140.019 48.4445 140.063C48.5735 140.331 48.7024 140.598 48.8314 140.866C48.8631 140.929 48.8698 141.001 48.85 141.068C48.8303 141.136 48.7855 141.193 48.725 141.228C48.0732 141.601 47.3478 142.142 46.9706 143.045C46.8469 143.34 46.6283 143.861 46.8256 144.356C47.253 145.426 49.4407 145.924 50.9822 145.228C51.0432 145.201 51.112 145.197 51.1758 145.217C51.2395 145.237 51.2938 145.28 51.3285 145.337C51.4232 145.494 51.5219 145.649 51.6186 145.806L51.6727 145.888C51.7017 145.933 51.7171 145.985 51.7171 146.039C51.7171 146.092 51.7017 146.145 51.6727 146.19C50.7695 147.607 50.6186 149.387 50.9513 149.604C51.2511 149.798 51.9551 148.73 52.9087 148.168C52.9684 148.133 53.0388 148.122 53.1064 148.136C53.1739 148.15 53.2338 148.189 53.2743 148.245C55.6403 151.539 58.3816 154.544 61.4425 157.201C61.4783 157.231 61.5056 157.27 61.522 157.314C61.5384 157.358 61.5432 157.405 61.5361 157.452C61.5289 157.498 61.5099 157.542 61.481 157.579C61.4521 157.616 61.4142 157.644 61.3709 157.662C60.7879 157.897 60.3003 158.321 59.986 158.866C59.5779 159.595 59.4058 160.751 59.8603 161.075C60.634 161.612 62.4851 159.388 63.2742 159.888C64.1968 160.47 62.4831 164.026 63.0247 164.303C63.4386 164.516 65.4289 162.946 65.692 161.019C65.6975 160.971 65.7152 160.926 65.7432 160.888C65.7713 160.85 65.8087 160.819 65.852 160.8C65.8952 160.78 65.9427 160.772 65.9899 160.777C66.0372 160.781 66.0824 160.798 66.1214 160.825C84.9878 173.898 108.108 172.691 109.417 172.601C112.993 172.357 132.487 170.701 148.357 156.815C148.391 156.784 148.433 156.762 148.478 156.752C148.523 156.741 148.57 156.743 148.615 156.755C148.659 156.768 148.7 156.792 148.732 156.825C148.765 156.858 148.789 156.898 148.802 156.943C148.859 157.153 148.932 157.357 149.02 157.556C149.136 157.816 149.633 158.913 150.349 158.925C151.016 158.925 151.719 157.982 151.761 157.162C151.773 156.926 151.72 156.898 151.542 155.611C151.448 154.923 151.452 154.851 151.502 154.775C151.91 154.149 154.016 155.264 154.376 154.744C154.537 154.512 154.229 154.106 153.067 152.509C153.03 152.457 153.012 152.395 153.015 152.332C153.019 152.269 153.044 152.209 153.086 152.162C155.052 149.991 156.849 147.671 158.459 145.223C158.471 145.207 158.479 145.192 158.488 145.178C158.635 146.312 158.833 147.117 158.968 147.117C159.188 147.117 159.388 145.04 159.676 143.334C159.682 143.3 159.693 143.267 159.711 143.237C159.961 142.822 160.203 142.407 160.438 141.99C160.464 141.944 160.502 141.906 160.549 141.881C160.596 141.856 160.649 141.846 160.701 141.85C160.754 141.855 160.804 141.874 160.846 141.907C160.888 141.939 160.919 141.983 160.937 142.033C161.214 142.809 161.637 143.902 162.699 144.523C162.974 144.684 163.461 144.967 163.976 144.835C165.165 144.532 165.972 142.155 165.27 140.503C164.817 139.441 163.836 138.902 162.633 138.371C162.6 138.356 162.569 138.334 162.544 138.308C162.519 138.281 162.499 138.249 162.486 138.215C162.473 138.18 162.467 138.144 162.469 138.107C162.47 138.07 162.479 138.034 162.494 138C164.746 133.147 166.303 127.998 167.119 122.708C167.124 122.657 167.143 122.607 167.175 122.566C167.206 122.525 167.249 122.493 167.298 122.475C167.347 122.457 167.4 122.454 167.451 122.465C167.501 122.476 167.548 122.501 167.585 122.538C168.034 123.017 168.407 123.278 168.552 123.218C168.811 123.108 168.359 121.974 168.252 118.458C168.19 116.615 168.297 116.44 168.359 116.432C168.668 116.388 169.186 120.339 169.713 120.31C170.074 120.294 170.409 118.425 170.099 116.632Z" fill="#4EADAF"/>
<path d="M56.3709 121.285C66.7328 121.285 75.1328 115.426 75.1328 108.198C75.1328 100.97 66.7328 95.1104 56.3709 95.1104C46.0089 95.1104 37.6089 100.97 37.6089 108.198C37.6089 115.426 46.0089 121.285 56.3709 121.285Z" fill="#E37A39"/>
<path d="M154.243 122.061C164.605 122.061 173.005 116.201 173.005 108.973C173.005 101.745 164.605 95.8859 154.243 95.8859C143.881 95.8859 135.481 101.745 135.481 108.973C135.481 116.201 143.881 122.061 154.243 122.061Z" fill="#E37A39"/>
<path d="M71.597 99.7617C83.8658 99.7617 93.8116 90.2677 93.8116 78.5563C93.8116 66.8448 83.8658 57.3508 71.597 57.3508C59.3282 57.3508 49.3824 66.8448 49.3824 78.5563C49.3824 90.2677 59.3282 99.7617 71.597 99.7617Z" fill="#E2E2E2"/>
<path d="M77.7906 95.8821C86.1667 95.8821 92.9569 89.4003 92.9569 81.4046C92.9569 73.4088 86.1667 66.927 77.7906 66.927C69.4145 66.927 62.6244 73.4088 62.6244 81.4046C62.6244 89.4003 69.4145 95.8821 77.7906 95.8821Z" fill="black"/>
<path d="M74.6294 72.3163C75.3242 70.2956 72.9689 67.649 69.3685 66.4049C65.7681 65.1608 62.2862 65.7904 61.5913 67.811C60.8964 69.8317 63.2517 72.4783 66.8521 73.7224C70.4525 74.9665 73.9345 74.3369 74.6294 72.3163Z" fill="white"/>
<path d="M140.732 101.509C153.001 101.509 162.947 92.1988 162.947 80.7143C162.947 69.2299 153.001 59.9199 140.732 59.9199C128.463 59.9199 118.518 69.2299 118.518 80.7143C118.518 92.1988 128.463 101.509 140.732 101.509Z" fill="#E2E2E2"/>
<path d="M133.684 95.9151C142.06 95.9151 148.85 89.5591 148.85 81.7186C148.85 73.8782 142.06 67.5222 133.684 67.5222C125.308 67.5222 118.518 73.8782 118.518 81.7186C118.518 89.5591 125.308 95.9151 133.684 95.9151Z" fill="black"/>
<path d="M145.459 77.2631C149.002 75.872 151.256 73.1617 150.493 71.2095C149.73 69.2572 146.24 68.8024 142.697 70.1935C139.154 71.5846 136.9 74.2949 137.663 76.2471C138.426 78.1993 141.916 78.6542 145.459 77.2631Z" fill="white"/>
<path d="M127.922 56.8099C124.038 55.2472 120.486 52.958 117.456 50.0646C115.929 48.6172 114.542 47.0287 113.313 45.3202C112.089 43.6021 111.032 41.7706 110.156 39.8506L109.835 39.1274L109.541 38.3907C109.334 37.9059 109.183 37.398 109.005 36.9016L108.748 36.1551C108.657 35.907 108.601 35.6491 108.526 35.3951L108.313 34.6331C108.247 34.3791 108.162 34.129 108.119 33.8692L107.796 32.3181C107.702 31.8004 107.634 31.2789 107.551 30.767L107.493 30.3792C107.475 30.2493 107.466 30.1175 107.452 29.9915L107.377 29.2043C107.355 28.9425 107.32 28.6827 107.313 28.419L107.282 27.6299C107.106 23.4342 107.748 19.2444 109.172 15.2948C108.206 19.3085 107.873 23.449 108.185 27.5659C108.346 29.6048 108.681 31.6261 109.187 33.6075C109.313 34.0999 109.466 34.5885 109.603 35.0791C109.678 35.3214 109.734 35.5715 109.823 35.81L110.081 36.5313C110.257 37.0102 110.406 37.5007 110.611 37.966L110.901 38.6718L111.214 39.3678C112.045 41.2291 113.045 43.01 114.201 44.6881C114.781 45.5257 115.386 46.3497 116.04 47.135C116.694 47.9202 117.369 48.6861 118.083 49.4209C120.967 52.3722 124.286 54.864 127.922 56.8099Z" fill="#29ABE2"/>
<path d="M113.427 49.6457C112.74 48.1334 112.336 46.5075 112.235 44.849C112.146 43.1762 112.31 41.4995 112.721 39.8758C113.158 38.2567 113.784 36.6949 114.585 35.2225L115.223 34.1464C115.428 33.7799 115.678 33.4445 115.916 33.1033L116.639 32.0815L117.413 31.1121C117.668 30.7824 117.956 30.4819 118.237 30.1736C118.517 29.8654 118.79 29.5532 119.092 29.2662L119.976 28.3899C120.281 28.1087 120.589 27.8295 120.9 27.5562C122.149 26.4669 123.464 25.4573 124.838 24.5335C127.576 22.6934 130.515 21.1725 133.597 20.0004C130.688 21.4918 127.898 23.203 125.248 25.119C123.939 26.0806 122.681 27.1103 121.479 28.2037C120.276 29.2852 119.152 30.4515 118.115 31.6937L117.341 32.6302L116.635 33.6132C116.138 34.253 115.759 34.9704 115.324 35.6432C114.524 37.0414 113.875 38.5214 113.39 40.058C112.931 41.6077 112.687 43.2132 112.664 44.8296C112.659 46.4656 112.916 48.0918 113.427 49.6457Z" fill="#29ABE2"/>
<path d="M146.026 23.3702L143.736 21.8191L145.658 19.5273C145.825 19.3283 145.933 19.0865 145.97 18.8292C146.008 18.5718 145.972 18.3092 145.868 18.071C145.764 17.8329 145.596 17.6286 145.382 17.4813C145.168 17.334 144.917 17.2496 144.658 17.2375L141.086 17.063L141.067 14.0617C141.065 13.8016 140.99 13.5472 140.852 13.3272C140.714 13.1073 140.516 12.9305 140.283 12.8169C140.05 12.7034 139.789 12.6575 139.531 12.6846C139.273 12.7117 139.028 12.8105 138.823 12.9701L137.082 14.3273L135.575 11.9018C135.438 11.6811 135.242 11.5033 135.009 11.3885C134.776 11.2737 134.516 11.2264 134.258 11.252C134 11.2776 133.754 11.3751 133.548 11.5334C133.343 11.6918 133.185 11.9046 133.094 12.148L131.703 15.8532L128.465 14.8217C128.218 14.743 127.954 14.7352 127.702 14.7992C127.451 14.8632 127.222 14.9964 127.042 15.1838C126.862 15.3711 126.738 15.6052 126.684 15.8595C126.63 16.1138 126.648 16.3783 126.736 16.6229L127.453 18.6141L125.237 19.1667C124.985 19.2294 124.756 19.3613 124.575 19.5477C124.395 19.734 124.269 19.9672 124.214 20.2211C124.158 20.4749 124.175 20.7393 124.261 20.9843C124.348 21.2294 124.501 21.4453 124.703 21.6078L127.566 23.8976L125.293 27.0754C125.143 27.2867 125.054 27.536 125.038 27.795C125.021 28.054 125.077 28.3126 125.199 28.5415C125.321 28.7704 125.504 28.9606 125.728 29.0908C125.952 29.2209 126.208 29.2857 126.467 29.2779L129.072 29.1946L128.925 31.2633C128.907 31.5228 128.962 31.7822 129.083 32.0122C129.204 32.2422 129.387 32.4337 129.61 32.565C129.834 32.6964 130.091 32.7622 130.35 32.7553C130.609 32.7483 130.862 32.6687 131.078 32.5255L133.674 30.8116L135.931 33.8847C136.086 34.0916 136.295 34.2514 136.535 34.3462C136.775 34.4409 137.036 34.4669 137.29 34.4213C137.544 34.3756 137.78 34.2601 137.972 34.0876C138.164 33.9151 138.305 33.6925 138.378 33.4446L139.219 30.5363L141.54 31.4805C141.781 31.578 142.044 31.6062 142.299 31.5619C142.555 31.5175 142.793 31.4024 142.987 31.2296C143.18 31.0568 143.322 30.8331 143.396 30.5838C143.469 30.3345 143.472 30.0696 143.403 29.8189L142.593 26.8679L145.674 25.8422C145.92 25.7608 146.138 25.6122 146.304 25.4132C146.47 25.2141 146.578 24.9725 146.614 24.7156C146.651 24.4587 146.615 24.1966 146.511 23.9589C146.407 23.7212 146.239 23.5173 146.026 23.3702Z" fill="#F4BE38"/>
<path opacity="0.47" d="M121.669 15.9598L118.649 13.9085L121.181 10.8916C121.401 10.6297 121.543 10.3113 121.592 9.97257C121.641 9.63381 121.594 9.28815 121.457 8.97467C121.32 8.66119 121.098 8.3924 120.816 8.19869C120.535 8.00499 120.205 7.8941 119.864 7.87857L115.168 7.66336L115.142 3.71388C115.14 3.37153 115.042 3.03667 114.86 2.74711C114.678 2.45754 114.419 2.22481 114.111 2.07518C113.804 1.92556 113.461 1.865 113.122 1.90035C112.782 1.9357 112.459 2.06555 112.189 2.27523L109.899 4.059L107.916 0.865672C107.736 0.574835 107.478 0.340437 107.171 0.189017C106.865 0.0375971 106.522 -0.0247963 106.182 0.00890143C105.842 0.0425992 105.518 0.171042 105.248 0.379687C104.977 0.588332 104.769 0.868844 104.649 1.18946L102.821 6.06767L98.5662 4.71046C98.2407 4.60719 97.8929 4.59717 97.562 4.68151C97.2311 4.76585 96.9304 4.9412 96.6936 5.18778C96.4569 5.43435 96.2936 5.74234 96.2222 6.07699C96.1508 6.41164 96.1742 6.75963 96.2896 7.0817L97.2219 9.6953L94.3031 10.4224C93.9716 10.5048 93.6696 10.6785 93.4315 10.924C93.1934 11.1695 93.0286 11.4769 92.9557 11.8114C92.8828 12.146 92.9048 12.4942 93.0192 12.8169C93.1336 13.1395 93.3358 13.4236 93.6029 13.637L97.3727 16.6481L94.3824 20.8302C94.1815 21.1085 94.0626 21.4378 94.0393 21.7805C94.0159 22.1232 94.089 22.4656 94.2503 22.7687C94.4115 23.0718 94.6545 23.3234 94.9514 23.4949C95.2483 23.6663 95.5873 23.7508 95.9298 23.7386L99.3592 23.628L99.1658 26.3541C99.1413 26.6957 99.2128 27.0373 99.372 27.3403C99.5313 27.6433 99.772 27.8956 100.067 28.0685C100.362 28.2414 100.699 28.3281 101.041 28.3188C101.382 28.3095 101.714 28.2045 101.999 28.0157L105.415 25.7569L108.386 29.8034C108.589 30.0793 108.865 30.2927 109.182 30.4196C109.5 30.5464 109.846 30.5815 110.183 30.521C110.519 30.4604 110.832 30.3066 111.086 30.077C111.34 29.8473 111.524 29.551 111.618 29.2217L112.719 25.4002L115.775 26.643C116.091 26.7719 116.438 26.8094 116.774 26.7513C117.111 26.6931 117.425 26.5417 117.68 26.3141C117.935 26.0865 118.122 25.7918 118.218 25.4634C118.315 25.135 118.318 24.786 118.228 24.4559L117.16 20.5782L121.222 19.221C121.546 19.113 121.834 18.9161 122.052 18.6525C122.271 18.3889 122.411 18.0693 122.458 17.7298C122.504 17.3903 122.455 17.0446 122.316 16.7317C122.176 16.4189 121.952 16.1515 121.669 15.9598Z" fill="#F4BE38"/>
<path opacity="0.47" d="M149.908 23.9091L146.889 21.8578L149.421 18.8409C149.64 18.579 149.783 18.2607 149.831 17.9219C149.88 17.5832 149.833 17.2375 149.696 16.924C149.559 16.6105 149.337 16.3417 149.056 16.148C148.774 15.9543 148.444 15.8434 148.103 15.8279L143.407 15.6127L143.382 11.6632C143.38 11.3209 143.282 10.986 143.1 10.6964C142.917 10.4069 142.658 10.1741 142.351 10.0245C142.044 9.8749 141.701 9.81434 141.361 9.84969C141.021 9.88504 140.698 10.0149 140.428 10.2246L138.138 12.0083L136.156 8.81501C135.975 8.52418 135.717 8.28978 135.411 8.13836C135.104 7.98694 134.762 7.92454 134.422 7.95824C134.082 7.99194 133.758 8.12038 133.487 8.32903C133.216 8.53767 133.009 8.81819 132.889 9.1388L131.061 14.017L126.806 12.6598C126.48 12.5565 126.132 12.5465 125.801 12.6308C125.471 12.7152 125.17 12.8905 124.933 13.1371C124.696 13.3837 124.533 13.6917 124.462 14.0263C124.39 14.361 124.414 14.709 124.529 15.031L125.461 17.6446L122.543 18.3717C122.211 18.4541 121.909 18.6279 121.671 18.8734C121.433 19.1188 121.268 19.4262 121.195 19.7608C121.122 20.0953 121.144 20.4436 121.259 20.7662C121.373 21.0889 121.575 21.373 121.842 21.5864L125.612 24.5974L122.622 28.7796C122.421 29.0579 122.302 29.3871 122.279 29.7298C122.255 30.0725 122.329 30.4149 122.49 30.718C122.651 31.0211 122.894 31.2727 123.191 31.4442C123.488 31.6157 123.827 31.7001 124.169 31.6879L127.599 31.5774L127.405 34.3034C127.381 34.645 127.452 34.9867 127.612 35.2897C127.771 35.5927 128.012 35.8449 128.306 36.0178C128.601 36.1908 128.939 36.2775 129.28 36.2681C129.622 36.2588 129.954 36.1538 130.239 35.9651L133.655 33.7063L136.626 37.7527C136.828 38.0286 137.104 38.2421 137.422 38.3689C137.739 38.4957 138.086 38.5309 138.422 38.4703C138.759 38.4098 139.072 38.256 139.325 38.0263C139.579 37.7967 139.763 37.5004 139.858 37.171L140.958 33.3495L144.014 34.5923C144.331 34.7212 144.677 34.7587 145.014 34.7006C145.35 34.6425 145.664 34.491 145.919 34.2634C146.175 34.0358 146.361 33.7412 146.458 33.4128C146.555 33.0844 146.558 32.7354 146.467 32.4053L145.399 28.5275L149.461 27.1703C149.786 27.0623 150.073 26.8654 150.292 26.6018C150.51 26.3383 150.651 26.0186 150.697 25.6792C150.744 25.3397 150.695 24.9939 150.555 24.6811C150.416 24.3682 150.191 24.1008 149.908 23.9091Z" fill="#F4BE38"/>
<path d="M117.98 15.8087L115.69 14.2576L117.612 11.9658C117.779 11.7668 117.888 11.525 117.925 11.2676C117.962 11.0103 117.926 10.7477 117.822 10.5095C117.718 10.2713 117.55 10.0671 117.336 9.91976C117.122 9.77247 116.872 9.68804 116.612 9.67601L113.04 9.50151L113.021 6.50013C113.019 6.24006 112.945 5.98566 112.806 5.76569C112.668 5.54573 112.471 5.36898 112.237 5.25542C112.004 5.14185 111.743 5.09601 111.485 5.12307C111.227 5.15013 110.982 5.24902 110.777 5.40855L109.036 6.76576L107.529 4.34023C107.392 4.11957 107.196 3.94179 106.963 3.82697C106.731 3.71215 106.47 3.66488 106.212 3.6905C105.954 3.71611 105.708 3.81359 105.502 3.97192C105.297 4.13025 105.139 4.34312 105.048 4.58647L103.657 8.29165L100.419 7.26017C100.172 7.18148 99.9076 7.17369 99.6562 7.23767C99.4047 7.30165 99.1762 7.43486 98.9963 7.62223C98.8164 7.8096 98.6924 8.04368 98.6383 8.29799C98.5841 8.55231 98.602 8.81674 98.69 9.06138L99.4076 11.0526L97.1909 11.6052C96.9393 11.6679 96.7102 11.7998 96.5294 11.9861C96.3487 12.1724 96.2235 12.4057 96.1679 12.6596C96.1124 12.9134 96.1288 13.1778 96.2152 13.4228C96.3017 13.6678 96.4547 13.8838 96.6571 14.0462L99.5198 16.336L97.247 19.5138C97.0967 19.7252 97.0083 19.9744 96.9917 20.2335C96.9751 20.4925 97.0309 20.751 97.1529 20.98C97.275 21.2089 97.4583 21.3991 97.6824 21.5292C97.9064 21.6593 98.1623 21.7242 98.4211 21.7164L101.027 21.633L100.88 23.7018C100.861 23.9613 100.916 24.2206 101.037 24.4507C101.158 24.6807 101.341 24.8722 101.565 25.0035C101.789 25.1348 102.045 25.2007 102.304 25.1937C102.563 25.1868 102.816 25.1072 103.032 24.964L105.628 23.2501L107.885 26.3232C108.04 26.5301 108.249 26.6899 108.489 26.7846C108.729 26.8794 108.99 26.9054 109.244 26.8597C109.498 26.8141 109.734 26.6985 109.926 26.5261C110.118 26.3536 110.259 26.131 110.332 25.883L111.173 22.9747L113.495 23.919C113.735 24.0165 113.998 24.0447 114.253 24.0003C114.509 23.956 114.747 23.8409 114.941 23.6681C115.134 23.4953 115.276 23.2716 115.35 23.0223C115.423 22.773 115.426 22.508 115.357 22.2574L114.547 19.3064L117.628 18.2807C117.874 18.1993 118.092 18.0507 118.258 17.8516C118.424 17.6526 118.532 17.411 118.568 17.1541C118.605 16.8971 118.569 16.6351 118.465 16.3974C118.361 16.1597 118.193 15.9558 117.98 15.8087Z" fill="#F4BE38"/>
<path d="M96.4055 35.5308C97.1095 33.3398 96.9026 29.7142 91.773 23.6823C91.5789 23.4527 91.4403 23.1813 91.3679 22.8892C91.2956 22.5971 91.2914 22.2922 91.3558 21.9982C91.4202 21.7042 91.5513 21.4291 91.7391 21.1942C91.9269 20.9594 92.1662 20.7711 92.4384 20.6441C92.7217 20.5125 93.0324 20.4509 93.3444 20.4645C93.6564 20.4781 93.9606 20.5664 94.2315 20.7221C94.5024 20.8778 94.7321 21.0964 94.9013 21.3594C95.0706 21.6225 95.1745 21.9224 95.2043 22.234C95.978 29.879 98.7033 33.5977 101.156 35.5889C114.115 46.1112 143.873 28.5024 163.496 36.7523C165.283 37.5045 170.297 39.614 170.353 42.5922C170.411 45.7971 164.695 48.2517 163.745 48.6608C150.086 54.5298 133.744 44.0967 132.699 46.0938C131.655 48.0908 148.405 56.6083 146.96 61.3507C146.057 64.3172 138.113 65.5639 131.293 63.9353C117.753 60.7012 111.817 46.9042 107.924 48.7636C105.755 49.797 107.649 54.0528 104.999 61.2286C104.545 62.4598 100.423 73.6141 93.9587 73.5909C89.067 73.5753 84.0458 67.1596 84.0148 61.3643C83.9703 53.3606 93.4519 48.4379 92.1173 46.3846C91.1289 44.8645 84.8465 45.8941 80.0033 49.607C72.7054 55.2026 74.5874 62.3551 68.9298 64.7496C63.4018 67.0762 56.1794 62.5645 52.7636 59.3905C50.2491 57.0639 47.2298 54.2487 47.7133 51.5885C49.4193 42.2024 92.3919 48.0481 96.4055 35.5308Z" fill="#C4D650"/>
</g>
<defs>
<filter id="filter0_d_254_4461" x="1.20605" y="0" width="196.688" height="192" filterUnits="userSpaceOnUse" color-interpolation-filters="sRGB">
<feFlood flood-opacity="0" result="BackgroundImageFix"/>
<feColorMatrix in="SourceAlpha" type="matrix" values="0 0 0 0 0 0 0 0 0 0 0 0 0 0 0 0 0 0 127 0" result="hardAlpha"/>
<feOffset dy="4"/>
<feGaussianBlur stdDeviation="2"/>
<feComposite in2="hardAlpha" operator="out"/>
<feColorMatrix type="matrix" values="0 0 0 0 0 0 0 0 0 0 0 0 0 0 0 0 0 0 0.25 0"/>
<feBlend mode="normal" in2="BackgroundImageFix" result="effect1_dropShadow_254_4461"/>
<feBlend mode="normal" in="SourceGraphic" in2="effect1_dropShadow_254_4461" result="shape"/>
</filter>
</defs>
</svg>
