<svg width="136" height="132" viewBox="0 0 136 132" fill="none" xmlns="http://www.w3.org/2000/svg">
<g filter="url(#filter0_d_245_72)">
<path d="M66.4331 91.2242C65.2458 93.9878 63.0136 96.168 60.2245 97.2882L60.1525 97.3164C54.6086 99.5293 49.3175 97.8606 47.7924 97.3204L15.4807 84.6903C7.10426 81.4162 2.81482 72.3452 5.89861 64.4309C8.9824 56.5166 18.2718 52.7539 26.6482 56.028C26.7747 56.1177 34.346 60.3565 60.3967 74.8872C66.3889 78.2299 68.9881 85.2619 66.4331 91.2242Z" fill="#459696"/>
<path d="M90.8281 51.4132C93.4029 49.8622 96.4854 49.396 99.4022 50.1162L99.4772 50.1344C105.266 51.5818 108.587 56.0276 109.504 57.3583L128.365 86.5053C133.253 94.0625 131.446 103.939 124.329 108.565C117.213 113.191 107.479 110.815 102.593 103.258C102.542 103.111 98.8691 95.2414 86.2027 68.2096C83.2864 61.9935 85.2789 54.7631 90.8281 51.4132Z" fill="#459696"/>
<path d="M66.5095 122.49H54.1614C50.571 122.49 47.5629 120.555 47.2045 118.012L45.7813 107.955C45.3337 104.784 49.1284 102.136 53.574 102.517L67.3427 103.698C70.8554 103.998 73.4987 106.12 73.4987 108.638V117.514C73.5013 120.262 70.3702 122.49 66.5095 122.49Z" fill="#459696"/>
<path d="M80.1124 123.079H91.2315C94.466 123.079 97.1726 121.142 97.4961 118.6L98.7757 108.544C99.1793 105.373 95.7611 102.723 91.758 103.105L79.3581 104.285C76.196 104.586 73.8154 106.706 73.8154 109.225V118.101C73.8154 120.849 76.6411 123.079 80.1124 123.079Z" fill="#459696"/>
<path d="M115.197 78.0157C115.098 77.4386 114.855 76.0055 114.032 75.8109C113.979 75.7982 113.925 75.7912 113.871 75.7902C113.824 75.7875 113.78 75.7667 113.748 75.732C113.716 75.6974 113.699 75.6518 113.7 75.6047C113.697 72.5342 113.406 69.4708 112.83 66.4549C112.824 66.4204 112.827 66.3847 112.84 66.3519C112.853 66.3192 112.875 66.2909 112.903 66.2703C112.931 66.2497 112.965 66.2377 113 66.2357C113.035 66.2337 113.07 66.2418 113.101 66.2591C113.692 66.5833 114.2 66.7078 114.291 66.6028C114.508 66.3434 112.609 64.3863 112.264 63.7845C112.255 63.7696 112.249 63.7534 112.245 63.7366L112.218 63.625C112.348 63.5031 113.383 64.6496 113.771 64.4032C114.079 64.2048 113.869 63.1763 113.383 62.4578C113.334 62.3852 112.533 61.2283 111.83 61.4203C111.806 61.4278 111.781 61.4304 111.756 61.4279C111.731 61.4254 111.706 61.4179 111.684 61.4058C111.662 61.3937 111.643 61.3772 111.627 61.3574C111.612 61.3376 111.6 61.3149 111.593 61.2906C110.938 59.0178 110.127 56.7931 109.166 54.6322C104.054 43.2659 91.4203 27.3968 73.2409 26.4435C73.2097 26.4419 73.1795 26.4323 73.153 26.4157C73.1265 26.3992 73.1046 26.3762 73.0894 26.3489C73.0741 26.3216 73.066 26.2908 73.0658 26.2595C73.0656 26.2282 73.0734 26.1974 73.0882 26.1699C73.7727 24.9378 74.3096 23.6785 73.8775 23.3102C73.4065 22.9055 71.8669 23.6461 71.207 24.6162C71.0751 24.8099 70.9661 25.0184 70.8823 25.2374C70.7732 25.553 70.7271 25.887 70.7464 26.2205C70.7473 26.2452 70.7433 26.2699 70.7345 26.293C70.7258 26.3162 70.7125 26.3374 70.6956 26.3554C70.6786 26.3733 70.6582 26.3878 70.6356 26.3978C70.6131 26.4078 70.5887 26.4132 70.564 26.4137L70.2419 26.4228C70.2137 26.4238 70.1856 26.4183 70.1599 26.4069C70.1341 26.3954 70.1113 26.3782 70.0931 26.3566C69.6622 25.8314 69.1305 25.1194 68.7695 25.2283C68.5198 25.3035 68.3736 25.7691 68.3619 26.3852C68.3612 26.4302 68.3439 26.4734 68.3133 26.5064C68.2827 26.5394 68.2411 26.56 68.1963 26.5642C45.3308 28.8623 34.9001 54.1627 33.8003 56.9511C33.6282 57.3907 33.3591 58.0703 33.0447 58.9587C32.3311 61.0053 31.7481 63.0955 31.2994 65.2164C31.2936 65.2436 31.2818 65.2692 31.2648 65.2912C31.2478 65.3133 31.226 65.3312 31.2011 65.3437C31.1763 65.3561 31.1489 65.3628 31.1212 65.3632C31.0934 65.3636 31.0658 65.3578 31.0406 65.346C30.8107 65.2502 30.567 65.192 30.3187 65.1736C28.836 65.0633 27.5628 66.4264 27.731 66.8596C27.8397 67.1371 28.5073 66.9594 29.2357 66.9361C29.2779 66.9348 29.3193 66.948 29.353 66.9735C29.3866 66.999 29.4106 67.0353 29.4209 67.0763C29.4311 67.1173 29.4271 67.1607 29.4094 67.1991C29.3918 67.2375 29.3615 67.2687 29.3237 67.2875C28.7027 67.5949 28.224 68.0359 28.2434 68.3795C28.2744 68.9554 29.7222 69.2874 30.4079 69.6765C30.4403 69.6945 30.4665 69.7218 30.4833 69.7548C30.5002 69.7878 30.5068 69.8251 30.5024 69.8619C30.4869 69.9812 30.4726 70.1019 30.4571 70.2225C30.4532 70.2569 30.4398 70.2895 30.4182 70.3165C30.3967 70.3436 30.3681 70.364 30.3355 70.3755C30.0172 70.4845 29.589 70.618 29.3004 71.0136C28.6755 71.8605 29.0197 73.4479 29.5695 73.5932C29.6788 73.6157 29.7925 73.5972 29.8891 73.5413C29.918 73.5265 29.9502 73.5196 29.9826 73.5212C30.015 73.5228 30.0464 73.5329 30.0736 73.5505C30.1009 73.5681 30.123 73.5926 30.1379 73.6214C30.1527 73.6503 30.1598 73.6826 30.1582 73.7151C29.8619 79.3788 30.4726 85.9775 33.2543 92.4375C33.266 92.4628 33.2719 92.4903 33.2715 92.5182C33.271 92.5461 33.2644 92.5735 33.2519 92.5984C33.2395 92.6233 33.2216 92.6451 33.1997 92.6622C33.1777 92.6792 33.1521 92.6911 33.1249 92.6969C31.8492 92.9394 30.7819 93.2986 30.7961 93.4296C30.8155 93.5878 32.4703 93.5178 33.6671 93.584C33.6998 93.5858 33.7314 93.5966 33.7585 93.6151C33.7857 93.6336 33.8072 93.6592 33.821 93.689C33.9073 93.868 33.9935 94.047 34.0798 94.2259C34.101 94.2678 34.1055 94.3163 34.0923 94.3614C34.079 94.4065 34.0491 94.4448 34.0086 94.4685C33.5726 94.7175 33.0874 95.0793 32.8351 95.6837C32.7523 95.8808 32.6061 96.2297 32.7381 96.5604C33.024 97.2763 34.4873 97.6096 35.5185 97.144C35.5593 97.1258 35.6053 97.1232 35.648 97.1365C35.6906 97.1499 35.7269 97.1784 35.7501 97.2166C35.8135 97.3217 35.8795 97.4254 35.9442 97.5305L35.9804 97.585C35.9998 97.6151 36.0101 97.6502 36.0101 97.6861C36.0101 97.722 35.9998 97.7571 35.9804 97.7873C35.3762 98.7353 35.2753 99.9259 35.4978 100.071C35.6983 100.201 36.1693 99.4863 36.8071 99.1101C36.8471 99.0869 36.8942 99.0793 36.9394 99.0889C36.9846 99.0985 37.0246 99.1245 37.0517 99.162C38.6343 101.365 40.468 103.375 42.5154 105.153C42.5394 105.173 42.5577 105.199 42.5686 105.228C42.5796 105.258 42.5828 105.289 42.578 105.32C42.5732 105.351 42.5605 105.381 42.5412 105.405C42.5218 105.43 42.4965 105.449 42.4676 105.461C42.0776 105.618 41.7514 105.902 41.5412 106.267C41.2682 106.754 41.1531 107.527 41.4571 107.744C41.9746 108.103 43.2128 106.615 43.7407 106.95C44.3578 107.339 43.2115 109.718 43.5738 109.903C43.8507 110.046 45.182 108.995 45.3579 107.706C45.3617 107.675 45.3735 107.645 45.3922 107.619C45.411 107.593 45.436 107.573 45.4649 107.56C45.4939 107.547 45.5257 107.541 45.5572 107.544C45.5888 107.547 45.6191 107.558 45.6452 107.576C58.265 116.322 73.73 115.514 74.6059 115.454C76.9981 115.291 90.0372 114.183 100.653 104.894C100.676 104.874 100.704 104.859 100.734 104.852C100.764 104.845 100.796 104.846 100.825 104.854C100.855 104.863 100.882 104.879 100.904 104.901C100.926 104.923 100.942 104.95 100.951 104.98C100.989 105.12 101.038 105.257 101.097 105.39C101.174 105.564 101.507 106.298 101.986 106.305C102.432 106.305 102.902 105.675 102.93 105.127C102.938 104.968 102.903 104.95 102.784 104.089C102.72 103.629 102.723 103.581 102.757 103.53C103.03 103.111 104.439 103.857 104.679 103.509C104.787 103.354 104.581 103.083 103.803 102.014C103.779 101.98 103.767 101.938 103.769 101.896C103.771 101.853 103.788 101.813 103.816 101.782C105.132 100.33 106.333 98.7777 107.411 97.1401C107.418 97.1297 107.423 97.1194 107.43 97.1103C107.528 97.869 107.66 98.4072 107.751 98.4072C107.898 98.4072 108.032 97.0182 108.224 95.8769C108.228 95.8541 108.236 95.8321 108.248 95.8121C108.415 95.5345 108.577 95.2566 108.734 94.9781C108.751 94.9472 108.777 94.9218 108.808 94.9052C108.84 94.8885 108.875 94.8813 108.91 94.8843C108.945 94.8873 108.979 94.9005 109.007 94.9222C109.035 94.9439 109.056 94.9732 109.068 95.0067C109.253 95.5254 109.536 96.2569 110.247 96.6719C110.43 96.7796 110.756 96.9689 111.1 96.8807C111.896 96.6784 112.436 95.0884 111.966 93.9834C111.663 93.2727 111.007 92.9121 110.203 92.5568C110.18 92.5468 110.16 92.5325 110.143 92.5146C110.126 92.4967 110.113 92.4756 110.104 92.4525C110.095 92.4295 110.091 92.4049 110.092 92.3803C110.093 92.3556 110.099 92.3314 110.109 92.3091C111.616 89.0624 112.657 85.6188 113.203 82.0802C113.206 82.0456 113.219 82.0125 113.24 81.9849C113.262 81.9573 113.29 81.9363 113.323 81.9244C113.355 81.9124 113.391 81.91 113.425 81.9174C113.459 81.9248 113.49 81.9417 113.515 81.9661C113.815 82.2865 114.065 82.4615 114.162 82.4213C114.335 82.3474 114.032 81.5887 113.961 79.2374C113.92 78.004 113.991 77.8873 114.032 77.8821C114.239 77.8523 114.586 80.4954 114.938 80.476C115.18 80.4656 115.404 79.2153 115.197 78.0157Z" fill="#4EADAF"/>
<path d="M39.1232 81.1283C46.0544 81.1283 51.6732 77.2089 51.6732 72.3741C51.6732 67.5393 46.0544 63.6199 39.1232 63.6199C32.1921 63.6199 26.5732 67.5393 26.5732 72.3741C26.5732 77.2089 32.1921 81.1283 39.1232 81.1283Z" fill="#E37A39"/>
<path d="M104.59 81.6471C111.521 81.6471 117.14 77.7277 117.14 72.8929C117.14 68.0581 111.521 64.1387 104.59 64.1387C97.6591 64.1387 92.0403 68.0581 92.0403 72.8929C92.0403 77.7277 97.6591 81.6471 104.59 81.6471Z" fill="#E37A39"/>
<path d="M49.3082 66.7312C57.5148 66.7312 64.1676 60.3806 64.1676 52.5468C64.1676 44.7129 57.5148 38.3623 49.3082 38.3623C41.1015 38.3623 34.4487 44.7129 34.4487 52.5468C34.4487 60.3806 41.1015 66.7312 49.3082 66.7312Z" fill="#E2E2E2"/>
<path d="M53.4509 64.1361C59.0538 64.1361 63.5957 59.8003 63.5957 54.452C63.5957 49.1036 59.0538 44.7678 53.4509 44.7678C47.8481 44.7678 43.3062 49.1036 43.3062 54.452C43.3062 59.8003 47.8481 64.1361 53.4509 64.1361Z" fill="black"/>
<path d="M51.3366 48.3727C51.8014 47.021 50.2258 45.2507 47.8175 44.4185C45.4092 43.5864 43.0801 44.0074 42.6153 45.3591C42.1505 46.7107 43.726 48.481 46.1343 49.3132C48.5426 50.1454 50.8717 49.7243 51.3366 48.3727Z" fill="white"/>
<path d="M95.553 67.8996C103.76 67.8996 110.412 61.6721 110.412 53.9901C110.412 46.3081 103.76 40.0806 95.553 40.0806C87.3464 40.0806 80.6936 46.3081 80.6936 53.9901C80.6936 61.6721 87.3464 67.8996 95.553 67.8996Z" fill="#E2E2E2"/>
<path d="M90.8384 64.1582C96.4412 64.1582 100.983 59.9066 100.983 54.6621C100.983 49.4176 96.4412 45.166 90.8384 45.166C85.2356 45.166 80.6936 49.4176 80.6936 54.6621C80.6936 59.9066 85.2356 64.1582 90.8384 64.1582Z" fill="black"/>
<path d="M98.7151 51.6818C101.085 50.7513 102.593 48.9383 102.082 47.6325C101.572 46.3266 99.2372 46.0223 96.8673 46.9528C94.4974 47.8834 92.9898 49.6963 93.5001 51.0022C94.0104 52.308 96.3452 52.6123 98.7151 51.6818Z" fill="white"/>
<path d="M86.9841 38.0004C84.3862 36.9551 82.0103 35.4239 79.9833 33.4884C78.962 32.5203 78.0341 31.4577 77.2119 30.3149C76.3933 29.1656 75.6863 27.9405 75.1005 26.6562L74.8857 26.1725L74.689 25.6797C74.5506 25.3554 74.4497 25.0156 74.3306 24.6836L74.1586 24.1843C74.0977 24.0183 74.0602 23.8458 74.0098 23.6759L73.8674 23.1662C73.8235 22.9963 73.7665 22.829 73.7381 22.6552L73.522 21.6177C73.4586 21.2714 73.4133 20.9225 73.3577 20.5802L73.3189 20.3208C73.3072 20.2339 73.3008 20.1457 73.2917 20.0614L73.2412 19.5348C73.227 19.3598 73.2037 19.186 73.1985 19.0096L73.1778 18.4817C73.0606 15.6752 73.4899 12.8726 74.4419 10.2307C73.7959 12.9155 73.5733 15.6851 73.7821 18.4389C73.8894 19.8028 74.1137 21.1548 74.4522 22.4802C74.5363 22.8096 74.6386 23.1364 74.7304 23.4645C74.7809 23.6266 74.8184 23.7939 74.8779 23.9535L75.05 24.4359C75.1677 24.7563 75.2673 25.0844 75.4045 25.3956L75.5986 25.8677L75.8082 26.3333C76.364 27.5783 77.0327 28.7696 77.8058 29.8921C78.194 30.4523 78.5989 31.0035 79.0362 31.5288C79.4735 32.054 79.9251 32.5663 80.4025 33.0579C82.3323 35.032 84.5518 36.6988 86.9841 38.0004Z" fill="#29ABE2"/>
<path d="M77.2881 33.2084C76.8288 32.1968 76.5586 31.1092 76.4911 29.9998C76.4315 28.8808 76.541 27.7593 76.8159 26.6732C77.1084 25.5902 77.527 24.5455 78.0631 23.5606L78.4901 22.8408C78.6272 22.5957 78.7941 22.3713 78.9533 22.143L79.4371 21.4595L79.9547 20.8111C80.1255 20.5906 80.3182 20.3896 80.5058 20.1834C80.6934 19.9772 80.8759 19.7684 81.0777 19.5764L81.669 18.9902C81.8734 18.8022 82.0791 18.6154 82.2874 18.4325C83.1224 17.7039 84.0022 17.0286 84.9216 16.4106C86.753 15.1798 88.7185 14.1625 90.78 13.3784C88.8347 14.3761 86.9679 15.5207 85.1959 16.8023C84.32 17.4455 83.4783 18.1343 82.6743 18.8657C81.8697 19.5891 81.1178 20.3692 80.4243 21.2002L79.9068 21.8266L79.4346 22.4841C79.1021 22.9121 78.8485 23.392 78.5574 23.842C78.0222 24.7773 77.5884 25.7673 77.2635 26.7951C76.9566 27.8317 76.7933 28.9056 76.7784 29.9868C76.7745 31.0812 76.9466 32.169 77.2881 33.2084Z" fill="#29ABE2"/>
<path d="M99.0942 15.6324L97.5623 14.5949L98.8484 13.0619C98.96 12.9288 99.0324 12.767 99.0571 12.5949C99.0819 12.4228 99.0582 12.2471 98.9886 12.0878C98.919 11.9285 98.8064 11.7918 98.6634 11.6933C98.5204 11.5948 98.3528 11.5383 98.1795 11.5303L95.7898 11.4135L95.7769 9.40589C95.7757 9.23192 95.726 9.06175 95.6334 8.91462C95.5408 8.76748 95.4089 8.64925 95.2528 8.57329C95.0967 8.49733 94.9224 8.46667 94.7498 8.48477C94.5772 8.50287 94.4131 8.56901 94.276 8.67572L93.1116 9.58357L92.1037 7.96112C92.0119 7.81352 91.8808 7.6946 91.7251 7.6178C91.5694 7.54099 91.3954 7.50937 91.2227 7.52651C91.05 7.54364 90.8856 7.60885 90.7479 7.71475C90.6103 7.82066 90.5049 7.96305 90.4438 8.12583L89.5135 10.6042L87.3477 9.91428C87.1823 9.86165 87.0055 9.85644 86.8373 9.89924C86.6691 9.94203 86.5162 10.0311 86.3959 10.1565C86.2756 10.2818 86.1926 10.4384 86.1564 10.6085C86.1202 10.7786 86.1322 10.9555 86.191 11.1191L86.671 12.4511L85.1883 12.8207C85.02 12.8626 84.8667 12.9509 84.7458 13.0755C84.6249 13.2001 84.5411 13.3562 84.504 13.526C84.4669 13.6958 84.4778 13.8726 84.5356 14.0365C84.5935 14.2004 84.6958 14.3449 84.8312 14.4535L86.746 15.9852L85.2258 18.1108C85.1253 18.2522 85.0661 18.4189 85.055 18.5922C85.0439 18.7655 85.0812 18.9384 85.1629 19.0915C85.2445 19.2447 85.3671 19.3719 85.517 19.4589C85.6669 19.546 85.838 19.5893 86.0112 19.5841L87.7539 19.5284L87.6556 20.9122C87.6433 21.0857 87.6798 21.2592 87.7608 21.4131C87.8417 21.567 87.964 21.6951 88.1139 21.7829C88.2637 21.8708 88.435 21.9148 88.6085 21.9102C88.782 21.9055 88.9507 21.8523 89.0956 21.7565L90.8319 20.61L92.3418 22.6656C92.4452 22.8041 92.585 22.9109 92.7455 22.9743C92.906 23.0377 93.0809 23.0551 93.2507 23.0245C93.4205 22.994 93.5785 22.9167 93.707 22.8014C93.8355 22.686 93.9295 22.5371 93.9785 22.3712L94.5413 20.4258L96.0938 21.0574C96.2547 21.1227 96.4305 21.1415 96.6014 21.1119C96.7723 21.0822 96.9316 21.0052 97.0612 20.8896C97.1908 20.774 97.2856 20.6244 97.3348 20.4576C97.384 20.2909 97.3857 20.1137 97.3398 19.946L96.7977 17.9721L98.8587 17.286C99.0232 17.2315 99.1692 17.1321 99.2803 16.999C99.3914 16.8658 99.4633 16.7042 99.4878 16.5324C99.5122 16.3605 99.4884 16.1852 99.4188 16.0262C99.3493 15.8672 99.2369 15.7308 99.0942 15.6324Z" fill="#F4BE38"/>
<path opacity="0.47" d="M82.8012 10.6756L80.7816 9.30346L82.4752 7.28544C82.6222 7.11025 82.7174 6.89731 82.75 6.67071C82.7826 6.44411 82.7513 6.2129 82.6596 6.00321C82.5679 5.79352 82.4196 5.61372 82.2313 5.48415C82.043 5.35458 81.8223 5.28041 81.5941 5.27002L78.4527 5.12607L78.4359 2.48423C78.4343 2.25524 78.3689 2.03125 78.247 1.83756C78.1251 1.64387 77.9517 1.48819 77.7462 1.3881C77.5407 1.28802 77.3114 1.24751 77.0842 1.27115C76.857 1.2948 76.6408 1.38166 76.4603 1.52192L74.9284 2.71509L73.6022 0.579053C73.4816 0.38451 73.309 0.22772 73.104 0.126435C72.899 0.0251489 72.6698 -0.0165864 72.4424 0.00595422C72.215 0.0284948 71.9984 0.114411 71.8172 0.253975C71.6359 0.393538 71.4973 0.581175 71.417 0.795639L70.1943 4.0587L67.3479 3.15085C67.1302 3.08178 66.8976 3.07507 66.6763 3.13149C66.4549 3.1879 66.2538 3.3052 66.0954 3.47013C65.9371 3.63507 65.8278 3.84108 65.7801 4.06493C65.7323 4.28878 65.7479 4.52155 65.8251 4.73699L66.4487 6.48524L64.4964 6.97159C64.2746 7.02669 64.0726 7.14293 63.9133 7.30713C63.7541 7.47134 63.6438 7.67696 63.5951 7.90073C63.5463 8.1245 63.561 8.35747 63.6376 8.57329C63.7141 8.7891 63.8493 8.97914 64.028 9.12189L66.5497 11.136L64.5494 13.9335C64.415 14.1196 64.3355 14.3398 64.3199 14.5691C64.3042 14.7983 64.3531 15.0274 64.461 15.2301C64.5689 15.4328 64.7314 15.6011 64.93 15.7158C65.1286 15.8305 65.3554 15.887 65.5845 15.8789L67.8784 15.8049L67.749 17.6284C67.7327 17.8569 67.7805 18.0854 67.887 18.2881C67.9935 18.4908 68.1546 18.6595 68.3518 18.7752C68.5491 18.8908 68.7747 18.9488 69.0032 18.9426C69.2316 18.9364 69.4538 18.8661 69.6445 18.7399L71.9293 17.229L73.9166 19.9356C74.0522 20.1202 74.2367 20.263 74.4491 20.3478C74.6615 20.4327 74.8934 20.4562 75.1184 20.4157C75.3435 20.3752 75.5527 20.2723 75.7224 20.1187C75.8921 19.965 76.0155 19.7669 76.0786 19.5466L76.8148 16.9903L78.859 17.8216C79.0707 17.9079 79.3022 17.9329 79.5274 17.8941C79.7526 17.8552 79.9624 17.7539 80.1332 17.6017C80.3039 17.4494 80.4287 17.2523 80.4934 17.0326C80.5582 16.813 80.5603 16.5795 80.4995 16.3587L79.7854 13.7649L82.5024 12.857C82.7194 12.7848 82.9119 12.6531 83.058 12.4768C83.2042 12.3005 83.2981 12.0867 83.3292 11.8596C83.3604 11.6325 83.3274 11.4012 83.2341 11.1919C83.1407 10.9827 82.9908 10.8038 82.8012 10.6756Z" fill="#F4BE38"/>
<path opacity="0.47" d="M101.691 15.993L99.6712 14.6208L101.365 12.6028C101.512 12.4276 101.607 12.2147 101.64 11.9881C101.672 11.7615 101.641 11.5303 101.549 11.3206C101.458 11.1109 101.309 10.9311 101.121 10.8015C100.933 10.672 100.712 10.5978 100.484 10.5874L97.3424 10.4434L97.3256 7.80162C97.324 7.57262 97.2585 7.34863 97.1367 7.15494C97.0148 6.96125 96.8413 6.80557 96.6358 6.70548C96.4304 6.6054 96.2011 6.56489 95.9738 6.58854C95.7466 6.61218 95.5305 6.69904 95.3499 6.8393L93.818 8.03247L92.4919 5.89644C92.3712 5.70189 92.1986 5.5451 91.9936 5.44382C91.7886 5.34253 91.5595 5.3008 91.332 5.32334C91.1046 5.34588 90.888 5.43179 90.7068 5.57136C90.5256 5.71092 90.387 5.89856 90.3066 6.11302L89.084 9.37608L86.2376 8.46823C86.0199 8.39916 85.7872 8.39245 85.5659 8.44887C85.3446 8.50529 85.1434 8.62258 84.985 8.78751C84.8267 8.95245 84.7175 9.15847 84.6697 9.38232C84.622 9.60616 84.6376 9.83894 84.7148 10.0544L85.3384 11.8026L83.386 12.289C83.1642 12.3441 82.9623 12.4603 82.803 12.6245C82.6437 12.7887 82.5335 12.9943 82.4847 13.2181C82.436 13.4419 82.4507 13.6749 82.5272 13.8907C82.6037 14.1065 82.739 14.2965 82.9177 14.4393L85.4393 16.4534L83.4391 19.2509C83.3047 19.437 83.2251 19.6572 83.2095 19.8865C83.1939 20.1157 83.2428 20.3447 83.3507 20.5475C83.4585 20.7502 83.621 20.9185 83.8197 21.0332C84.0183 21.1479 84.245 21.2044 84.4741 21.1962L86.768 21.1223L86.6387 22.9458C86.6223 23.1743 86.6701 23.4028 86.7766 23.6055C86.8832 23.8082 87.0442 23.9769 87.2415 24.0926C87.4387 24.2082 87.6644 24.2662 87.8928 24.26C88.1213 24.2538 88.3434 24.1835 88.5341 24.0573L90.819 22.5463L92.8063 25.253C92.9419 25.4376 93.1263 25.5804 93.3387 25.6652C93.5511 25.75 93.783 25.7735 94.0081 25.733C94.2331 25.6925 94.4424 25.5897 94.6121 25.436C94.7818 25.2824 94.9052 25.0842 94.9682 24.8639L95.7044 22.3077L97.7486 23.139C97.9603 23.2252 98.1919 23.2503 98.4171 23.2114C98.6423 23.1726 98.8521 23.0713 99.0228 22.919C99.1935 22.7668 99.3183 22.5697 99.3831 22.35C99.4478 22.1304 99.45 21.8969 99.3892 21.6761L98.675 19.0823L101.392 18.1744C101.609 18.1022 101.802 17.9704 101.948 17.7941C102.094 17.6179 102.188 17.404 102.219 17.177C102.25 16.9499 102.217 16.7186 102.124 16.5093C102.03 16.3001 101.88 16.1212 101.691 15.993Z" fill="#F4BE38"/>
<path d="M80.3339 10.5746L78.8021 9.53702L80.0881 8.00406C80.1998 7.87095 80.2721 7.70919 80.2969 7.53705C80.3217 7.36491 80.2979 7.18925 80.2283 7.02993C80.1588 6.87061 80.0461 6.73396 79.9031 6.63544C79.7602 6.53692 79.5925 6.48044 79.4192 6.47239L77.0295 6.35567L77.0166 4.34803C77.0154 4.17406 76.9657 4.00389 76.8731 3.85676C76.7805 3.70962 76.6487 3.59139 76.4926 3.51543C76.3364 3.43947 76.1622 3.4088 75.9896 3.42691C75.817 3.44501 75.6529 3.51115 75.5158 3.61786L74.3513 4.52571L73.3435 2.90326C73.2517 2.75566 73.1205 2.63674 72.9648 2.55993C72.8091 2.48313 72.6351 2.45151 72.4624 2.46865C72.2898 2.48578 72.1253 2.55099 71.9877 2.65689C71.85 2.7628 71.7447 2.90519 71.6835 3.06797L70.7533 5.54639L68.5874 4.85642C68.422 4.80379 68.2452 4.79858 68.0771 4.84137C67.9089 4.88417 67.756 4.97327 67.6356 5.09861C67.5153 5.22394 67.4324 5.38051 67.3962 5.55063C67.3599 5.72074 67.3719 5.89762 67.4307 6.06126L67.9107 7.39321L66.428 7.76283C66.2597 7.80476 66.1065 7.89302 65.9856 8.01764C65.8646 8.14227 65.7809 8.29829 65.7437 8.4681C65.7066 8.63792 65.7176 8.81475 65.7754 8.97865C65.8332 9.14255 65.9356 9.28699 66.0709 9.39566L67.9858 10.9273L66.4656 13.053C66.365 13.1944 66.3059 13.3611 66.2948 13.5343C66.2836 13.7076 66.321 13.8805 66.4026 14.0337C66.4842 14.1868 66.6069 14.314 66.7568 14.4011C66.9066 14.4881 67.0778 14.5315 67.2509 14.5263L68.9937 14.4705L68.8953 15.8543C68.8831 16.0279 68.9195 16.2014 69.0005 16.3553C69.0815 16.5091 69.2038 16.6372 69.3536 16.7251C69.5034 16.8129 69.6748 16.857 69.8482 16.8523C70.0217 16.8476 70.1905 16.7944 70.3354 16.6986L72.0717 15.5521L73.5815 17.6078C73.6849 17.7462 73.8247 17.8531 73.9852 17.9165C74.1457 17.9798 74.3207 17.9972 74.4905 17.9667C74.6603 17.9361 74.8183 17.8589 74.9468 17.7435C75.0753 17.6281 75.1693 17.4792 75.2182 17.3134L75.781 15.368L77.3336 15.9996C77.4944 16.0648 77.6702 16.0837 77.8412 16.054C78.0121 16.0244 78.1714 15.9474 78.301 15.8318C78.4305 15.7162 78.5253 15.5665 78.5745 15.3998C78.6238 15.233 78.6255 15.0558 78.5795 14.8881L78.0374 12.9142L80.0985 12.2281C80.2629 12.1737 80.4089 12.0743 80.5201 11.9411C80.6312 11.808 80.703 11.6464 80.7275 11.4745C80.752 11.3026 80.7281 11.1273 80.6586 10.9684C80.589 10.8094 80.4766 10.673 80.3339 10.5746Z" fill="#F4BE38"/>
<path d="M65.9027 23.7667C66.3737 22.3011 66.2352 19.8759 62.804 15.8412C62.6742 15.6876 62.5815 15.506 62.5331 15.3106C62.4847 15.1152 62.4819 14.9113 62.525 14.7146C62.568 14.518 62.6558 14.334 62.7814 14.1769C62.907 14.0198 63.067 13.8938 63.2491 13.8089C63.4386 13.7209 63.6465 13.6797 63.8552 13.6887C64.0638 13.6978 64.2673 13.7569 64.4485 13.8611C64.6297 13.9652 64.7834 14.1114 64.8966 14.2874C65.0098 14.4633 65.0793 14.6639 65.0993 14.8724C65.6168 19.9861 67.4398 22.4736 69.0803 23.8056C77.7489 30.844 97.6542 19.0653 110.78 24.5837C111.975 25.0869 115.329 26.498 115.366 28.4901C115.405 30.6339 111.582 32.2758 110.947 32.5494C101.81 36.4752 90.8785 29.4965 90.1798 30.8323C89.4812 32.1681 100.686 37.8655 99.7191 41.0378C99.1149 43.0221 93.8012 43.856 89.2392 42.7666C80.1825 40.6033 76.2118 31.3744 73.6074 32.6182C72.157 33.3094 73.4237 36.1562 71.6511 40.9561C71.3471 41.7796 68.59 49.2408 64.2661 49.2253C60.994 49.2149 57.6353 44.9234 57.6146 41.0469C57.5848 35.6932 63.9271 32.4003 63.0343 31.0268C62.3732 30.01 58.1709 30.6987 54.9312 33.1823C50.0496 36.9252 51.3085 41.7096 47.5241 43.3113C43.8264 44.8676 38.9953 41.8497 36.7104 39.7266C35.0285 38.1703 33.0088 36.2872 33.3323 34.5078C34.4734 28.2294 63.2181 32.1396 65.9027 23.7667Z" fill="#C4D650"/>
</g>
<defs>
<filter id="filter0_d_245_72" x="0.898926" y="0" width="134.214" height="131.079" filterUnits="userSpaceOnUse" color-interpolation-filters="sRGB">
<feFlood flood-opacity="0" result="BackgroundImageFix"/>
<feColorMatrix in="SourceAlpha" type="matrix" values="0 0 0 0 0 0 0 0 0 0 0 0 0 0 0 0 0 0 127 0" result="hardAlpha"/>
<feOffset dy="4"/>
<feGaussianBlur stdDeviation="2"/>
<feComposite in2="hardAlpha" operator="out"/>
<feColorMatrix type="matrix" values="0 0 0 0 0.8375 0 0 0 0 0.8375 0 0 0 0 0.8375 0 0 0 0.5 0"/>
<feBlend mode="normal" in2="BackgroundImageFix" result="effect1_dropShadow_245_72"/>
<feBlend mode="normal" in="SourceGraphic" in2="effect1_dropShadow_245_72" result="shape"/>
</filter>
</defs>
</svg>
