<svg width="325" height="366" viewBox="0 0 325 366" fill="none" xmlns="http://www.w3.org/2000/svg">
<g clip-path="url(#clip0_255_48)" filter="url(#filter0_dd_255_48)">
<path d="M309.917 218.97C318.004 277.739 261.918 334 184.643 344.633C119.175 353.642 37.5502 315.774 30.0812 257.476C24.1621 211.254 66.6733 166.329 101.212 148.07C123.301 136.39 142.548 98.3531 150.676 97.2347C159.75 95.9861 190.027 126.849 215.879 133.623C253.52 143.489 303.766 174.267 309.917 218.97Z" fill="#7C6BAF"/>
<path d="M184.72 344.623C171.146 320.967 153.017 282.696 144.824 232.409C135.251 173.658 143.603 125.286 150.678 97.2334C162.629 121.128 175.49 152.923 183.571 191.696C196.918 255.731 191.257 310.158 184.72 344.623Z" stroke="white" stroke-width="5" stroke-miterlimit="10"/>
<path d="M194.045 128.376C209.362 159.536 219.784 192.869 224.944 227.204C230.404 263.625 229.873 300.693 223.374 336.943" stroke="white" stroke-width="5" stroke-miterlimit="10"/>
<path d="M115.217 137.258C109.126 158.704 101.114 197.441 108.049 245.175C114.802 291.655 132.696 325.804 144.375 344.592" stroke="white" stroke-width="5" stroke-miterlimit="10"/>
<path d="M236.513 137.551C248.036 165.105 255.88 194.057 259.843 223.659C264.118 255.659 263.818 288.105 258.95 320.02" stroke="white" stroke-width="5" stroke-miterlimit="10"/>
<path d="M286.947 291.479C291.763 280.366 299.306 258.816 297.526 231.211C295.189 194.976 278.183 169.925 270.769 160.199" stroke="white" stroke-width="5" stroke-miterlimit="10"/>
<path d="M90.3669 155.538C84.236 173.85 75.1036 209.153 80.8606 253.32C86.8664 299.387 106.086 332.188 117.046 348.274" stroke="white" stroke-width="5" stroke-miterlimit="10"/>
<path d="M58.1518 158.005C52.8581 178.872 46.5101 215.031 53.3544 259.149C59.8883 301.268 75.656 332.653 86.5708 350.816" stroke="white" stroke-width="5" stroke-miterlimit="10"/>
<path d="M141.502 108.17C142.547 109.42 150.807 119.14 155.932 117.135C160.122 115.495 159.665 107.012 164.594 105.71C167.835 104.855 170.115 107.97 172.109 106.83C174.803 105.291 173.362 98.0337 172.442 93.5904C167.827 71.3185 165.52 60.1821 163.47 60.357C162.781 60.4164 162.011 61.3258 159.525 74.0949C156.25 90.9181 155.856 98.2357 154.77 98.2617C152.793 98.3159 153.821 73.8812 143.12 45.5601C138.917 34.4376 133.624 20.4321 129.514 21.0475C121.189 22.2947 120.562 83.1095 141.502 108.17Z" fill="#AEBC26"/>
<path d="M95.1298 254.562C123.734 250.626 143.883 225.357 140.136 198.121C136.388 170.885 110.162 151.997 81.558 155.933C52.9543 159.869 32.8045 185.139 36.5523 212.374C40.3 239.61 66.5261 258.498 95.1298 254.562Z" fill="#E2E2E2"/>
<path d="M104.397 227.588C123.924 224.901 137.681 207.649 135.122 189.055C132.563 170.462 114.659 157.567 95.1314 160.254C75.6037 162.941 61.8476 180.192 64.4062 198.786C66.9647 217.38 84.8692 230.275 104.397 227.588Z" fill="black"/>
<path d="M76.8135 220.331C77.7869 215.409 71.4493 210.01 62.6582 208.272C53.867 206.534 45.9513 209.115 44.9778 214.037C44.0044 218.959 50.342 224.357 59.1331 226.095C67.9243 227.833 75.8401 225.252 76.8135 220.331Z" fill="white"/>
<path d="M256.872 236.44C285.476 232.504 305.685 207.664 302.01 180.957C298.335 154.251 272.168 135.792 243.564 139.728C214.96 143.664 194.752 168.505 198.426 195.211C202.101 221.917 228.268 240.376 256.872 236.44Z" fill="#E2E2E2"/>
<path d="M237.815 213.4C257.343 210.713 271.14 193.754 268.631 175.522C266.122 157.29 248.258 144.688 228.73 147.375C209.203 150.062 195.406 167.021 197.915 185.253C200.424 203.485 218.288 216.087 237.815 213.4Z" fill="black"/>
<path d="M278.022 194.252C285.838 189.88 290.226 182.853 287.822 178.557C285.418 174.261 277.134 174.323 269.318 178.695C261.502 183.067 257.114 190.094 259.518 194.39C261.921 198.686 270.206 198.625 278.022 194.252Z" fill="white"/>
</g>
<defs>
<filter id="filter0_dd_255_48" x="-4" y="0.362793" width="332.743" height="372.858" filterUnits="userSpaceOnUse" color-interpolation-filters="sRGB">
<feFlood flood-opacity="0" result="BackgroundImageFix"/>
<feColorMatrix in="SourceAlpha" type="matrix" values="0 0 0 0 0 0 0 0 0 0 0 0 0 0 0 0 0 0 127 0" result="hardAlpha"/>
<feOffset dy="4"/>
<feGaussianBlur stdDeviation="2"/>
<feComposite in2="hardAlpha" operator="out"/>
<feColorMatrix type="matrix" values="0 0 0 0 0 0 0 0 0 0 0 0 0 0 0 0 0 0 0.25 0"/>
<feBlend mode="normal" in2="BackgroundImageFix" result="effect1_dropShadow_255_48"/>
<feColorMatrix in="SourceAlpha" type="matrix" values="0 0 0 0 0 0 0 0 0 0 0 0 0 0 0 0 0 0 127 0" result="hardAlpha"/>
<feOffset dy="4"/>
<feGaussianBlur stdDeviation="2"/>
<feComposite in2="hardAlpha" operator="out"/>
<feColorMatrix type="matrix" values="0 0 0 0 0 0 0 0 0 0 0 0 0 0 0 0 0 0 0.25 0"/>
<feBlend mode="normal" in2="effect1_dropShadow_255_48" result="effect2_dropShadow_255_48"/>
<feBlend mode="normal" in="SourceGraphic" in2="effect2_dropShadow_255_48" result="shape"/>
</filter>
<clipPath id="clip0_255_48">
<rect width="282.473" height="329.427" fill="white" transform="translate(0 38.8691) rotate(-7.8349)"/>
</clipPath>
</defs>
</svg>
