<svg width="375" height="232" viewBox="0 0 375 232" fill="none" xmlns="http://www.w3.org/2000/svg">
<g filter="url(#filter0_d_254_5895)">
<rect x="32" y="40" width="312" height="152" rx="20" fill="#AB9ED3"/>
</g>
<path d="M127.199 142.777C126.203 145.546 124.15 147.808 121.49 149.067L121.421 149.1C116.135 151.591 110.867 150.278 109.344 149.842L77.0348 139.442C68.6502 136.74 63.9225 128.148 66.4682 120.239C69.0124 112.329 77.8621 108.103 86.2467 110.805C86.3756 110.885 94.0227 114.572 120.336 127.199C126.389 130.097 129.343 136.805 127.199 142.777Z" fill="#459696"/>
<path d="M141.163 105.31C142.938 102.962 145.569 101.413 148.483 100.999L148.557 100.988C154.352 100.179 158.988 102.997 160.31 103.864L188.083 123.387C195.284 128.449 197.249 138.063 192.467 144.861C187.686 151.663 177.979 153.066 170.779 148.003C170.679 147.889 164.469 142.101 143.091 122.231C138.174 117.66 137.344 110.37 141.163 105.31Z" fill="#459696"/>
<path d="M130.988 174.855L119.397 171.394C116.027 170.387 113.746 167.731 114.12 165.251L115.599 155.43C116.066 152.337 120.37 150.92 124.437 152.522L137.031 157.489C140.244 158.755 142.131 161.482 141.427 163.841L138.943 172.153C138.173 174.729 134.611 175.937 130.988 174.855Z" fill="#459696"/>
<path d="M149.752 173.106L160.356 170.624C163.441 169.9 165.592 167.456 165.334 164.965L164.32 155.113C164 152.006 160.149 150.248 156.417 151.505L144.847 155.387C141.898 156.379 140.101 158.929 140.662 161.327L142.638 169.774C143.249 172.382 146.435 173.876 149.752 173.106Z" fill="#459696"/>
<path d="M176.227 127.099C176.082 126.544 175.747 125.165 174.923 125.034C174.87 125.029 174.817 125.029 174.764 125.034C174.718 125.035 174.674 125.018 174.64 124.986C174.607 124.955 174.587 124.912 174.584 124.866C174.359 121.874 173.854 118.909 173.074 116.011C173.068 115.988 173.067 115.964 173.07 115.941C173.073 115.917 173.08 115.895 173.092 115.874C173.104 115.854 173.12 115.836 173.139 115.822C173.157 115.807 173.179 115.797 173.202 115.791C173.242 115.779 173.285 115.783 173.323 115.801C173.925 116.075 174.43 116.159 174.512 116.05C174.704 115.785 172.703 114.011 172.327 113.451C172.318 113.437 172.311 113.422 172.306 113.406L172.272 113.299C172.386 113.171 173.487 114.213 173.845 113.945C174.135 113.73 173.852 112.742 173.325 112.076C173.271 112.011 172.406 110.94 171.731 111.177C171.709 111.187 171.684 111.191 171.66 111.191C171.636 111.191 171.612 111.186 171.589 111.176C171.567 111.167 171.547 111.153 171.53 111.135C171.513 111.118 171.5 111.097 171.491 111.075C170.686 108.907 169.733 106.798 168.638 104.762C162.825 94.0547 149.336 79.5023 131.508 79.8906C131.484 79.8914 131.46 79.8875 131.438 79.879C131.416 79.8706 131.396 79.8579 131.378 79.8416C131.361 79.8253 131.347 79.8058 131.338 79.7841C131.328 79.7624 131.323 79.739 131.322 79.7153C131.322 79.6879 131.327 79.6607 131.338 79.6356C131.918 78.3838 132.352 77.1204 131.903 76.7915C131.412 76.4322 129.96 77.2653 129.384 78.2577C129.269 78.4563 129.178 78.6673 129.111 78.8866C129.027 79.2025 129.007 79.5319 129.05 79.8558C129.055 79.9038 129.04 79.9516 129.01 79.9889C128.98 80.0263 128.936 80.0503 128.888 80.0558L128.574 80.0877C128.547 80.0907 128.52 80.0875 128.495 80.0782C128.47 80.0688 128.447 80.0537 128.429 80.0341C127.97 79.5545 127.399 78.8981 127.054 79.03C126.815 79.1227 126.706 79.5864 126.74 80.1891C126.742 80.2324 126.728 80.2751 126.702 80.3094C126.675 80.3438 126.637 80.3674 126.595 80.376C104.427 84.272 96.0641 109.684 95.1904 112.48C95.0542 112.915 94.8398 113.603 94.5964 114.491C94.0478 116.539 93.6297 118.62 93.3446 120.721C93.3378 120.769 93.3124 120.811 93.2742 120.84C93.2359 120.869 93.1877 120.881 93.1403 120.875C93.1294 120.874 93.1186 120.871 93.1084 120.867C92.8744 120.792 92.63 120.752 92.384 120.752C90.9264 120.752 89.776 122.171 89.9774 122.581C90.1035 122.844 90.7482 122.622 91.4538 122.548C91.4949 122.544 91.5361 122.554 91.5707 122.577C91.6052 122.599 91.6311 122.633 91.6439 122.672C91.6568 122.711 91.6558 122.754 91.6413 122.792C91.6267 122.831 91.5995 122.863 91.5639 122.884C90.9844 123.228 90.5497 123.693 90.5874 124.026C90.6598 124.585 92.0986 124.805 92.7955 125.127C92.8286 125.142 92.8565 125.167 92.8753 125.198C92.8942 125.229 92.9033 125.265 92.9012 125.301L92.8838 125.655C92.8826 125.689 92.8717 125.722 92.8525 125.75C92.8333 125.778 92.8065 125.8 92.7752 125.814C92.4724 125.943 92.0638 126.104 91.8073 126.511C91.2582 127.38 91.7088 128.903 92.2565 129.004C92.3648 129.02 92.475 128.994 92.5651 128.932C92.5854 128.919 92.6079 128.911 92.6314 128.907C92.6549 128.903 92.6789 128.904 92.702 128.91C92.7252 128.915 92.747 128.925 92.7662 128.939C92.7855 128.953 92.8018 128.971 92.8143 128.991C92.831 129.018 92.84 129.049 92.8404 129.081C92.9621 134.622 94.0342 141.008 97.2174 147.102C97.2285 147.123 97.2354 147.146 97.2376 147.169C97.2398 147.193 97.2374 147.217 97.2304 147.239C97.2234 147.262 97.2119 147.283 97.1968 147.301C97.1816 147.319 97.163 147.334 97.1421 147.345C97.1309 147.352 97.1187 147.357 97.1058 147.36C95.8772 147.689 94.8601 148.116 94.8847 148.242C94.9152 148.396 96.5248 148.208 97.7013 148.186C97.7334 148.186 97.7649 148.194 97.7926 148.21C97.8204 148.226 97.8434 148.249 97.8593 148.277C97.9549 148.445 98.0534 148.615 98.149 148.781C98.1729 148.821 98.1806 148.868 98.1706 148.913C98.1606 148.958 98.1337 148.998 98.0954 149.023C97.6897 149.297 97.2406 149.685 97.0377 150.291C96.9711 150.49 96.8537 150.84 97.0059 151.16C97.3377 151.838 98.7909 152.057 99.766 151.528C99.8044 151.508 99.8488 151.503 99.8911 151.512C99.9334 151.522 99.9707 151.547 99.9963 151.582C100.066 151.679 100.141 151.778 100.209 151.872L100.247 151.924C100.268 151.952 100.281 151.985 100.284 152.019C100.287 152.054 100.279 152.089 100.263 152.119C99.7399 153.089 99.7283 154.255 99.9558 154.38C100.16 154.493 100.569 153.763 101.166 153.35C101.203 153.324 101.249 153.312 101.294 153.319C101.339 153.325 101.38 153.348 101.409 153.383C103.114 155.415 105.051 157.241 107.18 158.825C107.199 158.839 107.215 158.856 107.227 158.876C107.239 158.897 107.247 158.919 107.251 158.942C107.254 158.966 107.253 158.989 107.248 159.012C107.242 159.035 107.232 159.057 107.217 159.075C107.202 159.099 107.18 159.117 107.154 159.129C106.785 159.311 106.487 159.611 106.308 159.981C106.077 160.475 106.018 161.237 106.332 161.43C106.86 161.743 107.967 160.203 108.506 160.491C109.136 160.827 108.188 163.225 108.555 163.38C108.836 163.499 110.06 162.38 110.138 161.111C110.142 161.064 110.164 161.019 110.2 160.988C110.235 160.956 110.282 160.94 110.33 160.943C110.358 160.945 110.386 160.954 110.411 160.968C123.38 168.55 138.425 166.643 139.279 166.521C141.605 166.188 154.262 164.165 163.961 154.351C163.977 154.334 163.997 154.321 164.019 154.312C164.041 154.302 164.064 154.298 164.088 154.298C164.111 154.298 164.135 154.302 164.156 154.312C164.178 154.321 164.198 154.334 164.214 154.351C164.234 154.369 164.25 154.392 164.259 154.417C164.306 154.551 164.363 154.681 164.43 154.806C164.52 154.971 164.898 155.663 165.365 155.634C165.799 155.605 166.215 154.953 166.202 154.416C166.202 154.262 166.165 154.248 165.985 153.418C165.891 152.973 165.889 152.927 165.918 152.874C166.154 152.447 167.589 153.071 167.802 152.716C167.895 152.556 167.674 152.308 166.838 151.323C166.812 151.291 166.798 151.25 166.798 151.209C166.798 151.167 166.812 151.127 166.838 151.095C168.017 149.585 169.078 147.986 170.013 146.314L170.029 146.283C170.174 147.017 170.346 147.527 170.434 147.521C170.579 147.512 170.608 146.147 170.714 145.02C170.717 144.998 170.723 144.976 170.734 144.956C170.879 144.667 171.015 144.391 171.149 144.109C171.163 144.077 171.186 144.05 171.215 144.031C171.244 144.012 171.278 144.001 171.313 144.001C171.348 144.001 171.382 144.012 171.411 144.031C171.441 144.05 171.464 144.077 171.478 144.109C171.695 144.601 172.024 145.294 172.748 145.646C172.935 145.737 173.267 145.9 173.599 145.791C174.361 145.536 174.772 143.946 174.233 142.905C173.887 142.234 173.219 141.93 172.408 141.64C172.363 141.624 172.326 141.591 172.305 141.547C172.285 141.504 172.282 141.455 172.298 141.409C173.535 138.136 174.304 134.705 174.581 131.217C174.583 131.193 174.589 131.17 174.6 131.149C174.61 131.128 174.625 131.109 174.643 131.093C174.661 131.078 174.681 131.066 174.704 131.059C174.726 131.051 174.75 131.048 174.774 131.05C174.814 131.053 174.852 131.069 174.881 131.096C175.197 131.386 175.461 131.54 175.546 131.492C175.708 131.408 175.365 130.691 175.119 128.404C174.991 127.206 175.052 127.087 175.091 127.077C175.291 127.034 175.815 129.585 176.163 129.54C176.385 129.495 176.512 128.254 176.227 127.099Z" fill="#4EADAF"/>
<path d="M105.031 134.48C111.802 133.978 117.008 129.751 116.658 125.04C116.309 120.329 110.537 116.916 103.766 117.418C96.9948 117.92 91.789 122.146 92.1383 126.858C92.4876 131.569 98.2597 134.982 105.031 134.48Z" fill="#E37A39"/>
<path d="M169.023 130.244C175.794 129.742 181 125.516 180.65 120.804C180.301 116.093 174.529 112.681 167.758 113.183C160.987 113.684 155.781 117.911 156.13 122.622C156.48 127.333 162.252 130.746 169.023 130.244Z" fill="#E37A39"/>
<path d="M113.942 119.715C121.958 119.12 127.998 112.449 127.432 104.815C126.866 97.1806 119.909 91.4734 111.892 92.0678C103.875 92.6621 97.8352 99.3328 98.4012 106.967C98.9672 114.602 105.925 120.309 113.942 119.715Z" fill="#E2E2E2"/>
<path d="M109.017 113.683C114.49 113.277 118.613 108.723 118.227 103.512C117.84 98.3 113.091 94.404 107.618 94.8097C102.145 95.2154 98.0221 99.7693 98.4085 104.981C98.7949 110.193 103.545 114.089 109.017 113.683Z" fill="black"/>
<path d="M150.653 118.807C158.67 118.212 164.719 111.662 164.164 104.176C163.609 96.6898 156.66 91.103 148.643 91.6973C140.627 92.2916 134.578 98.8421 135.133 106.328C135.688 113.814 142.637 119.401 150.653 118.807Z" fill="#E2E2E2"/>
<path d="M145.759 112.07C151.232 111.664 155.361 107.192 154.982 102.082C154.604 96.9714 149.86 93.1575 144.387 93.5633C138.915 93.969 134.785 98.4407 135.164 103.551C135.543 108.661 140.287 112.475 145.759 112.07Z" fill="black"/>
<path d="M154.8 109.771C157.048 108.692 158.39 106.816 157.797 105.58C157.204 104.344 154.901 104.217 152.653 105.295C150.405 106.374 149.063 108.25 149.656 109.486C150.249 110.722 152.552 110.849 154.8 109.771Z" fill="white"/>
<path d="M116.695 111.076C118.943 109.997 120.285 108.121 119.692 106.885C119.099 105.649 116.796 105.522 114.548 106.6C112.3 107.679 110.958 109.555 111.551 110.791C112.144 112.027 114.447 112.154 116.695 111.076Z" fill="white"/>
<path d="M148.67 88.9866C148.018 88.7882 147.379 88.5531 146.754 88.2825C146.126 88.0139 145.512 87.7159 144.913 87.3885C143.71 86.7292 142.569 85.9626 141.505 85.0978C140.972 84.6632 140.462 84.2039 139.969 83.7229L139.604 83.3563C139.484 83.2332 139.368 83.1057 139.25 82.9796C139.193 82.9173 139.133 82.855 139.075 82.7898L138.906 82.5957L138.736 82.4073L138.651 82.3088L138.609 82.261L138.568 82.2103L138.241 81.8104L138.161 81.7089C138.135 81.6756 138.107 81.6409 138.083 81.6061L137.928 81.3931L137.771 81.1874L137.693 81.0845L137.619 80.9787L137.322 80.5542L137.248 80.4484C137.224 80.4137 137.2 80.376 137.177 80.3398L137.032 80.1224L136.887 79.9051L136.831 79.7993C136.808 79.7631 136.787 79.7255 136.764 79.6892C136.59 79.3995 136.406 79.0981 136.247 78.7924C136.164 78.6475 136.082 78.491 136.002 78.3374L135.775 77.8738L135.66 77.6405C135.623 77.5623 135.589 77.4841 135.553 77.4044L135.447 77.1697L135.394 77.0523C135.375 77.0132 135.357 76.9741 135.341 76.9335L135.146 76.4554C135.13 76.4148 135.112 76.3757 135.098 76.3351L135.052 76.2148L134.962 75.9729L134.871 75.7295L134.787 75.4861L134.704 75.2412L134.662 75.1181L134.624 74.9949L134.479 74.5008L134.343 74.0024C134.32 73.9198 134.3 73.8373 134.279 73.7532L134.219 73.5011L134.188 73.3765C134.178 73.3345 134.168 73.2925 134.159 73.2505L134.106 72.9984L134.052 72.7448C134.036 72.6608 134.022 72.5767 134.006 72.4913C133.975 72.3217 133.94 72.1537 133.916 71.9827L133.877 71.7292C133.864 71.6437 133.851 71.5582 133.84 71.4727C133.819 71.3032 133.795 71.1322 133.775 70.9613C133.622 69.5979 133.598 68.223 133.706 66.8552C133.761 66.1742 133.843 65.4947 133.964 64.8268C134.08 64.1556 134.233 63.4915 134.423 62.8375C134.206 64.1723 134.091 65.5217 134.079 66.874C134.067 68.217 134.164 69.5587 134.369 70.8859C134.573 72.2061 134.889 73.5066 135.314 74.7732C135.53 75.4035 135.767 76.0265 136.038 76.6379C136.105 76.7828 136.183 76.9407 136.244 77.0929C136.28 77.1682 136.312 77.245 136.35 77.3189L136.461 77.5435L136.685 77.9912C136.761 78.136 136.844 78.2809 136.922 78.4258C137.076 78.7156 137.251 79.0054 137.419 79.2951C137.439 79.3314 137.46 79.3676 137.483 79.4024L137.549 79.5081L137.684 79.7182L137.819 79.9297L137.886 80.0355L137.957 80.1384L138.238 80.5513L138.309 80.6542L138.383 80.7556L138.527 80.957C138.72 81.2279 138.932 81.4873 139.136 81.751L139.174 81.8002L139.214 81.848L139.294 81.9437L139.453 82.1364L139.611 82.3291L139.778 82.516L139.944 82.7029C140 82.7652 140.053 82.8289 140.111 82.8898L140.453 83.2549L140.539 83.3462L140.627 83.4345L140.804 83.6128L140.982 83.7895C141.011 83.8199 141.041 83.8475 141.072 83.8764L141.162 83.9634L141.344 84.1372L141.438 84.2242L141.483 84.2676L141.53 84.3097L141.902 84.6458C142.909 85.5352 143.984 86.3456 145.115 87.0698C146.249 87.7985 147.438 88.4394 148.67 88.9866Z" fill="#29ABE2"/>
<path d="M138.849 85.0153C138.715 84.7805 138.595 84.5387 138.487 84.2908C138.381 84.0431 138.284 83.7895 138.197 83.5316C138.11 83.2737 138.041 83.0115 137.981 82.7463C137.948 82.6145 137.926 82.4812 137.9 82.3479C137.886 82.2812 137.877 82.2131 137.865 82.1465L137.834 81.9437C137.761 81.4026 137.731 80.8566 137.745 80.3108C137.745 80.037 137.77 79.7646 137.797 79.4922L137.821 79.2879C137.829 79.2198 137.835 79.1517 137.847 79.0836L137.909 78.6779C138.108 77.6003 138.441 76.5518 138.901 75.5571C139.361 74.5659 139.915 73.6212 140.556 72.7361C140.712 72.513 140.881 72.3015 141.046 72.0827L141.302 71.7654C141.344 71.7118 141.386 71.6582 141.431 71.606L141.563 71.4524L141.696 71.2974L141.763 71.2192L141.83 71.1438L142.102 70.841C142.195 70.7396 142.287 70.6425 142.38 70.5425C142.428 70.4933 142.473 70.4426 142.525 70.3976L142.67 70.2528C142.86 70.0586 143.055 69.8717 143.249 69.6819L143.548 69.4052L143.623 69.3356L143.699 69.269L143.851 69.1328C144.254 68.7735 144.67 68.4267 145.097 68.0925C145.949 67.4272 146.837 66.81 147.758 66.2437C148.218 65.9627 148.684 65.6917 149.159 65.4382C149.397 65.3092 149.635 65.1861 149.875 65.0644C150.116 64.9427 150.358 64.8268 150.6 64.7152C150.372 64.8601 150.143 65.005 149.917 65.1499L149.581 65.3628C149.468 65.4353 149.356 65.5077 149.245 65.5831C148.799 65.8801 148.355 66.18 147.921 66.493C147.051 67.115 146.209 67.7709 145.395 68.4605L145.092 68.7213L144.8 68.9865L144.51 69.2545L144.365 69.3892L144.22 69.5269C144.026 69.708 143.836 69.8949 143.641 70.0803C143.445 70.2658 143.267 70.4571 143.086 70.6512C142.994 70.7483 142.903 70.8439 142.815 70.941C142.726 71.038 142.635 71.1366 142.547 71.2307L142.276 71.5408L142.211 71.6161L142.147 71.6929L142.019 71.8451L141.892 71.9986L141.767 72.1522C141.685 72.2551 141.602 72.358 141.521 72.4623C141.362 72.6738 141.199 72.8825 141.047 73.0998C140.895 73.3171 140.744 73.5344 140.595 73.7503L140.382 74.085C140.313 74.1966 140.237 74.3067 140.173 74.4211L139.972 74.7616L139.921 74.8471L139.875 74.934L139.781 75.1079L139.687 75.2818L139.639 75.3687L139.595 75.4571L139.42 75.8106L139.375 75.899L139.333 75.9888L139.252 76.1685C139.198 76.2887 139.142 76.409 139.096 76.5307L138.951 76.8973L138.814 77.2667C138.767 77.3899 138.729 77.5145 138.69 77.6405L138.629 77.8289C138.619 77.8608 138.61 77.8912 138.601 77.9231L138.574 78.0187L138.52 78.2085C138.503 78.2722 138.484 78.3345 138.47 78.3997L138.377 78.7822C138.149 79.8123 138.068 80.8692 138.135 81.9219L138.151 82.119C138.151 82.1856 138.161 82.2508 138.17 82.3175C138.186 82.4479 138.199 82.5812 138.22 82.7116C138.255 82.9738 138.307 83.2346 138.365 83.4954C138.423 83.7562 138.494 84.0126 138.575 84.2676C138.616 84.3951 138.659 84.5212 138.706 84.6472C138.752 84.7733 138.797 84.895 138.849 85.0153Z" fill="#29ABE2"/>
<path d="M158.884 66.3118L157.314 65.4063L158.46 63.8126C158.56 63.6747 158.621 63.5112 158.633 63.3409C158.645 63.1705 158.61 63.0001 158.53 62.849C158.45 62.698 158.33 62.5724 158.182 62.4866C158.034 62.4008 157.865 62.3582 157.695 62.3637L155.356 62.4303L155.198 60.4744C155.184 60.305 155.123 60.1429 155.022 60.0064C154.921 59.8698 154.784 59.7643 154.626 59.7016C154.468 59.6389 154.296 59.6216 154.129 59.6517C153.962 59.6817 153.806 59.7579 153.68 59.8716L152.608 60.8395L151.505 59.3312C151.405 59.1941 151.268 59.0877 151.11 59.0242C150.953 58.9607 150.78 58.9425 150.613 58.9717C150.445 59.001 150.29 59.0764 150.163 59.1896C150.036 59.3028 149.943 59.4492 149.895 59.6123L149.171 62.0942L147.002 61.59C146.837 61.5507 146.664 61.5584 146.502 61.6123C146.341 61.6661 146.198 61.764 146.09 61.8948C145.981 62.0256 145.912 62.1841 145.888 62.3525C145.865 62.5209 145.89 62.6924 145.959 62.8476L146.521 64.1067L145.1 64.5747C144.938 64.6274 144.794 64.7243 144.685 64.8546C144.576 64.9848 144.505 65.143 144.481 65.3114C144.457 65.4797 144.481 65.6514 144.549 65.807C144.618 65.9626 144.729 66.0958 144.869 66.1916L146.85 67.5463L145.524 69.7283C145.436 69.8731 145.39 70.0396 145.391 70.2091C145.392 70.3786 145.441 70.5444 145.531 70.6878C145.622 70.8313 145.75 70.9467 145.902 71.0211C146.055 71.0955 146.225 71.126 146.393 71.109L148.093 70.9279V72.2841C148.092 72.4546 148.14 72.6218 148.23 72.7667C148.319 72.9116 148.448 73.0285 148.601 73.1039C148.754 73.1794 148.925 73.2104 149.094 73.1936C149.264 73.1767 149.426 73.1126 149.561 73.0085L151.175 71.7596L152.797 73.6532C152.908 73.7824 153.053 73.878 153.215 73.9292C153.377 73.9805 153.55 73.9853 153.715 73.9433C153.88 73.9012 154.029 73.8139 154.147 73.6912C154.265 73.5685 154.346 73.4154 154.381 73.249L154.797 71.3162L156.359 71.8175C156.521 71.87 156.694 71.8761 156.859 71.8351C157.024 71.7941 157.174 71.7077 157.292 71.5857C157.411 71.4636 157.493 71.3108 157.529 71.1446C157.565 70.9785 157.553 70.8055 157.496 70.6454L156.825 68.7619L158.789 67.9433C158.945 67.877 159.08 67.7683 159.178 67.6294C159.276 67.4905 159.333 67.327 159.343 67.1573C159.353 66.9876 159.315 66.8184 159.234 66.669C159.153 66.5196 159.032 66.3959 158.884 66.3118Z" fill="#F4BE38"/>
<path opacity="0.47" d="M142.61 62.6607L140.54 61.4697L142.047 59.3805C142.176 59.1992 142.251 58.9857 142.266 58.7639C142.28 58.5421 142.233 58.3206 142.128 58.1242C142.024 57.9278 141.868 57.7642 141.676 57.6517C141.484 57.5391 141.265 57.482 141.043 57.4868L137.963 57.5737L137.755 55.0005C137.737 54.7775 137.657 54.5639 137.524 54.3839C137.391 54.204 137.21 54.0649 137.002 53.9823C136.794 53.8997 136.567 53.8769 136.347 53.9165C136.127 53.9562 135.922 54.0566 135.756 54.2066L134.345 55.4801L132.896 53.4952C132.764 53.3135 132.584 53.1724 132.376 53.088C132.168 53.0036 131.941 52.9793 131.72 53.0178C131.499 53.0563 131.293 53.1561 131.126 53.3058C130.959 53.4555 130.837 53.6491 130.775 53.8646L129.817 57.1246L126.966 56.4451C126.748 56.3935 126.52 56.4039 126.308 56.4749C126.096 56.5459 125.908 56.6748 125.765 56.8471C125.623 57.0193 125.531 57.228 125.501 57.4496C125.47 57.6712 125.502 57.8969 125.594 58.1011L126.334 59.7586L124.461 60.3729C124.248 60.443 124.06 60.5709 123.916 60.7424C123.773 60.9138 123.68 61.1219 123.649 61.3432C123.617 61.5645 123.648 61.7902 123.738 61.9948C123.828 62.1994 123.973 62.3749 124.158 62.5013L126.766 64.2849L125.013 67.1565C124.896 67.3476 124.835 67.5675 124.837 67.7913C124.838 68.0152 124.903 68.2341 125.023 68.4233C125.142 68.6125 125.312 68.7644 125.514 68.8619C125.716 68.9594 125.94 68.9985 126.163 68.9749L128.399 68.7358V70.5222C128.399 70.7459 128.463 70.9649 128.581 71.1545C128.7 71.344 128.87 71.4966 129.07 71.595C129.271 71.6934 129.496 71.7337 129.718 71.7113C129.941 71.6889 130.153 71.6048 130.33 71.4684L132.454 69.8311L134.591 72.3246C134.736 72.4982 134.927 72.6273 135.142 72.6969C135.357 72.7666 135.587 72.7739 135.807 72.7182C136.026 72.6624 136.224 72.5458 136.38 72.3818C136.536 72.2178 136.642 72.0132 136.686 71.7915L137.224 69.2458L139.281 69.9079C139.494 69.9763 139.722 69.9837 139.939 69.9293C140.156 69.875 140.353 69.7611 140.509 69.6005C140.665 69.4398 140.772 69.2389 140.82 69.0203C140.867 68.8017 140.853 68.5742 140.778 68.3634L139.885 65.8902L142.471 64.8137C142.68 64.729 142.861 64.5871 142.992 64.4044C143.124 64.2217 143.202 64.0056 143.216 63.7808C143.231 63.5561 143.182 63.3318 143.074 63.1336C142.967 62.9355 142.807 62.7716 142.61 62.6607Z" fill="#F4BE38"/>
<path opacity="0.47" d="M161.447 66.4698L159.378 65.2774L160.882 63.1939C161.013 63.0124 161.09 62.7979 161.106 62.5747C161.121 62.3514 161.074 62.1283 160.969 61.9306C160.864 61.7329 160.706 61.5684 160.513 61.4557C160.32 61.343 160.099 61.2866 159.875 61.293L156.796 61.3814L156.593 58.8067C156.575 58.5836 156.495 58.3701 156.362 58.1901C156.229 58.0102 156.048 57.871 155.84 57.7884C155.632 57.7058 155.405 57.6831 155.185 57.7227C154.965 57.7624 154.76 57.8628 154.594 58.0127L153.183 59.2863L151.734 57.3014C151.602 57.1206 151.422 56.9804 151.214 56.8966C151.007 56.8128 150.78 56.7888 150.559 56.8272C150.339 56.8656 150.133 56.965 149.966 57.1141C149.799 57.2632 149.677 57.456 149.614 57.6708L148.655 60.9395L145.805 60.2599C145.587 60.208 145.359 60.2181 145.147 60.289C144.935 60.3599 144.747 60.4888 144.604 60.6611C144.461 60.8334 144.369 61.0422 144.339 61.264C144.308 61.4857 144.34 61.7116 144.432 61.916L145.169 63.572L143.297 64.1864C143.082 64.2551 142.891 64.383 142.746 64.5553C142.601 64.7276 142.507 64.9375 142.475 65.1607C142.444 65.3839 142.476 65.6115 142.567 65.8174C142.659 66.0234 142.807 66.1992 142.994 66.3249L145.602 68.107L143.849 70.9786C143.733 71.1697 143.672 71.3894 143.674 71.613C143.676 71.8367 143.741 72.0553 143.86 72.2442C143.98 72.4332 144.15 72.5849 144.351 72.6823C144.553 72.7798 144.777 72.819 145 72.7955L147.234 72.555V74.34C147.234 74.5638 147.297 74.783 147.415 74.9729C147.534 75.1627 147.703 75.3156 147.904 75.4143C148.105 75.5129 148.329 75.5533 148.552 75.5309C148.775 75.5085 148.986 75.4242 149.164 75.2876L151.288 73.6489L153.425 76.1424C153.57 76.3165 153.761 76.4459 153.977 76.5156C154.192 76.5853 154.423 76.5926 154.642 76.5365C154.862 76.4804 155.061 76.3632 155.216 76.1986C155.372 76.0339 155.478 75.8286 155.521 75.6063L156.063 73.0607L158.119 73.7228C158.332 73.7911 158.56 73.7985 158.777 73.7442C158.994 73.6899 159.191 73.576 159.347 73.4153C159.503 73.2547 159.61 73.0537 159.658 72.8351C159.705 72.6166 159.691 72.389 159.616 72.1783L158.732 69.6979L161.317 68.6213C161.525 68.5355 161.704 68.3929 161.835 68.2099C161.965 68.0269 162.042 67.8108 162.055 67.5864C162.069 67.3619 162.019 67.1382 161.912 66.9408C161.804 66.7433 161.643 66.5801 161.447 66.4698Z" fill="#F4BE38"/>
<path d="M140.192 62.7404L138.62 61.8334L139.768 60.2396C139.869 60.1018 139.929 59.9383 139.941 59.768C139.954 59.5976 139.918 59.4272 139.838 59.2761C139.758 59.1251 139.638 58.9995 139.49 58.9137C139.342 58.8278 139.173 58.7853 139.003 58.7908L136.663 58.8574L136.506 56.9015C136.493 56.7319 136.432 56.5694 136.331 56.4325C136.23 56.2956 136.093 56.1897 135.935 56.127C135.777 56.0642 135.604 56.047 135.437 56.0774C135.27 56.1077 135.114 56.1844 134.988 56.2987L133.914 57.2651L132.812 55.7569C132.711 55.6197 132.575 55.5134 132.417 55.4498C132.259 55.3863 132.087 55.3681 131.92 55.3974C131.752 55.4266 131.596 55.5021 131.469 55.6153C131.343 55.7285 131.25 55.8749 131.202 56.0379L130.478 58.5198L128.313 58.004C128.148 57.9647 127.975 57.9725 127.813 58.0263C127.652 58.0802 127.509 58.178 127.401 58.3088C127.292 58.4397 127.223 58.5982 127.199 58.7666C127.176 58.9349 127.201 59.1064 127.27 59.2617L127.829 60.5294L126.406 60.996C126.245 61.0489 126.101 61.1461 125.992 61.2764C125.883 61.4068 125.812 61.5651 125.788 61.7335C125.764 61.9019 125.788 62.0737 125.856 62.2293C125.925 62.385 126.036 62.5184 126.176 62.6143L128.157 63.969L126.825 66.1423C126.737 66.2871 126.691 66.4536 126.692 66.6231C126.693 66.7926 126.742 66.9584 126.832 67.1019C126.923 67.2453 127.051 67.3607 127.203 67.4351C127.356 67.5096 127.526 67.54 127.694 67.5231L129.394 67.342V68.6996C129.393 68.8701 129.441 69.0373 129.531 69.1822C129.62 69.3271 129.749 69.444 129.902 69.5194C130.055 69.5949 130.226 69.6259 130.395 69.6091C130.565 69.5922 130.727 69.5281 130.862 69.424L132.484 68.1867L134.107 70.0818C134.218 70.2109 134.362 70.3065 134.525 70.3577C134.687 70.4088 134.86 70.4136 135.025 70.3714C135.19 70.3291 135.339 70.2417 135.457 70.1188C135.575 69.9959 135.656 69.8426 135.691 69.6761L136.099 67.7433L137.663 68.2461C137.824 68.2983 137.998 68.3042 138.163 68.263C138.328 68.2218 138.478 68.1352 138.596 68.013C138.714 67.8909 138.796 67.738 138.832 67.5717C138.868 67.4055 138.856 67.2325 138.798 67.0725L138.128 65.189L140.092 64.3718C140.249 64.306 140.384 64.1977 140.483 64.059C140.581 63.9204 140.639 63.7569 140.649 63.5872C140.66 63.4174 140.622 63.2482 140.542 63.0985C140.461 62.9489 140.34 62.8248 140.192 62.7404Z" fill="#F4BE38"/>
<path d="M127.052 76.6408C127.406 75.1804 127.096 72.823 123.452 69.1429C123.314 69.0026 123.21 68.8322 123.148 68.6451C123.087 68.4579 123.069 68.2591 123.098 68.0641C123.126 67.8691 123.198 67.6833 123.31 67.5211C123.422 67.3588 123.57 67.2247 123.742 67.129C123.921 67.0298 124.121 66.9749 124.325 66.9689C124.53 66.9629 124.733 67.0059 124.917 67.0945C125.102 67.183 125.262 67.3144 125.385 67.4777C125.509 67.641 125.591 67.8315 125.625 68.0331C126.495 72.9781 128.461 75.2774 130.16 76.4496C139.13 82.6797 157.729 69.7601 170.952 74.1922C172.156 74.5965 175.534 75.728 175.714 77.6695C175.908 79.7559 172.29 81.6336 171.689 81.9466C163.048 86.438 151.864 80.4238 151.279 81.777C150.694 83.1303 162.05 87.8695 161.336 91.0309C160.888 93.0086 155.757 94.2069 151.221 93.4752C142.219 92.0263 137.671 83.3172 135.217 84.7168C133.849 85.4963 135.294 88.1781 133.913 92.984C133.675 93.8084 131.521 101.28 127.296 101.579C124.1 101.805 120.508 97.8653 120.207 94.0895C119.792 88.8736 125.75 85.2051 124.778 83.9315C124.053 82.9897 120.004 83.9648 117.018 86.6192C112.526 90.6209 114.098 95.1906 110.514 97.0278C107.015 98.8186 102.077 96.2208 99.6921 94.317C97.9375 92.9174 95.828 91.2323 96.0149 89.4763C96.6683 83.2679 125.03 84.9964 127.052 76.6408Z" fill="#C4D650"/>
<path d="M79.8555 84.9055L56.9497 86.2824C54.7684 86.4135 53.1063 88.2882 53.2374 90.4696L55.1665 122.562C55.2977 124.743 57.1723 126.405 59.3537 126.274L82.2595 124.897C84.4409 124.766 86.1029 122.892 85.9718 120.71L84.0427 88.6178C83.9115 86.4364 82.0369 84.7744 79.8555 84.9055Z" fill="white"/>
<path d="M59.2239 96.6555C59.0399 96.4034 58.9079 96.1174 58.8352 95.814C58.7626 95.5106 58.7509 95.1958 58.8008 94.8878C58.8356 94.6908 59.021 93.8012 59.8715 93.3434C59.9715 93.2897 60.7669 92.8783 61.5855 93.2405C62.152 93.4911 62.3983 93.9649 62.6388 94.4286C62.8344 94.8024 63.5082 96.0976 62.9025 96.8148C62.7243 97.0278 62.6041 96.9148 61.8666 97.2495C61.1291 97.5842 61.0291 97.787 60.7162 97.8117C60.4032 97.8363 59.8961 97.6566 59.2239 96.6555Z" fill="#AEBC26"/>
<path d="M64.7121 95.86C64.9692 95.6829 65.2588 95.5586 65.5642 95.4942C65.8696 95.4298 66.1847 95.4266 66.4914 95.4848C66.6855 95.5253 67.5708 95.7354 68.0054 96.596C68.0561 96.6989 68.4401 97.5045 68.0619 98.313C67.7953 98.8737 67.3143 99.1069 66.8449 99.3344C66.4653 99.5184 65.1526 100.156 64.4514 99.5329C64.2442 99.3474 64.3601 99.2301 64.0486 98.4839C63.7371 97.7378 63.5342 97.6334 63.5183 97.3248C63.5023 97.0162 63.6936 96.5004 64.7121 95.86Z" fill="#AEBC26"/>
<path d="M62.1694 94.0403C62.3048 93.7604 62.4944 93.5101 62.7272 93.304C62.96 93.0978 63.2313 92.9398 63.5255 92.8391C63.7153 92.7768 64.5875 92.5189 65.3931 93.0507C65.4873 93.1144 66.2262 93.6201 66.2943 94.5126C66.3421 95.1312 66.0407 95.5717 65.7466 96.0035C65.509 96.3512 64.686 97.5567 63.7689 97.364C63.4965 97.3074 63.5385 97.1481 62.8996 96.6555C62.2606 96.1628 62.0303 96.173 61.8608 95.9078C61.6912 95.6427 61.6029 95.1037 62.1694 94.0403Z" fill="#C4D650"/>
<path d="M65.9495 101.243C66.1651 100.776 66.282 100.27 66.293 99.7563C66.3039 99.2425 66.2087 98.732 66.0133 98.2567C65.8179 97.7814 65.5265 97.3516 65.1573 96.9942C64.7881 96.6367 64.3491 96.3593 63.8677 96.1793C63.3864 95.9993 62.8731 95.9206 62.3599 95.9482C61.8468 95.9757 61.3448 96.1089 60.8855 96.3394C60.4262 96.5699 60.0194 96.8927 59.6906 97.2876C59.3618 97.6826 59.1181 98.1411 58.9747 98.6346C58.9602 98.6839 58.9457 98.7317 58.9298 98.7795C58.8796 98.9318 58.8437 99.0885 58.8226 99.2475C58.6588 100.039 57.7707 104.452 58.2256 106.288C58.2952 106.561 58.4545 107.202 58.9283 107.384C59.3152 107.529 59.7353 107.331 60.0034 107.184C62.5476 105.808 65.0904 102.452 65.2193 102.313L65.2338 102.297C65.2628 102.267 65.3222 102.202 65.3903 102.115C65.425 102.071 65.4584 102.025 65.4902 101.98C65.5221 101.935 65.5554 101.886 65.5888 101.835C65.7265 101.649 65.8473 101.45 65.9495 101.243Z" fill="#E37A39"/>
<path d="M56.174 103.985C59.7671 104.014 64.4021 103.406 67.2839 100.125C68.6849 98.5317 69.0631 96.9988 69.25 97.0742C69.6846 97.2524 68.4893 106.202 62.9604 108.88C60.7205 109.962 58.369 109.721 56.8404 109.394" fill="#D86627"/>
<path d="M60.9113 100.23C61.2578 99.2291 60.6866 98.1226 59.6355 97.7588C58.5844 97.395 57.4515 97.9118 57.105 98.9129C56.7585 99.9141 57.3297 101.021 58.3808 101.384C59.4319 101.748 60.5648 101.231 60.9113 100.23Z" fill="#E2E2E2"/>
<path d="M60.755 100.446C60.9916 99.7629 60.6016 99.0074 59.884 98.7591C59.1664 98.5107 58.3929 98.8635 58.1563 99.5471C57.9197 100.231 58.3096 100.986 59.0273 101.235C59.7449 101.483 60.5184 101.13 60.755 100.446Z" fill="black"/>
<path d="M59.452 99.1303C59.5715 98.9779 59.4479 98.6815 59.1759 98.4681C58.904 98.2548 58.5866 98.2054 58.4671 98.3577C58.3476 98.5101 58.4712 98.8066 58.7432 99.0199C59.0151 99.2332 59.3325 99.2827 59.452 99.1303Z" fill="white"/>
<path d="M66.7721 102.466C67.1117 101.484 66.535 100.394 65.484 100.03C64.4329 99.6664 63.3054 100.167 62.9657 101.149C62.626 102.13 63.2027 103.221 64.2538 103.585C65.3049 103.948 66.4324 103.448 66.7721 102.466Z" fill="#E2E2E2"/>
<path d="M65.5348 102.133C65.7667 101.463 65.3729 100.718 64.6553 100.47C63.9377 100.222 63.1679 100.563 62.9361 101.233C62.7042 101.903 63.098 102.648 63.8156 102.896C64.5332 103.144 65.3029 102.803 65.5348 102.133Z" fill="black"/>
<path d="M65.3776 101.692C65.7225 101.678 65.9959 101.513 65.9883 101.323C65.9807 101.134 65.695 100.991 65.3501 101.005C65.0052 101.019 64.7318 101.184 64.7394 101.373C64.747 101.563 65.0327 101.706 65.3776 101.692Z" fill="white"/>
<path d="M74.5485 120.117C78.9927 120.117 82.5955 116.514 82.5955 112.07C82.5955 107.626 78.9927 104.023 74.5485 104.023C70.1042 104.023 66.5015 107.626 66.5015 112.07C66.5015 116.514 70.1042 120.117 74.5485 120.117Z" fill="#4EADAF"/>
<path d="M75.7699 103.693C75.9212 103.539 76.0222 103.344 76.0597 103.132C76.0713 103.042 76.1032 102.806 75.9786 102.697C75.7873 102.539 75.2817 102.741 74.9832 103.048C74.7948 103.265 74.6197 103.492 74.4587 103.73C74.3732 103.852 74.2964 103.969 74.2559 103.953C74.2153 103.937 74.3022 103.706 74.2747 103.401C74.2336 103.118 74.1164 102.852 73.9357 102.631C73.7777 102.4 73.6314 102.186 73.4604 102.205C73.3576 102.216 73.2924 102.307 73.2286 102.397C73.1649 102.487 73.062 102.657 72.9982 103.2C72.9589 103.467 72.9462 103.737 72.9606 104.007C72.9678 104.11 72.9809 104.242 72.9606 104.245C72.9403 104.248 72.9272 103.768 72.6331 103.472C72.423 103.262 72.1478 103.235 71.7638 103.194C71.4958 103.167 70.796 103.093 70.6801 103.368C70.6004 103.555 70.8249 103.824 70.8843 103.897C71.0068 104.037 71.1593 104.147 71.3306 104.22C71.6281 104.385 71.9417 104.519 72.2666 104.62C72.9475 104.808 74.0545 105.117 74.9339 104.55C75.1281 104.43 75.3425 104.187 75.7699 103.693Z" fill="#387777"/>
<path d="M76.5668 104.233C76.7824 104.017 76.9269 103.74 76.9811 103.439C76.9985 103.312 77.0434 102.977 76.8667 102.831C76.5957 102.609 75.88 102.893 75.4584 103.327C75.1911 103.633 74.9434 103.956 74.7166 104.292C74.5949 104.466 74.4862 104.631 74.4268 104.61C74.3674 104.588 74.4934 104.258 74.4543 103.827C74.4152 103.397 74.1979 103.065 73.9747 102.736C73.7516 102.407 73.5401 102.108 73.3025 102.135C73.1576 102.151 73.0634 102.28 72.9736 102.407C72.8837 102.535 72.7374 102.773 72.649 103.542C72.5932 103.92 72.5752 104.302 72.5954 104.684C72.6041 104.829 72.6229 105.017 72.5954 105.021C72.5491 105.03 72.5491 104.346 72.1332 103.929C71.8362 103.632 71.4465 103.591 70.9017 103.535C70.5235 103.496 69.5325 103.39 69.3688 103.781C69.2572 104.045 69.5731 104.426 69.6586 104.529C69.8327 104.726 70.0485 104.882 70.2903 104.986C70.8829 105.276 71.1784 105.43 71.616 105.551C72.578 105.82 74.1457 106.256 75.3903 105.453C75.6598 105.281 75.9626 104.931 76.5668 104.233Z" fill="#4EADAF"/>
<path d="M69.8378 113.068C71.5154 112.72 72.6071 111.144 72.2763 109.546C71.9454 107.948 70.3172 106.935 68.6396 107.282C66.962 107.629 65.8703 109.206 66.2011 110.804C66.532 112.402 68.1602 113.415 69.8378 113.068Z" fill="#E2E2E2"/>
<path d="M70.5757 112.363C71.7204 112.126 72.4654 111.05 72.2395 109.959C72.0136 108.868 70.9025 108.176 69.7577 108.413C68.6129 108.65 67.868 109.727 68.0939 110.817C68.3197 111.908 69.4309 112.6 70.5757 112.363Z" fill="black"/>
<path d="M69.4788 109.232C69.5167 108.937 69.1202 108.643 68.5932 108.575C68.0662 108.508 67.6082 108.692 67.5703 108.987C67.5325 109.283 67.929 109.577 68.456 109.644C68.983 109.712 69.4409 109.528 69.4788 109.232Z" fill="white"/>
<path d="M79.3401 111.347C81.0177 110.999 82.1147 109.448 81.7903 107.882C81.466 106.315 79.843 105.327 78.1654 105.675C76.4878 106.022 75.3908 107.573 75.7152 109.14C76.0396 110.706 77.6625 111.694 79.3401 111.347Z" fill="#E2E2E2"/>
<path d="M78.2171 110.784C79.3619 110.547 80.1103 109.487 79.8888 108.418C79.6673 107.348 78.5598 106.673 77.415 106.91C76.2702 107.148 75.5217 108.207 75.7432 109.276C75.9647 110.346 77.0723 111.021 78.2171 110.784Z" fill="black"/>
<path d="M79.3058 107.901C79.7509 107.611 79.9824 107.178 79.8229 106.933C79.6634 106.688 79.1733 106.725 78.7282 107.015C78.2831 107.305 78.0515 107.739 78.211 107.984C78.3705 108.228 78.8607 108.192 79.3058 107.901Z" fill="white"/>
<rect x="200" y="145" width="128" height="31" rx="15.5" fill="#4AAEAD"/>
<path d="M236.057 161.848C235.513 161.848 235.134 161.741 234.921 161.528C234.718 161.315 234.617 160.909 234.617 160.312C234.617 159.693 234.734 159.299 234.969 159.128C235.225 158.936 235.625 158.84 236.169 158.84C236.723 158.84 237.102 158.947 237.305 159.16C237.518 159.373 237.625 159.773 237.625 160.36C237.625 160.989 237.507 161.389 237.273 161.56C237.017 161.752 236.611 161.848 236.057 161.848ZM235.305 163.16C235.518 163.107 235.795 163.08 236.137 163.08C236.478 163.08 236.75 163.107 236.953 163.16C237.155 163.213 237.294 163.309 237.369 163.448C237.454 163.587 237.502 163.709 237.513 163.816C237.534 163.923 237.545 164.088 237.545 164.312V169.384C237.545 169.608 237.534 169.773 237.513 169.88C237.502 169.997 237.454 170.125 237.369 170.264C237.283 170.403 237.134 170.499 236.921 170.552C236.718 170.616 236.446 170.648 236.105 170.648C235.763 170.648 235.491 170.616 235.289 170.552C235.086 170.499 234.942 170.397 234.857 170.248C234.782 170.109 234.734 169.981 234.713 169.864C234.702 169.757 234.697 169.592 234.697 169.368V164.296C234.697 164.072 234.702 163.907 234.713 163.8C234.734 163.693 234.787 163.576 234.873 163.448C234.958 163.309 235.102 163.213 235.305 163.16ZM249.602 155.448C250.231 155.757 250.546 156.099 250.546 156.472C250.546 156.643 250.466 156.899 250.306 157.24L245.89 166.2C245.772 166.435 245.591 166.627 245.346 166.776C245.111 166.915 244.866 166.984 244.61 166.984H244.45C244.183 166.984 243.927 166.915 243.682 166.776C243.447 166.627 243.271 166.435 243.154 166.2L238.738 157.24C238.578 156.899 238.498 156.643 238.498 156.472C238.498 156.099 238.812 155.757 239.442 155.448C239.794 155.267 240.06 155.176 240.242 155.176C240.434 155.176 240.578 155.197 240.674 155.24C240.77 155.283 240.86 155.357 240.946 155.464C241.042 155.592 241.127 155.736 241.202 155.896C241.287 156.045 241.495 156.488 241.826 157.224C242.156 157.949 242.508 158.723 242.882 159.544C243.266 160.365 243.623 161.144 243.954 161.88C244.295 162.605 244.487 163.011 244.53 163.096L247.73 156.088C247.815 155.885 247.89 155.725 247.954 155.608C248.146 155.32 248.38 155.176 248.658 155.176C248.935 155.176 249.25 155.267 249.602 155.448ZM255.307 159.464C255.371 158.867 255.793 158.568 256.571 158.568C256.987 158.568 257.297 158.6 257.499 158.664C257.702 158.728 257.841 158.84 257.915 159C258.001 159.16 258.049 159.304 258.059 159.432C258.081 159.549 258.091 159.731 258.091 159.976V165.576C258.091 165.821 258.081 166.008 258.059 166.136C258.049 166.253 258.006 166.392 257.931 166.552C257.782 166.829 257.414 166.968 256.827 166.968C256.251 166.968 255.862 166.899 255.659 166.76C255.467 166.611 255.355 166.397 255.323 166.12C254.929 166.685 254.267 166.968 253.339 166.968C252.422 166.968 251.569 166.547 250.779 165.704C249.99 164.861 249.595 163.885 249.595 162.776C249.595 161.656 249.99 160.68 250.779 159.848C251.579 159.005 252.454 158.584 253.403 158.584C253.766 158.584 254.097 158.648 254.395 158.776C254.694 158.904 254.902 159.027 255.019 159.144C255.137 159.251 255.233 159.357 255.307 159.464ZM252.395 162.792C252.395 163.144 252.534 163.464 252.811 163.752C253.089 164.029 253.425 164.168 253.819 164.168C254.214 164.168 254.539 164.024 254.795 163.736C255.062 163.448 255.195 163.133 255.195 162.792C255.195 162.44 255.067 162.115 254.811 161.816C254.566 161.517 254.23 161.368 253.803 161.368C253.387 161.368 253.046 161.517 252.779 161.816C252.523 162.115 252.395 162.44 252.395 162.792ZM262.119 159.688C262.62 158.931 263.223 158.552 263.927 158.552C265.015 158.552 265.825 159.016 266.359 159.944C266.476 159.784 266.615 159.619 266.775 159.448C266.945 159.267 267.212 159.075 267.575 158.872C267.937 158.659 268.311 158.552 268.695 158.552C269.548 158.552 270.263 158.883 270.839 159.544C271.415 160.195 271.703 161.277 271.703 162.792V165.592C271.703 165.837 271.692 166.024 271.671 166.152C271.66 166.269 271.612 166.408 271.527 166.568C271.388 166.856 270.977 167 270.295 167C269.623 167 269.212 166.851 269.063 166.552C268.988 166.392 268.94 166.253 268.919 166.136C268.908 166.008 268.903 165.821 268.903 165.576V162.776C268.903 161.848 268.572 161.384 267.911 161.384C267.537 161.384 267.281 161.507 267.143 161.752C267.015 161.997 266.951 162.344 266.951 162.792V165.592C266.951 165.848 266.94 166.035 266.919 166.152C266.908 166.269 266.86 166.408 266.775 166.568C266.625 166.856 266.209 167 265.527 167C264.855 167 264.444 166.851 264.295 166.552C264.22 166.392 264.172 166.253 264.151 166.136C264.14 166.008 264.135 165.821 264.135 165.576V162.776C264.135 161.848 263.804 161.384 263.143 161.384C262.503 161.384 262.183 161.848 262.183 162.776V165.608C262.183 165.853 262.172 166.04 262.151 166.168C262.14 166.285 262.092 166.424 262.007 166.584C261.847 166.861 261.431 167 260.759 167C260.087 167 259.676 166.856 259.527 166.568C259.452 166.408 259.404 166.269 259.383 166.152C259.372 166.035 259.367 165.848 259.367 165.592V159.96C259.367 159.715 259.372 159.533 259.383 159.416C259.404 159.288 259.457 159.149 259.543 159C259.703 158.712 260.081 158.568 260.679 158.568C261.276 158.568 261.665 158.664 261.847 158.856C262.028 159.048 262.119 159.325 262.119 159.688ZM272.736 162.792C272.736 161.512 273.184 160.456 274.08 159.624C274.976 158.792 276 158.376 277.152 158.376C278.304 158.376 279.323 158.792 280.208 159.624C281.093 160.445 281.536 161.496 281.536 162.776C281.536 163.661 281.307 164.451 280.848 165.144C280.389 165.827 279.829 166.333 279.168 166.664C278.517 166.984 277.84 167.144 277.136 167.144C276.432 167.144 275.749 166.973 275.088 166.632C274.427 166.28 273.867 165.768 273.408 165.096C272.96 164.413 272.736 163.645 272.736 162.792ZM276.08 163.944C276.421 164.2 276.768 164.328 277.12 164.328C277.472 164.328 277.824 164.195 278.176 163.928C278.528 163.661 278.704 163.267 278.704 162.744C278.704 162.221 278.539 161.832 278.208 161.576C277.877 161.32 277.52 161.192 277.136 161.192C276.752 161.192 276.395 161.325 276.064 161.592C275.733 161.859 275.568 162.253 275.568 162.776C275.568 163.288 275.739 163.677 276.08 163.944ZM282.634 166.248C282.431 166.12 282.33 165.917 282.33 165.64C282.33 165.363 282.532 164.941 282.938 164.376C283.055 164.195 283.242 164.104 283.498 164.104C283.764 164.104 284.122 164.237 284.57 164.504C285.018 164.76 285.423 164.888 285.786 164.888C286.436 164.888 286.762 164.76 286.762 164.504C286.762 164.301 286.404 164.152 285.69 164.056C285.018 163.96 284.351 163.709 283.69 163.304C283.38 163.112 283.124 162.813 282.922 162.408C282.719 161.992 282.618 161.501 282.618 160.936C282.618 159.251 283.775 158.408 286.09 158.408C286.847 158.408 287.626 158.589 288.426 158.952C288.799 159.123 288.986 159.336 288.986 159.592C288.986 159.848 288.868 160.163 288.634 160.536C288.399 160.909 288.159 161.096 287.914 161.096C287.786 161.096 287.546 161.016 287.194 160.856C286.852 160.696 286.479 160.616 286.074 160.616C285.444 160.616 285.13 160.733 285.13 160.968C285.13 161.288 285.492 161.496 286.218 161.592C286.922 161.667 287.604 161.869 288.266 162.2C288.575 162.349 288.831 162.611 289.034 162.984C289.247 163.347 289.354 163.805 289.354 164.36C289.354 164.915 289.247 165.389 289.034 165.784C288.831 166.168 288.543 166.456 288.17 166.648C287.487 166.979 286.628 167.144 285.594 167.144C284.57 167.144 283.583 166.845 282.634 166.248ZM290.558 164.568C290.664 164.355 290.824 164.211 291.038 164.136C291.262 164.061 291.603 164.024 292.062 164.024C292.531 164.024 292.867 164.125 293.07 164.328C293.283 164.531 293.39 164.851 293.39 165.288V165.544C293.39 165.8 293.379 165.992 293.358 166.12C293.347 166.237 293.299 166.381 293.214 166.552C293.043 166.861 292.632 167.016 291.982 167.016C291.342 167.016 290.915 166.915 290.702 166.712C290.499 166.499 290.398 166.093 290.398 165.496C290.398 165.08 290.451 164.771 290.558 164.568ZM292.702 162.696C292.499 162.749 292.227 162.776 291.886 162.776C291.544 162.776 291.272 162.749 291.07 162.696C290.867 162.643 290.723 162.547 290.638 162.408C290.563 162.269 290.515 162.147 290.494 162.04C290.483 161.933 290.478 161.768 290.478 161.544V156.472C290.478 156.248 290.483 156.083 290.494 155.976C290.515 155.859 290.568 155.731 290.654 155.592C290.739 155.453 290.883 155.357 291.086 155.304C291.288 155.24 291.56 155.208 291.902 155.208C292.243 155.208 292.515 155.24 292.718 155.304C292.92 155.357 293.059 155.459 293.134 155.608C293.219 155.747 293.267 155.875 293.278 155.992C293.299 156.099 293.31 156.264 293.31 156.488V161.56C293.31 161.784 293.299 161.949 293.278 162.056C293.267 162.163 293.219 162.285 293.134 162.424C293.048 162.552 292.904 162.643 292.702 162.696Z" fill="white"/>
<path d="M39.968 11.928L40.256 11.72C40.6187 11.5067 40.8747 11.4 41.024 11.4C41.3547 11.4 41.712 11.6987 42.096 12.296C42.3307 12.6693 42.448 12.968 42.448 13.192C42.448 13.416 42.3733 13.6027 42.224 13.752C42.0853 13.9013 41.92 14.0347 41.728 14.152C41.536 14.2693 41.3493 14.3813 41.168 14.488C40.9973 14.5947 40.64 14.7333 40.096 14.904C39.552 15.0747 39.024 15.16 38.512 15.16C38.0107 15.16 37.4987 15.096 36.976 14.968C36.464 14.8293 35.9307 14.6053 35.376 14.296C34.832 13.976 34.3413 13.592 33.904 13.144C33.4667 12.6853 33.104 12.104 32.816 11.4C32.5387 10.6853 32.4 9.912 32.4 9.08C32.4 8.248 32.5387 7.496 32.816 6.824C33.0933 6.14133 33.4453 5.58133 33.872 5.144C34.3093 4.696 34.8053 4.32267 35.36 4.024C36.4053 3.448 37.456 3.16 38.512 3.16C39.0133 3.16 39.52 3.24 40.032 3.4C40.5547 3.54933 40.9493 3.704 41.216 3.864L41.6 4.088C41.792 4.20533 41.9413 4.30133 42.048 4.376C42.3253 4.6 42.464 4.856 42.464 5.144C42.464 5.42133 42.352 5.71467 42.128 6.024C41.712 6.6 41.3387 6.888 41.008 6.888C40.816 6.888 40.544 6.77067 40.192 6.536C39.744 6.17333 39.1467 5.992 38.4 5.992C37.7067 5.992 37.024 6.232 36.352 6.712C36.032 6.94667 35.7653 7.27733 35.552 7.704C35.3387 8.13067 35.232 8.616 35.232 9.16C35.232 9.69333 35.3387 10.1733 35.552 10.6C35.7653 11.0267 36.0373 11.3627 36.368 11.608C37.0187 12.0773 37.696 12.312 38.4 12.312C38.7307 12.312 39.04 12.2693 39.328 12.184C39.6267 12.0987 39.84 12.0133 39.968 11.928ZM49.0034 3.128C50.582 3.128 51.9527 3.69867 53.1154 4.84C54.278 5.98133 54.8594 7.4 54.8594 9.096C54.8594 10.7813 54.3047 12.2213 53.1954 13.416C52.086 14.6 50.7207 15.192 49.0994 15.192C47.478 15.192 46.0967 14.6053 44.9554 13.432C43.8247 12.2587 43.2594 10.8613 43.2594 9.24C43.2594 8.35467 43.4194 7.528 43.7394 6.76C44.0594 5.98133 44.486 5.33067 45.0194 4.808C45.5527 4.28533 46.166 3.87467 46.8594 3.576C47.5527 3.27733 48.2674 3.128 49.0034 3.128ZM46.0914 9.16C46.0914 10.1093 46.3954 10.8827 47.0034 11.48C47.622 12.0667 48.31 12.36 49.0674 12.36C49.8247 12.36 50.5074 12.072 51.1154 11.496C51.7234 10.92 52.0274 10.1467 52.0274 9.176C52.0274 8.20533 51.718 7.42667 51.0994 6.84C50.4914 6.25333 49.8087 5.96 49.0514 5.96C48.294 5.96 47.6114 6.25867 47.0034 6.856C46.3954 7.44267 46.0914 8.21067 46.0914 9.16ZM63.4736 3.768C63.5803 3.576 63.735 3.448 63.9376 3.384C64.1403 3.32 64.391 3.288 64.6896 3.288C64.999 3.288 65.2443 3.31467 65.4256 3.368C65.6176 3.42133 65.7563 3.48533 65.8416 3.56C65.9376 3.63467 66.007 3.74667 66.0496 3.896C66.1136 4.06667 66.1456 4.33867 66.1456 4.712V13.592C66.1456 13.848 66.135 14.0347 66.1136 14.152C66.103 14.2693 66.055 14.408 65.9696 14.568C65.8203 14.856 65.4043 15 64.7216 15C64.3056 15 64.0176 14.968 63.8576 14.904C63.6976 14.84 63.5643 14.7387 63.4576 14.6C61.0576 11.4 59.479 9.30933 58.7216 8.328V13.592C58.7216 13.848 58.711 14.0347 58.6896 14.152C58.679 14.2693 58.631 14.408 58.5456 14.568C58.3963 14.856 57.9803 15 57.2976 15C56.6363 15 56.231 14.856 56.0816 14.568C55.9963 14.408 55.943 14.264 55.9216 14.136C55.911 14.008 55.9056 13.8213 55.9056 13.576V4.648C55.9056 4.24267 55.9536 3.94933 56.0496 3.768C56.1563 3.576 56.311 3.448 56.5136 3.384C56.7163 3.32 56.9776 3.288 57.2976 3.288C57.6176 3.288 57.8683 3.32 58.0496 3.384C58.2416 3.43733 58.375 3.50133 58.4496 3.576C58.4923 3.608 58.615 3.74667 58.8176 3.992C61.0683 7.05333 62.5723 9.07467 63.3296 10.056V4.648C63.3296 4.24267 63.3776 3.94933 63.4736 3.768ZM72.9253 3.128C74.5039 3.128 75.8746 3.69867 77.0373 4.84C78.1999 5.98133 78.7813 7.4 78.7813 9.096C78.7813 10.7813 78.2266 12.2213 77.1173 13.416C76.0079 14.6 74.6426 15.192 73.0213 15.192C71.3999 15.192 70.0186 14.6053 68.8773 13.432C67.7466 12.2587 67.1813 10.8613 67.1813 9.24C67.1813 8.35467 67.3413 7.528 67.6613 6.76C67.9813 5.98133 68.4079 5.33067 68.9413 4.808C69.4746 4.28533 70.0879 3.87467 70.7812 3.576C71.4746 3.27733 72.1893 3.128 72.9253 3.128ZM70.0133 9.16C70.0133 10.1093 70.3173 10.8827 70.9253 11.48C71.5439 12.0667 72.2319 12.36 72.9893 12.36C73.7466 12.36 74.4293 12.072 75.0373 11.496C75.6453 10.92 75.9493 10.1467 75.9493 9.176C75.9493 8.20533 75.6399 7.42667 75.0213 6.84C74.4133 6.25333 73.7306 5.96 72.9733 5.96C72.2159 5.96 71.5333 6.25867 70.9253 6.856C70.3173 7.44267 70.0133 8.21067 70.0133 9.16ZM87.1555 11.928L87.4435 11.72C87.8062 11.5067 88.0622 11.4 88.2115 11.4C88.5422 11.4 88.8995 11.6987 89.2835 12.296C89.5182 12.6693 89.6355 12.968 89.6355 13.192C89.6355 13.416 89.5608 13.6027 89.4115 13.752C89.2728 13.9013 89.1075 14.0347 88.9155 14.152C88.7235 14.2693 88.5368 14.3813 88.3555 14.488C88.1848 14.5947 87.8275 14.7333 87.2835 14.904C86.7395 15.0747 86.2115 15.16 85.6995 15.16C85.1982 15.16 84.6862 15.096 84.1635 14.968C83.6515 14.8293 83.1182 14.6053 82.5635 14.296C82.0195 13.976 81.5288 13.592 81.0915 13.144C80.6542 12.6853 80.2915 12.104 80.0035 11.4C79.7262 10.6853 79.5875 9.912 79.5875 9.08C79.5875 8.248 79.7262 7.496 80.0035 6.824C80.2808 6.14133 80.6328 5.58133 81.0595 5.144C81.4968 4.696 81.9928 4.32267 82.5475 4.024C83.5928 3.448 84.6435 3.16 85.6995 3.16C86.2008 3.16 86.7075 3.24 87.2195 3.4C87.7422 3.54933 88.1368 3.704 88.4035 3.864L88.7875 4.088C88.9795 4.20533 89.1288 4.30133 89.2355 4.376C89.5128 4.6 89.6515 4.856 89.6515 5.144C89.6515 5.42133 89.5395 5.71467 89.3155 6.024C88.8995 6.6 88.5262 6.888 88.1955 6.888C88.0035 6.888 87.7315 6.77067 87.3795 6.536C86.9315 6.17333 86.3342 5.992 85.5875 5.992C84.8942 5.992 84.2115 6.232 83.5395 6.712C83.2195 6.94667 82.9528 7.27733 82.7395 7.704C82.5262 8.13067 82.4195 8.616 82.4195 9.16C82.4195 9.69333 82.5262 10.1733 82.7395 10.6C82.9528 11.0267 83.2248 11.3627 83.5555 11.608C84.2062 12.0773 84.8835 12.312 85.5875 12.312C85.9182 12.312 86.2275 12.2693 86.5155 12.184C86.8142 12.0987 87.0275 12.0133 87.1555 11.928ZM93.5189 12.168H98.4469C98.6922 12.168 98.8735 12.1787 98.9909 12.2C99.1189 12.2107 99.2629 12.2587 99.4229 12.344C99.7109 12.4933 99.8549 12.9093 99.8549 13.592C99.8549 14.3387 99.6575 14.776 99.2629 14.904C99.0815 14.968 98.8042 15 98.4309 15H92.0949C91.3482 15 90.9109 14.7973 90.7829 14.392C90.7189 14.2213 90.6869 13.9493 90.6869 13.576V4.68C90.6869 4.136 90.7882 3.768 90.9909 3.576C91.1935 3.37333 91.5775 3.272 92.1429 3.272H98.4469C98.6922 3.272 98.8735 3.28267 98.9909 3.304C99.1189 3.31467 99.2629 3.36267 99.4229 3.448C99.7109 3.59733 99.8549 4.01333 99.8549 4.696C99.8549 5.44267 99.6575 5.88 99.2629 6.008C99.0815 6.072 98.8042 6.104 98.4309 6.104H93.5189V7.72H96.6869C96.9322 7.72 97.1135 7.73067 97.2309 7.752C97.3589 7.76267 97.5029 7.81067 97.6629 7.896C97.9509 8.04533 98.0949 8.46133 98.0949 9.144C98.0949 9.89067 97.8922 10.328 97.4869 10.456C97.3055 10.52 97.0282 10.552 96.6549 10.552H93.5189V12.168ZM105.705 3.256H114.601C114.942 3.256 115.193 3.29867 115.353 3.384C115.513 3.45867 115.62 3.58133 115.673 3.752C115.726 3.92267 115.753 4.14667 115.753 4.424C115.753 4.70133 115.726 4.92533 115.673 5.096C115.62 5.256 115.529 5.368 115.401 5.432C115.209 5.528 114.937 5.576 114.585 5.576H111.529V13.624C111.529 13.8693 111.518 14.0507 111.497 14.168C111.486 14.2853 111.438 14.424 111.353 14.584C111.278 14.7333 111.14 14.84 110.937 14.904C110.734 14.968 110.468 15 110.137 15C109.806 15 109.54 14.968 109.337 14.904C109.145 14.84 109.006 14.7333 108.921 14.584C108.846 14.424 108.798 14.2853 108.777 14.168C108.766 14.04 108.761 13.8533 108.761 13.608V5.576H105.689C105.348 5.576 105.097 5.53867 104.937 5.464C104.777 5.37867 104.67 5.25067 104.617 5.08C104.564 4.90933 104.537 4.68533 104.537 4.408C104.537 4.13067 104.564 3.912 104.617 3.752C104.67 3.58133 104.761 3.464 104.889 3.4C105.081 3.304 105.353 3.256 105.705 3.256ZM124.304 3.704C124.411 3.53333 124.565 3.416 124.768 3.352C124.971 3.288 125.221 3.256 125.52 3.256C125.829 3.256 126.075 3.28267 126.256 3.336C126.437 3.38933 126.576 3.45333 126.672 3.528C126.768 3.60267 126.837 3.71467 126.88 3.864C126.944 4.04533 126.976 4.32267 126.976 4.696V9.528C126.976 10.936 126.539 12.216 125.664 13.368C125.237 13.912 124.688 14.3547 124.016 14.696C123.344 15.0267 122.597 15.192 121.776 15.192C120.965 15.192 120.224 15.0213 119.552 14.68C118.891 14.3387 118.352 13.8907 117.936 13.336C117.072 12.2053 116.64 10.9253 116.64 9.496V4.68C116.64 4.424 116.645 4.23733 116.656 4.12C116.677 3.992 116.731 3.848 116.816 3.688C116.901 3.528 117.045 3.416 117.248 3.352C117.451 3.288 117.723 3.256 118.064 3.256C118.405 3.256 118.677 3.288 118.88 3.352C119.083 3.416 119.221 3.528 119.296 3.688C119.424 3.93333 119.488 4.26933 119.488 4.696V9.496C119.488 10.1467 119.648 10.7653 119.968 11.352C120.128 11.6507 120.368 11.8907 120.688 12.072C121.008 12.2533 121.387 12.344 121.824 12.344C122.603 12.344 123.184 12.056 123.568 11.48C123.952 10.904 124.144 10.2373 124.144 9.48V4.584C124.144 4.168 124.197 3.87467 124.304 3.704ZM133.72 3.256L136.68 3.272C138.227 3.272 139.587 3.832 140.76 4.952C141.934 6.06133 142.52 7.432 142.52 9.064C142.52 10.6853 141.944 12.0773 140.792 13.24C139.651 14.4027 138.264 14.984 136.632 14.984H133.704C133.054 14.984 132.648 14.8507 132.488 14.584C132.36 14.36 132.296 14.0187 132.296 13.56V4.664C132.296 4.408 132.302 4.22133 132.312 4.104C132.334 3.98667 132.387 3.848 132.472 3.688C132.622 3.4 133.038 3.256 133.72 3.256ZM136.68 12.152C137.448 12.152 138.142 11.8693 138.76 11.304C139.379 10.728 139.688 10.008 139.688 9.144C139.688 8.28 139.384 7.56 138.776 6.984C138.179 6.39733 137.475 6.104 136.664 6.104H135.128V12.152H136.68ZM143.562 4.68C143.562 4.43467 143.567 4.25333 143.578 4.136C143.599 4.008 143.653 3.864 143.738 3.704C143.887 3.416 144.303 3.272 144.986 3.272C145.733 3.272 146.175 3.46933 146.314 3.864C146.367 4.04533 146.394 4.32267 146.394 4.696V13.592C146.394 13.848 146.383 14.0347 146.362 14.152C146.351 14.2693 146.303 14.408 146.218 14.568C146.069 14.856 145.653 15 144.97 15C144.223 15 143.786 14.7973 143.658 14.392C143.594 14.2213 143.562 13.9493 143.562 13.576V4.68ZM150.503 12.168H155.431C155.677 12.168 155.858 12.1787 155.975 12.2C156.103 12.2107 156.247 12.2587 156.407 12.344C156.695 12.4933 156.839 12.9093 156.839 13.592C156.839 14.3387 156.642 14.776 156.247 14.904C156.066 14.968 155.789 15 155.415 15H149.079C148.333 15 147.895 14.7973 147.767 14.392C147.703 14.2213 147.671 13.9493 147.671 13.576V4.68C147.671 4.136 147.773 3.768 147.975 3.576C148.178 3.37333 148.562 3.272 149.127 3.272H155.431C155.677 3.272 155.858 3.28267 155.975 3.304C156.103 3.31467 156.247 3.36267 156.407 3.448C156.695 3.59733 156.839 4.01333 156.839 4.696C156.839 5.44267 156.642 5.88 156.247 6.008C156.066 6.072 155.789 6.104 155.415 6.104H150.503V7.72H153.671C153.917 7.72 154.098 7.73067 154.215 7.752C154.343 7.76267 154.487 7.81067 154.647 7.896C154.935 8.04533 155.079 8.46133 155.079 9.144C155.079 9.89067 154.877 10.328 154.471 10.456C154.29 10.52 154.013 10.552 153.639 10.552H150.503V12.168ZM158.642 3.256H167.538C167.88 3.256 168.13 3.29867 168.29 3.384C168.45 3.45867 168.557 3.58133 168.61 3.752C168.664 3.92267 168.69 4.14667 168.69 4.424C168.69 4.70133 168.664 4.92533 168.61 5.096C168.557 5.256 168.466 5.368 168.338 5.432C168.146 5.528 167.874 5.576 167.522 5.576H164.466V13.624C164.466 13.8693 164.456 14.0507 164.434 14.168C164.424 14.2853 164.376 14.424 164.29 14.584C164.216 14.7333 164.077 14.84 163.874 14.904C163.672 14.968 163.405 15 163.074 15C162.744 15 162.477 14.968 162.274 14.904C162.082 14.84 161.944 14.7333 161.858 14.584C161.784 14.424 161.736 14.2853 161.714 14.168C161.704 14.04 161.698 13.8533 161.698 13.608V5.576H158.626C158.285 5.576 158.034 5.53867 157.874 5.464C157.714 5.37867 157.608 5.25067 157.554 5.08C157.501 4.90933 157.474 4.68533 157.474 4.408C157.474 4.13067 157.501 3.912 157.554 3.752C157.608 3.58133 157.698 3.464 157.826 3.4C158.018 3.304 158.29 3.256 158.642 3.256ZM173.939 4.104L178.259 13.032C178.441 13.3947 178.531 13.6667 178.531 13.848C178.531 14.232 178.222 14.5787 177.603 14.888C177.241 15.0693 176.953 15.16 176.739 15.16C176.537 15.16 176.366 15.112 176.227 15.016C176.099 14.92 176.003 14.8187 175.939 14.712C175.886 14.6053 175.806 14.4453 175.699 14.232L174.867 12.504H170.435L169.603 14.232C169.497 14.4453 169.411 14.6 169.347 14.696C169.294 14.792 169.198 14.8933 169.059 15C168.931 15.096 168.761 15.144 168.547 15.144C168.345 15.144 168.062 15.0533 167.699 14.872C167.081 14.5733 166.771 14.232 166.771 13.848C166.771 13.6667 166.862 13.3947 167.043 13.032L171.363 4.088C171.481 3.84267 171.657 3.64533 171.891 3.496C172.137 3.34667 172.393 3.272 172.659 3.272C173.235 3.272 173.662 3.54933 173.939 4.104ZM172.643 7.944L171.587 10.136H173.715L172.643 7.944ZM183.453 4.68C183.453 4.43467 183.458 4.25333 183.469 4.136C183.49 4.008 183.543 3.864 183.629 3.704C183.778 3.416 184.194 3.272 184.877 3.272C185.623 3.272 186.066 3.46933 186.205 3.864C186.258 4.04533 186.285 4.32267 186.285 4.696V13.592C186.285 13.848 186.274 14.0347 186.253 14.152C186.242 14.2693 186.194 14.408 186.109 14.568C185.959 14.856 185.543 15 184.861 15C184.114 15 183.677 14.7973 183.549 14.392C183.485 14.2213 183.453 13.9493 183.453 13.576V4.68ZM188.986 3.256L191.946 3.272C193.493 3.272 194.853 3.832 196.026 4.952C197.199 6.06133 197.786 7.432 197.786 9.064C197.786 10.6853 197.21 12.0773 196.058 13.24C194.917 14.4027 193.53 14.984 191.898 14.984H188.97C188.319 14.984 187.914 14.8507 187.754 14.584C187.626 14.36 187.562 14.0187 187.562 13.56V4.664C187.562 4.408 187.567 4.22133 187.578 4.104C187.599 3.98667 187.653 3.848 187.738 3.688C187.887 3.4 188.303 3.256 188.986 3.256ZM191.946 12.152C192.714 12.152 193.407 11.8693 194.026 11.304C194.645 10.728 194.954 10.008 194.954 9.144C194.954 8.28 194.65 7.56 194.042 6.984C193.445 6.39733 192.741 6.104 191.93 6.104H190.394V12.152H191.946ZM201.66 12.168H206.588C206.833 12.168 207.014 12.1787 207.132 12.2C207.26 12.2107 207.404 12.2587 207.564 12.344C207.852 12.4933 207.996 12.9093 207.996 13.592C207.996 14.3387 207.798 14.776 207.404 14.904C207.222 14.968 206.945 15 206.572 15H200.236C199.489 15 199.052 14.7973 198.924 14.392C198.86 14.2213 198.828 13.9493 198.828 13.576V4.68C198.828 4.136 198.929 3.768 199.132 3.576C199.334 3.37333 199.718 3.272 200.284 3.272H206.588C206.833 3.272 207.014 3.28267 207.132 3.304C207.26 3.31467 207.404 3.36267 207.564 3.448C207.852 3.59733 207.996 4.01333 207.996 4.696C207.996 5.44267 207.798 5.88 207.404 6.008C207.222 6.072 206.945 6.104 206.572 6.104H201.66V7.72H204.828C205.073 7.72 205.254 7.73067 205.372 7.752C205.5 7.76267 205.644 7.81067 205.804 7.896C206.092 8.04533 206.236 8.46133 206.236 9.144C206.236 9.89067 206.033 10.328 205.628 10.456C205.446 10.52 205.169 10.552 204.796 10.552H201.66V12.168ZM215.799 4.104L220.119 13.032C220.3 13.3947 220.391 13.6667 220.391 13.848C220.391 14.232 220.081 14.5787 219.463 14.888C219.1 15.0693 218.812 15.16 218.599 15.16C218.396 15.16 218.225 15.112 218.087 15.016C217.959 14.92 217.863 14.8187 217.799 14.712C217.745 14.6053 217.665 14.4453 217.559 14.232L216.727 12.504H212.295L211.463 14.232C211.356 14.4453 211.271 14.6 211.207 14.696C211.153 14.792 211.057 14.8933 210.919 15C210.791 15.096 210.62 15.144 210.407 15.144C210.204 15.144 209.921 15.0533 209.559 14.872C208.94 14.5733 208.631 14.232 208.631 13.848C208.631 13.6667 208.721 13.3947 208.903 13.032L213.223 4.088C213.34 3.84267 213.516 3.64533 213.751 3.496C213.996 3.34667 214.252 3.272 214.519 3.272C215.095 3.272 215.521 3.54933 215.799 4.104ZM214.503 7.944L213.447 10.136H215.575L214.503 7.944ZM224.097 12.632H228.449C228.801 12.632 229.057 12.6747 229.217 12.76C229.377 12.8347 229.484 12.9573 229.537 13.128C229.59 13.2987 229.617 13.528 229.617 13.816C229.617 14.0933 229.59 14.3173 229.537 14.488C229.484 14.6587 229.393 14.776 229.265 14.84C229.062 14.9467 228.785 15 228.433 15H222.673C221.926 15 221.489 14.7973 221.361 14.392C221.297 14.2213 221.265 13.9493 221.265 13.576V4.68C221.265 4.43467 221.27 4.25333 221.281 4.136C221.302 4.008 221.356 3.864 221.441 3.704C221.59 3.416 222.006 3.272 222.689 3.272C223.436 3.272 223.878 3.46933 224.017 3.864C224.07 4.04533 224.097 4.32267 224.097 4.696V12.632Z" fill="#7C6BAF"/>
<defs>
<filter id="filter0_d_254_5895" x="0" y="20" width="376" height="216" filterUnits="userSpaceOnUse" color-interpolation-filters="sRGB">
<feFlood flood-opacity="0" result="BackgroundImageFix"/>
<feColorMatrix in="SourceAlpha" type="matrix" values="0 0 0 0 0 0 0 0 0 0 0 0 0 0 0 0 0 0 127 0" result="hardAlpha"/>
<feMorphology radius="8" operator="dilate" in="SourceAlpha" result="effect1_dropShadow_254_5895"/>
<feOffset dy="12"/>
<feGaussianBlur stdDeviation="12"/>
<feComposite in2="hardAlpha" operator="out"/>
<feColorMatrix type="matrix" values="0 0 0 0 0.486275 0 0 0 0 0.419608 0 0 0 0 0.686275 0 0 0 0.22 0"/>
<feBlend mode="normal" in2="BackgroundImageFix" result="effect1_dropShadow_254_5895"/>
<feBlend mode="normal" in="SourceGraphic" in2="effect1_dropShadow_254_5895" result="shape"/>
</filter>
</defs>
</svg>
