<svg width="637" height="233" viewBox="0 0 637 233" fill="none" xmlns="http://www.w3.org/2000/svg">
<g filter="url(#filter0_d_254_4489)">
<rect x="32" y="50" width="573" height="139" rx="20" fill="#AB9ED3"/>
</g>
<path d="M137.81 149.147C136.765 152.05 134.613 154.422 131.824 155.742L131.751 155.777C126.208 158.389 120.684 157.012 119.087 156.555L85.2045 145.649C76.4118 142.815 71.4541 133.805 74.1237 125.511C76.7917 117.217 86.0721 112.785 94.8647 115.618C95 115.702 103.019 119.569 130.613 132.81C136.961 135.849 140.059 142.884 137.81 149.147Z" fill="#459696"/>
<path d="M152.454 109.855C154.315 107.394 157.074 105.769 160.13 105.335L160.207 105.323C166.285 104.475 171.147 107.43 172.532 108.339L201.657 128.813C209.209 134.121 211.269 144.202 206.255 151.331C201.241 158.465 191.061 159.936 183.511 154.627C183.407 154.507 176.895 148.437 154.476 127.6C149.319 122.807 148.449 115.163 152.454 109.855Z" fill="#459696"/>
<path d="M141.783 182.786L129.628 179.156C126.094 178.1 123.702 175.315 124.094 172.714L125.646 162.415C126.135 159.171 130.649 157.685 134.914 159.366L148.12 164.574C151.49 165.902 153.469 168.762 152.73 171.235L150.126 179.952C149.318 182.653 145.583 183.921 141.783 182.786Z" fill="#459696"/>
<path d="M161.461 180.952L172.581 178.349C175.816 177.589 178.072 175.026 177.802 172.414L176.738 162.083C176.402 158.825 172.364 156.981 168.45 158.299L156.318 162.37C153.224 163.411 151.34 166.085 151.928 168.599L154.001 177.457C154.642 180.192 157.983 181.759 161.461 180.952Z" fill="#459696"/>
<path d="M189.224 132.705C189.073 132.123 188.722 130.677 187.857 130.54C187.801 130.535 187.745 130.535 187.69 130.54C187.642 130.541 187.595 130.523 187.56 130.49C187.525 130.457 187.504 130.412 187.501 130.364C187.266 127.226 186.736 124.117 185.918 121.078C185.912 121.054 185.91 121.029 185.913 121.004C185.917 120.979 185.925 120.956 185.937 120.934C185.95 120.913 185.966 120.894 185.986 120.879C186.006 120.864 186.028 120.853 186.052 120.847C186.094 120.835 186.14 120.839 186.18 120.857C186.81 121.144 187.34 121.232 187.426 121.119C187.628 120.84 185.529 118.981 185.134 118.393C185.125 118.378 185.118 118.362 185.113 118.346L185.077 118.233C185.197 118.1 186.351 119.192 186.727 118.911C187.03 118.686 186.734 117.65 186.181 116.951C186.125 116.882 185.218 115.76 184.51 116.009C184.486 116.018 184.461 116.023 184.435 116.023C184.41 116.023 184.385 116.018 184.361 116.008C184.338 115.998 184.317 115.983 184.299 115.965C184.281 115.946 184.267 115.925 184.258 115.901C183.414 113.628 182.414 111.416 181.266 109.281C175.17 98.0528 161.025 82.7922 142.329 83.1993C142.304 83.2002 142.279 83.196 142.256 83.1872C142.233 83.1784 142.211 83.165 142.193 83.148C142.175 83.1309 142.161 83.1104 142.151 83.0876C142.14 83.0649 142.135 83.0404 142.134 83.0155C142.134 82.9868 142.139 82.9582 142.151 82.9319C142.759 81.6192 143.215 80.2943 142.744 79.9494C142.228 79.5726 140.706 80.4462 140.101 81.487C139.981 81.6953 139.886 81.9165 139.816 82.1464C139.728 82.4777 139.706 82.8232 139.752 83.1629C139.757 83.2131 139.741 83.2632 139.71 83.3024C139.678 83.3416 139.632 83.3668 139.582 83.3726L139.252 83.406C139.224 83.4092 139.196 83.4058 139.169 83.396C139.143 83.3862 139.119 83.3704 139.1 83.3498C138.618 82.8468 138.02 82.1586 137.658 82.2968C137.408 82.3941 137.294 82.8803 137.328 83.5123C137.331 83.5578 137.317 83.6026 137.289 83.6386C137.261 83.6745 137.221 83.6993 137.177 83.7083C113.93 87.794 105.16 114.442 104.244 117.375C104.101 117.831 103.876 118.552 103.621 119.484C103.046 121.632 102.607 123.814 102.308 126.017C102.301 126.067 102.275 126.112 102.234 126.142C102.194 126.172 102.144 126.185 102.094 126.178C102.083 126.177 102.071 126.175 102.061 126.17C101.815 126.091 101.559 126.05 101.301 126.049C99.7724 126.049 98.5661 127.538 98.7772 127.968C98.9094 128.243 99.5856 128.01 100.325 127.933C100.369 127.929 100.412 127.939 100.448 127.963C100.484 127.986 100.511 128.022 100.525 128.063C100.538 128.104 100.537 128.148 100.522 128.189C100.507 128.229 100.478 128.263 100.441 128.285C99.8332 128.646 99.3774 129.133 99.4169 129.483C99.4929 130.069 101.002 130.3 101.732 130.637C101.767 130.653 101.796 130.679 101.816 130.711C101.836 130.744 101.845 130.782 101.843 130.82L101.825 131.191C101.824 131.226 101.812 131.261 101.792 131.291C101.772 131.32 101.744 131.343 101.711 131.358C101.394 131.493 100.965 131.662 100.696 132.088C100.12 133 100.593 134.597 101.167 134.703C101.281 134.72 101.396 134.693 101.491 134.627C101.512 134.614 101.536 134.606 101.56 134.602C101.585 134.598 101.61 134.599 101.634 134.604C101.659 134.61 101.682 134.621 101.702 134.635C101.722 134.65 101.739 134.668 101.752 134.69C101.77 134.718 101.779 134.751 101.78 134.784C101.907 140.594 103.032 147.291 106.37 153.682C106.381 153.704 106.388 153.728 106.391 153.753C106.393 153.777 106.391 153.802 106.383 153.826C106.376 153.85 106.364 153.872 106.348 153.891C106.332 153.91 106.313 153.926 106.291 153.937C106.279 153.944 106.266 153.95 106.253 153.952C104.964 154.297 103.898 154.745 103.923 154.878C103.955 155.039 105.643 154.841 106.877 154.818C106.911 154.818 106.944 154.827 106.973 154.844C107.002 154.861 107.026 154.885 107.043 154.914C107.143 155.09 107.246 155.268 107.347 155.443C107.372 155.484 107.38 155.534 107.369 155.581C107.359 155.628 107.33 155.67 107.29 155.697C106.865 155.984 106.394 156.391 106.181 157.026C106.111 157.234 105.988 157.602 106.148 157.938C106.496 158.649 108.02 158.878 109.042 158.324C109.083 158.302 109.129 158.297 109.173 158.307C109.218 158.317 109.257 158.343 109.284 158.38C109.357 158.482 109.436 158.585 109.507 158.684L109.547 158.738C109.569 158.767 109.582 158.802 109.585 158.838C109.588 158.875 109.581 158.911 109.563 158.944C109.015 159.96 109.003 161.183 109.241 161.314C109.455 161.432 109.884 160.666 110.51 160.233C110.549 160.206 110.597 160.195 110.644 160.201C110.692 160.208 110.735 160.232 110.765 160.268C112.554 162.4 114.585 164.315 116.817 165.975C116.837 165.99 116.854 166.008 116.867 166.029C116.879 166.05 116.888 166.074 116.891 166.098C116.895 166.123 116.894 166.148 116.888 166.172C116.882 166.196 116.871 166.218 116.856 166.238C116.84 166.263 116.817 166.282 116.79 166.294C116.403 166.485 116.09 166.799 115.902 167.188C115.661 167.706 115.598 168.505 115.928 168.707C116.481 169.035 117.642 167.42 118.207 167.722C118.868 168.075 117.874 170.59 118.259 170.752C118.554 170.877 119.837 169.704 119.919 168.373C119.923 168.323 119.946 168.276 119.984 168.243C120.021 168.21 120.07 168.194 120.12 168.197C120.15 168.199 120.179 168.208 120.205 168.222C133.805 176.173 149.582 174.174 150.479 174.046C152.917 173.697 166.191 171.576 176.361 161.283C176.379 161.266 176.399 161.252 176.422 161.242C176.445 161.233 176.47 161.228 176.494 161.228C176.519 161.228 176.544 161.233 176.566 161.242C176.589 161.252 176.61 161.266 176.627 161.283C176.648 161.303 176.664 161.327 176.674 161.353C176.723 161.493 176.783 161.63 176.854 161.76C176.948 161.934 177.344 162.66 177.834 162.63C178.289 162.599 178.726 161.915 178.712 161.352C178.712 161.191 178.672 161.175 178.484 160.305C178.385 159.838 178.384 159.79 178.414 159.735C178.662 159.287 180.166 159.942 180.389 159.57C180.487 159.401 180.256 159.141 179.379 158.108C179.351 158.074 179.336 158.032 179.336 157.989C179.336 157.945 179.351 157.903 179.379 157.869C180.615 156.285 181.728 154.609 182.708 152.855L182.725 152.823C182.876 153.592 183.057 154.127 183.15 154.121C183.302 154.112 183.332 152.681 183.443 151.499C183.446 151.475 183.453 151.452 183.464 151.432C183.616 151.128 183.759 150.839 183.899 150.543C183.914 150.509 183.938 150.481 183.969 150.461C183.999 150.441 184.035 150.43 184.071 150.43C184.108 150.43 184.144 150.441 184.174 150.461C184.205 150.481 184.229 150.509 184.244 150.543C184.472 151.059 184.817 151.786 185.576 152.155C185.772 152.251 186.12 152.421 186.468 152.307C187.268 152.039 187.699 150.373 187.134 149.28C186.771 148.577 186.07 148.258 185.219 147.954C185.172 147.937 185.133 147.902 185.112 147.857C185.09 147.812 185.087 147.76 185.104 147.712C186.402 144.28 187.208 140.681 187.498 137.023C187.5 136.999 187.507 136.974 187.518 136.952C187.529 136.93 187.544 136.91 187.563 136.894C187.582 136.878 187.604 136.865 187.627 136.858C187.651 136.85 187.676 136.847 187.701 136.849C187.743 136.851 187.782 136.869 187.813 136.897C188.144 137.201 188.421 137.362 188.51 137.312C188.681 137.224 188.32 136.472 188.062 134.074C187.928 132.818 187.992 132.693 188.033 132.683C188.243 132.637 188.793 135.313 189.158 135.265C189.39 135.218 189.524 133.916 189.224 132.705Z" fill="#4EADAF"/>
<path d="M114.563 140.445C121.664 139.919 127.123 135.487 126.756 130.546C126.39 125.605 120.337 122.027 113.237 122.553C106.136 123.08 100.677 127.512 101.043 132.452C101.409 137.393 107.462 140.972 114.563 140.445Z" fill="#E37A39"/>
<path d="M181.669 136.003C188.77 135.477 194.229 131.045 193.863 126.104C193.497 121.164 187.444 117.585 180.343 118.112C173.242 118.638 167.783 123.07 168.15 128.011C168.516 132.951 174.569 136.53 181.669 136.003Z" fill="#E37A39"/>
<path d="M123.907 124.961C132.314 124.338 138.648 117.343 138.055 109.337C137.461 101.331 130.165 95.3459 121.758 95.9691C113.351 96.5924 107.017 103.588 107.611 111.594C108.204 119.6 115.501 125.585 123.907 124.961Z" fill="#E2E2E2"/>
<path d="M118.744 118.636C124.483 118.211 128.807 113.435 128.401 107.97C127.996 102.505 123.015 98.4189 117.276 98.8444C111.537 99.2698 107.213 104.045 107.619 109.511C108.024 114.976 113.005 119.062 118.744 118.636Z" fill="black"/>
<path d="M162.406 124.009C170.813 123.386 177.156 116.517 176.574 108.667C175.992 100.816 168.705 94.9575 160.298 95.5807C151.892 96.204 145.548 103.073 146.13 110.924C146.712 118.774 153.999 124.633 162.406 124.009Z" fill="#E2E2E2"/>
<path d="M157.274 116.944C163.013 116.519 167.343 111.83 166.946 106.471C166.548 101.111 161.574 97.112 155.835 97.5375C150.096 97.9629 145.766 102.652 146.163 108.011C146.56 113.37 151.535 117.37 157.274 116.944Z" fill="black"/>
<path d="M166.754 114.534C169.112 113.402 170.519 111.435 169.897 110.139C169.275 108.843 166.86 108.709 164.503 109.84C162.145 110.971 160.738 112.939 161.36 114.235C161.982 115.531 164.397 115.665 166.754 114.534Z" fill="white"/>
<path d="M126.795 115.902C129.152 114.771 130.559 112.804 129.937 111.508C129.316 110.212 126.9 110.078 124.543 111.209C122.186 112.34 120.778 114.307 121.4 115.603C122.022 116.899 124.437 117.033 126.795 115.902Z" fill="white"/>
<path d="M160.325 92.7379C159.643 92.5299 158.972 92.2834 158.317 91.9995C157.658 91.7179 157.015 91.4055 156.386 91.0621C155.125 90.3707 153.928 89.5667 152.812 88.6599C152.253 88.2041 151.718 87.7225 151.202 87.218L150.819 86.8336C150.693 86.7045 150.571 86.5708 150.448 86.4386C150.387 86.3733 150.325 86.3079 150.264 86.2396L150.086 86.036L149.909 85.8384L149.819 85.7351L149.775 85.685L149.732 85.6318L149.389 85.2125L149.305 85.1061C149.278 85.0712 149.249 85.0347 149.223 84.9982L149.061 84.7749L148.897 84.5591L148.815 84.4512L148.737 84.3403L148.426 83.8952L148.348 83.7842C148.322 83.7478 148.298 83.7083 148.274 83.6703L148.122 83.4424L147.97 83.2145L147.911 83.1036C147.886 83.0656 147.865 83.0261 147.841 82.9881C147.658 82.6842 147.465 82.3682 147.298 82.0476C147.212 81.8956 147.125 81.7316 147.042 81.5705L146.803 81.0843L146.683 80.8397C146.643 80.7576 146.609 80.6756 146.571 80.592L146.46 80.3459L146.403 80.2228C146.384 80.1818 146.365 80.1408 146.349 80.0982L146.144 79.5968C146.127 79.5543 146.109 79.5133 146.093 79.4707L146.045 79.3446L145.951 79.0909L145.855 78.8356L145.767 78.5804L145.68 78.3236L145.636 78.1944L145.597 78.0653L145.445 77.5472L145.302 77.0245C145.278 76.9379 145.256 76.8513 145.235 76.7632L145.171 76.4988L145.139 76.3681C145.129 76.3241 145.118 76.28 145.109 76.236L145.053 75.9716L144.996 75.7057C144.98 75.6176 144.965 75.5294 144.948 75.4398C144.916 75.262 144.879 75.0858 144.854 74.9065L144.813 74.6406C144.799 74.551 144.785 74.4613 144.775 74.3717C144.752 74.1939 144.728 74.0146 144.706 73.8353C144.545 72.4056 144.521 70.9638 144.633 69.5294C144.691 68.8153 144.778 68.1027 144.904 67.4023C145.025 66.6985 145.186 66.002 145.385 65.3162C145.158 66.7159 145.037 68.131 145.025 69.5492C145.012 70.9575 145.114 72.3645 145.329 73.7563C145.543 75.1408 145.875 76.5045 146.32 77.8328C146.546 78.4938 146.795 79.1471 147.08 79.7883C147.149 79.9402 147.231 80.1058 147.295 80.2654C147.333 80.3444 147.367 80.4249 147.406 80.5024L147.523 80.7379L147.757 81.2074C147.838 81.3593 147.924 81.5112 148.006 81.6632C148.167 81.9671 148.351 82.2709 148.527 82.5748C148.549 82.6128 148.57 82.6508 148.594 82.6872L148.664 82.7982L148.806 83.0185L148.947 83.2403L149.017 83.3512L149.091 83.4591L149.386 83.8921L149.46 84L149.538 84.1063L149.69 84.3175C149.892 84.6017 150.114 84.8736 150.328 85.1502L150.367 85.2018L150.41 85.252L150.494 85.3522L150.661 85.5543L150.826 85.7564L151.001 85.9524L151.176 86.1484C151.233 86.2137 151.29 86.2806 151.35 86.3444L151.709 86.7273L151.799 86.823L151.891 86.9157L152.077 87.1026L152.264 87.2879C152.294 87.3198 152.326 87.3487 152.358 87.3791L152.452 87.4703L152.643 87.6526L152.742 87.7437L152.789 87.7893L152.838 87.8334L153.228 88.1859C154.285 89.1185 155.411 89.9684 156.598 90.7278C157.788 91.4921 159.034 92.1641 160.325 92.7379Z" fill="#29ABE2"/>
<path d="M150.027 88.5734C149.887 88.3273 149.76 88.0737 149.647 87.8138C149.537 87.5539 149.435 87.288 149.344 87.0176C149.252 86.7471 149.179 86.4721 149.117 86.1941C149.082 86.0558 149.059 85.916 149.032 85.7763C149.017 85.7064 149.008 85.635 148.996 85.5651L148.962 85.3524C148.886 84.785 148.855 84.2124 148.87 83.64C148.87 83.3528 148.895 83.0672 148.924 82.7816L148.949 82.5673C148.958 82.4959 148.964 82.4245 148.976 82.3531L149.041 81.9277C149.25 80.7976 149.6 79.6981 150.082 78.6549C150.564 77.6155 151.145 76.6249 151.817 75.6967C151.981 75.4627 152.157 75.2409 152.331 75.0115L152.6 74.6787C152.644 74.6225 152.688 74.5663 152.735 74.5116L152.873 74.3505L153.013 74.1879L153.083 74.1059L153.153 74.0269L153.438 73.7093C153.536 73.603 153.633 73.5012 153.73 73.3963C153.78 73.3447 153.827 73.2915 153.882 73.2444L154.034 73.0925C154.233 72.8889 154.438 72.6929 154.642 72.4938L154.955 72.2036L155.034 72.1307L155.113 72.0608L155.272 71.918C155.696 71.5412 156.131 71.1775 156.579 70.8271C157.472 70.1294 158.404 69.4822 159.37 68.8883C159.852 68.5936 160.341 68.3095 160.839 68.0436C161.088 67.9083 161.338 67.7792 161.59 67.6516C161.842 67.5239 162.096 67.4024 162.349 67.2854C162.111 67.4373 161.871 67.5893 161.634 67.7412L161.281 67.9646C161.163 68.0405 161.046 68.1165 160.929 68.1955C160.461 68.507 159.996 68.8215 159.54 69.1497C158.629 69.802 157.746 70.4898 156.892 71.213L156.574 71.4865L156.267 71.7645L155.964 72.0456L155.812 72.1869L155.66 72.3313C155.456 72.5212 155.257 72.7172 155.052 72.9117C154.847 73.1061 154.66 73.3067 154.47 73.5103C154.374 73.6121 154.279 73.7124 154.186 73.8142C154.093 73.916 153.997 74.0193 153.905 74.1181L153.621 74.4432L153.552 74.5222L153.485 74.6027L153.352 74.7623L153.218 74.9233L153.087 75.0844C153.001 75.1923 152.914 75.3001 152.829 75.4095C152.662 75.6314 152.492 75.8501 152.332 76.0781C152.173 76.306 152.015 76.5339 151.858 76.7603L151.635 77.1112C151.562 77.2282 151.483 77.3437 151.416 77.4637L151.205 77.8208L151.152 77.9104L151.103 78.0016L151.004 78.1839L150.906 78.3662L150.855 78.4574L150.81 78.5501L150.626 78.9208L150.579 79.0135L150.535 79.1077L150.45 79.2961C150.393 79.4222 150.334 79.5483 150.286 79.676L150.134 80.0604L149.991 80.4478C149.941 80.5769 149.901 80.7076 149.86 80.8398L149.796 81.0373C149.786 81.0707 149.777 81.1026 149.767 81.1361L149.739 81.2364L149.682 81.4354C149.664 81.5022 149.644 81.5676 149.629 81.636L149.532 82.0371C149.293 83.1172 149.208 84.2256 149.278 85.3296L149.295 85.5362C149.295 85.6061 149.306 85.6745 149.315 85.7444C149.331 85.8811 149.345 86.0209 149.368 86.1576C149.404 86.4326 149.459 86.7061 149.52 86.9796C149.581 87.2531 149.655 87.522 149.74 87.7894C149.783 87.9231 149.828 88.0553 149.877 88.1875C149.926 88.3197 149.973 88.4473 150.027 88.5734Z" fill="#29ABE2"/>
<path d="M171.038 68.9597L169.391 68.01L170.592 66.3387C170.698 66.1941 170.761 66.0227 170.774 65.8441C170.787 65.6654 170.75 65.4867 170.666 65.3283C170.583 65.1699 170.456 65.0382 170.301 64.9482C170.146 64.8582 169.969 64.8136 169.79 64.8193L167.338 64.8892L167.172 62.8381C167.158 62.6605 167.094 62.4905 166.988 62.3473C166.882 62.2041 166.738 62.0934 166.572 62.0277C166.407 61.9619 166.226 61.9438 166.051 61.9753C165.875 62.0068 165.712 62.0867 165.58 62.206L164.456 63.221L163.299 61.6393C163.194 61.4954 163.051 61.3839 162.885 61.3173C162.72 61.2507 162.539 61.2316 162.364 61.2623C162.188 61.293 162.025 61.3721 161.892 61.4908C161.759 61.6095 161.662 61.763 161.611 61.934L160.852 64.5367L158.577 64.008C158.404 63.9668 158.222 63.9749 158.053 64.0313C157.884 64.0878 157.734 64.1904 157.621 64.3276C157.507 64.4648 157.434 64.6311 157.409 64.8076C157.385 64.9842 157.411 65.164 157.483 65.3268L158.073 66.6472L156.582 67.1379C156.413 67.1932 156.262 67.2949 156.147 67.4314C156.033 67.568 155.959 67.734 155.933 67.9105C155.908 68.087 155.933 68.2671 156.005 68.4302C156.077 68.5934 156.193 68.7331 156.341 68.8335L158.418 70.2542L157.027 72.5424C156.935 72.6942 156.887 72.8688 156.888 73.0465C156.889 73.2243 156.94 73.3982 157.035 73.5486C157.13 73.699 157.264 73.82 157.424 73.8981C157.584 73.9761 157.762 74.0081 157.939 73.9903L159.721 73.8004V75.2225C159.721 75.4013 159.77 75.5767 159.865 75.7287C159.959 75.8806 160.094 76.0032 160.254 76.0823C160.414 76.1614 160.594 76.194 160.771 76.1763C160.949 76.1586 161.119 76.0914 161.26 75.9822L162.953 74.6725L164.655 76.6584C164.771 76.7938 164.922 76.894 165.092 76.9478C165.262 77.0015 165.444 77.0066 165.617 76.9625C165.79 76.9184 165.947 76.8269 166.07 76.6982C166.193 76.5695 166.278 76.4089 166.315 76.2344L166.751 74.2076L168.389 74.7333C168.559 74.7883 168.741 74.7947 168.914 74.7517C169.087 74.7087 169.244 74.6181 169.368 74.4901C169.493 74.3622 169.578 74.2019 169.616 74.0277C169.654 73.8534 169.642 73.672 169.582 73.5041L168.879 71.5289L170.937 70.6705C171.102 70.601 171.243 70.487 171.346 70.3414C171.449 70.1957 171.509 70.0242 171.519 69.8462C171.529 69.6683 171.49 69.4909 171.405 69.3342C171.32 69.1776 171.193 69.0478 171.038 68.9597Z" fill="#F4BE38"/>
<path opacity="0.47" d="M153.972 65.1309L151.8 63.882L153.38 61.691C153.515 61.5009 153.595 61.2771 153.61 61.0444C153.625 60.8118 153.575 60.5796 153.466 60.3736C153.357 60.1677 153.193 59.9961 152.991 59.8781C152.79 59.76 152.561 59.7002 152.328 59.7052L149.097 59.7963L148.88 57.0979C148.861 56.864 148.777 56.64 148.638 56.4513C148.498 56.2626 148.309 56.1167 148.09 56.0301C147.872 55.9435 147.634 55.9196 147.403 55.9612C147.172 56.0027 146.958 56.1081 146.783 56.2653L145.303 57.6008L143.784 55.5193C143.646 55.3288 143.457 55.1808 143.239 55.0923C143.021 55.0038 142.783 54.9783 142.551 55.0186C142.319 55.059 142.103 55.1637 141.928 55.3207C141.753 55.4777 141.625 55.6807 141.56 55.9067L140.555 59.3253L137.565 58.6127C137.337 58.5587 137.098 58.5695 136.876 58.644C136.653 58.7185 136.456 58.8537 136.307 59.0343C136.157 59.2149 136.061 59.4338 136.029 59.6662C135.997 59.8985 136.031 60.1352 136.126 60.3494L136.903 62.0876L134.938 62.7318C134.716 62.8052 134.518 62.9394 134.368 63.1192C134.217 63.299 134.12 63.5172 134.087 63.7493C134.054 63.9813 134.086 64.218 134.181 64.4326C134.275 64.6472 134.427 64.8311 134.621 64.9638L137.356 66.8341L135.517 69.8455C135.395 70.0459 135.331 70.2765 135.333 70.5112C135.335 70.746 135.402 70.9756 135.528 71.1739C135.653 71.3723 135.832 71.5317 136.043 71.6339C136.254 71.7361 136.49 71.7771 136.724 71.7524L139.068 71.5017V73.375C139.069 73.6096 139.135 73.8392 139.26 74.038C139.384 74.2368 139.562 74.3968 139.773 74.5C139.983 74.6032 140.218 74.6454 140.452 74.622C140.685 74.5985 140.907 74.5103 141.093 74.3672L143.321 72.6503L145.562 75.2652C145.714 75.4472 145.914 75.5826 146.139 75.6556C146.365 75.7286 146.607 75.7363 146.836 75.6779C147.066 75.6194 147.275 75.4971 147.438 75.3251C147.601 75.1532 147.712 74.9385 147.759 74.706L148.322 72.0365L150.48 72.7308C150.703 72.8025 150.942 72.8103 151.17 72.7533C151.397 72.6963 151.604 72.5768 151.768 72.4084C151.931 72.2399 152.044 72.0292 152.094 71.8C152.143 71.5708 152.128 71.3322 152.05 71.1112L151.114 68.5176L153.826 67.3887C154.044 67.2998 154.234 67.151 154.372 66.9595C154.51 66.7679 154.591 66.5412 154.607 66.3055C154.622 66.0698 154.57 65.8346 154.458 65.6268C154.346 65.4191 154.177 65.2472 153.972 65.1309Z" fill="#F4BE38"/>
<path opacity="0.47" d="M173.725 69.1252L171.555 67.8747L173.132 65.6899C173.27 65.4995 173.351 65.2746 173.367 65.0405C173.383 64.8064 173.334 64.5725 173.224 64.3651C173.114 64.1577 172.948 63.9852 172.746 63.8671C172.543 63.7489 172.311 63.6898 172.077 63.6964L168.848 63.7891L168.635 61.0892C168.616 60.8553 168.532 60.6313 168.393 60.4426C168.253 60.2539 168.064 60.108 167.845 60.0214C167.627 59.9347 167.389 59.9109 167.158 59.9524C166.927 59.994 166.713 60.0993 166.538 60.2566L165.058 61.5921L163.539 59.5106C163.401 59.321 163.212 59.174 162.994 59.0861C162.776 58.9982 162.539 58.973 162.307 59.0133C162.076 59.0536 161.861 59.1578 161.685 59.3142C161.51 59.4705 161.382 59.6728 161.316 59.898L160.31 63.3257L157.322 62.6131C157.093 62.5587 156.854 62.5693 156.632 62.6436C156.409 62.7179 156.212 62.8531 156.062 63.0338C155.912 63.2145 155.816 63.4335 155.784 63.666C155.752 63.8986 155.786 64.1354 155.881 64.3498L156.655 66.0864L154.692 66.7306C154.467 66.8028 154.266 66.9368 154.114 67.1176C153.961 67.2983 153.863 67.5183 153.83 67.7524C153.797 67.9865 153.83 68.2252 153.926 68.4411C154.023 68.657 154.178 68.8415 154.374 68.9733L157.109 70.8421L155.271 73.8535C155.149 74.0538 155.085 74.2842 155.087 74.5188C155.089 74.7533 155.157 74.9825 155.282 75.1807C155.408 75.3788 155.586 75.538 155.797 75.6401C156.008 75.7423 156.244 75.7834 156.477 75.7588L158.82 75.5066V77.3785C158.82 77.6131 158.886 77.843 159.01 78.0421C159.135 78.2412 159.312 78.4016 159.523 78.505C159.733 78.6084 159.969 78.6508 160.202 78.6273C160.436 78.6038 160.658 78.5154 160.844 78.3721L163.071 76.6537L165.312 79.2686C165.464 79.4511 165.665 79.5868 165.891 79.6599C166.117 79.7331 166.359 79.7407 166.589 79.6818C166.819 79.623 167.028 79.5001 167.191 79.3275C167.354 79.1548 167.465 78.9395 167.511 78.7064L168.079 76.0369L170.235 76.7312C170.458 76.8029 170.697 76.8106 170.925 76.7537C171.152 76.6967 171.359 76.5772 171.523 76.4088C171.686 76.2403 171.799 76.0296 171.849 75.8004C171.898 75.5711 171.883 75.3325 171.805 75.1116L170.878 72.5104L173.588 71.3815C173.806 71.2915 173.994 71.1419 174.131 70.95C174.268 70.7581 174.349 70.5315 174.363 70.2961C174.377 70.0608 174.325 69.8262 174.212 69.6191C174.099 69.412 173.931 69.2409 173.725 69.1252Z" fill="#F4BE38"/>
<path d="M151.436 65.2144L149.787 64.2633L150.991 62.5919C151.097 62.4474 151.16 62.276 151.173 62.0973C151.186 61.9187 151.148 61.7399 151.065 61.5815C150.981 61.4231 150.854 61.2914 150.7 61.2014C150.545 61.1114 150.368 61.0668 150.189 61.0726L147.735 61.1425L147.571 59.0913C147.557 58.9134 147.493 58.7431 147.387 58.5995C147.281 58.4559 147.137 58.3449 146.971 58.2791C146.806 58.2133 146.625 58.1953 146.449 58.2271C146.274 58.259 146.11 58.3394 145.978 58.4592L144.852 59.4727L143.696 57.891C143.591 57.7472 143.448 57.6356 143.282 57.569C143.117 57.5024 142.936 57.4833 142.761 57.514C142.585 57.5447 142.422 57.6238 142.289 57.7425C142.156 57.8612 142.058 58.0147 142.008 58.1857L141.249 60.7884L138.979 60.2475C138.805 60.2063 138.624 60.2144 138.455 60.2709C138.286 60.3274 138.136 60.43 138.022 60.5672C137.908 60.7044 137.835 60.8706 137.811 61.0472C137.786 61.2237 137.812 61.4036 137.885 61.5664L138.471 62.8958L136.979 63.3851C136.81 63.4406 136.659 63.5425 136.544 63.6792C136.43 63.8159 136.356 63.9819 136.331 64.1585C136.305 64.3351 136.33 64.5152 136.402 64.6785C136.474 64.8417 136.59 64.9816 136.737 65.0822L138.814 66.5028L137.418 68.7819C137.326 68.9337 137.277 69.1083 137.279 69.2861C137.28 69.4638 137.331 69.6377 137.426 69.7881C137.52 69.9386 137.655 70.0596 137.815 70.1376C137.975 70.2157 138.153 70.2476 138.33 70.2299L140.112 70.04V71.4636C140.111 71.6424 140.161 71.8177 140.255 71.9697C140.349 72.1217 140.484 72.2442 140.645 72.3234C140.805 72.4025 140.984 72.4351 141.162 72.4174C141.34 72.3997 141.51 72.3325 141.651 72.2233L143.353 70.9258L145.055 72.9131C145.171 73.0485 145.322 73.1487 145.493 73.2024C145.663 73.256 145.844 73.261 146.017 73.2168C146.19 73.1725 146.347 73.0807 146.47 72.9519C146.594 72.823 146.679 72.6622 146.715 72.4877L147.144 70.4608L148.783 70.988C148.953 71.0429 149.134 71.049 149.307 71.0058C149.481 70.9626 149.638 70.8718 149.762 70.7437C149.886 70.6155 149.972 70.4552 150.009 70.2809C150.047 70.1065 150.035 69.9252 149.974 69.7573L149.271 67.7822L151.331 66.9252C151.496 66.8562 151.637 66.7426 151.741 66.5972C151.844 66.4518 151.904 66.2804 151.915 66.1024C151.926 65.9244 151.887 65.7469 151.802 65.59C151.718 65.433 151.591 65.303 151.436 65.2144Z" fill="#F4BE38"/>
<path d="M137.657 79.7914C138.027 78.2599 137.702 75.7878 133.881 71.9286C133.736 71.7815 133.627 71.6028 133.562 71.4065C133.498 71.2103 133.48 71.0018 133.509 70.7973C133.539 70.5928 133.615 70.3979 133.732 70.2278C133.849 70.0577 134.004 69.917 134.185 69.8167C134.372 69.7126 134.582 69.6551 134.797 69.6488C135.011 69.6425 135.224 69.6876 135.417 69.7805C135.611 69.8733 135.779 70.0111 135.908 70.1824C136.037 70.3536 136.124 70.5533 136.16 70.7648C137.072 75.9504 139.133 78.3617 140.916 79.5909C150.322 86.1242 169.826 72.5759 183.692 77.2237C184.955 77.6476 188.498 78.8342 188.686 80.8702C188.89 83.0581 185.096 85.0272 184.466 85.3554C175.404 90.0655 163.676 83.7585 163.062 85.1776C162.448 86.5967 174.357 91.5666 173.608 94.8819C173.139 96.9559 167.758 98.2124 163.001 97.4451C153.561 95.9257 148.792 86.7927 146.218 88.2604C144.784 89.0779 146.299 91.8902 144.851 96.93C144.602 97.7946 142.342 105.63 137.912 105.943C134.56 106.18 130.793 102.049 130.477 98.0893C130.043 92.6195 136.291 88.7725 135.271 87.4369C134.511 86.4493 130.265 87.4719 127.133 90.2554C122.423 94.4519 124.072 99.244 120.313 101.171C116.643 103.049 111.465 100.324 108.965 98.3279C107.125 96.8601 104.912 95.0931 105.108 93.2516C105.794 86.7411 135.535 88.5537 137.657 79.7914Z" fill="#C4D650"/>
<path d="M88.1625 88.4582L64.142 89.9021C61.8544 90.0397 60.1115 92.0055 60.249 94.2931L62.272 127.947C62.4095 130.235 64.3754 131.978 66.6629 131.84L90.6835 130.396C92.9711 130.259 94.714 128.293 94.5765 126.006L92.5535 92.3512C92.416 90.0637 90.4501 88.3207 88.1625 88.4582Z" fill="white"/>
<path d="M66.5268 100.78C66.3339 100.516 66.1954 100.216 66.1192 99.8976C66.0431 99.5794 66.0308 99.2493 66.0831 98.9263C66.1196 98.7197 66.314 97.7868 67.2059 97.3067C67.3108 97.2504 68.1449 96.8189 69.0033 97.1988C69.5974 97.4616 69.8557 97.9585 70.1079 98.4447C70.313 98.8367 71.0196 100.195 70.3845 100.947C70.1976 101.17 70.0715 101.052 69.2981 101.403C68.5247 101.754 68.4199 101.967 68.0917 101.992C67.7635 102.018 67.2317 101.83 66.5268 100.78Z" fill="#AEBC26"/>
<path d="M72.2822 99.946C72.5517 99.7603 72.8554 99.6299 73.1757 99.5623C73.4959 99.4948 73.8264 99.4914 74.148 99.5524C74.3516 99.595 75.2799 99.8153 75.7357 100.718C75.7889 100.826 76.1916 101.67 75.795 102.518C75.5154 103.106 75.011 103.351 74.5187 103.589C74.1206 103.782 72.7441 104.451 72.0087 103.798C71.7914 103.603 71.913 103.48 71.5863 102.698C71.2597 101.915 71.0469 101.806 71.0302 101.482C71.0135 101.158 71.2141 100.618 72.2822 99.946Z" fill="#AEBC26"/>
<path d="M69.6157 98.0376C69.7578 97.7441 69.9566 97.4817 70.2007 97.2655C70.4448 97.0493 70.7294 96.8836 71.0379 96.7781C71.2369 96.7127 72.1516 96.4423 72.9963 96.9999C73.0951 97.0667 73.87 97.597 73.9414 98.533C73.9915 99.1817 73.6755 99.6436 73.3671 100.096C73.1179 100.461 72.2549 101.725 71.2931 101.523C71.0075 101.464 71.0515 101.297 70.3815 100.78C69.7114 100.264 69.4699 100.274 69.2921 99.9961C69.1143 99.7181 69.0216 99.1529 69.6157 98.0376Z" fill="#C4D650"/>
<path d="M73.5796 105.59C73.8056 105.101 73.9282 104.571 73.9398 104.032C73.9513 103.493 73.8514 102.958 73.6465 102.459C73.4416 101.961 73.136 101.51 72.7488 101.135C72.3617 100.76 71.9013 100.469 71.3965 100.281C70.8917 100.092 70.3534 100.009 69.8153 100.038C69.2772 100.067 68.7508 100.207 68.2691 100.449C67.7875 100.69 67.3609 101.029 67.0161 101.443C66.6713 101.857 66.4157 102.338 66.2653 102.856C66.2501 102.907 66.2349 102.957 66.2182 103.007C66.1656 103.167 66.128 103.331 66.1058 103.498C65.9341 104.328 65.0027 108.956 65.4798 110.881C65.5527 111.168 65.7199 111.84 66.2167 112.031C66.6224 112.183 67.063 111.975 67.3441 111.821C70.0121 110.378 72.6786 106.859 72.8138 106.713L72.829 106.696C72.8594 106.665 72.9217 106.596 72.9931 106.505C73.0296 106.459 73.0645 106.411 73.098 106.364C73.1314 106.317 73.1663 106.265 73.2013 106.212C73.3457 106.016 73.4724 105.808 73.5796 105.59Z" fill="#E37A39"/>
<path d="M63.3286 108.467C67.0967 108.497 71.9572 107.859 74.9792 104.419C76.4485 102.748 76.845 101.14 77.041 101.219C77.4968 101.406 76.2434 110.791 70.4454 113.599C68.0964 114.734 65.6305 114.482 64.0275 114.138" fill="#D86627"/>
<path d="M68.2962 104.529C68.6596 103.479 68.0606 102.319 66.9584 101.937C65.8561 101.556 64.668 102.098 64.3046 103.148C63.9413 104.197 64.5403 105.358 65.6425 105.739C66.7448 106.121 67.9329 105.579 68.2962 104.529Z" fill="#E2E2E2"/>
<path d="M68.1322 104.756C68.3803 104.039 67.9713 103.247 67.2188 102.986C66.4662 102.726 65.6551 103.096 65.407 103.813C65.1589 104.529 65.5678 105.322 66.3204 105.582C67.0729 105.843 67.8841 105.473 68.1322 104.756Z" fill="black"/>
<path d="M66.7662 103.375C66.8915 103.216 66.7619 102.905 66.4767 102.681C66.1914 102.457 65.8586 102.405 65.7333 102.565C65.6079 102.725 65.7376 103.036 66.0228 103.26C66.308 103.483 66.6408 103.535 66.7662 103.375Z" fill="white"/>
<path d="M74.4423 106.873C74.7985 105.844 74.1937 104.701 73.0915 104.319C71.9892 103.938 70.8069 104.463 70.4507 105.492C70.0944 106.521 70.6992 107.665 71.8015 108.046C72.9037 108.428 74.086 107.903 74.4423 106.873Z" fill="#E2E2E2"/>
<path d="M73.1447 106.524C73.3879 105.821 72.9749 105.041 72.2224 104.78C71.4698 104.52 70.6627 104.878 70.4195 105.581C70.1764 106.283 70.5893 107.064 71.3418 107.324C72.0944 107.585 72.9016 107.226 73.1447 106.524Z" fill="black"/>
<path d="M72.98 106.062C73.3417 106.047 73.6285 105.874 73.6205 105.675C73.6125 105.477 73.3129 105.327 72.9512 105.341C72.5896 105.356 72.3028 105.529 72.3108 105.728C72.3187 105.927 72.6184 106.076 72.98 106.062Z" fill="white"/>
<path d="M82.5971 125.383C87.2576 125.383 91.0357 121.605 91.0357 116.945C91.0357 112.284 87.2576 108.506 82.5971 108.506C77.9366 108.506 74.1584 112.284 74.1584 116.945C74.1584 121.605 77.9366 125.383 82.5971 125.383Z" fill="#4EADAF"/>
<path d="M83.878 108.16C84.0366 107.999 84.1426 107.794 84.1819 107.572C84.1941 107.478 84.2275 107.23 84.0968 107.116C83.8963 106.95 83.366 107.162 83.053 107.484C82.8555 107.711 82.6718 107.95 82.503 108.199C82.4133 108.327 82.3328 108.45 82.2903 108.433C82.2477 108.417 82.3389 108.173 82.31 107.854C82.2669 107.558 82.144 107.278 81.9545 107.046C81.7889 106.804 81.6354 106.58 81.4561 106.599C81.3483 106.612 81.2799 106.707 81.213 106.801C81.1462 106.896 81.0383 107.073 80.9714 107.643C80.9302 107.923 80.9169 108.207 80.9319 108.489C80.9395 108.597 80.9532 108.736 80.9319 108.739C80.9107 108.742 80.897 108.239 80.5886 107.929C80.3683 107.709 80.0796 107.68 79.6769 107.637C79.3958 107.608 78.662 107.531 78.5404 107.819C78.4569 108.015 78.6924 108.298 78.7547 108.374C78.883 108.521 79.043 108.637 79.2226 108.713C79.5346 108.886 79.8635 109.026 80.2042 109.132C80.9183 109.33 82.0791 109.653 83.0013 109.059C83.2049 108.933 83.4298 108.678 83.878 108.16Z" fill="#387777"/>
<path d="M84.7136 108.726C84.9398 108.499 85.0913 108.209 85.1482 107.894C85.1664 107.76 85.2135 107.409 85.0281 107.256C84.744 107.023 83.9935 107.321 83.5513 107.777C83.2711 108.097 83.0113 108.435 82.7734 108.789C82.6458 108.971 82.5318 109.144 82.4695 109.121C82.4072 109.099 82.5394 108.752 82.4984 108.301C82.4574 107.85 82.2294 107.502 81.9955 107.157C81.7615 106.812 81.5397 106.497 81.2905 106.526C81.1385 106.543 81.0398 106.678 80.9456 106.812C80.8514 106.946 80.6979 107.195 80.6052 108.002C80.5467 108.398 80.5278 108.799 80.549 109.199C80.5581 109.351 80.5779 109.548 80.549 109.553C80.5004 109.562 80.5004 108.845 80.0643 108.407C79.7529 108.096 79.3441 108.053 78.7729 107.994C78.3763 107.953 77.337 107.842 77.1654 108.252C77.0484 108.529 77.3796 108.928 77.4692 109.036C77.6518 109.243 77.8781 109.407 78.1317 109.516C78.7531 109.82 79.0631 109.981 79.5219 110.109C80.5308 110.39 82.1748 110.847 83.4799 110.006C83.7625 109.825 84.0801 109.459 84.7136 108.726Z" fill="#4EADAF"/>
<path d="M77.6572 117.991C79.4165 117.627 80.5613 115.973 80.2144 114.298C79.8674 112.622 78.16 111.56 76.4007 111.924C74.6415 112.288 73.4966 113.942 73.8436 115.617C74.1905 117.293 75.898 118.355 77.6572 117.991Z" fill="#E2E2E2"/>
<path d="M78.4311 117.252C79.6316 117.004 80.4128 115.875 80.1759 114.731C79.9391 113.587 78.7738 112.862 77.5734 113.11C76.3729 113.359 75.5917 114.488 75.8285 115.631C76.0654 116.775 77.2306 117.501 78.4311 117.252Z" fill="black"/>
<path d="M77.2808 113.969C77.3205 113.659 76.9047 113.351 76.352 113.28C75.7994 113.209 75.3192 113.403 75.2794 113.712C75.2397 114.022 75.6555 114.33 76.2082 114.401C76.7608 114.472 77.2411 114.279 77.2808 113.969Z" fill="white"/>
<path d="M87.6221 116.187C89.3813 115.822 90.5317 114.195 90.1916 112.553C89.8514 110.91 88.1495 109.874 86.3902 110.238C84.631 110.603 83.4806 112.23 83.8207 113.872C84.1609 115.515 85.8628 116.551 87.6221 116.187Z" fill="#E2E2E2"/>
<path d="M86.4445 115.596C87.645 115.347 88.4299 114.237 88.1976 113.115C87.9654 111.993 86.8039 111.286 85.6034 111.534C84.4029 111.783 83.618 112.894 83.8503 114.015C84.0825 115.137 85.244 115.845 86.4445 115.596Z" fill="black"/>
<path d="M87.5861 112.573C88.0529 112.269 88.2957 111.814 88.1284 111.558C87.9611 111.301 87.4472 111.34 86.9804 111.644C86.5136 111.948 86.2708 112.403 86.4381 112.66C86.6054 112.916 87.1193 112.878 87.5861 112.573Z" fill="white"/>
<rect x="431" y="126" width="153" height="42" rx="21" fill="#4AAEAD"/>
<path d="M466.99 146.594C466.208 146.594 465.664 146.441 465.357 146.134C465.066 145.827 464.92 145.245 464.92 144.386C464.92 143.497 465.089 142.929 465.426 142.684C465.794 142.408 466.369 142.27 467.151 142.27C467.948 142.27 468.493 142.423 468.784 142.73C469.091 143.037 469.244 143.612 469.244 144.455C469.244 145.36 469.075 145.935 468.738 146.18C468.37 146.456 467.787 146.594 466.99 146.594ZM465.909 148.48C466.216 148.403 466.614 148.365 467.105 148.365C467.596 148.365 467.987 148.403 468.278 148.48C468.569 148.557 468.769 148.695 468.876 148.894C468.999 149.093 469.068 149.27 469.083 149.423C469.114 149.576 469.129 149.814 469.129 150.136V157.427C469.129 157.749 469.114 157.987 469.083 158.14C469.068 158.309 468.999 158.493 468.876 158.692C468.753 158.891 468.539 159.029 468.232 159.106C467.941 159.198 467.55 159.244 467.059 159.244C466.568 159.244 466.177 159.198 465.886 159.106C465.595 159.029 465.388 158.884 465.265 158.669C465.158 158.47 465.089 158.286 465.058 158.117C465.043 157.964 465.035 157.726 465.035 157.404V150.113C465.035 149.791 465.043 149.553 465.058 149.4C465.089 149.247 465.165 149.078 465.288 148.894C465.411 148.695 465.618 148.557 465.909 148.48ZM486.461 137.394C487.366 137.839 487.818 138.329 487.818 138.866C487.818 139.111 487.703 139.479 487.473 139.97L481.125 152.85C480.957 153.187 480.696 153.463 480.343 153.678C480.006 153.877 479.653 153.977 479.285 153.977H479.055C478.672 153.977 478.304 153.877 477.951 153.678C477.614 153.463 477.361 153.187 477.192 152.85L470.844 139.97C470.614 139.479 470.499 139.111 470.499 138.866C470.499 138.329 470.952 137.839 471.856 137.394C472.362 137.133 472.746 137.003 473.006 137.003C473.282 137.003 473.489 137.034 473.627 137.095C473.765 137.156 473.896 137.264 474.018 137.417C474.156 137.601 474.279 137.808 474.386 138.038C474.509 138.253 474.808 138.889 475.283 139.947C475.759 140.99 476.265 142.101 476.801 143.282C477.353 144.463 477.867 145.582 478.342 146.64C478.833 147.683 479.109 148.265 479.17 148.388L483.77 138.314C483.893 138.023 484 137.793 484.092 137.624C484.368 137.21 484.706 137.003 485.104 137.003C485.503 137.003 485.955 137.133 486.461 137.394ZM494.663 143.167C494.755 142.308 495.361 141.879 496.48 141.879C497.078 141.879 497.523 141.925 497.814 142.017C498.105 142.109 498.305 142.27 498.412 142.5C498.535 142.73 498.604 142.937 498.619 143.121C498.65 143.29 498.665 143.55 498.665 143.903V151.953C498.665 152.306 498.65 152.574 498.619 152.758C498.604 152.927 498.542 153.126 498.435 153.356C498.22 153.755 497.691 153.954 496.848 153.954C496.02 153.954 495.46 153.854 495.169 153.655C494.893 153.44 494.732 153.134 494.686 152.735C494.119 153.548 493.168 153.954 491.834 153.954C490.515 153.954 489.289 153.348 488.154 152.137C487.019 150.926 486.452 149.523 486.452 147.928C486.452 146.318 487.019 144.915 488.154 143.719C489.304 142.508 490.561 141.902 491.926 141.902C492.447 141.902 492.923 141.994 493.352 142.178C493.781 142.362 494.08 142.538 494.249 142.707C494.418 142.86 494.556 143.014 494.663 143.167ZM490.477 147.951C490.477 148.457 490.676 148.917 491.075 149.331C491.474 149.73 491.957 149.929 492.524 149.929C493.091 149.929 493.559 149.722 493.927 149.308C494.31 148.894 494.502 148.442 494.502 147.951C494.502 147.445 494.318 146.977 493.95 146.548C493.597 146.119 493.114 145.904 492.501 145.904C491.903 145.904 491.412 146.119 491.029 146.548C490.661 146.977 490.477 147.445 490.477 147.951ZM504.454 143.489C505.175 142.4 506.041 141.856 507.053 141.856C508.617 141.856 509.782 142.523 510.549 143.857C510.718 143.627 510.917 143.389 511.147 143.144C511.392 142.883 511.776 142.607 512.297 142.316C512.818 142.009 513.355 141.856 513.907 141.856C515.134 141.856 516.161 142.331 516.989 143.282C517.817 144.217 518.231 145.774 518.231 147.951V151.976C518.231 152.329 518.216 152.597 518.185 152.781C518.17 152.95 518.101 153.149 517.978 153.379C517.779 153.793 517.188 154 516.207 154C515.241 154 514.651 153.785 514.436 153.356C514.329 153.126 514.26 152.927 514.229 152.758C514.214 152.574 514.206 152.306 514.206 151.953V147.928C514.206 146.594 513.731 145.927 512.78 145.927C512.243 145.927 511.875 146.103 511.676 146.456C511.492 146.809 511.4 147.307 511.4 147.951V151.976C511.4 152.344 511.385 152.612 511.354 152.781C511.339 152.95 511.27 153.149 511.147 153.379C510.932 153.793 510.334 154 509.353 154C508.387 154 507.797 153.785 507.582 153.356C507.475 153.126 507.406 152.927 507.375 152.758C507.36 152.574 507.352 152.306 507.352 151.953V147.928C507.352 146.594 506.877 145.927 505.926 145.927C505.006 145.927 504.546 146.594 504.546 147.928V151.999C504.546 152.352 504.531 152.62 504.5 152.804C504.485 152.973 504.416 153.172 504.293 153.402C504.063 153.801 503.465 154 502.499 154C501.533 154 500.943 153.793 500.728 153.379C500.621 153.149 500.552 152.95 500.521 152.781C500.506 152.612 500.498 152.344 500.498 151.976V143.88C500.498 143.527 500.506 143.267 500.521 143.098C500.552 142.914 500.628 142.715 500.751 142.5C500.981 142.086 501.525 141.879 502.384 141.879C503.243 141.879 503.802 142.017 504.063 142.293C504.324 142.569 504.454 142.968 504.454 143.489ZM519.717 147.951C519.717 146.111 520.361 144.593 521.649 143.397C522.937 142.201 524.409 141.603 526.065 141.603C527.721 141.603 529.185 142.201 530.458 143.397C531.73 144.578 532.367 146.088 532.367 147.928C532.367 149.201 532.037 150.335 531.378 151.332C530.718 152.313 529.913 153.042 528.963 153.517C528.027 153.977 527.054 154.207 526.042 154.207C525.03 154.207 524.048 153.962 523.098 153.471C522.147 152.965 521.342 152.229 520.683 151.263C520.039 150.282 519.717 149.178 519.717 147.951ZM524.524 149.607C525.014 149.975 525.513 150.159 526.019 150.159C526.525 150.159 527.031 149.967 527.537 149.584C528.043 149.201 528.296 148.633 528.296 147.882C528.296 147.131 528.058 146.571 527.583 146.203C527.107 145.835 526.594 145.651 526.042 145.651C525.49 145.651 524.976 145.843 524.501 146.226C524.025 146.609 523.788 147.177 523.788 147.928C523.788 148.664 524.033 149.224 524.524 149.607ZM533.945 152.919C533.653 152.735 533.508 152.444 533.508 152.045C533.508 151.646 533.799 151.041 534.382 150.228C534.55 149.967 534.819 149.837 535.187 149.837C535.57 149.837 536.084 150.029 536.728 150.412C537.372 150.78 537.954 150.964 538.476 150.964C539.411 150.964 539.879 150.78 539.879 150.412C539.879 150.121 539.365 149.906 538.338 149.768C537.372 149.63 536.413 149.27 535.463 148.687C535.018 148.411 534.65 147.982 534.359 147.399C534.067 146.801 533.922 146.096 533.922 145.283C533.922 142.86 535.585 141.649 538.913 141.649C540.001 141.649 541.121 141.91 542.271 142.431C542.807 142.676 543.076 142.983 543.076 143.351C543.076 143.719 542.907 144.171 542.57 144.708C542.232 145.245 541.887 145.513 541.535 145.513C541.351 145.513 541.006 145.398 540.5 145.168C540.009 144.938 539.472 144.823 538.89 144.823C537.985 144.823 537.533 144.992 537.533 145.329C537.533 145.789 538.054 146.088 539.097 146.226C540.109 146.333 541.09 146.625 542.041 147.1C542.485 147.315 542.853 147.69 543.145 148.227C543.451 148.748 543.605 149.408 543.605 150.205C543.605 151.002 543.451 151.685 543.145 152.252C542.853 152.804 542.439 153.218 541.903 153.494C540.921 153.969 539.687 154.207 538.2 154.207C536.728 154.207 535.309 153.778 533.945 152.919ZM545.336 150.504C545.489 150.197 545.719 149.99 546.026 149.883C546.348 149.776 546.838 149.722 547.498 149.722C548.172 149.722 548.655 149.868 548.947 150.159C549.253 150.45 549.407 150.91 549.407 151.539V151.907C549.407 152.275 549.391 152.551 549.361 152.735C549.345 152.904 549.276 153.111 549.154 153.356C548.908 153.801 548.318 154.023 547.383 154.023C546.463 154.023 545.849 153.877 545.543 153.586C545.251 153.279 545.106 152.697 545.106 151.838C545.106 151.24 545.182 150.795 545.336 150.504ZM548.418 147.813C548.126 147.89 547.735 147.928 547.245 147.928C546.754 147.928 546.363 147.89 546.072 147.813C545.78 147.736 545.573 147.598 545.451 147.399C545.343 147.2 545.274 147.023 545.244 146.87C545.228 146.717 545.221 146.479 545.221 146.157V138.866C545.221 138.544 545.228 138.306 545.244 138.153C545.274 137.984 545.351 137.8 545.474 137.601C545.596 137.402 545.803 137.264 546.095 137.187C546.386 137.095 546.777 137.049 547.268 137.049C547.758 137.049 548.149 137.095 548.441 137.187C548.732 137.264 548.931 137.409 549.039 137.624C549.161 137.823 549.23 138.007 549.246 138.176C549.276 138.329 549.292 138.567 549.292 138.889V146.18C549.292 146.502 549.276 146.74 549.246 146.893C549.23 147.046 549.161 147.223 549.039 147.422C548.916 147.606 548.709 147.736 548.418 147.813Z" fill="white"/>
<path d="M46.45 19.2L46.9 18.875C47.4667 18.5417 47.8667 18.375 48.1 18.375C48.6167 18.375 49.175 18.8417 49.775 19.775C50.1417 20.3583 50.325 20.825 50.325 21.175C50.325 21.525 50.2083 21.8167 49.975 22.05C49.7583 22.2833 49.5 22.4917 49.2 22.675C48.9 22.8583 48.6083 23.0333 48.325 23.2C48.0583 23.3667 47.5 23.5833 46.65 23.85C45.8 24.1167 44.975 24.25 44.175 24.25C43.3917 24.25 42.5917 24.15 41.775 23.95C40.975 23.7333 40.1417 23.3833 39.275 22.9C38.425 22.4 37.6583 21.8 36.975 21.1C36.2917 20.3833 35.725 19.475 35.275 18.375C34.8417 17.2583 34.625 16.05 34.625 14.75C34.625 13.45 34.8417 12.275 35.275 11.225C35.7083 10.1583 36.2583 9.28333 36.925 8.6C37.6083 7.9 38.3833 7.31667 39.25 6.85C40.8833 5.95 42.525 5.5 44.175 5.5C44.9583 5.5 45.75 5.625 46.55 5.875C47.3667 6.10833 47.9833 6.35 48.4 6.6L49 6.95C49.3 7.13333 49.5333 7.28333 49.7 7.4C50.1333 7.75 50.35 8.15 50.35 8.6C50.35 9.03333 50.175 9.49167 49.825 9.975C49.175 10.875 48.5917 11.325 48.075 11.325C47.775 11.325 47.35 11.1417 46.8 10.775C46.1 10.2083 45.1667 9.925 44 9.925C42.9167 9.925 41.85 10.3 40.8 11.05C40.3 11.4167 39.8833 11.9333 39.55 12.6C39.2167 13.2667 39.05 14.025 39.05 14.875C39.05 15.7083 39.2167 16.4583 39.55 17.125C39.8833 17.7917 40.3083 18.3167 40.825 18.7C41.8417 19.4333 42.9 19.8 44 19.8C44.5167 19.8 45 19.7333 45.45 19.6C45.9167 19.4667 46.25 19.3333 46.45 19.2ZM60.5678 5.45C63.0344 5.45 65.1761 6.34167 66.9928 8.125C68.8094 9.90833 69.7178 12.125 69.7178 14.775C69.7178 17.4083 68.8511 19.6583 67.1178 21.525C65.3844 23.375 63.2511 24.3 60.7178 24.3C58.1844 24.3 56.0261 23.3833 54.2428 21.55C52.4761 19.7167 51.5928 17.5333 51.5928 15C51.5928 13.6167 51.8428 12.325 52.3428 11.125C52.8428 9.90833 53.5094 8.89167 54.3428 8.075C55.1761 7.25833 56.1344 6.61667 57.2178 6.15C58.3011 5.68333 59.4178 5.45 60.5678 5.45ZM56.0178 14.875C56.0178 16.3583 56.4928 17.5667 57.4428 18.5C58.4094 19.4167 59.4844 19.875 60.6678 19.875C61.8511 19.875 62.9178 19.425 63.8678 18.525C64.8178 17.625 65.2928 16.4167 65.2928 14.9C65.2928 13.3833 64.8094 12.1667 63.8428 11.25C62.8928 10.3333 61.8261 9.875 60.6428 9.875C59.4594 9.875 58.3928 10.3417 57.4428 11.275C56.4928 12.1917 56.0178 13.3917 56.0178 14.875ZM83.1775 6.45C83.3442 6.15 83.5859 5.95 83.9025 5.85C84.2192 5.75 84.6109 5.7 85.0775 5.7C85.5609 5.7 85.9442 5.74167 86.2275 5.825C86.5275 5.90833 86.7442 6.00833 86.8775 6.125C87.0275 6.24167 87.1359 6.41667 87.2025 6.65C87.3025 6.91667 87.3525 7.34167 87.3525 7.925V21.8C87.3525 22.2 87.3359 22.4917 87.3025 22.675C87.2859 22.8583 87.2109 23.075 87.0775 23.325C86.8442 23.775 86.1942 24 85.1275 24C84.4775 24 84.0275 23.95 83.7775 23.85C83.5275 23.75 83.3192 23.5917 83.1525 23.375C79.4025 18.375 76.9359 15.1083 75.7525 13.575V21.8C75.7525 22.2 75.7359 22.4917 75.7025 22.675C75.6859 22.8583 75.6109 23.075 75.4775 23.325C75.2442 23.775 74.5942 24 73.5275 24C72.4942 24 71.8609 23.775 71.6275 23.325C71.4942 23.075 71.4109 22.85 71.3775 22.65C71.3609 22.45 71.3525 22.1583 71.3525 21.775V7.825C71.3525 7.19167 71.4275 6.73333 71.5775 6.45C71.7442 6.15 71.9859 5.95 72.3025 5.85C72.6192 5.75 73.0275 5.7 73.5275 5.7C74.0275 5.7 74.4192 5.75 74.7025 5.85C75.0025 5.93333 75.2109 6.03333 75.3275 6.15C75.3942 6.2 75.5859 6.41667 75.9025 6.8C79.4192 11.5833 81.7692 14.7417 82.9525 16.275V7.825C82.9525 7.19167 83.0275 6.73333 83.1775 6.45ZM97.9457 5.45C100.412 5.45 102.554 6.34167 104.371 8.125C106.187 9.90833 107.096 12.125 107.096 14.775C107.096 17.4083 106.229 19.6583 104.496 21.525C102.762 23.375 100.629 24.3 98.0957 24.3C95.5624 24.3 93.404 23.3833 91.6207 21.55C89.854 19.7167 88.9707 17.5333 88.9707 15C88.9707 13.6167 89.2207 12.325 89.7207 11.125C90.2207 9.90833 90.8874 8.89167 91.7207 8.075C92.554 7.25833 93.5124 6.61667 94.5957 6.15C95.679 5.68333 96.7957 5.45 97.9457 5.45ZM93.3957 14.875C93.3957 16.3583 93.8707 17.5667 94.8207 18.5C95.7874 19.4167 96.8624 19.875 98.0457 19.875C99.229 19.875 100.296 19.425 101.246 18.525C102.196 17.625 102.671 16.4167 102.671 14.9C102.671 13.3833 102.187 12.1667 101.221 11.25C100.271 10.3333 99.204 9.875 98.0207 9.875C96.8374 9.875 95.7707 10.3417 94.8207 11.275C93.8707 12.1917 93.3957 13.3917 93.3957 14.875ZM120.18 19.2L120.63 18.875C121.197 18.5417 121.597 18.375 121.83 18.375C122.347 18.375 122.905 18.8417 123.505 19.775C123.872 20.3583 124.055 20.825 124.055 21.175C124.055 21.525 123.939 21.8167 123.705 22.05C123.489 22.2833 123.23 22.4917 122.93 22.675C122.63 22.8583 122.339 23.0333 122.055 23.2C121.789 23.3667 121.23 23.5833 120.38 23.85C119.53 24.1167 118.705 24.25 117.905 24.25C117.122 24.25 116.322 24.15 115.505 23.95C114.705 23.7333 113.872 23.3833 113.005 22.9C112.155 22.4 111.389 21.8 110.705 21.1C110.022 20.3833 109.455 19.475 109.005 18.375C108.572 17.2583 108.355 16.05 108.355 14.75C108.355 13.45 108.572 12.275 109.005 11.225C109.439 10.1583 109.989 9.28333 110.655 8.6C111.339 7.9 112.114 7.31667 112.98 6.85C114.614 5.95 116.255 5.5 117.905 5.5C118.689 5.5 119.48 5.625 120.28 5.875C121.097 6.10833 121.714 6.35 122.13 6.6L122.73 6.95C123.03 7.13333 123.264 7.28333 123.43 7.4C123.864 7.75 124.08 8.15 124.08 8.6C124.08 9.03333 123.905 9.49167 123.555 9.975C122.905 10.875 122.322 11.325 121.805 11.325C121.505 11.325 121.08 11.1417 120.53 10.775C119.83 10.2083 118.897 9.925 117.73 9.925C116.647 9.925 115.58 10.3 114.53 11.05C114.03 11.4167 113.614 11.9333 113.28 12.6C112.947 13.2667 112.78 14.025 112.78 14.875C112.78 15.7083 112.947 16.4583 113.28 17.125C113.614 17.7917 114.039 18.3167 114.555 18.7C115.572 19.4333 116.63 19.8 117.73 19.8C118.247 19.8 118.73 19.7333 119.18 19.6C119.647 19.4667 119.98 19.3333 120.18 19.2ZM130.123 19.575H137.823C138.207 19.575 138.49 19.5917 138.673 19.625C138.873 19.6417 139.098 19.7167 139.348 19.85C139.798 20.0833 140.023 20.7333 140.023 21.8C140.023 22.9667 139.715 23.65 139.098 23.85C138.815 23.95 138.382 24 137.798 24H127.898C126.732 24 126.048 23.6833 125.848 23.05C125.748 22.7833 125.698 22.3583 125.698 21.775V7.875C125.698 7.025 125.857 6.45 126.173 6.15C126.49 5.83333 127.09 5.675 127.973 5.675H137.823C138.207 5.675 138.49 5.69167 138.673 5.725C138.873 5.74167 139.098 5.81667 139.348 5.95C139.798 6.18333 140.023 6.83333 140.023 7.9C140.023 9.06667 139.715 9.75 139.098 9.95C138.815 10.05 138.382 10.1 137.798 10.1H130.123V12.625H135.073C135.457 12.625 135.74 12.6417 135.923 12.675C136.123 12.6917 136.348 12.7667 136.598 12.9C137.048 13.1333 137.273 13.7833 137.273 14.85C137.273 16.0167 136.957 16.7 136.323 16.9C136.04 17 135.607 17.05 135.023 17.05H130.123V19.575ZM149.164 5.65H163.064C163.597 5.65 163.989 5.71667 164.239 5.85C164.489 5.96667 164.656 6.15833 164.739 6.425C164.822 6.69167 164.864 7.04167 164.864 7.475C164.864 7.90833 164.822 8.25833 164.739 8.525C164.656 8.775 164.514 8.95 164.314 9.05C164.014 9.2 163.589 9.275 163.039 9.275H158.264V21.85C158.264 22.2333 158.247 22.5167 158.214 22.7C158.197 22.8833 158.122 23.1 157.989 23.35C157.872 23.5833 157.656 23.75 157.339 23.85C157.022 23.95 156.606 24 156.089 24C155.572 24 155.156 23.95 154.839 23.85C154.539 23.75 154.322 23.5833 154.189 23.35C154.072 23.1 153.997 22.8833 153.964 22.7C153.947 22.5 153.939 22.2083 153.939 21.825V9.275H149.139C148.606 9.275 148.214 9.21667 147.964 9.1C147.714 8.96667 147.547 8.76667 147.464 8.5C147.381 8.23333 147.339 7.88333 147.339 7.45C147.339 7.01667 147.381 6.675 147.464 6.425C147.547 6.15833 147.689 5.975 147.889 5.875C148.189 5.725 148.614 5.65 149.164 5.65ZM178.225 6.35C178.392 6.08333 178.633 5.9 178.95 5.8C179.267 5.7 179.658 5.65 180.125 5.65C180.608 5.65 180.992 5.69167 181.275 5.775C181.558 5.85833 181.775 5.95833 181.925 6.075C182.075 6.19167 182.183 6.36667 182.25 6.6C182.35 6.88333 182.4 7.31667 182.4 7.9V15.45C182.4 17.65 181.717 19.65 180.35 21.45C179.683 22.3 178.825 22.9917 177.775 23.525C176.725 24.0417 175.558 24.3 174.275 24.3C173.008 24.3 171.85 24.0333 170.8 23.5C169.767 22.9667 168.925 22.2667 168.275 21.4C166.925 19.6333 166.25 17.6333 166.25 15.4V7.875C166.25 7.475 166.258 7.18333 166.275 7C166.308 6.8 166.392 6.575 166.525 6.325C166.658 6.075 166.883 5.9 167.2 5.8C167.517 5.7 167.942 5.65 168.475 5.65C169.008 5.65 169.433 5.7 169.75 5.8C170.067 5.9 170.283 6.075 170.4 6.325C170.6 6.70833 170.7 7.23333 170.7 7.9V15.4C170.7 16.4167 170.95 17.3833 171.45 18.3C171.7 18.7667 172.075 19.1417 172.575 19.425C173.075 19.7083 173.667 19.85 174.35 19.85C175.567 19.85 176.475 19.4 177.075 18.5C177.675 17.6 177.975 16.5583 177.975 15.375V7.725C177.975 7.075 178.058 6.61667 178.225 6.35ZM192.938 5.65L197.563 5.675C199.98 5.675 202.105 6.55 203.938 8.3C205.771 10.0333 206.688 12.175 206.688 14.725C206.688 17.2583 205.788 19.4333 203.988 21.25C202.205 23.0667 200.038 23.975 197.488 23.975H192.913C191.896 23.975 191.263 23.7667 191.013 23.35C190.813 23 190.713 22.4667 190.713 21.75V7.85C190.713 7.45 190.721 7.15833 190.738 6.975C190.771 6.79167 190.855 6.575 190.988 6.325C191.221 5.875 191.871 5.65 192.938 5.65ZM197.563 19.55C198.763 19.55 199.846 19.1083 200.813 18.225C201.78 17.325 202.263 16.2 202.263 14.85C202.263 13.5 201.788 12.375 200.838 11.475C199.905 10.5583 198.805 10.1 197.538 10.1H195.138V19.55H197.563ZM208.315 7.875C208.315 7.49167 208.324 7.20833 208.34 7.025C208.374 6.825 208.457 6.6 208.59 6.35C208.824 5.9 209.474 5.675 210.54 5.675C211.707 5.675 212.399 5.98333 212.615 6.6C212.699 6.88333 212.74 7.31667 212.74 7.9V21.8C212.74 22.2 212.724 22.4917 212.69 22.675C212.674 22.8583 212.599 23.075 212.465 23.325C212.232 23.775 211.582 24 210.515 24C209.349 24 208.665 23.6833 208.465 23.05C208.365 22.7833 208.315 22.3583 208.315 21.775V7.875ZM219.161 19.575H226.861C227.245 19.575 227.528 19.5917 227.711 19.625C227.911 19.6417 228.136 19.7167 228.386 19.85C228.836 20.0833 229.061 20.7333 229.061 21.8C229.061 22.9667 228.753 23.65 228.136 23.85C227.853 23.95 227.42 24 226.836 24H216.936C215.77 24 215.086 23.6833 214.886 23.05C214.786 22.7833 214.736 22.3583 214.736 21.775V7.875C214.736 7.025 214.895 6.45 215.211 6.15C215.528 5.83333 216.128 5.675 217.011 5.675H226.861C227.245 5.675 227.528 5.69167 227.711 5.725C227.911 5.74167 228.136 5.81667 228.386 5.95C228.836 6.18333 229.061 6.83333 229.061 7.9C229.061 9.06667 228.753 9.75 228.136 9.95C227.853 10.05 227.42 10.1 226.836 10.1H219.161V12.625H224.111C224.495 12.625 224.778 12.6417 224.961 12.675C225.161 12.6917 225.386 12.7667 225.636 12.9C226.086 13.1333 226.311 13.7833 226.311 14.85C226.311 16.0167 225.995 16.7 225.361 16.9C225.078 17 224.645 17.05 224.061 17.05H219.161V19.575ZM231.879 5.65H245.779C246.312 5.65 246.704 5.71667 246.954 5.85C247.204 5.96667 247.37 6.15833 247.454 6.425C247.537 6.69167 247.579 7.04167 247.579 7.475C247.579 7.90833 247.537 8.25833 247.454 8.525C247.37 8.775 247.229 8.95 247.029 9.05C246.729 9.2 246.304 9.275 245.754 9.275H240.979V21.85C240.979 22.2333 240.962 22.5167 240.929 22.7C240.912 22.8833 240.837 23.1 240.704 23.35C240.587 23.5833 240.37 23.75 240.054 23.85C239.737 23.95 239.32 24 238.804 24C238.287 24 237.87 23.95 237.554 23.85C237.254 23.75 237.037 23.5833 236.904 23.35C236.787 23.1 236.712 22.8833 236.679 22.7C236.662 22.5 236.654 22.2083 236.654 21.825V9.275H231.854C231.32 9.275 230.929 9.21667 230.679 9.1C230.429 8.96667 230.262 8.76667 230.179 8.5C230.095 8.23333 230.054 7.88333 230.054 7.45C230.054 7.01667 230.095 6.675 230.179 6.425C230.262 6.15833 230.404 5.975 230.604 5.875C230.904 5.725 231.329 5.65 231.879 5.65ZM255.78 6.975L262.53 20.925C262.813 21.4917 262.955 21.9167 262.955 22.2C262.955 22.8 262.472 23.3417 261.505 23.825C260.938 24.1083 260.488 24.25 260.155 24.25C259.838 24.25 259.572 24.175 259.355 24.025C259.155 23.875 259.005 23.7167 258.905 23.55C258.822 23.3833 258.697 23.1333 258.53 22.8L257.23 20.1H250.305L249.005 22.8C248.838 23.1333 248.705 23.375 248.605 23.525C248.522 23.675 248.372 23.8333 248.155 24C247.955 24.15 247.688 24.225 247.355 24.225C247.038 24.225 246.597 24.0833 246.03 23.8C245.063 23.3333 244.58 22.8 244.58 22.2C244.58 21.9167 244.722 21.4917 245.005 20.925L251.755 6.95C251.938 6.56667 252.213 6.25833 252.58 6.025C252.963 5.79167 253.363 5.675 253.78 5.675C254.68 5.675 255.347 6.10833 255.78 6.975ZM253.755 12.975L252.105 16.4H255.43L253.755 12.975ZM270.645 7.875C270.645 7.49167 270.653 7.20833 270.67 7.025C270.703 6.825 270.786 6.6 270.92 6.35C271.153 5.9 271.803 5.675 272.87 5.675C274.036 5.675 274.728 5.98333 274.945 6.6C275.028 6.88333 275.07 7.31667 275.07 7.9V21.8C275.07 22.2 275.053 22.4917 275.02 22.675C275.003 22.8583 274.928 23.075 274.795 23.325C274.561 23.775 273.911 24 272.845 24C271.678 24 270.995 23.6833 270.795 23.05C270.695 22.7833 270.645 22.3583 270.645 21.775V7.875ZM279.29 5.65L283.915 5.675C286.332 5.675 288.457 6.55 290.29 8.3C292.124 10.0333 293.04 12.175 293.04 14.725C293.04 17.2583 292.14 19.4333 290.34 21.25C288.557 23.0667 286.39 23.975 283.84 23.975H279.265C278.249 23.975 277.615 23.7667 277.365 23.35C277.165 23 277.065 22.4667 277.065 21.75V7.85C277.065 7.45 277.074 7.15833 277.09 6.975C277.124 6.79167 277.207 6.575 277.34 6.325C277.574 5.875 278.224 5.65 279.29 5.65ZM283.915 19.55C285.115 19.55 286.199 19.1083 287.165 18.225C288.132 17.325 288.615 16.2 288.615 14.85C288.615 13.5 288.14 12.375 287.19 11.475C286.257 10.5583 285.157 10.1 283.89 10.1H281.49V19.55H283.915ZM299.093 19.575H306.793C307.176 19.575 307.46 19.5917 307.643 19.625C307.843 19.6417 308.068 19.7167 308.318 19.85C308.768 20.0833 308.993 20.7333 308.993 21.8C308.993 22.9667 308.685 23.65 308.068 23.85C307.785 23.95 307.351 24 306.768 24H296.868C295.701 24 295.018 23.6833 294.818 23.05C294.718 22.7833 294.668 22.3583 294.668 21.775V7.875C294.668 7.025 294.826 6.45 295.143 6.15C295.46 5.83333 296.06 5.675 296.943 5.675H306.793C307.176 5.675 307.46 5.69167 307.643 5.725C307.843 5.74167 308.068 5.81667 308.318 5.95C308.768 6.18333 308.993 6.83333 308.993 7.9C308.993 9.06667 308.685 9.75 308.068 9.95C307.785 10.05 307.351 10.1 306.768 10.1H299.093V12.625H304.043C304.426 12.625 304.71 12.6417 304.893 12.675C305.093 12.6917 305.318 12.7667 305.568 12.9C306.018 13.1333 306.243 13.7833 306.243 14.85C306.243 16.0167 305.926 16.7 305.293 16.9C305.01 17 304.576 17.05 303.993 17.05H299.093V19.575ZM321.185 6.975L327.935 20.925C328.219 21.4917 328.36 21.9167 328.36 22.2C328.36 22.8 327.877 23.3417 326.91 23.825C326.344 24.1083 325.894 24.25 325.56 24.25C325.244 24.25 324.977 24.175 324.76 24.025C324.56 23.875 324.41 23.7167 324.31 23.55C324.227 23.3833 324.102 23.1333 323.935 22.8L322.635 20.1H315.71L314.41 22.8C314.244 23.1333 314.11 23.375 314.01 23.525C313.927 23.675 313.777 23.8333 313.56 24C313.36 24.15 313.094 24.225 312.76 24.225C312.444 24.225 312.002 24.0833 311.435 23.8C310.469 23.3333 309.985 22.8 309.985 22.2C309.985 21.9167 310.127 21.4917 310.41 20.925L317.16 6.95C317.344 6.56667 317.619 6.25833 317.985 6.025C318.369 5.79167 318.769 5.675 319.185 5.675C320.085 5.675 320.752 6.10833 321.185 6.975ZM319.16 12.975L317.51 16.4H320.835L319.16 12.975ZM334.152 20.3H340.952C341.502 20.3 341.902 20.3667 342.152 20.5C342.402 20.6167 342.568 20.8083 342.652 21.075C342.735 21.3417 342.777 21.7 342.777 22.15C342.777 22.5833 342.735 22.9333 342.652 23.2C342.568 23.4667 342.427 23.65 342.227 23.75C341.91 23.9167 341.477 24 340.927 24H331.927C330.76 24 330.077 23.6833 329.877 23.05C329.777 22.7833 329.727 22.3583 329.727 21.775V7.875C329.727 7.49167 329.735 7.20833 329.752 7.025C329.785 6.825 329.868 6.6 330.002 6.35C330.235 5.9 330.885 5.675 331.952 5.675C333.118 5.675 333.81 5.98333 334.027 6.6C334.11 6.88333 334.152 7.31667 334.152 7.9V20.3Z" fill="#7C6BAF"/>
<defs>
<filter id="filter0_d_254_4489" x="0" y="30" width="637" height="203" filterUnits="userSpaceOnUse" color-interpolation-filters="sRGB">
<feFlood flood-opacity="0" result="BackgroundImageFix"/>
<feColorMatrix in="SourceAlpha" type="matrix" values="0 0 0 0 0 0 0 0 0 0 0 0 0 0 0 0 0 0 127 0" result="hardAlpha"/>
<feMorphology radius="8" operator="dilate" in="SourceAlpha" result="effect1_dropShadow_254_4489"/>
<feOffset dy="12"/>
<feGaussianBlur stdDeviation="12"/>
<feComposite in2="hardAlpha" operator="out"/>
<feColorMatrix type="matrix" values="0 0 0 0 0.486275 0 0 0 0 0.419608 0 0 0 0 0.686275 0 0 0 0.22 0"/>
<feBlend mode="normal" in2="BackgroundImageFix" result="effect1_dropShadow_254_4489"/>
<feBlend mode="normal" in="SourceGraphic" in2="effect1_dropShadow_254_4489" result="shape"/>
</filter>
</defs>
</svg>
