<svg width="375" height="410" viewBox="0 0 375 410" fill="none" xmlns="http://www.w3.org/2000/svg">
<circle cx="194.394" cy="204.884" r="204.884" fill="#F58A47"/>
<g clip-path="url(#clip0_334_574)">
<path d="M367.011 148.528C365.697 144.865 365.49 140.899 366.416 137.122L366.431 137.062C373.573 107.777 353.03 78.2096 321.53 75.8131C301.978 74.3243 279.778 88.0285 272.336 106.129C270.852 109.726 269.784 113.481 269.152 117.321C267.564 127.048 264.966 136.59 261.176 145.688C260.48 147.359 259.86 149.076 259.318 150.84C249.37 183.22 270.048 217.168 303.44 223.275C332.783 228.642 361.564 210.288 368.709 180.993C371.432 169.818 370.63 158.606 367.011 148.528Z" fill="#CE9C2C"/>
<path d="M362.399 150.167C361.19 146.799 361 143.152 361.853 139.679L361.866 139.624C368.433 112.698 349.546 85.5154 320.585 83.3117C302.608 81.945 282.198 94.5441 275.355 111.185C273.99 114.493 273.008 117.945 272.427 121.476C270.967 130.419 268.579 139.191 265.094 147.556C264.454 149.092 263.885 150.671 263.387 152.292C254.241 182.062 273.253 213.274 303.951 218.889C330.929 223.823 357.39 206.948 363.959 180.015C366.463 169.74 365.726 159.433 362.399 150.167Z" fill="#F4BE38"/>
<path d="M348.279 198.087C349.583 198.405 350.898 197.608 351.215 196.307C351.533 195.006 350.733 193.693 349.429 193.375C348.125 193.057 346.81 193.854 346.493 195.155C346.176 196.457 346.975 197.769 348.279 198.087Z" fill="#CE9C2C"/>
<path d="M337.453 206.956C338.757 207.274 340.071 206.477 340.389 205.176C340.706 203.874 339.906 202.562 338.602 202.244C337.298 201.926 335.984 202.723 335.666 204.024C335.349 205.325 336.149 206.638 337.453 206.956Z" fill="#CE9C2C"/>
<path d="M339.855 197.608C341.159 197.926 342.473 197.129 342.791 195.828C343.108 194.527 342.308 193.214 341.004 192.896C339.7 192.578 338.386 193.375 338.068 194.676C337.751 195.978 338.551 197.29 339.855 197.608Z" fill="#CE9C2C"/>
<path d="M350.769 185.349C352.073 185.667 353.388 184.87 353.705 183.568C354.022 182.267 353.223 180.954 351.919 180.636C350.614 180.318 349.3 181.115 348.983 182.417C348.665 183.718 349.465 185.031 350.769 185.349Z" fill="#CE9C2C"/>
<path d="M285.694 130.051C296.12 132.594 306.532 126.622 308.949 116.713C311.365 106.805 304.872 96.7105 294.445 94.1676C284.018 91.6247 273.607 97.5961 271.19 107.505C268.774 117.414 275.267 127.508 285.694 130.051Z" fill="#E2E2E2"/>
<path d="M292.575 122.007C299.693 123.743 306.801 119.666 308.451 112.902C310.101 106.137 305.668 99.2459 298.549 97.5099C291.431 95.7739 284.323 99.8504 282.673 106.615C281.024 113.38 285.457 120.271 292.575 122.007Z" fill="black"/>
<path d="M284.027 115.74C285.034 114.174 283.579 111.447 280.776 109.648C277.973 107.85 274.884 107.661 273.877 109.226C272.869 110.792 274.325 113.519 277.128 115.318C279.931 117.116 283.019 117.305 284.027 115.74Z" fill="white"/>
<path d="M344.09 145.857C354.517 148.399 364.89 142.584 367.26 132.868C369.63 123.151 363.098 113.213 352.671 110.671C342.245 108.128 331.871 113.943 329.502 123.659C327.132 133.376 333.663 143.314 344.09 145.857Z" fill="#E2E2E2"/>
<path d="M340.642 135.307C347.76 137.043 354.842 133.073 356.46 126.44C358.077 119.807 353.618 113.022 346.5 111.286C339.382 109.55 332.3 113.52 330.682 120.154C329.064 126.787 333.523 133.571 340.642 135.307Z" fill="black"/>
<path d="M357.154 134.183C360.453 133.741 362.928 131.914 362.682 130.104C362.437 128.294 359.564 127.185 356.265 127.628C352.967 128.071 350.492 129.897 350.737 131.707C350.983 133.517 353.856 134.626 357.154 134.183Z" fill="white"/>
<path d="M354.948 189.702C356.252 190.02 357.567 189.223 357.884 187.922C358.202 186.62 357.402 185.308 356.098 184.99C354.794 184.672 353.479 185.469 353.162 186.77C352.845 188.071 353.644 189.384 354.948 189.702Z" fill="#CE9C2C"/>
<path d="M345.52 188.532C346.824 188.85 348.138 188.053 348.456 186.751C348.773 185.45 347.973 184.137 346.669 183.819C345.365 183.501 344.051 184.298 343.733 185.6C343.416 186.901 344.216 188.214 345.52 188.532Z" fill="#CE9C2C"/>
<path d="M329.776 204.968C331.08 205.286 332.395 204.489 332.712 203.187C333.03 201.886 332.23 200.573 330.926 200.255C329.622 199.937 328.307 200.734 327.99 202.036C327.673 203.337 328.472 204.65 329.776 204.968Z" fill="#CE9C2C"/>
<path d="M332.786 179.47C334.09 179.788 335.405 178.991 335.722 177.69C336.039 176.388 335.239 175.076 333.935 174.758C332.631 174.44 331.317 175.237 331 176.538C330.682 177.839 331.482 179.152 332.786 179.47Z" fill="#CE9C2C"/>
<path d="M330.835 156.054C332.139 156.372 333.453 155.575 333.77 154.273C334.088 152.972 333.288 151.659 331.984 151.341C330.68 151.023 329.366 151.82 329.048 153.122C328.731 154.423 329.531 155.736 330.835 156.054Z" fill="#CE9C2C"/>
</g>
<g clip-path="url(#clip1_334_574)">
<path d="M130.224 157.592C137.477 182.215 117.111 209.907 84.7344 219.443C57.3043 227.523 19.9364 216.588 12.9785 192.127C7.46301 172.732 22.7527 150.767 36.3519 140.726C45.0494 134.303 50.8298 116.786 54.235 115.783C58.0371 114.663 72.9832 125.914 84.4812 127.145C101.223 128.937 124.708 138.863 130.224 157.592Z" fill="#7C6BAF"/>
<path d="M84.7664 219.434C77.4322 210.189 67.2057 194.984 60.4548 173.997C52.5672 149.477 53.0193 128.242 54.236 115.782C60.8912 125.235 68.446 138.008 74.4058 154.077C84.2488 180.613 85.339 204.266 84.7664 219.434Z" stroke="white" stroke-width="2" stroke-miterlimit="10"/>
<path d="M74.8009 126.309C83.3651 138.652 89.9754 152.242 94.3991 166.599C99.0855 181.83 101.251 197.724 100.81 213.654" stroke="white" stroke-width="2" stroke-miterlimit="10"/>
<path d="M41.6467 135.196C40.4245 144.765 39.4962 161.856 45.5441 181.832C51.4332 201.283 61.2932 214.739 67.5027 222.024" stroke="white" stroke-width="2" stroke-miterlimit="10"/>
<path d="M93.5633 127.493C100.272 138.539 105.496 150.42 109.102 162.83C112.997 176.246 114.962 190.147 114.939 204.117" stroke="white" stroke-width="2" stroke-miterlimit="10"/>
<path d="M125.076 190.098C126.419 185.033 128.256 175.326 125.713 163.629C122.374 148.277 113.482 138.656 109.682 134.973" stroke="white" stroke-width="2" stroke-miterlimit="10"/>
<path d="M32.1938 144.621C30.7523 152.851 29.1233 168.546 34.4368 187.071C39.9795 206.394 50.3193 219.188 56.047 225.363" stroke="white" stroke-width="2" stroke-miterlimit="10"/>
<path d="M18.5694 147.756C17.6511 157.025 17.2686 172.906 23.0442 191.341C28.5579 208.94 37.3298 221.351 43.1719 228.418" stroke="white" stroke-width="2" stroke-miterlimit="10"/>
<path d="M51.0157 121.054C51.5434 121.522 55.705 125.147 57.7681 123.959C59.4553 122.987 58.7121 119.386 60.737 118.511C62.0687 117.936 63.2453 119.122 64.0249 118.506C65.0781 117.673 63.9932 114.661 63.3128 112.819C59.9007 103.588 58.195 98.9718 57.3293 99.179C57.0383 99.2488 56.7675 99.6876 56.528 105.311C56.2124 112.721 56.5161 115.877 56.0531 115.958C55.2106 116.109 54.0737 105.588 47.6674 94.1612C45.1512 89.6736 41.9827 84.0228 40.2639 84.5513C36.7826 85.6222 40.4388 111.683 51.0157 121.054Z" fill="#AEBC26"/>
<path d="M40.6223 186.682C52.6067 183.152 59.5972 171.04 56.236 159.629C52.8748 148.217 40.4348 141.828 28.4503 145.358C16.4659 148.888 9.47536 161.001 12.8366 172.412C16.1977 183.823 28.6378 190.212 40.6223 186.682Z" fill="#E2E2E2"/>
<path d="M42.8465 174.543C51.0282 172.133 55.8006 163.864 53.5059 156.073C51.2112 148.283 42.7184 143.921 34.5367 146.331C26.355 148.741 21.5826 157.01 23.8773 164.801C26.1719 172.591 34.6647 176.953 42.8465 174.543Z" fill="black"/>
<path d="M30.5762 173.218C30.6751 171.049 27.6151 169.148 23.7415 168.972C19.868 168.796 16.6477 170.411 16.5488 172.579C16.45 174.748 19.51 176.649 23.3835 176.825C27.2571 177.002 30.4774 175.387 30.5762 173.218Z" fill="white"/>
<path d="M108.656 168.49C120.64 164.96 127.684 153.028 124.388 141.838C121.092 130.649 108.705 124.44 96.7206 127.97C84.7362 131.5 77.6927 143.432 80.9886 154.622C84.2844 165.811 96.6715 172.02 108.656 168.49Z" fill="#E2E2E2"/>
<path d="M99.0155 159.862C107.197 157.452 112.006 149.306 109.756 141.667C107.506 134.028 99.0491 129.789 90.8674 132.199C82.6856 134.609 77.8771 142.755 80.1271 150.394C82.3771 158.033 90.8338 162.272 99.0155 159.862Z" fill="black"/>
<path d="M114.983 149.075C118.045 146.7 119.468 143.41 118.163 141.727C116.857 140.044 113.316 140.605 110.254 142.98C107.192 145.355 105.769 148.645 107.074 150.328C108.38 152.011 111.921 151.45 114.983 149.075Z" fill="white"/>
</g>
<g clip-path="url(#clip2_334_574)">
<path d="M163.172 160.435C169.48 165.815 173.48 173.51 174.191 182.014C174.198 182.083 174.203 182.157 174.209 182.229C175.516 198.844 166.682 211.569 163.982 215.187L103.538 290.872C87.8689 310.493 60.1329 314.419 41.589 299.643C23.0444 284.867 20.7135 256.98 36.3823 237.359C36.7263 237.095 54.2995 220.42 114.619 163C128.495 149.79 149.394 148.685 163.172 160.435Z" fill="#459696"/>
<path d="M250.337 164.282C257.442 160.009 266.016 158.655 274.316 160.673L274.525 160.725C290.716 164.749 300.002 177.15 302.583 180.851L355.315 262.088C368.985 283.149 363.931 310.67 344.027 323.562C324.122 336.454 296.906 329.833 283.235 308.774C283.094 308.362 272.823 286.434 237.397 211.099C229.248 193.769 234.816 173.617 250.337 164.282Z" fill="#459696"/>
<path d="M182.328 362.364H147.795C137.755 362.364 129.346 356.97 128.341 349.885L124.366 321.856C123.113 313.021 133.728 305.638 146.159 306.701L184.667 309.991C194.49 310.831 201.88 316.742 201.88 323.759V348.5C201.88 356.156 193.126 362.364 182.328 362.364Z" fill="#459696"/>
<path d="M220.369 364.001H251.466C260.507 364.001 268.08 358.607 268.984 351.521L272.562 323.493C273.69 314.658 264.131 307.274 252.937 308.337L218.263 311.628C209.417 312.468 202.761 318.379 202.761 325.396V350.136C202.761 357.792 210.645 364.001 220.369 364.001Z" fill="#459696"/>
<path d="M318.495 238.418C318.22 236.81 317.539 232.816 315.238 232.274C315.09 232.239 314.938 232.22 314.786 232.217C314.655 232.209 314.532 232.151 314.443 232.055C314.354 231.959 314.305 231.832 314.308 231.701C314.326 222.527 313.333 213.901 311.877 206.199C311.859 206.103 311.869 206.004 311.905 205.913C311.941 205.823 312.003 205.744 312.082 205.687C312.161 205.63 312.255 205.596 312.353 205.59C312.451 205.584 312.548 205.606 312.634 205.654C314.285 206.56 315.709 206.907 315.961 206.612C316.568 205.9 311.245 200.436 310.292 198.759C310.268 198.718 310.251 198.673 310.241 198.627L310.164 198.315C310.168 198.311 310.164 198.302 310.171 198.298C310.524 197.959 313.437 201.156 314.514 200.467C315.375 199.917 314.789 197.048 313.428 195.046C313.291 194.846 311.05 191.621 309.086 192.154H309.081C308.947 192.196 308.802 192.184 308.678 192.119C308.553 192.055 308.459 191.943 308.417 191.81C305.774 182.769 302.957 176.201 301.628 173.255C287.335 141.579 252.002 97.3459 201.162 94.6931C201.074 94.6891 200.989 94.6629 200.915 94.617C200.84 94.5711 200.779 94.507 200.736 94.4307C200.693 94.3545 200.67 94.2686 200.67 94.1811C200.67 94.0937 200.692 94.0076 200.734 93.931C202.65 90.4948 204.148 86.9899 202.94 85.9591C201.618 84.834 197.311 86.8978 195.458 89.598C195.089 90.1388 194.785 90.7207 194.551 91.3319C194.245 92.2115 194.116 93.1429 194.17 94.0726C194.173 94.1414 194.162 94.21 194.137 94.2744C194.113 94.3388 194.076 94.3977 194.028 94.4476C193.981 94.4976 193.924 94.5376 193.861 94.5654C193.798 94.5931 193.73 94.608 193.661 94.6093C193.361 94.6162 193.06 94.6237 192.759 94.634C192.681 94.6371 192.603 94.622 192.532 94.5901C192.46 94.5581 192.397 94.5102 192.347 94.4499C191.141 92.9874 189.655 91.0013 188.645 91.3051C187.945 91.5154 187.538 92.8115 187.505 94.5316C187.502 94.657 187.454 94.777 187.368 94.8689C187.283 94.9609 187.167 95.0184 187.042 95.0306C123.114 101.436 93.93 171.945 90.8547 179.715C90.3732 180.939 89.6212 182.833 88.7406 185.311C87.6205 188.464 85.6137 194.6 83.86 202.751C83.8441 202.825 83.812 202.895 83.766 202.955C83.7201 203.015 83.6614 203.065 83.5942 203.1C83.527 203.135 83.4528 203.155 83.377 203.158C83.3012 203.162 83.2256 203.148 83.1555 203.119C82.5114 202.853 81.8292 202.691 81.1342 202.638C76.9878 202.33 73.4281 206.127 73.898 207.334C74.2014 208.108 76.0851 207.614 78.1071 207.551C78.6623 207.534 78.8488 208.285 78.3513 208.53C76.6156 209.384 75.2781 210.615 75.3304 211.57C75.4178 213.176 79.4659 214.106 81.3847 215.168C81.4755 215.218 81.5493 215.294 81.5963 215.386C81.6433 215.478 81.6614 215.583 81.6482 215.685C81.6064 216.018 81.5651 216.352 81.5243 216.688C81.5129 216.784 81.4746 216.876 81.4138 216.951C81.3529 217.027 81.272 217.084 81.1803 217.115C80.2908 217.421 79.0951 217.792 78.2798 218.893C76.5323 221.253 77.4941 225.677 79.0325 226.082C79.3152 226.157 79.6186 226.094 79.9268 225.94C80.0072 225.899 80.0971 225.879 80.1876 225.883C80.278 225.887 80.3657 225.915 80.442 225.964C80.5182 226.013 80.5802 226.081 80.6218 226.161C80.6634 226.241 80.683 226.331 80.6788 226.421C79.8532 242.206 81.5587 260.596 89.3364 278.6C89.3673 278.67 89.3819 278.747 89.3792 278.824C89.3764 278.901 89.3563 278.976 89.3205 279.045C89.2846 279.113 89.2338 279.172 89.1719 279.218C89.11 279.264 89.0385 279.295 88.9628 279.31C85.3977 279.986 82.4104 280.987 82.4545 281.351C82.5081 281.795 87.1328 281.597 90.4832 281.784C90.5749 281.789 90.6634 281.819 90.7394 281.871C90.8155 281.922 90.8762 281.993 90.9153 282.076C91.1538 282.576 91.3971 283.075 91.6452 283.573C91.7043 283.689 91.7164 283.824 91.679 283.95C91.6417 284.075 91.5577 284.181 91.4443 284.247C90.2287 284.941 88.8692 285.951 88.164 287.633C87.9329 288.183 87.5235 289.154 87.893 290.076C88.6938 292.073 92.7859 293.003 95.6706 291.705C95.7841 291.655 95.9121 291.648 96.0306 291.685C96.1491 291.722 96.25 291.801 96.3146 291.907C96.4948 292.198 96.6751 292.49 96.8608 292.78L96.9599 292.934C97.0141 293.017 97.043 293.115 97.043 293.215C97.043 293.314 97.0141 293.412 96.9599 293.496C95.2682 296.14 94.9875 299.457 95.6094 299.86C96.1694 300.224 97.4869 298.234 99.2701 297.185C99.3819 297.118 99.5146 297.096 99.6421 297.122C99.7695 297.149 99.8823 297.222 99.9581 297.328C104.384 303.468 109.513 309.072 115.24 314.023C115.307 314.08 115.358 314.154 115.388 314.236C115.418 314.318 115.427 314.406 115.413 314.493C115.399 314.579 115.363 314.661 115.309 314.729C115.255 314.798 115.184 314.852 115.103 314.885C114.043 315.326 113.099 316.082 112.512 317.129C111.751 318.486 111.411 320.639 112.279 321.244C113.713 322.245 117.189 318.102 118.666 319.033C120.39 320.122 117.185 326.744 118.198 327.262C118.973 327.658 122.696 324.734 123.187 321.14C123.2 321.054 123.234 320.971 123.287 320.902C123.34 320.832 123.411 320.777 123.491 320.742C123.572 320.707 123.66 320.694 123.747 320.702C123.835 320.711 123.918 320.742 123.99 320.793C159.284 345.164 202.532 342.913 204.983 342.746C211.673 342.29 248.138 339.206 277.825 313.318C277.89 313.26 277.968 313.219 278.052 313.2C278.137 313.18 278.225 313.183 278.308 313.206C278.391 313.23 278.467 313.275 278.529 313.336C278.59 313.397 278.635 313.473 278.659 313.556C278.764 313.947 278.9 314.329 279.066 314.699C279.286 315.184 280.215 317.236 281.552 317.25C282.801 317.262 284.115 315.493 284.194 313.964C284.217 313.525 284.119 313.476 283.786 311.077C283.608 309.794 283.616 309.662 283.709 309.52C284.474 308.352 288.422 310.431 289.088 309.463C289.387 309.027 288.813 308.275 286.638 305.296C286.568 305.201 286.534 305.084 286.54 304.966C286.547 304.848 286.594 304.736 286.673 304.648C290.349 300.598 293.708 296.27 296.718 291.704L296.772 291.62C297.044 293.738 297.413 295.224 297.666 295.226C298.079 295.23 298.452 291.354 298.99 288.172C299.001 288.109 299.025 288.049 299.059 287.994C299.525 287.221 299.979 286.446 300.418 285.671C300.467 285.584 300.539 285.514 300.626 285.467C300.713 285.42 300.812 285.4 300.911 285.408C301.01 285.416 301.104 285.452 301.183 285.513C301.261 285.573 301.321 285.655 301.354 285.748C301.871 287.195 302.661 289.234 304.648 290.389C305.163 290.688 306.074 291.218 307.038 290.973C309.263 290.407 310.77 285.975 309.456 282.896C308.612 280.917 306.777 279.912 304.526 278.915C304.463 278.888 304.406 278.847 304.359 278.798C304.312 278.748 304.275 278.689 304.251 278.624C304.227 278.56 304.216 278.491 304.218 278.423C304.221 278.354 304.238 278.287 304.267 278.225C308.732 268.664 311.453 259.051 312.916 249.718C312.93 249.623 312.971 249.534 313.034 249.46C313.096 249.387 313.178 249.333 313.27 249.304C313.362 249.275 313.46 249.272 313.553 249.296C313.646 249.32 313.731 249.369 313.798 249.439C314.636 250.332 315.333 250.82 315.605 250.706C316.087 250.499 315.261 248.385 315.043 241.833C314.93 238.396 315.128 238.071 315.243 238.053C315.822 237.97 316.794 245.338 317.776 245.282C318.441 245.247 319.065 241.762 318.495 238.418Z" fill="#4EADAF"/>
<path d="M105.739 247.092C125.122 247.092 140.836 236.169 140.836 222.695C140.836 209.221 125.122 198.298 105.739 198.298C86.3548 198.298 70.6411 209.221 70.6411 222.695C70.6411 236.169 86.3548 247.092 105.739 247.092Z" fill="#E37A39"/>
<path d="M288.824 248.538C308.208 248.538 323.922 237.615 323.922 224.141C323.922 210.667 308.208 199.744 288.824 199.744C269.441 199.744 253.727 210.667 253.727 224.141C253.727 237.615 269.441 248.538 288.824 248.538Z" fill="#E37A39"/>
<path d="M134.22 206.973C157.171 206.973 175.777 189.274 175.777 167.442C175.777 145.609 157.171 127.911 134.22 127.911C111.27 127.911 92.6642 145.609 92.6642 167.442C92.6642 189.274 111.27 206.973 134.22 206.973Z" fill="#E2E2E2"/>
<path d="M144.441 186.755C160.109 186.755 172.811 174.673 172.811 159.768C172.811 144.863 160.109 132.78 144.441 132.78C128.773 132.78 116.071 144.863 116.071 159.768C116.071 174.673 128.773 186.755 144.441 186.755Z" fill="black"/>
<path d="M125.723 179.768C127.039 175.983 122.62 171.011 115.853 168.663C109.085 166.315 102.532 167.48 101.216 171.265C99.9 175.05 104.319 180.021 111.086 182.37C117.854 184.718 124.407 183.553 125.723 179.768Z" fill="white"/>
<path d="M263.551 210.225C286.502 210.225 305.107 192.871 305.107 171.463C305.107 150.055 286.502 132.701 263.551 132.701C240.6 132.701 221.995 150.055 221.995 171.463C221.995 192.871 240.6 210.225 263.551 210.225Z" fill="#E2E2E2"/>
<path d="M251.041 190.036C266.709 190.036 279.411 178.188 279.411 163.573C279.411 148.958 266.709 137.111 251.041 137.111C235.373 137.111 222.672 148.958 222.672 163.573C222.672 178.188 235.373 190.036 251.041 190.036Z" fill="black"/>
<path d="M284.767 179.329C291.396 176.736 295.612 171.683 294.185 168.042C292.758 164.402 286.227 163.554 279.598 166.148C272.97 168.741 268.753 173.795 270.181 177.435C271.608 181.075 278.139 181.923 284.767 179.329Z" fill="white"/>
<path d="M239.587 126.901C237.774 126.2 236.003 125.396 234.281 124.496C232.553 123.6 230.868 122.621 229.227 121.561C225.941 119.434 222.856 117.015 220.008 114.331C218.581 112.987 217.225 111.567 215.927 110.094L214.963 108.978C214.648 108.601 214.344 108.214 214.037 107.832C213.884 107.64 213.728 107.45 213.578 107.256L213.135 106.666L212.693 106.076L212.471 105.782L212.361 105.634L212.255 105.483L211.411 104.274L211.204 103.971C211.135 103.87 211.067 103.765 211.002 103.662L210.602 103.044L210.203 102.425L210.002 102.114L209.812 101.798L209.056 100.532L208.866 100.215C208.806 100.108 208.749 99.9992 208.69 99.8913L208.337 99.2432L207.984 98.5951L207.807 98.2715C207.748 98.1629 207.696 98.0515 207.64 97.9423C207.206 97.0599 206.746 96.1885 206.355 95.2854C206.154 94.8367 205.949 94.392 205.754 93.9377L205.204 92.5701L204.928 91.8829C204.838 91.6547 204.758 91.4218 204.672 91.1915L204.419 90.4988L204.293 90.1552C204.25 90.0398 204.207 89.9243 204.171 89.8068L203.713 88.4041C203.676 88.2873 203.636 88.1711 203.601 88.0529L203.497 87.699L203.291 86.9918L203.085 86.284L202.898 85.5706L202.712 84.8573L202.62 84.4999L202.539 84.1405L202.214 82.7028L201.93 81.2596C201.88 81.0191 201.841 80.7786 201.8 80.5339L201.68 79.8075L201.621 79.4439C201.6 79.323 201.581 79.202 201.566 79.0797L201.467 78.3505L201.367 77.6207C201.337 77.3774 201.313 77.1334 201.286 76.8895C201.235 76.4015 201.172 75.915 201.139 75.4257L201.081 74.6924C201.062 74.4477 201.041 74.2037 201.03 73.9584C201.006 73.4691 200.975 72.9798 200.955 72.4905C200.806 68.5798 201.03 64.6639 201.625 60.7957C201.925 58.8715 202.302 56.9555 202.785 55.0718C203.259 53.1886 203.836 51.3328 204.514 49.5127C203.613 53.2632 203.002 57.0771 202.684 60.9208C202.364 64.7374 202.356 68.5736 202.659 72.3915C202.961 76.1887 203.587 79.9533 204.529 83.6443C205.01 85.484 205.552 87.308 206.188 89.0996C206.347 89.5477 206.517 89.993 206.68 90.4383C206.764 90.6603 206.842 90.885 206.93 91.1056L207.201 91.7654L207.741 93.0849C207.931 93.5199 208.133 93.9501 208.326 94.3844C208.701 95.2579 209.141 96.1025 209.557 96.9554C209.61 97.0619 209.66 97.1698 209.716 97.2743L209.885 97.5877L210.223 98.2151L210.562 98.8433L210.731 99.1566L210.91 99.4652L211.625 100.699L211.803 101.007L211.993 101.309L212.372 101.913C212.864 102.727 213.41 103.507 213.935 104.3L214.034 104.448L214.138 104.594L214.344 104.884L214.757 105.464L215.17 106.045C215.311 106.236 215.458 106.423 215.603 106.612L216.037 107.179C216.182 107.368 216.321 107.561 216.471 107.746L217.371 108.858L217.595 109.133L217.827 109.404L218.294 109.946L218.76 110.489C218.837 110.581 218.919 110.667 218.998 110.756L219.238 111.021L219.719 111.552L219.968 111.821L220.089 111.954L220.213 112.083L221.202 113.119C223.881 115.86 226.768 118.391 229.837 120.689C232.924 123.005 236.183 125.081 239.587 126.901Z" fill="#29ABE2"/>
<path d="M212.463 113.547C212.131 112.853 211.838 112.142 211.585 111.416C211.333 110.689 211.113 109.948 210.931 109.197C210.749 108.445 210.595 107.685 210.483 106.918C210.414 106.536 210.38 106.15 210.334 105.765C210.308 105.572 210.297 105.378 210.28 105.185L210.233 104.604C210.139 103.05 210.169 101.49 210.325 99.9395C210.398 99.1636 210.511 98.3912 210.646 97.6221L210.754 97.0476C210.793 96.8558 210.823 96.6627 210.87 96.4731L211.135 95.3322C211.916 92.3084 213.114 89.3938 214.619 86.6628C216.137 83.9407 217.914 81.3715 219.926 78.9911C220.419 78.3898 220.943 77.8167 221.459 77.2353C221.721 76.9494 221.989 76.6683 222.254 76.3844C222.387 76.2435 222.517 76.0992 222.654 75.9618L223.063 75.5494L223.476 75.1371L223.682 74.9309L223.889 74.7296L224.728 73.9241C225.011 73.6589 225.298 73.3991 225.583 73.1366C225.727 73.0067 225.867 72.8727 226.014 72.7462L226.452 72.3648C227.032 71.8507 227.631 71.3594 228.224 70.8632L229.131 70.1382L229.358 69.9574L229.588 69.7808L230.049 69.4282C231.279 68.4908 232.534 67.5878 233.819 66.7315C236.384 65.0185 239.043 63.4507 241.784 62.0356C243.153 61.3312 244.536 60.6611 245.944 60.0364C246.647 59.7235 247.353 59.42 248.062 59.1259C248.774 58.8379 249.486 58.552 250.207 58.2867C249.527 58.6427 248.846 58.9939 248.172 59.3602C247.834 59.5389 247.498 59.7224 247.161 59.9038C246.824 60.0852 246.489 60.2708 246.157 60.4598C244.823 61.2096 243.5 61.9717 242.196 62.7682C239.588 64.3534 237.053 66.0415 234.592 67.8325L233.674 68.5101L232.769 69.2014C232.466 69.4303 232.171 69.6687 231.871 69.9017L231.424 70.2536L230.983 70.613C230.391 71.0872 229.813 71.582 229.234 72.0679C228.664 72.5668 228.089 73.0603 227.533 73.575C227.253 73.8293 226.972 74.0829 226.698 74.3447C226.424 74.6066 226.148 74.8622 225.873 75.1241L225.065 75.9205L224.863 76.1192L224.666 76.3253L224.272 76.7322L223.876 77.1383C223.744 77.2758 223.618 77.4132 223.489 77.5507C223.232 77.8256 222.973 78.1005 222.719 78.3815C222.22 78.9485 221.715 79.5093 221.237 80.0928C220.743 80.6639 220.284 81.2611 219.812 81.8493L219.136 82.7544C218.912 83.0575 218.681 83.3558 218.471 83.6671L217.826 84.5942L217.664 84.8258L217.512 85.0629L217.208 85.5377L216.903 86.012L216.75 86.2497C216.7 86.3288 216.654 86.4106 216.606 86.4916L216.03 87.4606L215.887 87.7032L215.749 87.9499L215.48 88.4448C215.302 88.7753 215.115 89.1018 214.954 89.4413L214.454 90.4494L213.989 91.4748C213.828 91.8143 213.695 92.162 213.553 92.5118L213.342 93.0335C213.305 93.12 213.273 93.208 213.242 93.2967L213.146 93.5612L212.953 94.0897C212.89 94.2664 212.822 94.4416 212.768 94.621L212.424 95.693C211.555 98.5782 211.098 101.571 211.065 104.584L211.069 105.15C211.069 105.338 211.069 105.528 211.08 105.716C211.098 106.094 211.109 106.472 211.141 106.849C211.188 107.605 211.279 108.357 211.389 109.109C211.5 109.86 211.649 110.607 211.827 111.348C211.913 111.719 212.011 112.088 212.115 112.456C212.219 112.824 212.34 113.183 212.463 113.547Z" fill="#29ABE2"/>
<path d="M273.454 64.5639L269.171 61.6597L272.769 57.3872C274.157 55.7378 273.05 53.217 270.896 53.1187L264.223 52.8149L264.188 47.2208C264.174 45.067 261.695 43.8644 259.991 45.1846L256.735 47.7108L253.914 43.1881C252.774 41.3608 250.031 41.6322 249.272 43.6479L246.672 50.5546L240.618 48.6304C238.564 47.9775 236.652 49.9615 237.385 51.9875L238.72 55.6876L234.572 56.7185C232.48 57.2367 231.889 59.9265 233.575 61.2707L238.929 65.5405L234.678 71.4638C233.422 73.2135 234.72 75.6429 236.875 75.5742L241.749 75.4189L241.474 79.2777C241.321 81.426 243.7 82.817 245.5 81.6315L250.356 78.4345L254.579 84.1633C255.857 85.8978 258.569 85.4147 259.171 83.3468L260.743 77.9335L265.086 79.6921C267.081 80.5017 269.145 78.6709 268.57 76.5947L267.057 71.0934L272.821 69.1815C274.858 68.5011 275.238 65.7762 273.454 64.5639Z" fill="#F4BE38"/>
<path opacity="0.47" d="M227.889 50.7498L222.248 46.9267L226.984 41.3023C228.811 39.1327 227.355 35.8127 224.52 35.6841L215.732 35.2842L215.685 27.9204C215.667 25.0856 212.403 23.5022 210.161 25.2402L205.874 28.5651L202.159 22.6122C200.659 20.2069 197.048 20.5636 196.049 23.217L192.631 32.3078L184.659 29.776C181.955 28.9169 179.438 31.5284 180.401 34.1956L182.159 39.066L176.699 40.4171C173.947 41.0996 173.169 44.6409 175.386 46.4092L182.434 52.0315L176.838 59.8282C175.187 62.1318 176.893 65.3295 179.728 65.2394L186.144 65.0333L185.782 70.1127C185.58 72.9406 188.712 74.7714 191.079 73.2114L197.471 69.0021L203.03 76.5438C204.712 78.8268 208.284 78.1932 209.075 75.4683L211.144 68.343L216.859 70.6583C219.49 71.7235 222.201 69.3141 221.448 66.5809L219.452 59.3395L227.041 56.8235C229.738 55.9322 230.237 52.3421 227.889 50.7498Z" fill="#F4BE38"/>
<path opacity="0.47" d="M280.717 65.57L275.076 61.7455L279.812 56.1212C281.639 53.9515 280.183 50.6315 277.348 50.503L268.56 50.103L268.513 42.7393C268.495 39.9044 265.231 38.321 262.989 40.0591L258.703 43.3839L254.987 37.4311C253.487 35.0257 249.876 35.3824 248.877 38.0358L245.455 47.1273L237.482 44.5955C234.778 43.7365 232.261 46.348 233.224 49.0151L234.982 53.8856L229.522 55.2381C226.77 55.9205 225.992 59.4618 228.21 61.2301L235.257 66.851L229.661 74.6477C228.01 76.9513 229.716 80.149 232.55 80.059L238.966 79.8528L238.604 84.9322C238.402 87.7602 241.535 89.591 243.901 88.031L250.293 83.8216L255.852 91.3634C257.534 93.6464 261.107 93.0128 261.898 90.2885L263.975 83.1633L269.691 85.4786C272.321 86.5438 275.032 84.1343 274.278 81.4012L272.283 74.1598L279.872 71.6438C282.565 70.7511 283.064 67.1609 280.717 65.57Z" fill="#F4BE38"/>
<path d="M220.988 50.468L216.705 47.5644L220.304 43.2918C221.691 41.6425 220.585 39.121 218.432 39.0234L211.758 38.7196L211.722 33.1255C211.709 30.9717 209.229 29.7684 207.526 31.0892L204.267 33.6135L201.446 29.0908C200.306 27.2627 197.563 27.5348 196.804 29.5505L194.204 36.4566L188.15 34.5323C186.095 33.8794 184.183 35.8635 184.916 37.8895L186.253 41.5895L182.105 42.6169C180.012 43.1358 179.422 45.8257 181.108 47.1692L186.461 51.4397L182.21 57.3623C180.954 59.1127 182.252 61.5421 184.407 61.4734L189.281 61.318L189.006 65.1769C188.853 67.3252 191.232 68.7161 193.032 67.5307L197.884 64.333L202.107 70.0625C203.385 71.7964 206.097 71.3139 206.7 69.2453L208.271 63.8327L212.614 65.5913C214.609 66.4009 216.673 64.5701 216.099 62.4939L214.586 56.9926L220.351 55.0807C222.393 54.4051 222.772 51.6775 220.988 50.468Z" fill="#F4BE38"/>
<path d="M180.643 87.2324C181.959 83.1509 181.573 76.3816 171.975 65.1467C170.411 63.3159 171.034 60.4962 173.219 59.4818C175.506 58.42 178.14 59.9409 178.392 62.4472C179.828 76.6978 184.939 83.6286 189.527 87.3424C213.754 106.957 269.435 74.131 306.144 89.5216C309.488 90.9236 318.866 94.856 318.969 100.407C319.081 106.382 308.387 110.96 306.61 111.721C281.059 122.661 250.487 103.214 248.531 106.936C246.605 110.605 277.914 126.536 275.212 135.377C273.522 140.906 258.661 143.231 245.899 140.194C220.577 134.167 209.466 108.448 202.183 111.912C198.124 113.841 201.669 121.774 196.711 135.148C195.86 137.443 188.152 158.239 176.059 158.197C166.909 158.165 157.516 146.206 157.456 135.403C157.374 120.482 175.111 111.304 172.614 107.478C170.765 104.646 159.013 106.564 149.951 113.486C136.302 123.916 139.832 137.249 129.238 141.716C118.898 146.071 105.387 137.643 98.9977 131.725C94.2981 127.373 88.647 122.14 89.5496 117.182C92.7364 99.6721 173.124 110.568 180.643 87.2324Z" fill="#C4D650"/>
</g>
<defs>
<clipPath id="clip0_334_574">
<rect width="113.519" height="148.349" fill="white" transform="translate(280.149 65) rotate(13.7057)"/>
</clipPath>
<clipPath id="clip1_334_574">
<rect width="122.226" height="142.544" fill="white" transform="translate(-14 100.535) rotate(-16.4123)"/>
</clipPath>
<clipPath id="clip2_334_574">
<rect width="337" height="343" fill="white" transform="translate(26 21)"/>
</clipPath>
</defs>
</svg>
