<svg width="420" height="428" viewBox="0 0 420 428" fill="none" xmlns="http://www.w3.org/2000/svg">
<g clip-path="url(#clip0_255_2)" filter="url(#filter0_dd_255_2)">
<path d="M171.7 170.737C179.412 177.324 184.302 186.746 185.172 197.16C185.179 197.244 185.186 197.335 185.193 197.424C186.791 217.768 175.991 233.349 172.69 237.78L98.794 330.456C79.6381 354.481 45.7294 359.288 23.0585 341.196C0.386812 323.103 -2.46281 288.955 16.6931 264.93C17.1137 264.607 38.5977 244.187 112.342 173.878C129.306 157.702 154.855 156.349 171.7 170.737Z" fill="#459696"/>
<path d="M278.263 175.447C286.95 170.215 297.432 168.557 307.579 171.029L307.835 171.092C327.629 176.02 338.982 191.204 342.137 195.735L406.605 295.209C423.318 320.999 417.138 354.698 392.804 370.484C368.47 386.27 335.196 378.163 318.484 352.377C318.31 351.872 305.754 325.022 262.444 232.774C252.481 211.553 259.289 186.878 278.263 175.447Z" fill="#459696"/>
<path d="M195.119 417.997H152.901C140.626 417.997 130.346 411.392 129.117 402.716L124.257 368.396C122.726 357.577 135.704 348.536 150.901 349.838L197.978 353.867C209.987 354.895 219.022 362.133 219.022 370.726V401.02C219.022 410.395 208.32 417.997 195.119 417.997Z" fill="#459696"/>
<path d="M241.626 420.001H279.643C290.697 420.001 299.955 413.396 301.061 404.72L305.435 370.399C306.814 359.581 295.128 350.54 281.443 351.841L239.051 355.871C228.237 356.899 220.1 364.137 220.1 372.73V403.024C220.1 412.399 229.738 420.001 241.626 420.001Z" fill="#459696"/>
<path d="M361.591 266.226C361.254 264.257 360.421 259.366 357.609 258.702C357.428 258.66 357.242 258.636 357.056 258.633C356.896 258.624 356.745 258.553 356.636 258.435C356.527 258.317 356.468 258.161 356.472 258.001C356.494 246.768 355.279 236.205 353.499 226.775C353.477 226.657 353.489 226.535 353.534 226.424C353.578 226.313 353.653 226.217 353.75 226.147C353.847 226.077 353.962 226.036 354.081 226.029C354.201 226.022 354.32 226.049 354.424 226.106C356.443 227.216 358.184 227.64 358.492 227.279C359.235 226.409 352.727 219.717 351.561 217.664C351.533 217.614 351.512 217.559 351.499 217.502L351.406 217.121C351.41 217.115 351.406 217.105 351.414 217.1C351.846 216.685 355.407 220.6 356.723 219.756C357.776 219.082 357.06 215.569 355.396 213.117C355.228 212.872 352.489 208.924 350.088 209.576H350.081C349.918 209.627 349.74 209.612 349.588 209.533C349.436 209.454 349.321 209.318 349.269 209.155C346.039 198.084 342.594 190.042 340.969 186.434C323.496 147.647 280.299 93.4845 218.144 90.2363C218.038 90.2314 217.934 90.1993 217.843 90.1431C217.752 90.0869 217.676 90.0084 217.624 89.915C217.572 89.8216 217.544 89.7164 217.543 89.6094C217.543 89.5023 217.57 89.3969 217.621 89.3031C219.964 85.0955 221.796 80.8038 220.319 79.5415C218.702 78.1639 213.437 80.691 211.171 83.9973C210.72 84.6595 210.348 85.3721 210.062 86.1204C209.688 87.1976 209.53 88.3381 209.597 89.4764C209.6 89.5607 209.586 89.6447 209.556 89.7235C209.527 89.8024 209.481 89.8745 209.423 89.9357C209.365 89.9969 209.296 90.0459 209.219 90.0799C209.141 90.1139 209.058 90.1321 208.974 90.1336C208.607 90.142 208.24 90.1513 207.872 90.1639C207.776 90.1676 207.681 90.1492 207.594 90.1101C207.506 90.071 207.429 90.0122 207.368 89.9384C205.893 88.1477 204.076 85.7157 202.842 86.0876C201.986 86.3452 201.488 87.9322 201.449 90.0385C201.445 90.1921 201.385 90.339 201.281 90.4516C201.177 90.5641 201.035 90.6345 200.882 90.6495C122.727 98.4933 87.0481 184.831 83.2884 194.345C82.6996 195.843 81.7803 198.163 80.7037 201.197C79.3344 205.058 76.8809 212.571 74.737 222.552C74.7175 222.643 74.6782 222.728 74.6221 222.802C74.5659 222.876 74.4942 222.936 74.412 222.979C74.3298 223.022 74.2392 223.047 74.1465 223.051C74.0538 223.055 73.9614 223.039 73.8757 223.003C73.0882 222.677 72.2542 222.479 71.4046 222.414C66.3353 222.037 61.9835 226.686 62.5579 228.164C62.9289 229.111 65.2318 228.506 67.7038 228.43C68.3825 228.409 68.6105 229.329 68.0023 229.628C65.8803 230.674 64.2452 232.181 64.3091 233.351C64.4159 235.318 69.3649 236.456 71.7107 237.756C71.8218 237.817 71.912 237.91 71.9695 238.023C72.0269 238.137 72.049 238.264 72.0329 238.39C71.9818 238.797 71.9314 239.207 71.8815 239.618C71.8675 239.736 71.8207 239.847 71.7463 239.94C71.672 240.032 71.5731 240.102 71.4609 240.141C70.3734 240.515 68.9116 240.969 67.9149 242.318C65.7785 245.208 66.9543 250.625 68.835 251.12C69.1807 251.212 69.5516 251.136 69.9285 250.947C70.0267 250.896 70.1366 250.872 70.2472 250.877C70.3578 250.882 70.465 250.916 70.5582 250.976C70.6514 251.036 70.7273 251.119 70.7781 251.217C70.8289 251.316 70.853 251.426 70.8478 251.536C69.8385 270.865 71.9235 293.383 81.4321 315.428C81.4699 315.515 81.4878 315.608 81.4844 315.703C81.481 315.797 81.4565 315.889 81.4127 315.973C81.3688 316.056 81.3067 316.129 81.231 316.185C81.1553 316.241 81.068 316.28 80.9754 316.297C76.6168 317.125 72.9648 318.352 73.0186 318.797C73.0842 319.34 78.7381 319.098 82.8342 319.327C82.9463 319.333 83.0545 319.37 83.1474 319.433C83.2404 319.496 83.3147 319.583 83.3624 319.685C83.654 320.297 83.9515 320.908 84.2548 321.517C84.327 321.66 84.3418 321.826 84.2961 321.979C84.2505 322.133 84.1478 322.263 84.0092 322.343C82.523 323.193 80.861 324.429 79.9989 326.489C79.7163 327.162 79.2158 328.352 79.6675 329.481C80.6465 331.926 85.6494 333.065 89.1761 331.476C89.3148 331.414 89.4713 331.405 89.6161 331.451C89.761 331.496 89.8844 331.593 89.9633 331.722C90.1837 332.079 90.4041 332.436 90.6312 332.792L90.7523 332.98C90.8186 333.082 90.8538 333.202 90.8538 333.324C90.8538 333.446 90.8186 333.565 90.7523 333.668C88.684 336.906 88.3409 340.968 89.1012 341.461C89.7859 341.906 91.3966 339.469 93.5767 338.185C93.7132 338.104 93.8755 338.076 94.0314 338.109C94.1872 338.141 94.3251 338.231 94.4178 338.36C99.8285 345.88 106.099 352.741 113.101 358.804C113.182 358.874 113.244 358.963 113.281 359.064C113.318 359.165 113.329 359.273 113.312 359.379C113.295 359.485 113.251 359.584 113.185 359.668C113.119 359.753 113.032 359.818 112.933 359.859C111.637 360.399 110.484 361.324 109.765 362.607C108.835 364.268 108.419 366.905 109.48 367.645C111.234 368.871 115.483 363.798 117.289 364.939C119.397 366.272 115.479 374.38 116.717 375.015C117.664 375.5 122.216 371.919 122.816 367.519C122.832 367.412 122.874 367.312 122.939 367.226C123.004 367.141 123.09 367.074 123.188 367.031C123.287 366.988 123.394 366.971 123.501 366.982C123.608 366.993 123.71 367.031 123.798 367.093C166.946 396.935 219.82 394.179 222.816 393.974C230.996 393.416 275.575 389.64 311.869 357.94C311.948 357.869 312.044 357.819 312.147 357.795C312.25 357.772 312.358 357.774 312.46 357.804C312.562 357.833 312.654 357.887 312.729 357.962C312.804 358.037 312.859 358.13 312.889 358.232C313.018 358.711 313.184 359.179 313.387 359.631C313.656 360.225 314.791 362.738 316.425 362.755C317.952 362.77 319.559 360.604 319.656 358.731C319.684 358.193 319.564 358.133 319.157 355.196C318.94 353.625 318.95 353.463 319.062 353.29C319.998 351.859 324.825 354.405 325.639 353.22C326.005 352.686 325.302 351.765 322.644 348.118C322.558 348.001 322.516 347.858 322.524 347.713C322.532 347.569 322.589 347.431 322.687 347.324C327.181 342.364 331.287 337.065 334.967 331.474L335.033 331.371C335.365 333.964 335.816 335.784 336.126 335.787C336.631 335.792 337.087 331.046 337.745 327.15C337.759 327.072 337.787 326.998 337.829 326.932C338.399 325.984 338.953 325.036 339.491 324.087C339.55 323.981 339.638 323.894 339.745 323.837C339.851 323.78 339.972 323.755 340.093 323.765C340.214 323.775 340.329 323.819 340.425 323.893C340.521 323.967 340.594 324.067 340.635 324.181C341.266 325.953 342.233 328.45 344.662 329.863C345.291 330.23 346.405 330.879 347.584 330.579C350.304 329.886 352.146 324.458 350.54 320.689C349.507 318.265 347.264 317.035 344.512 315.814C344.435 315.78 344.366 315.731 344.308 315.67C344.25 315.609 344.206 315.537 344.176 315.458C344.147 315.379 344.133 315.296 344.137 315.211C344.14 315.127 344.16 315.045 344.196 314.969C349.655 303.262 352.981 291.49 354.77 280.063C354.788 279.946 354.837 279.837 354.914 279.747C354.99 279.657 355.09 279.591 355.202 279.555C355.315 279.52 355.435 279.517 355.549 279.546C355.663 279.575 355.766 279.636 355.848 279.721C356.873 280.815 357.725 281.412 358.057 281.272C358.646 281.019 357.637 278.431 357.37 270.407C357.232 266.2 357.474 265.801 357.615 265.779C358.323 265.678 359.511 274.699 360.712 274.631C361.525 274.588 362.288 270.32 361.591 266.226Z" fill="#4EADAF"/>
<path d="M101.485 276.847C125.182 276.847 144.393 263.472 144.393 246.974C144.393 230.475 125.182 217.1 101.485 217.1C77.7869 217.1 58.5762 230.475 58.5762 246.974C58.5762 263.472 77.7869 276.847 101.485 276.847Z" fill="#E37A39"/>
<path d="M325.317 278.618C349.014 278.618 368.225 265.243 368.225 248.744C368.225 232.245 349.014 218.87 325.317 218.87C301.619 218.87 282.408 232.245 282.408 248.744C282.408 265.243 301.619 278.618 325.317 278.618Z" fill="#E37A39"/>
<path d="M136.305 227.722C164.364 227.722 187.11 206.05 187.11 179.316C187.11 152.583 164.364 130.911 136.305 130.911C108.246 130.911 85.5005 152.583 85.5005 179.316C85.5005 206.05 108.246 227.722 136.305 227.722Z" fill="#E2E2E2"/>
<path d="M148.8 202.966C167.955 202.966 183.484 188.17 183.484 169.919C183.484 151.668 167.955 136.873 148.8 136.873C129.645 136.873 114.117 151.668 114.117 169.919C114.117 188.17 129.645 202.966 148.8 202.966Z" fill="black"/>
<path d="M125.917 194.41C127.526 189.775 122.123 183.687 113.85 180.812C105.576 177.937 97.5649 179.363 95.9558 183.997C94.3467 188.632 99.7492 194.72 108.023 197.595C116.296 200.471 124.307 199.045 125.917 194.41Z" fill="white"/>
<path d="M294.418 231.704C322.477 231.704 345.223 210.454 345.223 184.24C345.223 158.027 322.477 136.776 294.418 136.776C266.36 136.776 243.614 158.027 243.614 184.24C243.614 210.454 266.36 231.704 294.418 231.704Z" fill="#E2E2E2"/>
<path d="M279.125 206.983C298.28 206.983 313.808 192.476 313.808 174.58C313.808 156.684 298.28 142.176 279.125 142.176C259.969 142.176 244.441 156.684 244.441 174.58C244.441 192.476 259.969 206.983 279.125 206.983Z" fill="black"/>
<path d="M320.357 193.873C328.46 190.697 333.615 184.509 331.87 180.052C330.125 175.595 322.141 174.556 314.037 177.732C305.933 180.907 300.779 187.095 302.524 191.553C304.269 196.01 312.253 197.049 320.357 193.873Z" fill="white"/>
<path d="M265.121 129.675C262.905 128.816 260.739 127.832 258.634 126.73C256.522 125.632 254.462 124.434 252.455 123.136C248.439 120.532 244.666 117.569 241.184 114.284C239.44 112.637 237.782 110.898 236.195 109.095L235.018 107.728C234.632 107.267 234.261 106.793 233.885 106.325C233.698 106.09 233.508 105.857 233.324 105.619L232.783 104.897L232.242 104.175L231.971 103.814L231.837 103.633L231.707 103.448L230.674 101.968L230.422 101.597C230.338 101.474 230.254 101.344 230.175 101.219L229.686 100.462L229.197 99.7043L228.952 99.3239L228.72 98.9369L227.795 97.3859L227.564 96.998C227.49 96.8667 227.42 96.7338 227.348 96.6017L226.916 95.8081L226.485 95.0145L226.268 94.6182C226.197 94.4852 226.133 94.3489 226.065 94.2151C225.533 93.1346 224.972 92.0676 224.494 90.9618C224.247 90.4123 223.998 89.8678 223.759 89.3116L223.086 87.637L222.749 86.7955C222.638 86.5161 222.541 86.2308 222.436 85.9489L222.127 85.1007L221.972 84.6799C221.92 84.5386 221.868 84.3972 221.823 84.2533L221.264 82.5357C221.219 82.3927 221.169 82.2504 221.127 82.1057L221 81.6723L220.748 80.8064L220.495 79.9397L220.266 79.0661L220.039 78.1927L219.927 77.7551L219.828 77.315L219.431 75.5545L219.084 73.7873C219.022 73.4928 218.975 73.1983 218.925 72.8987L218.778 72.0092L218.705 71.564C218.68 71.4159 218.657 71.2679 218.638 71.1181L218.517 70.2252L218.396 69.3315C218.359 69.0336 218.329 68.7349 218.296 68.4361C218.234 67.8387 218.157 67.2429 218.117 66.6437L218.046 65.7458C218.022 65.4463 217.997 65.1475 217.984 64.8471C217.953 64.2479 217.916 63.6488 217.892 63.0496C217.71 58.2611 217.984 53.4661 218.71 48.7295C219.077 46.3733 219.538 44.0272 220.129 41.7206C220.709 39.4147 221.414 37.1423 222.242 34.9136C221.142 39.5061 220.394 44.1761 220.006 48.8827C219.614 53.556 219.604 58.2535 219.975 62.9284C220.344 67.578 221.109 72.1877 222.261 76.7074C222.849 78.9601 223.512 81.1935 224.289 83.3873C224.484 83.936 224.691 84.4813 224.891 85.0266C224.993 85.2984 225.088 85.5736 225.197 85.8437L225.527 86.6516L226.188 88.2673C226.421 88.8 226.667 89.3267 226.904 89.8586C227.361 90.9281 227.899 91.9624 228.407 93.0067C228.473 93.1371 228.534 93.2693 228.603 93.3972L228.809 93.7809L229.222 94.5492L229.636 95.3184L229.843 95.7021L230.062 96.0799L230.936 97.5904L231.154 97.9674L231.387 98.3377L231.849 99.0774C232.451 100.074 233.118 101.029 233.76 102L233.881 102.182L234.008 102.36L234.261 102.715L234.765 103.425L235.27 104.137C235.442 104.371 235.622 104.599 235.799 104.832L236.33 105.526C236.508 105.756 236.678 105.993 236.861 106.22L237.961 107.581L238.235 107.917L238.519 108.25L239.089 108.914L239.66 109.579C239.753 109.691 239.853 109.797 239.951 109.905L240.243 110.23L240.832 110.88L241.137 111.21L241.284 111.372L241.435 111.53L242.645 112.798C245.92 116.155 249.449 119.254 253.201 122.068C256.975 124.904 260.96 127.447 265.121 129.675Z" fill="#29ABE2"/>
<path d="M231.96 113.323C231.555 112.473 231.197 111.603 230.887 110.714C230.579 109.823 230.31 108.916 230.088 107.996C229.866 107.076 229.677 106.144 229.54 105.206C229.456 104.737 229.414 104.265 229.358 103.793C229.327 103.558 229.313 103.32 229.292 103.084L229.234 102.373C229.119 100.469 229.157 98.5586 229.347 96.6606C229.436 95.7105 229.574 94.7647 229.739 93.823L229.872 93.1195C229.919 92.8847 229.956 92.6482 230.013 92.416L230.338 91.0191C231.292 87.3164 232.757 83.7475 234.597 80.4034C236.452 77.0702 238.624 73.9243 241.084 71.0095C241.687 70.2732 242.328 69.5714 242.958 68.8595C243.28 68.5094 243.607 68.1652 243.931 67.8177C244.094 67.6452 244.253 67.4684 244.419 67.3001L244.92 66.7952L245.424 66.2903L245.677 66.0379L245.929 65.7913L246.955 64.8051C247.301 64.4802 247.653 64.1621 248.001 63.8407C248.177 63.6816 248.348 63.5175 248.527 63.3627L249.063 62.8957C249.772 62.2662 250.504 61.6645 251.23 61.0569L252.338 60.1692L252.616 59.9478L252.897 59.7316L253.46 59.2999C254.964 58.152 256.498 57.0463 258.069 55.9977C261.205 53.9002 264.457 51.9805 267.808 50.2477C269.481 49.3851 271.172 48.5647 272.893 47.7997C273.752 47.4166 274.615 47.0449 275.483 46.6847C276.353 46.3321 277.224 45.9821 278.105 45.6572C277.273 46.0931 276.441 46.5232 275.617 46.9717C275.203 47.1905 274.793 47.4151 274.381 47.6373C273.969 47.8595 273.56 48.0867 273.154 48.3181C271.523 49.2362 269.905 50.1694 268.311 51.1447C265.122 53.0858 262.023 55.1529 259.014 57.3459L257.893 58.1756L256.786 59.0221C256.416 59.3024 256.055 59.5944 255.688 59.8796L255.142 60.3105L254.602 60.7506C253.878 61.3313 253.173 61.9372 252.464 62.5321C251.767 63.143 251.064 63.7473 250.384 64.3776C250.042 64.6889 249.699 64.9995 249.364 65.3201C249.029 65.6407 248.691 65.9537 248.355 66.2743L247.367 67.2496L247.12 67.4928L246.88 67.7453L246.398 68.2435L245.914 68.7408C245.752 68.9091 245.599 69.0774 245.44 69.2457C245.127 69.5823 244.81 69.9189 244.499 70.2631C243.889 70.9574 243.271 71.644 242.688 72.3585C242.084 73.0578 241.522 73.7891 240.945 74.5094L240.119 75.6177C239.845 75.9888 239.563 76.354 239.305 76.7352L238.517 77.8704L238.32 78.154L238.133 78.4443L237.761 79.0258L237.389 79.6065L237.202 79.8976C237.141 79.9944 237.085 80.0945 237.025 80.1938L236.322 81.3803L236.146 81.6774L235.978 81.9795L235.649 82.5854C235.431 82.9902 235.203 83.3899 235.007 83.8056L234.394 85.0401L233.827 86.2956C233.63 86.7114 233.467 87.1371 233.293 87.5655L233.035 88.2042C232.991 88.3102 232.951 88.418 232.913 88.5265L232.795 88.8505L232.56 89.4976C232.483 89.7139 232.399 89.9285 232.334 90.1481L231.913 91.4609C230.851 94.9937 230.292 98.6586 230.251 102.348L230.257 103.041C230.257 103.272 230.257 103.504 230.27 103.734C230.291 104.196 230.306 104.66 230.344 105.121C230.402 106.047 230.513 106.967 230.648 107.888C230.784 108.809 230.965 109.723 231.183 110.631C231.288 111.085 231.408 111.537 231.535 111.987C231.662 112.437 231.811 112.877 231.96 113.323Z" fill="#29ABE2"/>
<path d="M306.525 53.3435L301.289 49.7873L305.688 44.5556C307.385 42.5359 306.032 39.4492 303.399 39.3289L295.24 38.957L295.197 32.107C295.18 29.4697 292.149 27.9971 290.066 29.6136L286.086 32.707L282.637 27.169C281.243 24.9314 277.889 25.2638 276.961 27.732L273.784 36.1892L266.382 33.833C263.871 33.0335 261.533 35.463 262.429 37.9438L264.061 42.4745L258.991 43.7368C256.433 44.3713 255.71 47.665 257.772 49.311L264.317 54.5393L259.12 61.7923C257.584 63.9348 259.171 66.9096 261.806 66.8254L267.765 66.6352L267.428 71.3603C267.241 73.9909 270.15 75.6941 272.35 74.2425L278.287 70.3278L283.45 77.3427C285.012 79.4666 288.328 78.8751 289.064 76.3429L290.986 69.7143L296.295 71.8678C298.734 72.8591 301.257 70.6173 300.555 68.0751L298.704 61.3387L305.752 58.9976C308.242 58.1645 308.706 54.8279 306.525 53.3435Z" fill="#F4BE38"/>
<path opacity="0.47" d="M250.82 36.4282L243.923 31.7468L249.714 24.8599C251.947 22.2032 250.167 18.1378 246.701 17.9805L235.957 17.4907L235.9 8.4739C235.878 5.00265 231.887 3.0638 229.147 5.19199L223.906 9.26323L219.364 1.97402C217.53 -0.971278 213.115 -0.534508 211.893 2.71458L207.716 13.8461L197.969 10.746C194.663 9.6941 191.586 12.8919 192.764 16.1578L194.913 22.1216L188.238 23.776C184.873 24.6116 183.922 28.9479 186.633 31.1132L195.248 37.9976L188.408 47.5446C186.389 50.3653 188.475 54.2809 191.94 54.1707L199.784 53.9182L199.342 60.1378C199.095 63.6007 202.924 65.8425 205.818 63.9322L213.632 58.7779L220.428 68.0127C222.484 70.8083 226.852 70.0323 227.819 66.6957L230.348 57.9709L237.336 60.806C240.551 62.1103 243.866 59.16 242.945 55.8133L240.506 46.9462L249.783 43.8655C253.08 42.774 253.69 38.378 250.82 36.4282Z" fill="#F4BE38"/>
<path opacity="0.47" d="M315.405 54.5754L308.508 49.8923L314.298 43.0054C316.532 40.3487 314.752 36.2833 311.285 36.126L300.542 35.6362L300.485 26.6194C300.463 23.1482 296.472 21.2093 293.732 23.3375L288.491 27.4087L283.949 20.1195C282.115 17.1742 277.7 17.611 276.478 20.8601L272.295 31.9925L262.548 28.8923C259.242 27.8404 256.165 31.0382 257.342 34.3041L259.492 40.2679L252.816 41.924C249.452 42.7597 248.501 47.096 251.212 49.2612L259.827 56.144L252.986 65.6909C250.967 68.5117 253.054 72.4273 256.518 72.317L264.362 72.0646L263.919 78.2842C263.673 81.7471 267.502 83.9888 270.396 82.0786L278.21 76.9243L285.005 86.1591C287.063 88.9546 291.431 88.1787 292.397 84.843L294.936 76.1181L301.925 78.9532C305.14 80.2576 308.454 77.3072 307.533 73.9605L305.094 65.0935L314.372 62.0127C317.664 60.9195 318.274 56.5235 315.405 54.5754Z" fill="#F4BE38"/>
<path d="M242.383 36.0833L237.147 32.5279L241.546 27.2962C243.243 25.2766 241.89 22.1891 239.257 22.0696L231.099 21.6976L231.055 14.8477C231.038 12.2104 228.007 10.7369 225.924 12.3543L221.94 15.4452L218.492 9.90715C217.098 7.66873 213.745 8.00196 212.817 10.4701L209.638 18.9265L202.237 16.5703C199.724 15.7708 197.387 18.2003 198.284 20.6811L199.917 25.2118L194.846 26.4698C192.287 27.1052 191.566 30.3989 193.627 32.044L200.172 37.2732L194.975 44.5254C193.439 46.6687 195.026 49.6435 197.66 49.5593L203.619 49.3691L203.283 54.0942C203.096 56.7248 206.005 58.428 208.205 56.9764L214.137 53.0609L219.3 60.0766C220.863 62.1997 224.178 61.609 224.915 59.076L226.836 52.4483L232.145 54.6017C234.584 55.593 237.108 53.3512 236.406 50.809L234.556 44.0727L241.604 41.7316C244.1 40.9044 244.564 37.5644 242.383 36.0833Z" fill="#F4BE38"/>
<path d="M193.06 81.1008C194.668 76.103 194.196 67.8141 182.462 54.057C180.55 51.8152 181.312 48.3625 183.983 47.1204C186.778 45.8203 189.999 47.6825 190.308 50.7516C192.063 68.2012 198.311 76.6879 203.92 81.2354C233.539 105.253 301.612 65.0581 346.49 83.9039C350.579 85.6206 362.044 90.4357 362.17 97.2326C362.306 104.549 349.232 110.155 347.06 111.087C315.823 124.483 278.447 100.67 276.056 105.227C273.701 109.721 311.979 129.228 308.675 140.053C306.608 146.823 288.441 149.671 272.837 145.951C241.881 138.572 228.296 107.079 219.393 111.32C214.43 113.683 218.765 123.396 212.703 139.773C211.663 142.584 202.239 168.048 187.455 167.996C176.269 167.957 164.785 153.314 164.712 140.085C164.611 121.815 186.296 110.576 183.243 105.891C180.982 102.423 166.615 104.772 155.537 113.248C138.849 126.02 143.166 142.345 130.214 147.815C117.573 153.148 101.055 142.828 93.2436 135.581C87.4981 130.253 80.5893 123.845 81.6929 117.774C85.5888 96.333 183.866 109.675 193.06 81.1008Z" fill="#C4D650"/>
</g>
<defs>
<filter id="filter0_dd_255_2" x="0" y="0" width="420" height="428" filterUnits="userSpaceOnUse" color-interpolation-filters="sRGB">
<feFlood flood-opacity="0" result="BackgroundImageFix"/>
<feColorMatrix in="SourceAlpha" type="matrix" values="0 0 0 0 0 0 0 0 0 0 0 0 0 0 0 0 0 0 127 0" result="hardAlpha"/>
<feOffset dy="4"/>
<feGaussianBlur stdDeviation="2"/>
<feComposite in2="hardAlpha" operator="out"/>
<feColorMatrix type="matrix" values="0 0 0 0 0 0 0 0 0 0 0 0 0 0 0 0 0 0 0.25 0"/>
<feBlend mode="normal" in2="BackgroundImageFix" result="effect1_dropShadow_255_2"/>
<feColorMatrix in="SourceAlpha" type="matrix" values="0 0 0 0 0 0 0 0 0 0 0 0 0 0 0 0 0 0 127 0" result="hardAlpha"/>
<feOffset dy="4"/>
<feGaussianBlur stdDeviation="2"/>
<feComposite in2="hardAlpha" operator="out"/>
<feColorMatrix type="matrix" values="0 0 0 0 0 0 0 0 0 0 0 0 0 0 0 0 0 0 0.25 0"/>
<feBlend mode="normal" in2="effect1_dropShadow_255_2" result="effect2_dropShadow_255_2"/>
<feBlend mode="normal" in="SourceGraphic" in2="effect2_dropShadow_255_2" result="shape"/>
</filter>
<clipPath id="clip0_255_2">
<rect width="412" height="420" fill="white" transform="translate(4)"/>
</clipPath>
</defs>
</svg>
