<svg width="176" height="240" viewBox="0 0 176 240" fill="none" xmlns="http://www.w3.org/2000/svg">
<g filter="url(#filter0_d_240_80)">
<path d="M4 29C4 12.9837 16.9837 0 33 0H142.797C158.814 0 171.797 12.9837 171.797 29V203C171.797 219.016 158.814 232 142.797 232H33C16.9837 232 4 219.016 4 203V29Z" fill="#AB9ED3"/>
<path fill-rule="evenodd" clip-rule="evenodd" d="M144.391 176.552H88H31.6338C16.3721 176.552 4 188.924 4 204.186C4 219.448 16.3721 231.82 31.6338 231.82H143C159.016 231.82 172 218.836 172 202.82V176.552L172 159C171.639 160.624 170.988 162.25 170.064 163.827C168.79 166.004 167.021 168.046 164.858 169.838C162.695 171.63 160.181 173.136 157.459 174.27C154.736 175.404 151.86 176.144 148.993 176.448C148.71 176.478 148.427 176.504 148.145 176.525L148.112 176.552H147.758C146.618 176.623 145.492 176.622 144.391 176.552Z" fill="#E27B38"/>
</g>
<path d="M21.205 201V192.75H22.515L26.385 198.805V192.75H27.695V201H26.385L22.515 194.95V201H21.205ZM32.2165 201.16C31.3365 201.16 30.7048 200.98 30.3215 200.62C29.9382 200.257 29.7465 199.658 29.7465 198.825V195.88H30.9915V198.545C30.9915 199.122 31.0832 199.532 31.2665 199.775C31.4532 200.018 31.7698 200.14 32.2165 200.14C32.6632 200.14 32.9782 200.018 33.1615 199.775C33.3482 199.532 33.4415 199.122 33.4415 198.545V195.88H34.6865V198.825C34.6865 199.658 34.4948 200.257 34.1115 200.62C33.7282 200.98 33.0965 201.16 32.2165 201.16ZM38.9421 201.16C38.3954 201.16 37.9054 201.042 37.4721 200.805C37.0421 200.568 36.7004 200.245 36.4471 199.835C36.1971 199.425 36.0721 198.963 36.0721 198.45C36.0721 198.07 36.1438 197.715 36.2871 197.385C36.4304 197.055 36.6288 196.765 36.8821 196.515C37.1354 196.265 37.4304 196.07 37.7671 195.93C38.1038 195.79 38.4671 195.72 38.8571 195.72C39.3904 195.72 39.8571 195.83 40.2571 196.05C40.6604 196.27 40.9738 196.577 41.1971 196.97C41.4238 197.363 41.5371 197.822 41.5371 198.345C41.5371 198.388 41.5354 198.425 41.5321 198.455C41.5288 198.482 41.5221 198.528 41.5121 198.595H37.3421C37.3421 198.905 37.4121 199.178 37.5521 199.415C37.6921 199.648 37.8871 199.832 38.1371 199.965C38.3904 200.095 38.6804 200.16 39.0071 200.16C39.3171 200.16 39.5921 200.098 39.8321 199.975C40.0754 199.848 40.2954 199.657 40.4921 199.4L41.3971 199.865C41.1538 200.272 40.8154 200.59 40.3821 200.82C39.9521 201.047 39.4721 201.16 38.9421 201.16ZM37.3971 197.815H40.3021C40.2588 197.582 40.1704 197.38 40.0371 197.21C39.9038 197.04 39.7354 196.908 39.5321 196.815C39.3288 196.718 39.1021 196.67 38.8521 196.67C38.5888 196.67 38.3538 196.717 38.1471 196.81C37.9404 196.903 37.7721 197.035 37.6421 197.205C37.5121 197.375 37.4304 197.578 37.3971 197.815ZM44.416 201.16C43.986 201.16 43.6027 201.08 43.266 200.92C42.9327 200.757 42.661 200.523 42.451 200.22L43.001 199.41C43.1977 199.67 43.416 199.872 43.656 200.015C43.8993 200.158 44.151 200.23 44.411 200.23C44.571 200.23 44.7127 200.202 44.836 200.145C44.9593 200.085 45.0577 200 45.131 199.89C45.2043 199.777 45.241 199.643 45.241 199.49C45.241 199.33 45.1993 199.205 45.116 199.115C45.0327 199.025 44.9077 198.943 44.741 198.87C44.5743 198.797 44.3643 198.71 44.111 198.61C43.8977 198.52 43.6943 198.42 43.501 198.31C43.3077 198.2 43.1477 198.062 43.021 197.895C42.8977 197.725 42.836 197.51 42.836 197.25C42.836 196.953 42.9177 196.69 43.081 196.46C43.2477 196.23 43.4743 196.05 43.761 195.92C44.051 195.79 44.381 195.725 44.751 195.725C45.0177 195.725 45.286 195.773 45.556 195.87C45.826 195.963 46.096 196.1 46.366 196.28L45.916 197.065C45.526 196.742 45.141 196.58 44.761 196.58C44.5377 196.58 44.3577 196.633 44.221 196.74C44.0877 196.847 44.021 196.983 44.021 197.15C44.021 197.287 44.0793 197.403 44.196 197.5C44.3127 197.597 44.4577 197.682 44.631 197.755C44.8043 197.828 44.9777 197.898 45.151 197.965C45.4243 198.065 45.6643 198.172 45.871 198.285C46.0777 198.398 46.2393 198.545 46.356 198.725C46.4727 198.905 46.531 199.145 46.531 199.445C46.531 199.805 46.4443 200.113 46.271 200.37C46.101 200.627 45.8577 200.823 45.541 200.96C45.2243 201.093 44.8493 201.16 44.416 201.16ZM49.5667 201.16C49.1034 201.16 48.7417 201.01 48.4817 200.71C48.2251 200.41 48.0967 199.988 48.0967 199.445V196.825H47.4717V195.88H48.0967V193.965H49.3417V195.88H50.5217V196.825H49.3417V199.36C49.3417 199.583 49.3867 199.755 49.4767 199.875C49.5667 199.992 49.6951 200.05 49.8617 200.05C50.0351 200.05 50.1934 199.997 50.3367 199.89L50.6517 200.885C50.5017 200.972 50.3301 201.038 50.1367 201.085C49.9434 201.135 49.7534 201.16 49.5667 201.16ZM52.0783 201V195.88H53.3233V196.625C53.5033 196.332 53.7283 196.108 53.9983 195.955C54.2683 195.798 54.5649 195.72 54.8883 195.72C55.0583 195.72 55.2316 195.743 55.4083 195.79C55.5883 195.833 55.7416 195.892 55.8683 195.965L55.3533 197.02C55.2433 196.953 55.1149 196.9 54.9683 196.86C54.8249 196.82 54.6916 196.8 54.5683 196.8C54.3549 196.8 54.1533 196.855 53.9633 196.965C53.7733 197.075 53.6183 197.217 53.4983 197.39C53.3816 197.563 53.3233 197.75 53.3233 197.95V201H52.0783ZM59.3589 201.16C58.8056 201.16 58.3056 201.045 57.8589 200.815C57.4156 200.585 57.0639 200.265 56.8039 199.855C56.5439 199.445 56.4139 198.973 56.4139 198.44C56.4139 197.903 56.5439 197.432 56.8039 197.025C57.0639 196.615 57.4156 196.295 57.8589 196.065C58.3022 195.835 58.8022 195.72 59.3589 195.72C59.9122 195.72 60.4106 195.835 60.8539 196.065C61.3006 196.295 61.6522 196.615 61.9089 197.025C62.1689 197.432 62.2989 197.903 62.2989 198.44C62.2989 198.973 62.1689 199.445 61.9089 199.855C61.6522 200.265 61.3006 200.585 60.8539 200.815C60.4106 201.045 59.9122 201.16 59.3589 201.16ZM59.3589 200.09C59.6722 200.09 59.9522 200.02 60.1989 199.88C60.4489 199.737 60.6456 199.542 60.7889 199.295C60.9322 199.045 61.0039 198.76 61.0039 198.44C61.0039 198.117 60.9322 197.832 60.7889 197.585C60.6456 197.335 60.4489 197.14 60.1989 197C59.9522 196.86 59.6722 196.79 59.3589 196.79C59.0489 196.79 58.7689 196.86 58.5189 197C58.2689 197.14 58.0722 197.335 57.9289 197.585C57.7856 197.832 57.7139 198.117 57.7139 198.44C57.7139 198.76 57.7856 199.045 57.9289 199.295C58.0722 199.542 58.2689 199.737 58.5189 199.88C58.7689 200.02 59.0489 200.09 59.3589 200.09ZM68.8933 201.16C68.3466 201.16 67.8566 201.042 67.4233 200.805C66.9933 200.568 66.6516 200.245 66.3983 199.835C66.1483 199.425 66.0233 198.963 66.0233 198.45C66.0233 198.07 66.0949 197.715 66.2383 197.385C66.3816 197.055 66.5799 196.765 66.8333 196.515C67.0866 196.265 67.3816 196.07 67.7183 195.93C68.0549 195.79 68.4183 195.72 68.8083 195.72C69.3416 195.72 69.8083 195.83 70.2083 196.05C70.6116 196.27 70.9249 196.577 71.1483 196.97C71.3749 197.363 71.4883 197.822 71.4883 198.345C71.4883 198.388 71.4866 198.425 71.4833 198.455C71.4799 198.482 71.4733 198.528 71.4633 198.595H67.2933C67.2933 198.905 67.3633 199.178 67.5033 199.415C67.6433 199.648 67.8383 199.832 68.0883 199.965C68.3416 200.095 68.6316 200.16 68.9583 200.16C69.2683 200.16 69.5433 200.098 69.7833 199.975C70.0266 199.848 70.2466 199.657 70.4433 199.4L71.3483 199.865C71.1049 200.272 70.7666 200.59 70.3333 200.82C69.9033 201.047 69.4233 201.16 68.8933 201.16ZM67.3483 197.815H70.2533C70.2099 197.582 70.1216 197.38 69.9883 197.21C69.8549 197.04 69.6866 196.908 69.4833 196.815C69.2799 196.718 69.0533 196.67 68.8033 196.67C68.5399 196.67 68.3049 196.717 68.0983 196.81C67.8916 196.903 67.7233 197.035 67.5933 197.205C67.4633 197.375 67.3816 197.578 67.3483 197.815ZM77.0562 203.6V200.18C76.8296 200.49 76.5513 200.732 76.2213 200.905C75.8913 201.075 75.5329 201.16 75.1463 201.16C74.6629 201.16 74.2296 201.042 73.8463 200.805C73.4663 200.568 73.1646 200.245 72.9413 199.835C72.7213 199.422 72.6113 198.957 72.6113 198.44C72.6113 197.917 72.7213 197.452 72.9413 197.045C73.1646 196.635 73.4696 196.312 73.8563 196.075C74.2429 195.838 74.6829 195.72 75.1763 195.72C75.5663 195.72 75.9246 195.803 76.2513 195.97C76.5779 196.133 76.8463 196.365 77.0562 196.665V195.88H78.3013V203.6H77.0562ZM75.5013 200.095C75.8113 200.095 76.0846 200.025 76.3213 199.885C76.5613 199.742 76.7496 199.547 76.8863 199.3C77.0229 199.05 77.0913 198.765 77.0913 198.445C77.0913 198.122 77.0229 197.835 76.8863 197.585C76.7496 197.335 76.5613 197.14 76.3213 197C76.0846 196.857 75.8129 196.785 75.5063 196.785C75.1996 196.785 74.9263 196.857 74.6863 197C74.4463 197.14 74.2579 197.335 74.1213 197.585C73.9846 197.835 73.9163 198.12 73.9163 198.44C73.9163 198.763 73.9829 199.05 74.1163 199.3C74.2529 199.547 74.4413 199.742 74.6813 199.885C74.9213 200.025 75.1946 200.095 75.5013 200.095ZM82.5876 201.16C81.7076 201.16 81.0759 200.98 80.6926 200.62C80.3092 200.257 80.1176 199.658 80.1176 198.825V195.88H81.3626V198.545C81.3626 199.122 81.4542 199.532 81.6376 199.775C81.8242 200.018 82.1409 200.14 82.5876 200.14C83.0342 200.14 83.3492 200.018 83.5326 199.775C83.7192 199.532 83.8126 199.122 83.8126 198.545V195.88H85.0576V198.825C85.0576 199.658 84.8659 200.257 84.4826 200.62C84.0992 200.98 83.4676 201.16 82.5876 201.16ZM86.8682 201V195.88H88.1132V201H86.8682ZM87.4932 194.83C87.3565 194.83 87.2299 194.797 87.1132 194.73C86.9999 194.66 86.9082 194.568 86.8382 194.455C86.7715 194.338 86.7382 194.21 86.7382 194.07C86.7382 193.933 86.7715 193.808 86.8382 193.695C86.9082 193.582 86.9999 193.492 87.1132 193.425C87.2299 193.355 87.3565 193.32 87.4932 193.32C87.6332 193.32 87.7582 193.355 87.8682 193.425C87.9815 193.492 88.0715 193.582 88.1382 193.695C88.2082 193.808 88.2432 193.933 88.2432 194.07C88.2432 194.21 88.2082 194.338 88.1382 194.455C88.0715 194.568 87.9815 194.66 87.8682 194.73C87.7582 194.797 87.6332 194.83 87.4932 194.83ZM90.047 203.6V195.88H91.292V196.66C91.4987 196.363 91.767 196.133 92.097 195.97C92.427 195.803 92.787 195.72 93.177 195.72C93.6704 195.72 94.1087 195.838 94.492 196.075C94.8787 196.312 95.1837 196.635 95.407 197.045C95.6304 197.452 95.742 197.917 95.742 198.44C95.742 198.957 95.6304 199.42 95.407 199.83C95.187 200.24 94.8854 200.565 94.502 200.805C94.122 201.042 93.6904 201.16 93.207 201.16C92.8204 201.16 92.4604 201.075 92.127 200.905C91.7937 200.732 91.5154 200.49 91.292 200.18V203.6H90.047ZM92.852 200.095C93.1587 200.095 93.4304 200.025 93.667 199.885C93.907 199.742 94.0954 199.547 94.232 199.3C94.3687 199.05 94.437 198.765 94.437 198.445C94.437 198.125 94.367 197.84 94.227 197.59C94.0904 197.337 93.9037 197.14 93.667 197C93.4304 196.857 93.1587 196.785 92.852 196.785C92.5454 196.785 92.272 196.857 92.032 197C91.792 197.14 91.602 197.335 91.462 197.585C91.3254 197.835 91.257 198.12 91.257 198.44C91.257 198.76 91.3254 199.045 91.462 199.295C91.5987 199.545 91.787 199.742 92.027 199.885C92.2704 200.025 92.5454 200.095 92.852 200.095ZM99.7984 201.16C99.245 201.16 98.745 201.045 98.2984 200.815C97.855 200.585 97.5034 200.265 97.2434 199.855C96.9834 199.445 96.8534 198.973 96.8534 198.44C96.8534 197.903 96.9834 197.432 97.2434 197.025C97.5034 196.615 97.855 196.295 98.2984 196.065C98.7417 195.835 99.2417 195.72 99.7984 195.72C100.352 195.72 100.85 195.835 101.293 196.065C101.74 196.295 102.092 196.615 102.348 197.025C102.608 197.432 102.738 197.903 102.738 198.44C102.738 198.973 102.608 199.445 102.348 199.855C102.092 200.265 101.74 200.585 101.293 200.815C100.85 201.045 100.352 201.16 99.7984 201.16ZM99.7984 200.09C100.112 200.09 100.392 200.02 100.638 199.88C100.888 199.737 101.085 199.542 101.228 199.295C101.372 199.045 101.443 198.76 101.443 198.44C101.443 198.117 101.372 197.832 101.228 197.585C101.085 197.335 100.888 197.14 100.638 197C100.392 196.86 100.112 196.79 99.7984 196.79C99.4884 196.79 99.2084 196.86 98.9584 197C98.7084 197.14 98.5117 197.335 98.3684 197.585C98.225 197.832 98.1534 198.117 98.1534 198.44C98.1534 198.76 98.225 199.045 98.3684 199.295C98.5117 199.542 98.7084 199.737 98.9584 199.88C99.2084 200.02 99.4884 200.09 99.7984 200.09Z" fill="white"/>
<path d="M27.024 215.258C26.8107 215.172 26.5947 215.074 26.376 214.962C26.1573 214.847 25.9373 214.719 25.716 214.578C25.1587 214.972 24.5253 215.17 23.816 215.17C23.3467 215.17 22.9107 215.083 22.508 214.91C22.1053 214.736 21.7533 214.495 21.452 214.186C21.1507 213.876 20.916 213.515 20.748 213.102C20.58 212.688 20.496 212.242 20.496 211.762C20.496 211.282 20.5813 210.834 20.752 210.418C20.9227 210.002 21.16 209.638 21.464 209.326C21.768 209.011 22.1213 208.766 22.524 208.59C22.9267 208.411 23.36 208.322 23.824 208.322C24.288 208.322 24.7213 208.41 25.124 208.586C25.5267 208.762 25.88 209.007 26.184 209.322C26.488 209.634 26.7253 209.998 26.896 210.414C27.0667 210.827 27.152 211.272 27.152 211.75C27.152 212.184 27.0747 212.599 26.92 212.994C26.7653 213.386 26.5453 213.73 26.26 214.026C26.4573 214.132 26.6493 214.228 26.836 214.314C27.0227 214.399 27.2053 214.471 27.384 214.53L27.024 215.258ZM23.812 214.386C24.0333 214.386 24.2453 214.356 24.448 214.298C24.6507 214.236 24.8373 214.148 25.008 214.034C24.8053 213.876 24.6107 213.71 24.424 213.534C24.2373 213.358 24.0627 213.176 23.9 212.99L24.256 212.562C24.6373 212.954 25.0573 213.304 25.516 213.614C25.7587 213.379 25.9453 213.1 26.076 212.778C26.2067 212.455 26.272 212.112 26.272 211.75C26.272 211.374 26.2107 211.026 26.088 210.706C25.9653 210.383 25.7933 210.103 25.572 209.866C25.3507 209.626 25.0907 209.439 24.792 209.306C24.496 209.172 24.1733 209.106 23.824 209.106C23.4747 209.106 23.1507 209.172 22.852 209.306C22.5533 209.439 22.2933 209.626 22.072 209.866C21.8507 210.106 21.6773 210.387 21.552 210.71C21.4293 211.032 21.368 211.383 21.368 211.762C21.368 212.14 21.428 212.49 21.548 212.81C21.6707 213.13 21.8413 213.408 22.06 213.646C22.2813 213.88 22.54 214.063 22.836 214.194C23.1347 214.322 23.46 214.386 23.812 214.386ZM30.4316 215.17C29.7729 215.17 29.3009 215.028 29.0156 214.746C28.7302 214.46 28.5876 213.987 28.5876 213.326V210.946H29.3636V213.166C29.3636 213.656 29.4449 214.006 29.6076 214.214C29.7702 214.422 30.0449 214.526 30.4316 214.526C30.8209 214.526 31.0969 214.422 31.2596 214.214C31.4222 214.006 31.5036 213.656 31.5036 213.166V210.946H32.2796V213.326C32.2796 213.987 32.1369 214.46 31.8516 214.746C31.5662 215.028 31.0929 215.17 30.4316 215.17ZM33.8316 215.042V210.946H34.6076V215.042H33.8316ZM34.2196 210.118C34.1316 210.118 34.0503 210.096 33.9756 210.054C33.9036 210.008 33.845 209.948 33.7996 209.874C33.757 209.799 33.7356 209.718 33.7356 209.63C33.7356 209.539 33.757 209.458 33.7996 209.386C33.845 209.314 33.9036 209.256 33.9756 209.214C34.0503 209.168 34.1316 209.146 34.2196 209.146C34.3103 209.146 34.3916 209.168 34.4636 209.214C34.5356 209.256 34.593 209.314 34.6356 209.386C34.681 209.458 34.7036 209.539 34.7036 209.63C34.7036 209.718 34.681 209.799 34.6356 209.874C34.593 209.948 34.5356 210.008 34.4636 210.054C34.3916 210.096 34.3103 210.118 34.2196 210.118ZM38.1817 215.17C37.7524 215.17 37.367 215.075 37.0257 214.886C36.6844 214.696 36.415 214.439 36.2177 214.114C36.0204 213.786 35.9217 213.416 35.9217 213.006C35.9217 212.702 35.9777 212.418 36.0897 212.154C36.2017 211.89 36.3577 211.658 36.5577 211.458C36.7577 211.255 36.9897 211.098 37.2537 210.986C37.5177 210.874 37.8004 210.818 38.1017 210.818C38.5284 210.818 38.9017 210.906 39.2217 211.082C39.5444 211.258 39.795 211.503 39.9737 211.818C40.155 212.132 40.2457 212.498 40.2457 212.914C40.2457 212.948 40.2444 212.976 40.2417 212.998C40.239 213.019 40.2337 213.047 40.2257 213.082H36.7057C36.7057 213.367 36.7697 213.619 36.8977 213.838C37.0284 214.056 37.207 214.228 37.4337 214.354C37.663 214.476 37.9257 214.538 38.2217 214.538C38.5017 214.538 38.7524 214.48 38.9737 214.366C39.195 214.251 39.387 214.08 39.5497 213.854L40.1177 214.15C39.923 214.472 39.655 214.723 39.3137 214.902C38.975 215.08 38.5977 215.17 38.1817 215.17ZM36.7457 212.51H39.4657C39.4284 212.299 39.3457 212.115 39.2177 211.958C39.0924 211.798 38.9337 211.674 38.7417 211.586C38.5524 211.495 38.343 211.45 38.1137 211.45C37.8737 211.45 37.6564 211.494 37.4617 211.582C37.2697 211.667 37.111 211.79 36.9857 211.95C36.863 212.107 36.783 212.294 36.7457 212.51ZM38.0097 210.418L37.6457 210.138L38.5097 208.546L39.0777 208.962L38.0097 210.418ZM41.5388 215.042V210.946H42.3148V211.474C42.4401 211.287 42.6201 211.131 42.8548 211.006C43.0894 210.88 43.3681 210.818 43.6908 210.818C44.0081 210.818 44.2828 210.884 44.5148 211.018C44.7468 211.148 44.9254 211.338 45.0508 211.586C45.1788 211.834 45.2428 212.13 45.2428 212.474V215.042H44.4668V212.63C44.4668 212.246 44.3748 211.951 44.1908 211.746C44.0068 211.54 43.7481 211.438 43.4148 211.438C43.1854 211.438 42.9881 211.484 42.8228 211.578C42.6601 211.668 42.5348 211.791 42.4468 211.946C42.3588 212.098 42.3148 212.264 42.3148 212.446V215.042H41.5388ZM48.7364 215.17C48.307 215.17 47.9217 215.075 47.5804 214.886C47.239 214.696 46.9697 214.439 46.7724 214.114C46.575 213.786 46.4764 213.416 46.4764 213.006C46.4764 212.702 46.5324 212.418 46.6444 212.154C46.7564 211.89 46.9124 211.658 47.1124 211.458C47.3124 211.255 47.5444 211.098 47.8084 210.986C48.0724 210.874 48.355 210.818 48.6564 210.818C49.083 210.818 49.4564 210.906 49.7764 211.082C50.099 211.258 50.3497 211.503 50.5284 211.818C50.7097 212.132 50.8004 212.498 50.8004 212.914C50.8004 212.948 50.799 212.976 50.7964 212.998C50.7937 213.019 50.7884 213.047 50.7804 213.082H47.2604C47.2604 213.367 47.3244 213.619 47.4524 213.838C47.583 214.056 47.7617 214.228 47.9884 214.354C48.2177 214.476 48.4804 214.538 48.7764 214.538C49.0564 214.538 49.307 214.48 49.5284 214.366C49.7497 214.251 49.9417 214.08 50.1044 213.854L50.6724 214.15C50.4777 214.472 50.2097 214.723 49.8684 214.902C49.5297 215.08 49.1524 215.17 48.7364 215.17ZM47.3004 212.51H50.0204C49.983 212.299 49.9004 212.115 49.7724 211.958C49.647 211.798 49.4884 211.674 49.2964 211.586C49.107 211.495 48.8977 211.45 48.6684 211.45C48.4284 211.45 48.211 211.494 48.0164 211.582C47.8244 211.667 47.6657 211.79 47.5404 211.95C47.4177 212.107 47.3377 212.294 47.3004 212.51ZM53.1542 215.17C52.8129 215.17 52.5102 215.096 52.2462 214.95C51.9849 214.8 51.7769 214.588 51.6222 214.314L51.9942 213.834C52.1355 214.071 52.3062 214.255 52.5062 214.386C52.7062 214.516 52.9209 214.582 53.1502 214.582C53.2995 214.582 53.4342 214.552 53.5542 214.494C53.6769 214.435 53.7742 214.351 53.8462 214.242C53.9182 214.13 53.9542 213.998 53.9542 213.846C53.9542 213.699 53.9169 213.584 53.8422 213.502C53.7702 213.416 53.6622 213.342 53.5182 213.278C53.3769 213.214 53.1995 213.14 52.9862 213.058C52.8155 212.988 52.6502 212.91 52.4902 212.822C52.3302 212.734 52.1982 212.623 52.0942 212.49C51.9929 212.354 51.9422 212.182 51.9422 211.974C51.9422 211.75 52.0022 211.551 52.1222 211.378C52.2449 211.204 52.4129 211.068 52.6262 210.97C52.8395 210.871 53.0822 210.822 53.3542 210.822C53.5755 210.822 53.7902 210.866 53.9982 210.954C54.2062 211.042 54.4035 211.168 54.5902 211.334L54.2782 211.806C54.0009 211.512 53.6942 211.366 53.3582 211.366C53.1555 211.366 52.9915 211.418 52.8662 211.522C52.7409 211.623 52.6782 211.755 52.6782 211.918C52.6782 212.043 52.7235 212.148 52.8142 212.234C52.9049 212.316 53.0209 212.388 53.1622 212.45C53.3035 212.511 53.4502 212.571 53.6022 212.63C53.8315 212.715 54.0315 212.803 54.2022 212.894C54.3755 212.984 54.5102 213.102 54.6062 213.246C54.7022 213.387 54.7502 213.578 54.7502 213.818C54.7502 214.098 54.6835 214.339 54.5502 214.542C54.4195 214.744 54.2342 214.9 53.9942 215.01C53.7542 215.116 53.4742 215.17 53.1542 215.17ZM59.2479 215.17C58.9066 215.17 58.6039 215.096 58.3399 214.95C58.0786 214.8 57.8706 214.588 57.7159 214.314L58.0879 213.834C58.2293 214.071 58.3999 214.255 58.5999 214.386C58.7999 214.516 59.0146 214.582 59.2439 214.582C59.3933 214.582 59.5279 214.552 59.6479 214.494C59.7706 214.435 59.8679 214.351 59.9399 214.242C60.0119 214.13 60.0479 213.998 60.0479 213.846C60.0479 213.699 60.0106 213.584 59.9359 213.502C59.8639 213.416 59.7559 213.342 59.6119 213.278C59.4706 213.214 59.2933 213.14 59.0799 213.058C58.9093 212.988 58.7439 212.91 58.5839 212.822C58.4239 212.734 58.2919 212.623 58.1879 212.49C58.0866 212.354 58.0359 212.182 58.0359 211.974C58.0359 211.75 58.0959 211.551 58.2159 211.378C58.3386 211.204 58.5066 211.068 58.7199 210.97C58.9333 210.871 59.1759 210.822 59.4479 210.822C59.6693 210.822 59.8839 210.866 60.0919 210.954C60.2999 211.042 60.4973 211.168 60.6839 211.334L60.3719 211.806C60.0946 211.512 59.7879 211.366 59.4519 211.366C59.2493 211.366 59.0853 211.418 58.9599 211.522C58.8346 211.623 58.7719 211.755 58.7719 211.918C58.7719 212.043 58.8173 212.148 58.9079 212.234C58.9986 212.316 59.1146 212.388 59.2559 212.45C59.3973 212.511 59.5439 212.571 59.6959 212.63C59.9253 212.715 60.1253 212.803 60.2959 212.894C60.4693 212.984 60.6039 213.102 60.6999 213.246C60.7959 213.387 60.8439 213.578 60.8439 213.818C60.8439 214.098 60.7773 214.339 60.6439 214.542C60.5133 214.744 60.3279 214.9 60.0879 215.01C59.8479 215.116 59.5679 215.17 59.2479 215.17ZM64.1438 215.17C63.7091 215.17 63.3171 215.078 62.9678 214.894C62.6211 214.71 62.3451 214.454 62.1398 214.126C61.9371 213.798 61.8358 213.42 61.8358 212.994C61.8358 212.564 61.9371 212.187 62.1398 211.862C62.3451 211.534 62.6211 211.278 62.9678 211.094C63.3171 210.91 63.7091 210.818 64.1438 210.818C64.5784 210.818 64.9691 210.91 65.3158 211.094C65.6651 211.278 65.9411 211.534 66.1438 211.862C66.3491 212.187 66.4518 212.564 66.4518 212.994C66.4518 213.42 66.3491 213.798 66.1438 214.126C65.9411 214.454 65.6651 214.71 65.3158 214.894C64.9691 215.078 64.5784 215.17 64.1438 215.17ZM64.1478 214.494C64.4331 214.494 64.6891 214.43 64.9158 214.302C65.1424 214.174 65.3211 213.996 65.4518 213.77C65.5824 213.543 65.6478 213.284 65.6478 212.994C65.6478 212.7 65.5824 212.442 65.4518 212.218C65.3211 211.991 65.1424 211.814 64.9158 211.686C64.6891 211.558 64.4331 211.494 64.1478 211.494C63.8598 211.494 63.6024 211.558 63.3758 211.686C63.1491 211.814 62.9704 211.991 62.8398 212.218C62.7091 212.442 62.6438 212.7 62.6438 212.994C62.6438 213.284 62.7091 213.543 62.8398 213.77C62.9704 213.996 63.1491 214.174 63.3758 214.302C63.6024 214.43 63.8598 214.494 64.1478 214.494ZM67.7497 215.042V210.946H68.5257V211.474C68.699 211.255 68.895 211.091 69.1137 210.982C69.3324 210.872 69.575 210.818 69.8417 210.818C70.1724 210.818 70.463 210.894 70.7137 211.046C70.9644 211.195 71.139 211.399 71.2377 211.658C71.4084 211.396 71.6137 211.191 71.8537 211.042C72.0937 210.892 72.375 210.818 72.6977 210.818C72.991 210.818 73.251 210.878 73.4777 210.998C73.7044 211.118 73.883 211.291 74.0137 211.518C74.1444 211.744 74.2097 212.019 74.2097 212.342V215.042H73.4337V212.558C73.4337 212.216 73.3444 211.946 73.1657 211.746C72.987 211.546 72.7497 211.446 72.4537 211.446C72.2484 211.446 72.063 211.491 71.8977 211.582C71.735 211.67 71.6057 211.786 71.5097 211.93C71.4164 212.071 71.3697 212.22 71.3697 212.378V215.042H70.5937V212.506C70.5937 212.183 70.5057 211.926 70.3297 211.734C70.1537 211.542 69.919 211.446 69.6257 211.446C69.4204 211.446 69.2337 211.49 69.0657 211.578C68.9004 211.663 68.7684 211.775 68.6697 211.914C68.5737 212.052 68.5257 212.198 68.5257 212.35V215.042H67.7497ZM77.7609 215.17C77.3263 215.17 76.9343 215.078 76.5849 214.894C76.2383 214.71 75.9623 214.454 75.7569 214.126C75.5543 213.798 75.4529 213.42 75.4529 212.994C75.4529 212.564 75.5543 212.187 75.7569 211.862C75.9623 211.534 76.2383 211.278 76.5849 211.094C76.9343 210.91 77.3263 210.818 77.7609 210.818C78.1956 210.818 78.5863 210.91 78.9329 211.094C79.2823 211.278 79.5583 211.534 79.7609 211.862C79.9663 212.187 80.0689 212.564 80.0689 212.994C80.0689 213.42 79.9663 213.798 79.7609 214.126C79.5583 214.454 79.2823 214.71 78.9329 214.894C78.5863 215.078 78.1956 215.17 77.7609 215.17ZM77.7649 214.494C78.0503 214.494 78.3063 214.43 78.5329 214.302C78.7596 214.174 78.9383 213.996 79.0689 213.77C79.1996 213.543 79.2649 213.284 79.2649 212.994C79.2649 212.7 79.1996 212.442 79.0689 212.218C78.9383 211.991 78.7596 211.814 78.5329 211.686C78.3063 211.558 78.0503 211.494 77.7649 211.494C77.4769 211.494 77.2196 211.558 76.9929 211.686C76.7663 211.814 76.5876 211.991 76.4569 212.218C76.3263 212.442 76.2609 212.7 76.2609 212.994C76.2609 213.284 76.3263 213.543 76.4569 213.77C76.5876 213.996 76.7663 214.174 76.9929 214.302C77.2196 214.43 77.4769 214.494 77.7649 214.494ZM82.4433 215.17C82.1019 215.17 81.7993 215.096 81.5353 214.95C81.2739 214.8 81.0659 214.588 80.9113 214.314L81.2833 213.834C81.4246 214.071 81.5953 214.255 81.7953 214.386C81.9953 214.516 82.2099 214.582 82.4393 214.582C82.5886 214.582 82.7233 214.552 82.8433 214.494C82.9659 214.435 83.0633 214.351 83.1353 214.242C83.2073 214.13 83.2433 213.998 83.2433 213.846C83.2433 213.699 83.2059 213.584 83.1313 213.502C83.0593 213.416 82.9513 213.342 82.8073 213.278C82.6659 213.214 82.4886 213.14 82.2753 213.058C82.1046 212.988 81.9393 212.91 81.7793 212.822C81.6193 212.734 81.4873 212.623 81.3833 212.49C81.2819 212.354 81.2313 212.182 81.2313 211.974C81.2313 211.75 81.2913 211.551 81.4113 211.378C81.5339 211.204 81.7019 211.068 81.9153 210.97C82.1286 210.871 82.3713 210.822 82.6432 210.822C82.8646 210.822 83.0793 210.866 83.2873 210.954C83.4953 211.042 83.6926 211.168 83.8793 211.334L83.5673 211.806C83.2899 211.512 82.9833 211.366 82.6473 211.366C82.4446 211.366 82.2806 211.418 82.1553 211.522C82.0299 211.623 81.9673 211.755 81.9673 211.918C81.9673 212.043 82.0126 212.148 82.1033 212.234C82.1939 212.316 82.3099 212.388 82.4513 212.45C82.5926 212.511 82.7393 212.571 82.8913 212.63C83.1206 212.715 83.3206 212.803 83.4913 212.894C83.6646 212.984 83.7993 213.102 83.8953 213.246C83.9913 213.387 84.0393 213.578 84.0393 213.818C84.0393 214.098 83.9726 214.339 83.8393 214.542C83.7086 214.744 83.5233 214.9 83.2833 215.01C83.0433 215.116 82.7633 215.17 82.4433 215.17Z" fill="white"/>
<path d="M81.3893 165C104.994 165 124.13 159.632 124.13 153.01C124.13 146.387 104.994 141.019 81.3893 141.019C57.7843 141.019 38.6487 146.387 38.6487 153.01C38.6487 159.632 57.7843 165 81.3893 165Z" fill="#635A8C"/>
<path d="M64.0543 75.7269C66.5747 77.5767 68.2595 80.3464 68.7412 83.4315C68.7412 83.4561 68.7489 83.4838 68.7535 83.5099C69.6961 89.6389 66.7666 94.6026 65.8641 96.0184L45.5072 125.761C40.2305 133.47 30.0389 135.688 22.7461 130.715C15.4517 125.744 13.8129 115.461 19.0958 107.751C19.2159 107.643 25.2828 100.973 46.0986 78.0128C50.8871 72.7309 58.6174 71.7471 64.0543 75.7269Z" fill="#459696"/>
<path d="M92.7021 128.887C90.4056 126.767 89.0433 123.826 88.9132 120.706V120.626C88.6683 114.431 92.1384 109.827 93.195 108.522L116.775 81.261C122.89 74.1897 133.265 73.1321 139.951 78.8937C146.637 84.6552 147.102 95.0545 140.987 102.123C140.855 102.216 134.077 108.162 110.8 128.638C105.45 133.344 97.6585 133.455 92.7021 128.887Z" fill="#459696"/>
<path d="M72.7119 152.292L60.3902 148.619C56.8093 147.551 54.3834 144.733 54.7824 142.101L56.3534 131.682C56.8493 128.4 61.4237 126.897 65.7486 128.597L79.1361 133.867C82.5507 135.21 84.5576 138.103 83.809 140.606L81.166 149.429C80.3497 152.158 76.5639 153.44 72.7119 152.292Z" fill="#459696"/>
<path d="M92.6574 150.436L103.932 147.803C107.209 147.034 109.498 144.441 109.224 141.799L108.146 131.345C107.804 128.05 103.711 126.183 99.7439 127.518L87.4454 131.636C84.3095 132.689 82.3982 135.394 82.9942 137.939L85.0966 146.901C85.7466 149.668 89.1319 151.253 92.6574 150.436Z" fill="#459696"/>
<path d="M123.882 100.393C123.728 99.8045 123.374 98.3411 122.496 98.2027C122.439 98.1973 122.383 98.1973 122.326 98.2027C122.278 98.2036 122.23 98.1855 122.195 98.1522C122.159 98.1189 122.138 98.0731 122.135 98.0244C121.897 94.8492 121.359 91.7035 120.529 88.6289C120.516 88.5798 120.524 88.5276 120.549 88.4839C120.575 88.4401 120.617 88.4082 120.666 88.3952C120.709 88.3833 120.755 88.3872 120.795 88.406C121.433 88.6965 121.972 88.7857 122.057 88.6704C122.263 88.3891 120.136 86.5075 119.736 85.9126C119.727 85.8975 119.719 85.8815 119.713 85.8649L119.676 85.7512C119.797 85.6159 120.966 86.7212 121.347 86.4368C121.655 86.2093 121.356 85.1609 120.795 84.4538C120.738 84.3846 119.817 83.2486 119.101 83.5007C119.077 83.5104 119.052 83.5153 119.026 83.5151C119 83.5148 118.974 83.5095 118.951 83.4993C118.927 83.4892 118.905 83.4744 118.887 83.4559C118.869 83.4374 118.855 83.4155 118.846 83.3915C117.99 81.0919 116.977 78.854 115.813 76.6938C109.644 65.3199 95.3035 49.8799 76.3529 50.2919C76.3277 50.2927 76.3026 50.2886 76.279 50.2796C76.2554 50.2707 76.2338 50.2572 76.2155 50.2399C76.1971 50.2226 76.1824 50.2019 76.1722 50.1789C76.1619 50.1559 76.1563 50.1311 76.1557 50.1059C76.1543 50.0768 76.1601 50.0477 76.1727 50.0214C76.7888 48.6932 77.2508 47.3527 76.7718 47.0038C76.2497 46.6226 74.7079 47.5065 74.0949 48.5595C73.9721 48.7695 73.8749 48.9935 73.8054 49.2266C73.7157 49.5617 73.6932 49.9112 73.7392 50.255C73.7419 50.2802 73.7397 50.3056 73.7326 50.3299C73.7255 50.3542 73.7137 50.3768 73.6978 50.3965C73.6819 50.4162 73.6623 50.4326 73.6401 50.4447C73.6178 50.4569 73.5934 50.4645 73.5682 50.4672L73.234 50.501C73.2057 50.5039 73.177 50.5002 73.1503 50.4904C73.1236 50.4805 73.0996 50.4647 73.08 50.4441C72.5917 49.9353 71.9864 49.2389 71.6198 49.3788C71.3657 49.4772 71.2502 49.9691 71.2856 50.6086C71.288 50.6546 71.2738 50.6999 71.2455 50.7363C71.2172 50.7727 71.1768 50.7977 71.1316 50.8069C47.5665 54.9405 38.6749 81.902 37.7477 84.8688C37.6029 85.33 37.375 86.0602 37.1162 87.0025C36.5323 89.1754 36.0878 91.3832 35.7855 93.6126C35.7819 93.6376 35.7734 93.6617 35.7604 93.6835C35.7475 93.7053 35.7304 93.7243 35.71 93.7394C35.6897 93.7545 35.6666 93.7655 35.642 93.7717C35.6174 93.7779 35.5918 93.7792 35.5668 93.7755C35.5552 93.7744 35.5438 93.7718 35.5329 93.7678C35.2841 93.6872 35.0243 93.6457 34.7628 93.6449C33.2226 93.6449 31.9904 95.1513 32.206 95.5864C32.34 95.8646 33.0254 95.6294 33.774 95.551C33.8178 95.5462 33.8619 95.5566 33.8989 95.5803C33.936 95.6041 33.9638 95.6398 33.9777 95.6815C33.9916 95.7232 33.9907 95.7684 33.9752 95.8096C33.9597 95.8508 33.9305 95.8854 33.8926 95.9077C33.2765 96.272 32.8144 96.7654 32.8545 97.119C32.9315 97.7124 34.4594 97.946 35.2017 98.2873C35.2368 98.3033 35.2663 98.3294 35.2864 98.3623C35.3064 98.3952 35.3161 98.4333 35.3142 98.4717L35.2957 98.8468C35.294 98.8831 35.2822 98.9183 35.2615 98.9482C35.2408 98.9781 35.2121 99.0015 35.1786 99.0159C34.8567 99.1527 34.4239 99.3234 34.1513 99.7553C33.5676 100.678 34.0466 102.293 34.6288 102.401C34.7403 102.413 34.8525 102.385 34.9445 102.321C34.9661 102.308 34.99 102.299 35.015 102.295C35.0399 102.291 35.0655 102.292 35.0901 102.298C35.1147 102.304 35.1379 102.314 35.1583 102.329C35.1788 102.344 35.1962 102.362 35.2094 102.384C35.2264 102.413 35.236 102.446 35.2372 102.479C35.365 108.358 36.5063 115.134 39.8901 121.599C39.9019 121.622 39.9092 121.646 39.9116 121.671C39.9139 121.696 39.9113 121.721 39.9039 121.745C39.8964 121.769 39.8843 121.791 39.8682 121.811C39.8521 121.83 39.8323 121.846 39.81 121.858C39.7976 121.865 39.7841 121.87 39.77 121.873C38.4654 122.222 37.3842 122.675 37.4104 122.809C37.4427 122.972 39.1539 122.772 40.403 122.749C40.4372 122.749 40.4709 122.758 40.5006 122.775C40.5303 122.792 40.555 122.817 40.5724 122.846C40.6741 123.024 40.7788 123.204 40.8805 123.381C40.9056 123.423 40.9138 123.473 40.9035 123.52C40.8932 123.568 40.8652 123.61 40.825 123.638C40.3922 123.928 39.9163 124.34 39.7007 124.983C39.6298 125.193 39.5051 125.565 39.6668 125.905C40.0195 126.625 41.5643 126.857 42.5932 126.296C42.634 126.274 42.6813 126.268 42.7262 126.279C42.7712 126.289 42.8108 126.315 42.8381 126.352C42.9135 126.455 42.9921 126.56 43.066 126.66L43.1061 126.715C43.1287 126.745 43.1422 126.78 43.1449 126.817C43.1477 126.854 43.1395 126.89 43.1215 126.923C42.567 127.951 42.5531 129.189 42.7965 129.321C43.0136 129.441 43.448 128.666 44.081 128.228C44.1209 128.2 44.1698 128.188 44.2181 128.195C44.2663 128.201 44.3103 128.226 44.3413 128.263C46.1538 130.42 48.2127 132.358 50.4759 134.037C50.4962 134.052 50.5133 134.07 50.5263 134.092C50.5393 134.113 50.5479 134.137 50.5516 134.162C50.5553 134.186 50.5541 134.212 50.548 134.236C50.5419 134.26 50.531 134.283 50.516 134.303C50.4983 134.327 50.4751 134.347 50.4482 134.36C50.0552 134.552 49.738 134.871 49.5472 135.264C49.3023 135.788 49.2391 136.597 49.5749 136.801C50.1355 137.133 51.3107 135.499 51.8852 135.805C52.5552 136.162 51.5479 138.706 51.9391 138.87C52.2379 138.996 53.5394 137.809 53.6226 136.463C53.6261 136.412 53.6495 136.365 53.6875 136.332C53.7256 136.299 53.7753 136.282 53.8259 136.285C53.8557 136.287 53.8847 136.296 53.9106 136.311C67.6877 144.384 83.6858 142.361 84.5914 142.232C87.0635 141.878 100.519 139.733 110.829 129.319C110.846 129.302 110.867 129.287 110.891 129.278C110.914 129.268 110.938 129.263 110.964 129.263C110.989 129.263 111.013 129.268 111.037 129.278C111.06 129.287 111.081 129.302 111.098 129.319C111.119 129.339 111.135 129.363 111.145 129.39C111.195 129.532 111.256 129.67 111.328 129.802C111.423 129.977 111.824 130.712 112.321 130.681C112.783 130.651 113.224 129.959 113.211 129.389C113.211 129.226 113.17 129.21 112.98 128.329C112.879 127.857 112.879 127.808 112.91 127.753C113.161 127.299 114.684 127.962 114.912 127.585C115.012 127.415 114.778 127.152 113.888 126.107C113.86 126.072 113.845 126.03 113.845 125.986C113.845 125.942 113.86 125.899 113.888 125.865C115.141 124.263 116.268 122.567 117.261 120.792L117.279 120.76C117.433 121.538 117.616 122.079 117.71 122.073C117.864 122.064 117.895 120.616 118.008 119.42C118.011 119.396 118.017 119.373 118.028 119.352C118.181 119.052 118.328 118.752 118.468 118.453C118.483 118.419 118.508 118.39 118.539 118.37C118.57 118.35 118.606 118.339 118.643 118.339C118.68 118.339 118.716 118.35 118.747 118.37C118.778 118.39 118.803 118.419 118.818 118.453C119.05 118.975 119.4 119.71 120.17 120.084C120.369 120.18 120.722 120.353 121.073 120.237C121.884 119.967 122.322 118.28 121.749 117.175C121.381 116.463 120.671 116.141 119.808 115.833C119.76 115.816 119.721 115.781 119.699 115.735C119.677 115.689 119.674 115.637 119.691 115.589C121.011 112.105 121.829 108.452 122.12 104.739C122.124 104.688 122.148 104.642 122.187 104.609C122.226 104.575 122.276 104.559 122.326 104.562C122.369 104.566 122.409 104.583 122.44 104.611C122.776 104.919 123.049 105.082 123.146 105.031C123.32 104.942 122.955 104.181 122.693 101.755C122.556 100.484 122.621 100.358 122.664 100.347C122.876 100.301 123.434 103.008 123.803 102.96C124.051 102.936 124.187 101.618 123.882 100.393Z" fill="#4EADAF"/>
<path d="M45.1188 109.455C52.3166 108.922 57.8506 104.438 57.4793 99.4393C57.108 94.4406 50.972 90.8201 43.7741 91.3527C36.5763 91.8853 31.0423 96.3693 31.4136 101.368C31.7849 106.367 37.9209 109.987 45.1188 109.455Z" fill="#E37A39"/>
<path d="M113.145 104.961C120.343 104.428 125.877 99.944 125.505 94.9452C125.134 89.9465 118.998 86.326 111.8 86.8586C104.602 87.3912 99.0685 91.8752 99.4398 96.874C99.8111 101.873 105.947 105.493 113.145 104.961Z" fill="#E37A39"/>
<path d="M54.5897 93.7891C63.1118 93.1585 69.5325 86.0809 68.9308 77.9809C68.3292 69.8809 60.9329 63.8257 52.4109 64.4563C43.8888 65.0868 37.4681 72.1644 38.0698 80.2644C38.6715 88.3645 46.0677 94.4197 54.5897 93.7891Z" fill="#E2E2E2"/>
<path d="M57.8284 86.0059C63.646 85.5754 68.0292 80.7438 67.6185 75.2143C67.2077 69.6847 62.1586 65.5511 56.3409 65.9815C50.5233 66.412 46.1401 71.2436 46.5508 76.7732C46.9616 82.3027 52.0107 86.4363 57.8284 86.0059Z" fill="black"/>
<path d="M50.684 83.9335C51.0686 82.4929 49.2907 80.7694 46.7131 80.0839C44.1354 79.3984 41.7341 80.0105 41.3495 81.4511C40.9649 82.8916 42.7427 84.6152 45.3204 85.3006C47.898 85.9861 50.2994 85.374 50.684 83.9335Z" fill="white"/>
<path d="M102.704 91.441C111.226 90.8104 117.656 83.8605 117.066 75.9179C116.476 67.9754 109.089 62.0478 100.567 62.6784C92.045 63.309 85.6147 70.2589 86.2047 78.2015C86.7947 86.144 94.1815 92.0716 102.704 91.441Z" fill="#E2E2E2"/>
<path d="M97.5026 84.2931C103.32 83.8627 107.71 79.1183 107.307 73.6962C106.904 68.2742 101.862 64.2277 96.0441 64.6582C90.2265 65.0887 85.8368 69.8331 86.2396 75.2551C86.6423 80.6771 91.685 84.7236 97.5026 84.2931Z" fill="black"/>
<path d="M109.731 79.3954C112.121 78.2511 113.547 76.2605 112.917 74.9493C112.287 73.638 109.839 73.5027 107.449 74.647C105.059 75.7913 103.633 77.7819 104.263 79.0932C104.893 80.4044 107.341 80.5397 109.731 79.3954Z" fill="white"/>
<path d="M91.5085 61.1862C90.8146 60.9759 90.1333 60.7265 89.4677 60.4391C88.8003 60.1542 88.1478 59.8381 87.5101 59.4907C86.2315 58.7915 85.019 57.9781 83.8876 57.0603C83.3208 56.5991 82.7771 56.1118 82.255 55.6015L81.8668 55.2125C81.739 55.0819 81.6158 54.9466 81.491 54.8129C81.4294 54.7468 81.3663 54.6807 81.3047 54.6115L81.1244 54.4055L80.9489 54.2057L80.858 54.1011L80.8133 54.0504L80.7702 53.9966L80.4221 53.5723L80.3374 53.4647C80.3097 53.4294 80.2804 53.3925 80.2542 53.3556L80.0879 53.1296L79.9185 52.9129L79.8353 52.8037L79.7567 52.6915L79.4395 52.2411L79.3609 52.1289C79.3363 52.092 79.3116 52.052 79.287 52.0136L79.133 51.783L78.9789 51.5524L78.905 51.4371C78.8804 51.3987 78.8573 51.3587 78.8342 51.3203C78.6478 51.0128 78.4537 50.6931 78.2843 50.3687C78.1965 50.215 78.1087 50.049 78.024 49.886L77.7807 49.3941L77.6605 49.1466C77.6205 49.0636 77.5835 48.9806 77.545 48.8961L77.4326 48.647L77.3771 48.5225C77.3571 48.481 77.3386 48.4395 77.3217 48.3965L77.1138 47.8892C77.0968 47.8461 77.0783 47.8046 77.0614 47.7616L77.0136 47.634L76.9166 47.3773L76.8381 47.119L76.7487 46.8608L76.6609 46.601L76.6163 46.4703L76.5762 46.3397L76.4222 45.8155L76.2682 45.2897C76.242 45.2021 76.222 45.1145 76.1989 45.0253L76.1342 44.7579L76.1034 44.6257C76.0926 44.5811 76.0818 44.5365 76.0726 44.4919L76.0156 44.2244L75.9586 43.9554C75.9401 43.8663 75.9247 43.7771 75.9078 43.6864C75.8754 43.5065 75.8385 43.3282 75.8138 43.1468L75.7722 42.8778C75.7584 42.7871 75.743 42.6964 75.7322 42.6057C75.7106 42.4259 75.6844 42.2445 75.6644 42.0631C75.5012 40.6166 75.4765 39.1578 75.5905 37.7066C75.649 36.9841 75.7445 36.2631 75.8631 35.5545C75.9877 34.8425 76.1512 34.1379 76.3529 33.4438C76.1221 34.8601 76 36.2918 75.9879 37.7266C75.9741 39.1514 76.0771 40.575 76.2959 41.9832C76.5133 43.3818 76.8493 44.7595 77.3001 46.1014C77.5296 46.7701 77.7807 47.4311 78.0702 48.0798C78.1411 48.2335 78.2165 48.4011 78.2889 48.5625C78.3259 48.6424 78.3613 48.7239 78.3998 48.8023L78.5184 49.0406L78.7556 49.5156C78.8388 49.6693 78.925 49.823 79.0097 49.9767C79.173 50.2842 79.3594 50.5916 79.5365 50.8991C79.5596 50.9375 79.5812 50.9759 79.6043 51.0128L79.6767 51.1251L79.8199 51.348L79.9616 51.5724L80.034 51.6846L80.1079 51.7938L80.4083 52.2319L80.4822 52.341L80.5623 52.4486L80.7163 52.6623C80.9211 52.9497 81.1445 53.2249 81.3616 53.5047L81.4032 53.557L81.4448 53.6077L81.5295 53.7091L81.6989 53.9136L81.8684 54.118L82.0455 54.3163L82.2211 54.5146C82.2811 54.5807 82.3381 54.6484 82.3982 54.7129L82.7632 55.1003L82.8541 55.1972L82.948 55.2909L83.136 55.48L83.3239 55.6676C83.3547 55.6999 83.3885 55.7291 83.4209 55.7598L83.5164 55.852L83.7104 56.0365L83.809 56.1287L83.8583 56.1749L83.9076 56.2194L84.3034 56.5761C85.3737 57.5197 86.5153 58.3795 87.7181 59.1479C88.9276 59.9228 90.1948 60.6043 91.5085 61.1862Z" fill="#29ABE2"/>
<path d="M81.069 56.9727C80.9262 56.7239 80.7977 56.4673 80.6839 56.2041C80.57 55.9417 80.4673 55.6732 80.3759 55.3986C80.2866 55.1249 80.208 54.8467 80.1464 54.5654C80.1094 54.4255 80.0863 54.2841 80.0586 54.1427C80.0447 54.0719 80.0355 53.9997 80.0232 53.929L79.9893 53.7138C79.9118 53.1397 79.8804 52.5604 79.8953 51.9813C79.8953 51.6908 79.9215 51.4018 79.9508 51.1128L79.9754 50.896C79.9847 50.8238 79.9893 50.7515 80.0016 50.6793L80.0694 50.2488C80.2811 49.1055 80.6356 47.9931 81.1244 46.9377C81.6126 45.8857 82.2017 44.8834 82.8833 43.9447C83.0497 43.7079 83.2283 43.4835 83.4039 43.2514C83.4933 43.1376 83.5857 43.0269 83.675 42.9147C83.7212 42.8579 83.7659 42.801 83.8121 42.7456L83.9538 42.5827L84.0955 42.4182L84.1663 42.3352L84.2372 42.2553L84.5267 41.934C84.6238 41.8264 84.7239 41.7234 84.8225 41.6173C84.8717 41.565 84.921 41.5112 84.9765 41.4636L85.1305 41.3099C85.3307 41.1039 85.5402 40.9056 85.7466 40.7042L86.0639 40.4106L86.1424 40.3368L86.2225 40.2661L86.3842 40.1216C86.8155 39.7403 87.2575 39.3724 87.7103 39.0179C88.6159 38.3123 89.5599 37.6575 90.5382 37.0563C91.0279 36.7581 91.5223 36.4707 92.0275 36.2016C92.2801 36.0648 92.5343 35.9342 92.7899 35.805C93.0456 35.6759 93.3028 35.5529 93.56 35.4346C93.3167 35.5883 93.0733 35.742 92.8346 35.8957C92.7129 35.9711 92.5943 36.0495 92.4742 36.1248C92.3541 36.2001 92.2339 36.2785 92.1153 36.3584C91.6409 36.6736 91.1712 36.9918 90.7091 37.3238C89.785 37.9838 88.8901 38.6797 88.0245 39.4114L87.7026 39.6881L87.3854 39.9694C87.2791 40.0632 87.1759 40.1585 87.0773 40.2538L86.9233 40.3967L86.7693 40.5428C86.5613 40.7349 86.3611 40.9332 86.1532 41.13C85.9453 41.3268 85.7558 41.5297 85.5633 41.7357C85.4663 41.8387 85.3692 41.9401 85.2737 42.0431C85.1782 42.1461 85.0843 42.2506 84.9888 42.3506L84.7116 42.6672L84.6423 42.7472L84.5745 42.8286L84.4389 42.9901L84.3034 43.153L84.1709 43.3159L83.9076 43.6449C83.7382 43.8693 83.5657 44.0907 83.4055 44.3213C83.2453 44.5519 83.0836 44.7825 82.9234 45.0115L82.6985 45.3666C82.623 45.485 82.5445 45.6018 82.4767 45.7232L82.2626 46.0845L82.2087 46.1752L82.1579 46.2674L82.0593 46.4519L81.9592 46.6364L81.9084 46.7286C81.8915 46.7593 81.8776 46.7901 81.8622 46.8224L81.6743 47.1974L81.6281 47.2912L81.5834 47.3865L81.4972 47.5771C81.4402 47.7047 81.3801 47.8323 81.3293 47.9615L81.1753 48.3504L81.0305 48.7424C80.9797 48.873 80.9396 49.0052 80.8965 49.139L80.8333 49.3388C80.821 49.3726 80.8118 49.4049 80.8025 49.4387L80.7748 49.5402L80.7178 49.7416C80.6993 49.8092 80.6778 49.8753 80.6639 49.9445L80.5653 50.3503C80.3219 51.445 80.2343 52.5685 80.305 53.6876L80.3235 53.8967C80.3235 53.9674 80.3328 54.0366 80.342 54.1073C80.3589 54.2456 80.3744 54.3871 80.3959 54.5254C80.4344 54.8037 80.4883 55.0804 80.5499 55.3571C80.6115 55.6338 80.687 55.9059 80.7733 56.1764C80.8148 56.3117 80.8626 56.4454 80.9103 56.5792C80.9581 56.7129 81.0135 56.8451 81.069 56.9727Z" fill="#29ABE2"/>
<path d="M102.367 37.1286L100.696 36.1678L101.914 34.4769C102.021 34.3307 102.085 34.1575 102.098 33.9768C102.112 33.7962 102.074 33.6155 101.989 33.4553C101.905 33.2951 101.777 33.1618 101.62 33.0707C101.463 32.9795 101.284 32.9341 101.102 32.9397L98.615 33.0104L98.4487 30.9351C98.4342 30.7552 98.3695 30.5829 98.2619 30.4377C98.1544 30.2925 98.0083 30.1803 97.8401 30.1138C97.672 30.0472 97.4885 30.029 97.3105 30.0611C97.1325 30.0933 96.9671 30.1745 96.833 30.2956L95.6948 31.3225L94.5227 29.7222C94.416 29.5767 94.2706 29.4639 94.103 29.3965C93.9354 29.3291 93.7523 29.3098 93.5743 29.3408C93.3963 29.3718 93.2305 29.4519 93.0957 29.572C92.9609 29.6921 92.8625 29.8475 92.8115 30.0205L92.0414 32.6537L89.7388 32.1065C89.5612 32.0618 89.3746 32.0683 89.2005 32.1253C89.0265 32.1823 88.8723 32.2875 88.7558 32.4285C88.6393 32.5696 88.5653 32.7408 88.5425 32.9222C88.5197 33.1035 88.5489 33.2877 88.6268 33.4531L89.2244 34.7889L87.7134 35.2855C87.5414 35.341 87.3883 35.4436 87.2718 35.5816C87.1552 35.7196 87.0797 35.8875 87.0539 36.0661C87.028 36.2448 87.0529 36.4271 87.1257 36.5923C87.1984 36.7576 87.3161 36.8992 87.4655 37.001L89.5709 38.4383L88.1555 40.7534C88.0618 40.907 88.0128 41.0837 88.0142 41.2635C88.0155 41.4433 88.0671 41.6193 88.1631 41.7715C88.2591 41.9236 88.3957 42.0461 88.5576 42.1251C88.7195 42.204 88.9003 42.2363 89.0796 42.2184L90.8847 42.0262V43.4651C90.8842 43.646 90.9345 43.8234 91.03 43.9771C91.1254 44.1309 91.2622 44.2549 91.4247 44.3349C91.5872 44.415 91.769 44.4479 91.9493 44.43C92.1297 44.4121 92.3014 44.3441 92.4449 44.2337L94.1592 42.9132L95.8858 44.9224C96.0032 45.0595 96.1567 45.161 96.329 45.2155C96.5013 45.2699 96.6854 45.2751 96.8605 45.2305C97.0356 45.1858 97.1946 45.0931 97.3196 44.9629C97.4446 44.8326 97.5305 44.67 97.5677 44.4935L98.0035 42.4428L99.6639 42.9747C99.8358 43.0297 100.02 43.0357 100.195 42.992C100.37 42.9483 100.529 42.8566 100.655 42.7273C100.781 42.598 100.868 42.4362 100.906 42.2602C100.945 42.0842 100.933 41.9009 100.873 41.7311L100.158 39.7327L102.247 38.8641C102.415 38.7963 102.562 38.6825 102.668 38.5357C102.775 38.3889 102.839 38.215 102.851 38.0339C102.864 37.8529 102.825 37.6719 102.739 37.5118C102.654 37.3517 102.525 37.2189 102.367 37.1286Z" fill="#F4BE38"/>
<path opacity="0.47" d="M85.0658 33.2549L82.8664 31.9913L84.4697 29.7746C84.6066 29.5821 84.6871 29.3555 84.7024 29.12C84.7176 28.8845 84.667 28.6494 84.5561 28.441C84.4452 28.2326 84.2785 28.059 84.0745 27.9397C83.8704 27.8204 83.6372 27.7601 83.4008 27.7654L80.1264 27.8577L79.9061 25.1275C79.8869 24.8909 79.8018 24.6643 79.6604 24.4733C79.5189 24.2824 79.3268 24.1348 79.1056 24.0472C78.8845 23.9595 78.6433 23.9354 78.4091 23.9774C78.175 24.0195 77.9573 24.1261 77.7806 24.2851L76.2805 25.6364L74.7403 23.5304C74.6001 23.3377 74.4086 23.1881 74.1875 23.0987C73.9665 23.0092 73.7247 22.9834 73.4896 23.0242C73.2546 23.0651 73.0358 23.1709 72.858 23.3296C72.6802 23.4884 72.5506 23.6937 72.4839 23.9224L71.4658 27.3811L68.4362 26.6602C68.2051 26.6062 67.9634 26.6177 67.7385 26.6934C67.5135 26.7691 67.3142 26.9059 67.1629 27.0885C67.0117 27.2711 66.9145 27.4922 66.8823 27.727C66.8501 27.9617 66.8842 28.2008 66.9807 28.4172L67.7678 30.1758L65.7778 30.8276C65.5522 30.9019 65.3519 31.0377 65.1994 31.2196C65.0469 31.4014 64.9484 31.6222 64.9149 31.857C64.8815 32.0918 64.9144 32.3312 65.01 32.5484C65.1056 32.7655 65.26 32.9516 65.4559 33.0858L68.2283 34.9781L66.3647 38.0249C66.2407 38.2275 66.176 38.4606 66.1778 38.698C66.1796 38.9354 66.2479 39.1675 66.375 39.3681C66.502 39.5688 66.6827 39.73 66.8967 39.8336C67.1108 39.9371 67.3495 39.9789 67.586 39.9541L69.9641 39.7005V41.5959C69.965 41.8332 70.0324 42.0655 70.1586 42.2666C70.2848 42.4678 70.4648 42.6297 70.6784 42.7341C70.8919 42.8385 71.1304 42.8812 71.367 42.8575C71.6036 42.8337 71.8288 42.7444 72.0172 42.5997L74.2736 40.8626L76.5469 43.5082C76.7016 43.6887 76.9039 43.8224 77.1308 43.8941C77.3577 43.9657 77.6002 43.9725 77.8308 43.9136C78.0614 43.8547 78.2708 43.7325 78.4354 43.5609C78.5999 43.3892 78.713 43.175 78.7618 42.9425L79.3332 40.2416L81.5187 40.9441C81.7452 41.017 81.9877 41.0251 82.2186 40.9677C82.4495 40.9102 82.6597 40.7894 82.8254 40.6189C82.9911 40.4484 83.1057 40.235 83.1562 40.0029C83.2067 39.7708 83.1912 39.5292 83.1113 39.3054L82.1702 36.6814L84.9195 35.5392C85.1412 35.4491 85.333 35.2985 85.4729 35.1046C85.6128 34.9106 85.6951 34.6813 85.7104 34.4428C85.7257 34.2044 85.6733 33.9664 85.5593 33.7563C85.4453 33.5462 85.2743 33.3724 85.0658 33.2549Z" fill="#F4BE38"/>
<path opacity="0.47" d="M105.092 37.2961L102.892 36.031L104.495 33.8143C104.635 33.6212 104.718 33.3929 104.734 33.1554C104.75 32.9178 104.699 32.6805 104.586 32.4704C104.474 32.2603 104.305 32.0859 104.098 31.9669C103.892 31.848 103.656 31.7893 103.417 31.7975L100.143 31.8912L99.9226 29.1596C99.9032 28.9232 99.818 28.6969 99.6766 28.5063C99.5353 28.3156 99.3434 28.1682 99.1225 28.0806C98.9017 27.993 98.6607 27.9688 98.4268 28.0106C98.1929 28.0524 97.9753 28.1586 97.7986 28.3172L96.2985 29.6684L94.7583 27.5624C94.6181 27.3705 94.4269 27.2216 94.2063 27.1327C93.9857 27.0437 93.7446 27.0181 93.5102 27.0589C93.2758 27.0998 93.0575 27.2053 92.8801 27.3635C92.7027 27.5218 92.5733 27.7265 92.5065 27.9544L91.4869 31.4224L88.4558 30.7014C88.2241 30.6474 87.9819 30.6592 87.7565 30.7353C87.5312 30.8115 87.3317 30.9491 87.1806 31.1326C87.0295 31.316 86.9328 31.5379 86.9015 31.7733C86.8702 32.0087 86.9055 32.2482 87.0034 32.4646L87.7873 34.2217L85.7958 34.8735C85.5676 34.9464 85.3646 35.0821 85.21 35.2649C85.0555 35.4478 84.9557 35.6704 84.9221 35.9072C84.8885 36.144 84.9224 36.3856 85.02 36.604C85.1176 36.8225 85.275 37.0091 85.4739 37.1424L88.2463 39.0332L86.3873 42.0723C86.2637 42.275 86.1993 42.5081 86.2014 42.7454C86.2034 42.9827 86.2719 43.2146 86.3991 43.4151C86.5263 43.6156 86.7071 43.7766 86.9211 43.8799C87.1351 43.9833 87.3738 44.0249 87.6102 44L89.9821 43.7525V45.6464C89.9827 45.8838 90.0499 46.1163 90.176 46.3177C90.3021 46.519 90.4821 46.6812 90.6957 46.7857C90.9093 46.8903 91.1479 46.9332 91.3846 46.9095C91.6213 46.8858 91.8467 46.7965 92.0352 46.6517L94.2931 44.9131L96.5649 47.5587C96.7195 47.7392 96.9217 47.8729 97.1485 47.9447C97.3753 48.0164 97.6177 48.0233 97.8483 47.9646C98.0788 47.9059 98.2883 47.7839 98.4529 47.6124C98.6175 47.441 98.7308 47.2269 98.7798 46.9945L99.3542 44.2936L101.541 44.9961C101.768 45.0686 102.01 45.0765 102.241 45.0188C102.471 44.9612 102.681 44.8403 102.847 44.6699C103.012 44.4995 103.127 44.2862 103.177 44.0543C103.228 43.8224 103.212 43.581 103.132 43.3574L102.191 40.7257L104.941 39.5835C105.163 39.4938 105.355 39.3434 105.496 39.1495C105.637 38.9555 105.719 38.726 105.735 38.4871C105.751 38.2483 105.699 38.0098 105.585 37.7992C105.471 37.5885 105.3 37.4142 105.092 37.2961Z" fill="#F4BE38"/>
<path d="M82.4967 33.3393L80.8256 32.377L82.0439 30.6861C82.1516 30.5401 82.216 30.3667 82.2296 30.1859C82.2431 30.005 82.2054 29.824 82.1207 29.6636C82.036 29.5032 81.9077 29.3698 81.7506 29.2788C81.5935 29.1877 81.4138 29.1427 81.2322 29.1488L78.7448 29.2196L78.5769 27.1443C78.5627 26.9644 78.4983 26.792 78.391 26.6467C78.2836 26.5015 78.1376 26.3892 77.9695 26.3226C77.8014 26.256 77.618 26.2378 77.44 26.27C77.2621 26.3022 77.0967 26.3835 76.9628 26.5048L75.823 27.5301L74.6509 25.9453C74.5442 25.7997 74.3988 25.6869 74.2312 25.6195C74.0637 25.5521 73.8805 25.5328 73.7025 25.5639C73.5245 25.5949 73.3588 25.675 73.224 25.7951C73.0892 25.9152 72.9907 26.0705 72.9398 26.2435L72.1697 28.8768L69.8686 28.3295C69.6927 28.2872 69.5085 28.2949 69.3368 28.3519C69.1651 28.4088 69.0129 28.5127 68.8974 28.6517C68.7819 28.7906 68.7077 28.9591 68.6834 29.1381C68.659 29.317 68.6855 29.4991 68.7596 29.6638L69.3526 30.9935L67.8417 31.4885C67.6684 31.5439 67.5142 31.647 67.3968 31.7858C67.2795 31.9247 67.2037 32.0937 67.1781 32.2735C67.1526 32.4534 67.1783 32.6368 67.2523 32.8027C67.3264 32.9686 67.4458 33.1104 67.5968 33.2117L69.7023 34.6491L68.2868 36.9549C68.1931 37.1085 68.1441 37.2852 68.1455 37.465C68.1468 37.6449 68.1984 37.8208 68.2944 37.973C68.3904 38.1251 68.5271 38.2476 68.689 38.3266C68.8509 38.4055 69.0316 38.4378 69.2109 38.4199L71.016 38.2277V39.6681C71.0155 39.849 71.0658 40.0264 71.1613 40.1802C71.2568 40.3339 71.3935 40.4579 71.556 40.538C71.7186 40.618 71.9003 40.651 72.0807 40.6331C72.261 40.6152 72.4327 40.5472 72.5763 40.4367L74.2905 39.1162L76.0155 41.1269C76.1333 41.2639 76.287 41.3653 76.4595 41.4196C76.632 41.4739 76.8162 41.479 76.9914 41.4342C77.1665 41.3894 77.3256 41.2965 77.4507 41.1662C77.5758 41.0358 77.6618 40.8731 77.699 40.6965L78.1333 38.6459L79.7937 39.1793C79.9657 39.2345 80.1498 39.2405 80.3252 39.1968C80.5005 39.153 80.6601 39.0612 80.7859 38.9317C80.9116 38.8021 80.9986 38.6401 81.0369 38.4638C81.0753 38.2875 81.0634 38.104 81.0027 37.9341L80.2896 35.9357L82.3827 35.0687C82.5495 34.9995 82.6935 34.8852 82.7986 34.7387C82.9037 34.5921 82.9657 34.4192 82.9776 34.2393C82.9894 34.0595 82.9507 33.8799 82.8657 33.7209C82.7808 33.5619 82.6529 33.4297 82.4967 33.3393Z" fill="#F4BE38"/>
<path d="M68.5286 48.0876C68.9045 46.538 68.5749 44.037 64.7012 40.1324C64.5546 39.9834 64.4444 39.8026 64.3792 39.6041C64.314 39.4056 64.2956 39.1947 64.3254 38.9879C64.3552 38.7812 64.4324 38.5841 64.551 38.4119C64.6696 38.2398 64.8265 38.0974 65.0093 37.9957C65.1995 37.8904 65.4122 37.8322 65.6295 37.8258C65.8469 37.8194 66.0626 37.8651 66.2587 37.959C66.4548 38.0529 66.6254 38.1924 66.7564 38.3656C66.8874 38.5389 66.9749 38.741 67.0116 38.9549C67.9357 44.2015 70.0273 46.641 71.8324 47.8847C81.3693 54.4947 101.141 40.7873 115.197 45.4896C116.477 45.9185 120.067 47.1191 120.259 49.179C120.464 51.3926 116.62 53.3849 115.981 53.7169C106.795 58.4823 94.9062 52.1013 94.2824 53.537C93.6586 54.9728 105.734 60.0011 104.974 63.3553C104.499 65.4536 99.0447 66.7249 94.2223 65.9486C84.653 64.4114 79.8183 55.1711 77.2092 56.6561C75.7553 57.4831 77.2909 60.3285 75.8231 65.4275C75.5705 66.3022 73.2802 74.2297 68.7889 74.5464C65.3897 74.7862 61.5731 70.6064 61.2527 66.6004C60.8107 61.0664 67.144 57.1741 66.1121 55.8229C65.342 54.8237 61.0294 55.8583 57.8627 58.6745C53.0804 62.9203 54.7592 67.7687 50.9488 69.7179C47.2292 71.6179 41.9802 68.8617 39.4434 66.8418C37.5798 65.3568 35.3357 63.569 35.5344 61.7059C36.2275 55.1189 66.3785 56.9528 68.5286 48.0876Z" fill="#C4D650"/>
<path d="M141.862 87.407L135.534 90.3254C133.491 91.2676 132.6 93.6846 133.544 95.7239L136.142 101.336C137.087 103.376 139.508 104.265 141.551 103.323L147.879 100.404C149.923 99.4621 150.814 97.0451 149.87 95.0059L147.271 89.3933C146.327 87.3541 143.905 86.4648 141.862 87.407Z" fill="#C4D650"/>
<path d="M120.742 67.8317L120.903 52.7331C120.898 52.3724 121.001 52.0183 121.199 51.7163C121.396 51.4143 121.68 51.178 122.013 51.0376C122.346 50.8973 122.713 50.8594 123.068 50.9286C123.422 50.9979 123.748 51.1712 124.004 51.4264L134.728 61.5045C135.739 62.453 135.521 64.1178 134.317 64.6743L123.429 69.6948C122.179 70.2713 120.734 69.2706 120.742 67.8317Z" fill="#E37A39"/>
<path d="M132.826 61.4061L132.783 61.7428C132.769 61.8435 132.731 61.9394 132.672 62.0218C132.612 62.1043 132.533 62.1707 132.442 62.2151C132.35 62.2596 132.249 62.2807 132.147 62.2766C132.045 62.2725 131.946 62.2433 131.859 62.1917L131.572 62.0226C131.483 61.9705 131.382 61.9417 131.278 61.9389C131.175 61.936 131.072 61.9593 130.98 62.0065C130.888 62.0537 130.809 62.1233 130.751 62.2088C130.693 62.2944 130.658 62.3932 130.648 62.496L130.557 63.5337C130.556 63.5663 130.545 63.5978 130.527 63.6249C130.509 63.652 130.484 63.6736 130.454 63.6874C130.425 63.701 130.392 63.7063 130.36 63.7028C130.327 63.6993 130.297 63.687 130.271 63.6674L129.373 62.968C129.297 62.9104 129.208 62.8713 129.114 62.8538C129.02 62.8363 128.923 62.8408 128.831 62.8671C128.74 62.8933 128.655 62.9406 128.585 63.005C128.514 63.0695 128.46 63.1494 128.426 63.2385L128.141 63.9994C128.104 64.0946 128.044 64.1792 127.967 64.2456C127.89 64.3121 127.797 64.3582 127.697 64.38C127.597 64.4018 127.494 64.3986 127.396 64.3705C127.298 64.3424 127.208 64.2905 127.135 64.2193C127.06 64.1465 126.968 64.0938 126.867 64.0662C126.767 64.0387 126.661 64.0371 126.559 64.0617C126.458 64.0863 126.364 64.1362 126.287 64.2068C126.21 64.2774 126.153 64.3663 126.12 64.4652L125.88 65.2062C125.851 65.2905 125.805 65.3677 125.744 65.4324C125.683 65.4972 125.609 65.548 125.526 65.5813C125.444 65.6146 125.355 65.6296 125.266 65.6254C125.177 65.6211 125.09 65.5977 125.011 65.5567L124.358 65.2123C124.272 65.1679 124.178 65.1442 124.081 65.143C123.985 65.1419 123.889 65.1633 123.803 65.2056C123.716 65.2479 123.641 65.31 123.583 65.3867C123.524 65.4634 123.485 65.5527 123.468 65.6474L123.363 66.2499C123.347 66.3414 123.311 66.428 123.257 66.5035C123.203 66.5789 123.132 66.6411 123.05 66.6855C122.969 66.7298 122.878 66.7552 122.785 66.7596C122.692 66.7641 122.6 66.7475 122.514 66.7111L121.718 66.3637C121.631 66.3267 121.536 66.3102 121.442 66.3155C121.347 66.3208 121.255 66.3477 121.173 66.3943C121.091 66.4408 121.02 66.5057 120.967 66.5838C120.914 66.6619 120.879 66.7513 120.866 66.8449L120.712 68.0193C120.697 68.1336 120.714 68.2499 120.763 68.3544L131.113 90.715C131.373 91.2754 131.741 91.7791 132.196 92.1975C132.651 92.6158 133.185 92.9405 133.765 93.1529C134.346 93.3654 134.964 93.4614 135.582 93.4356C136.2 93.4097 136.807 93.2625 137.368 93.0023L143.239 90.2953C144.329 89.7929 145.174 88.8791 145.589 87.7548C146.004 86.6305 145.954 85.3878 145.451 84.3001L135.028 61.7966C134.974 61.678 134.882 61.5803 134.767 61.5184L133.728 60.948C133.641 60.9009 133.543 60.8757 133.444 60.8746C133.344 60.8734 133.246 60.8963 133.157 60.9413C133.068 60.9863 132.992 61.0521 132.934 61.1331C132.877 61.214 132.839 61.3077 132.826 61.4061Z" fill="#F4BE38"/>
<path d="M134.078 66.459L146.879 94.8701" stroke="black" stroke-width="0.63" stroke-miterlimit="10" stroke-linecap="round"/>
<path d="M131.849 66.459L144.65 94.8701" stroke="black" stroke-width="0.63" stroke-miterlimit="10" stroke-linecap="round"/>
<path d="M129.619 66.459L142.42 94.8701" stroke="black" stroke-width="0.63" stroke-miterlimit="10" stroke-linecap="round"/>
<path d="M127.391 66.459L140.191 94.8701" stroke="black" stroke-width="0.63" stroke-miterlimit="10" stroke-linecap="round"/>
<path d="M125.16 66.459L137.961 94.8701" stroke="black" stroke-width="0.63" stroke-miterlimit="10" stroke-linecap="round"/>
<path d="M122.932 66.459L135.732 94.8701" stroke="black" stroke-width="0.63" stroke-miterlimit="10" stroke-linecap="round"/>
<path d="M143.744 85.4725L132.839 90.5019C131.379 91.175 130.743 92.9014 131.417 94.358L131.578 94.7041C132.252 96.1607 133.982 96.7959 135.441 96.1228L146.347 91.0934C147.806 90.4204 148.443 88.694 147.768 87.2374L147.608 86.8913C146.934 85.4347 145.204 84.7995 143.744 85.4725Z" fill="#4EADAF"/>
<path d="M132.838 40.5367C137.103 40.5367 140.561 37.0858 140.561 32.829C140.561 28.5722 137.103 25.1213 132.838 25.1213C128.573 25.1213 125.116 28.5722 125.116 32.829C125.116 37.0858 128.573 40.5367 132.838 40.5367Z" fill="#4EADAF"/>
<path d="M137.343 26.0745C137.538 26.0074 137.708 25.8824 137.83 25.7163C137.876 25.6425 138.003 25.4504 137.936 25.3105C137.835 25.0968 137.32 25.063 136.928 25.2059C136.675 25.3163 136.43 25.4416 136.193 25.581C136.068 25.6517 135.954 25.7209 135.925 25.6917C135.896 25.6625 136.068 25.4949 136.168 25.2213C136.25 24.9595 136.258 24.6803 136.191 24.4143C136.15 24.1499 136.111 23.9039 135.956 23.8516C135.906 23.8427 135.856 23.8443 135.807 23.8565C135.758 23.8687 135.713 23.8912 135.674 23.9223C135.592 23.9685 135.421 24.0761 135.144 24.5219C135 24.7373 134.878 24.9665 134.779 25.2059C134.758 25.2794 134.725 25.3493 134.683 25.4135C134.651 25.4042 134.851 24.9861 134.717 24.6095C134.622 24.342 134.395 24.2052 134.078 24.0115C133.858 23.8778 133.28 23.5273 133.066 23.7179C132.921 23.847 133.003 24.1791 133.026 24.259C133.075 24.4299 133.162 24.5876 133.28 24.7202C133.469 24.9892 133.687 25.2371 133.929 25.4596C134.44 25.9023 135.273 26.6248 136.27 26.4941C136.482 26.4588 136.769 26.3327 137.343 26.0745Z" fill="#387777"/>
<path d="M137.813 26.8754C138.089 26.7767 138.329 26.5959 138.499 26.3573C138.565 26.2559 138.742 25.9838 138.653 25.7855C138.509 25.478 137.772 25.4335 137.226 25.6318C136.869 25.7868 136.522 25.9644 136.187 26.1636C136.01 26.2636 135.848 26.3619 135.806 26.3174C135.765 26.2728 136.008 26.0407 136.151 25.6517C136.295 25.2628 136.244 24.8831 136.184 24.5111C136.124 24.1391 136.07 23.7886 135.849 23.7133C135.78 23.7016 135.708 23.7046 135.64 23.7221C135.572 23.7396 135.508 23.7711 135.452 23.8148C135.338 23.8793 135.098 24.0346 134.703 24.6633C134.5 24.9681 134.328 25.2919 134.188 25.6302C134.135 25.7609 134.075 25.9377 134.052 25.9238C134.029 25.91 134.289 25.3197 134.1 24.7878C133.964 24.4081 133.638 24.2144 133.196 23.9408C132.888 23.7517 132.067 23.2552 131.763 23.5242C131.558 23.7071 131.675 24.1668 131.706 24.2928C131.777 24.5348 131.9 24.7583 132.067 24.9477C132.338 25.3232 132.648 25.6694 132.991 25.9807C133.715 26.6079 134.894 27.6286 136.304 27.4442C136.598 27.4103 137.001 27.232 137.813 26.8754Z" fill="#4EADAF"/>
<path d="M131.904 29.7088C132.273 28.191 131.278 26.6461 129.68 26.2582C128.083 25.8704 126.488 26.7865 126.118 28.3044C125.748 29.8222 126.743 31.3671 128.341 31.755C129.939 32.1428 131.534 31.2267 131.904 29.7088Z" fill="#E2E2E2"/>
<path d="M131.702 30.0517C131.954 29.0155 131.275 27.9611 130.185 27.6964C129.095 27.4318 128.006 28.0572 127.754 29.0933C127.501 30.1294 128.18 31.1839 129.27 31.4485C130.361 31.7132 131.449 31.0878 131.702 30.0517Z" fill="black"/>
<path d="M129.61 28.2947C129.764 28.0547 129.541 27.637 129.111 27.3619C128.682 27.0868 128.209 27.0584 128.054 27.2985C127.9 27.5385 128.123 27.9562 128.552 28.2313C128.982 28.5064 129.455 28.5348 129.61 28.2947Z" fill="white"/>
<path d="M140.837 32.1751C141.2 30.6861 140.199 29.1646 138.601 28.7767C137.004 28.3889 135.414 29.2816 135.051 30.7706C134.689 32.2596 135.69 33.7811 137.287 34.1689C138.885 34.5568 140.474 33.6641 140.837 32.1751Z" fill="#E2E2E2"/>
<path d="M138.97 31.8589C139.217 30.8425 138.534 29.8041 137.444 29.5395C136.354 29.2748 135.269 29.8842 135.022 30.9005C134.774 31.9168 135.457 32.9553 136.547 33.2199C137.637 33.4846 138.722 32.8752 138.97 31.8589Z" fill="black"/>
<path d="M138.676 31.1722C139.181 31.1039 139.56 30.8235 139.522 30.5458C139.484 30.2682 139.045 30.0985 138.54 30.1668C138.035 30.2351 137.656 30.5156 137.694 30.7932C137.731 31.0708 138.171 31.2405 138.676 31.1722Z" fill="white"/>
<path d="M160.702 50.6901C160.685 50.2527 160.769 49.8172 160.947 49.4172C161.714 47.6878 161.761 45.725 161.079 43.9607C160.396 42.1964 159.039 40.7751 157.306 40.0094C155.573 39.2437 153.607 39.1965 151.839 39.878C150.071 40.5595 148.647 41.9139 147.88 43.6434C147.775 43.8883 147.607 44.1006 147.392 44.2583C146.225 45.1104 145.298 46.2493 144.703 47.5644C144.108 48.8796 143.864 50.3261 143.994 51.7633C144.125 53.2005 144.626 54.5795 145.449 55.7662C146.272 56.9529 147.388 57.9069 148.69 58.5354C149.991 59.1639 151.434 59.4455 152.877 59.3529C154.319 59.2603 155.714 58.7965 156.924 58.0068C158.134 57.217 159.119 56.1281 159.783 54.846C160.446 53.5639 160.766 52.1321 160.711 50.6901H160.702Z" fill="#6B7227"/>
<path d="M159.894 50.6562C159.876 50.2622 159.951 49.8695 160.112 49.5095C160.726 47.967 160.717 46.2473 160.088 44.7112C159.458 43.1751 158.257 41.942 156.737 41.2704C155.216 40.5989 153.494 40.5412 151.932 41.1095C150.37 41.6777 149.089 42.8277 148.357 44.3182C148.259 44.5365 148.106 44.7256 147.912 44.867C146.859 45.6328 146.023 46.6577 145.484 47.8419C144.946 49.026 144.724 50.3292 144.839 51.6245C144.955 52.9198 145.405 54.163 146.145 55.2333C146.885 56.3036 147.89 57.1644 149.063 57.732C150.235 58.2996 151.535 58.5546 152.835 58.4722C154.135 58.3898 155.392 57.9728 156.483 57.2617C157.574 56.5507 158.462 55.5699 159.06 54.4148C159.659 53.2597 159.947 51.9696 159.898 50.6701L159.894 50.6562Z" fill="#C4D650"/>
<path d="M154.889 51.8471C155.67 50.0864 155.201 48.1721 153.841 47.5713C152.481 46.9706 150.746 47.9108 149.965 49.6715C149.184 51.4322 149.653 53.3465 151.013 53.9473C152.372 54.5481 154.108 53.6078 154.889 51.8471Z" fill="#844019"/>
<path d="M151.99 47.4627C152.43 46.1657 151.681 44.7401 150.316 44.2785C148.951 43.817 147.488 44.4942 147.048 45.7911C146.607 47.0881 147.357 48.5137 148.721 48.9753C150.086 49.4369 151.549 48.7596 151.99 47.4627Z" fill="#E2E2E2"/>
<path d="M151.789 47.7463C152.09 46.8603 151.578 45.8864 150.646 45.5711C149.714 45.2559 148.714 45.7186 148.413 46.6047C148.112 47.4908 148.624 48.4647 149.556 48.7799C150.488 49.0952 151.488 48.6324 151.789 47.7463Z" fill="black"/>
<path d="M150.092 46.0497C150.246 45.8517 150.083 45.4691 149.728 45.1953C149.374 44.9214 148.962 44.86 148.808 45.058C148.655 45.2561 148.818 45.6386 149.172 45.9125C149.527 46.1863 149.939 46.2478 150.092 46.0497Z" fill="white"/>
<path d="M159.555 49.8667C159.986 48.5899 159.226 47.1818 157.857 46.7216C156.488 46.2614 155.029 46.9233 154.598 48.2001C154.167 49.4768 154.928 50.8849 156.297 51.3451C157.665 51.8054 159.124 51.1434 159.555 49.8667Z" fill="#E2E2E2"/>
<path d="M157.996 49.8863C158.291 49.0187 157.774 48.0598 156.842 47.7445C155.91 47.4293 154.915 47.877 154.621 48.7446C154.326 49.6122 154.843 50.5711 155.775 50.8864C156.707 51.2016 157.702 50.7539 157.996 49.8863Z" fill="black"/>
<path d="M157.794 49.2612C158.241 49.2405 158.593 49.0243 158.581 48.7783C158.57 48.5324 158.199 48.3498 157.753 48.3706C157.307 48.3914 156.954 48.6076 156.966 48.8535C156.977 49.0995 157.348 49.282 157.794 49.2612Z" fill="white"/>
<path d="M158.949 85.37C163.395 85.37 166.998 81.7732 166.998 77.3364C166.998 72.8996 163.395 69.3029 158.949 69.3029C154.504 69.3029 150.9 72.8996 150.9 77.3364C150.9 81.7732 154.504 85.37 158.949 85.37Z" fill="#D86627"/>
<path d="M158.963 84.4707C163.026 84.4707 166.319 81.1837 166.319 77.1289C166.319 73.0741 163.026 69.7871 158.963 69.7871C154.901 69.7871 151.607 73.0741 151.607 77.1289C151.607 81.1837 154.901 84.4707 158.963 84.4707Z" fill="#E37A39"/>
<path d="M155.824 81.7314C156.142 81.7314 156.4 81.474 156.4 81.1565C156.4 80.8389 156.142 80.5815 155.824 80.5815C155.506 80.5815 155.248 80.8389 155.248 81.1565C155.248 81.474 155.506 81.7314 155.824 81.7314Z" fill="#E28B5A"/>
<path d="M163.609 74.9399C163.927 74.9399 164.185 74.6825 164.185 74.365C164.185 74.0474 163.927 73.79 163.609 73.79C163.29 73.79 163.032 74.0474 163.032 74.365C163.032 74.6825 163.29 74.9399 163.609 74.9399Z" fill="#E28B5A"/>
<path d="M154.705 82.6675C155.023 82.6675 155.281 82.4101 155.281 82.0926C155.281 81.7751 155.023 81.5177 154.705 81.5177C154.386 81.5177 154.129 81.7751 154.129 82.0926C154.129 82.4101 154.386 82.6675 154.705 82.6675Z" fill="#E28B5A"/>
<path d="M153.696 81.1549C154.014 81.1549 154.272 80.8975 154.272 80.5799C154.272 80.2624 154.014 80.005 153.696 80.005C153.378 80.005 153.12 80.2624 153.12 80.5799C153.12 80.8975 153.378 81.1549 153.696 81.1549Z" fill="#E28B5A"/>
<path d="M157.94 75.469C158.436 74.2015 157.758 72.7522 156.425 72.2318C155.092 71.7113 153.608 72.3169 153.111 73.5844C152.615 74.8518 153.293 76.3012 154.626 76.8216C155.96 77.342 157.443 76.7364 157.94 75.469Z" fill="#E2E2E2"/>
<path d="M157.726 75.7435C158.065 74.8785 157.602 73.8893 156.692 73.534C155.782 73.1787 154.769 73.5919 154.43 74.4569C154.091 75.3219 154.554 76.3111 155.464 76.6664C156.375 77.0217 157.387 76.6085 157.726 75.7435Z" fill="black"/>
<path d="M156.125 73.9838C156.286 73.795 156.142 73.4091 155.804 73.122C155.466 72.8349 155.061 72.7552 154.9 72.9441C154.739 73.1329 154.883 73.5188 155.221 73.8059C155.56 74.093 155.964 74.1726 156.125 73.9838Z" fill="white"/>
<path d="M165.359 78.636C165.846 77.3939 165.16 75.965 163.826 75.4446C162.493 74.9242 161.018 75.5092 160.531 76.7514C160.044 77.9935 160.731 79.4224 162.064 79.9428C163.397 80.4632 164.873 79.8782 165.359 78.636Z" fill="#E2E2E2"/>
<path d="M163.785 78.1461C164.118 77.2977 163.649 76.322 162.739 75.9667C161.829 75.6114 160.821 76.0111 160.489 76.8595C160.156 77.7079 160.625 78.6837 161.535 79.039C162.445 79.3943 163.453 78.9945 163.785 78.1461Z" fill="black"/>
<path d="M163.613 77.527C164.057 77.527 164.417 77.3295 164.417 77.0858C164.417 76.8422 164.057 76.6447 163.613 76.6447C163.169 76.6447 162.809 76.8422 162.809 77.0858C162.809 77.3295 163.169 77.527 163.613 77.527Z" fill="white"/>
<path d="M164.121 69.9776C163.652 69.7183 163.114 69.6109 162.581 69.6702C162.409 69.5244 162.207 69.4193 161.988 69.3627C161.813 69.3179 161.631 69.3049 161.451 69.3243C161.241 69.0949 160.993 68.9035 160.717 68.7586C159.612 68.1668 158.326 68.4112 157.848 69.3028C157.371 70.1944 157.88 71.3965 158.986 71.9883C159.182 72.0916 159.389 72.172 159.602 72.2281C159.732 72.9814 160.198 73.5886 160.868 73.7654C161.446 73.9191 162.045 73.7023 162.506 73.2565C163.584 73.7777 164.805 73.5209 165.267 72.6586C165.737 71.77 165.227 70.5695 164.121 69.9776Z" fill="#C4D650"/>
<defs>
<filter id="filter0_d_240_80" x="0" y="0" width="176" height="240" filterUnits="userSpaceOnUse" color-interpolation-filters="sRGB">
<feFlood flood-opacity="0" result="BackgroundImageFix"/>
<feColorMatrix in="SourceAlpha" type="matrix" values="0 0 0 0 0 0 0 0 0 0 0 0 0 0 0 0 0 0 127 0" result="hardAlpha"/>
<feOffset dy="4"/>
<feGaussianBlur stdDeviation="2"/>
<feComposite in2="hardAlpha" operator="out"/>
<feColorMatrix type="matrix" values="0 0 0 0 0 0 0 0 0 0 0 0 0 0 0 0 0 0 0.25 0"/>
<feBlend mode="normal" in2="BackgroundImageFix" result="effect1_dropShadow_240_80"/>
<feBlend mode="normal" in="SourceGraphic" in2="effect1_dropShadow_240_80" result="shape"/>
</filter>
</defs>
</svg>
