<svg width="189" height="153" viewBox="0 0 189 153" fill="none" xmlns="http://www.w3.org/2000/svg">
<g filter="url(#filter0_d_253_143)">
<path d="M4 33.9214C4 17.9052 16.9837 4.92139 33 4.92139H139.057C155.073 4.92139 168.057 17.9051 168.057 33.9214V103.328C168.057 119.344 155.073 132.328 139.057 132.328H33C16.9838 132.328 4 119.344 4 103.328V33.9214Z" fill="#AB9ED3"/>
<path d="M80.9121 79.605C92.7927 79.605 102.424 76.8979 102.424 73.5585C102.424 70.2191 92.7927 67.512 80.9121 67.512C69.0315 67.512 59.4004 70.2191 59.4004 73.5585C59.4004 76.8979 69.0315 79.605 80.9121 79.605Z" fill="#635A8C"/>
<path d="M72.1874 34.5864C73.4559 35.5192 74.3039 36.9159 74.5464 38.4717C74.5464 38.4841 74.5502 38.498 74.5526 38.5112C75.027 41.6019 73.5526 44.105 73.0983 44.819L62.8525 59.8175C60.1967 63.7051 55.0672 64.8237 51.3967 62.3159C47.7253 59.8089 46.9005 54.6236 49.5595 50.7353C49.6199 50.681 52.6734 47.3174 63.1502 35.7391C65.5603 33.0755 69.451 32.5794 72.1874 34.5864Z" fill="#459696"/>
<path d="M86.6061 61.3942C85.4502 60.325 84.7646 58.8418 84.6991 57.2686V57.2283C84.5758 54.1042 86.3223 51.7825 86.8541 51.1244L98.7224 37.3771C101.8 33.8111 107.022 33.2778 110.387 36.1832C113.752 39.0887 113.986 44.3329 110.908 47.8972C110.842 47.9445 107.43 50.943 95.7146 61.2686C93.0224 63.6415 89.1006 63.6973 86.6061 61.3942Z" fill="#459696"/>
<path d="M76.5447 73.1965L70.3431 71.3446C68.5408 70.8058 67.3198 69.3849 67.5206 68.0577L68.3113 62.8035C68.5609 61.1484 70.8632 60.3903 73.04 61.2476L79.778 63.905C81.4966 64.5825 82.5067 66.0415 82.1299 67.3035L80.7997 71.7531C80.3889 73.1291 78.4834 73.7756 76.5447 73.1965Z" fill="#459696"/>
<path d="M86.5837 72.2608L92.2582 70.9329C93.9078 70.5453 95.0597 69.2375 94.9217 67.905L94.3791 62.6336C94.207 60.9716 92.1473 60.0305 90.1504 60.7034L83.9605 62.7802C82.3822 63.3112 81.4201 64.6755 81.7202 65.9585L82.7783 70.4779C83.1054 71.8732 84.8093 72.6724 86.5837 72.2608Z" fill="#459696"/>
<path d="M102.299 47.025C102.222 46.7281 102.043 45.9902 101.601 45.9204C101.573 45.9177 101.545 45.9177 101.516 45.9204C101.492 45.9208 101.468 45.9117 101.45 45.8949C101.432 45.8781 101.421 45.855 101.42 45.8305C101.3 44.2293 101.029 42.6429 100.612 41.0925C100.605 41.0677 100.609 41.0414 100.622 41.0193C100.635 40.9973 100.656 40.9812 100.681 40.9746C100.702 40.9687 100.725 40.9706 100.746 40.9801C101.067 41.1266 101.338 41.1715 101.381 41.1134C101.484 40.9715 100.414 40.0227 100.212 39.7227C100.208 39.7151 100.204 39.707 100.201 39.6987L100.182 39.6413C100.243 39.5731 100.832 40.1304 101.023 39.987C101.178 39.8723 101.028 39.3436 100.746 38.987C100.717 38.9522 100.253 38.3793 99.8929 38.5064C99.8808 38.5113 99.8679 38.5138 99.8549 38.5137C99.8419 38.5136 99.829 38.5109 99.8171 38.5057C99.8051 38.5006 99.7943 38.4932 99.7852 38.4839C99.7761 38.4745 99.769 38.4635 99.7642 38.4514C99.3338 37.2917 98.8238 36.1632 98.2379 35.0738C95.1332 29.3382 87.9153 21.5521 78.3773 21.7598C78.3646 21.7603 78.352 21.7582 78.3401 21.7537C78.3283 21.7492 78.3174 21.7424 78.3082 21.7336C78.2989 21.7249 78.2915 21.7144 78.2864 21.7028C78.2812 21.6912 78.2784 21.6787 78.2781 21.6661C78.2774 21.6514 78.2803 21.6367 78.2866 21.6234C78.5967 20.9536 78.8293 20.2777 78.5882 20.1017C78.3254 19.9095 77.5494 20.3552 77.2409 20.8862C77.1791 20.9921 77.1302 21.1051 77.0952 21.2226C77.05 21.3916 77.0387 21.5679 77.0618 21.7412C77.0632 21.7539 77.0621 21.7668 77.0585 21.779C77.055 21.7912 77.049 21.8027 77.041 21.8126C77.033 21.8225 77.0231 21.8308 77.0119 21.8369C77.0007 21.843 76.9885 21.8469 76.9758 21.8482L76.8076 21.8653C76.7933 21.8667 76.7789 21.8649 76.7655 21.8599C76.752 21.855 76.7399 21.847 76.73 21.8366C76.4843 21.58 76.1796 21.2288 75.9951 21.2994C75.8672 21.349 75.8091 21.5971 75.8269 21.9195C75.8281 21.9427 75.821 21.9656 75.8067 21.9839C75.7925 22.0023 75.7722 22.0149 75.7494 22.0195C63.8889 24.104 59.4137 37.7002 58.947 39.1963C58.8742 39.4289 58.7594 39.7971 58.6292 40.2723C58.3353 41.3681 58.1116 42.4814 57.9594 43.6057C57.9576 43.6183 57.9533 43.6304 57.9468 43.6414C57.9403 43.6524 57.9317 43.662 57.9215 43.6696C57.9112 43.6772 57.8996 43.6828 57.8872 43.6859C57.8749 43.689 57.862 43.6897 57.8494 43.6878C57.8435 43.6873 57.8378 43.686 57.8323 43.6839C57.7071 43.6433 57.5763 43.6224 57.4447 43.6219C56.6695 43.6219 56.0494 44.3816 56.1579 44.601C56.2253 44.7413 56.5703 44.6227 56.947 44.5832C56.9691 44.5808 56.9913 44.586 57.0099 44.5979C57.0286 44.6099 57.0426 44.6279 57.0496 44.649C57.0565 44.67 57.0561 44.6928 57.0483 44.7136C57.0405 44.7343 57.0258 44.7518 57.0067 44.763C56.6966 44.9467 56.4641 45.1956 56.4842 45.3739C56.523 45.6731 57.292 45.7909 57.6656 45.963C57.6833 45.9711 57.6981 45.9842 57.7082 46.0008C57.7183 46.0174 57.7232 46.0367 57.7222 46.056L57.7129 46.2452C57.7121 46.2635 57.7061 46.2812 57.6957 46.2963C57.6853 46.3114 57.6708 46.3232 57.654 46.3305C57.492 46.3995 57.2742 46.4855 57.137 46.7033C56.8432 47.1685 57.0842 47.9832 57.3773 48.0375C57.4334 48.0438 57.4899 48.0294 57.5362 47.9971C57.547 47.9905 57.5591 47.986 57.5716 47.984C57.5842 47.982 57.597 47.9825 57.6094 47.9854C57.6218 47.9884 57.6335 47.9937 57.6438 48.0012C57.6541 48.0087 57.6628 48.0181 57.6695 48.0289C57.6781 48.0435 57.6829 48.0601 57.6835 48.077C57.7478 51.0413 58.3222 54.4584 60.0253 57.7189C60.0313 57.7301 60.0349 57.7423 60.0361 57.7549C60.0373 57.7675 60.036 57.7803 60.0323 57.7924C60.0285 57.8045 60.0224 57.8157 60.0143 57.8255C60.0062 57.8352 59.9962 57.8432 59.985 57.8491C59.9788 57.8528 59.972 57.8554 59.9649 57.8569C59.3083 58.0328 58.7641 58.2615 58.7773 58.329C58.7935 58.4111 59.6548 58.3103 60.2835 58.2987C60.3007 58.2988 60.3176 58.3033 60.3326 58.3118C60.3475 58.3204 60.36 58.3327 60.3687 58.3476C60.4199 58.4375 60.4726 58.5282 60.5238 58.6173C60.5364 58.6384 60.5406 58.6635 60.5354 58.6876C60.5302 58.7116 60.5161 58.7328 60.4959 58.7468C60.278 58.8933 60.0385 59.101 59.93 59.4251C59.8943 59.5313 59.8315 59.7189 59.9129 59.8902C60.0904 60.253 60.868 60.37 61.3858 60.0871C61.4064 60.0763 61.4301 60.0733 61.4528 60.0785C61.4754 60.0838 61.4954 60.097 61.5091 60.1158C61.547 60.1677 61.5866 60.2204 61.6238 60.2708L61.6439 60.2987C61.6553 60.3135 61.6621 60.3313 61.6635 60.3499C61.6649 60.3685 61.6608 60.3871 61.6517 60.4034C61.3726 60.922 61.3656 61.546 61.4881 61.6127C61.5974 61.6732 61.816 61.2825 62.1346 61.0615C62.1547 61.0475 62.1794 61.0416 62.2036 61.0449C62.2279 61.0482 62.25 61.0605 62.2656 61.0793C63.1779 62.1669 64.2141 63.1441 65.3533 63.991C65.3634 63.9984 65.3721 64.0078 65.3786 64.0186C65.3851 64.0294 65.3895 64.0414 65.3913 64.0538C65.3932 64.0663 65.3926 64.079 65.3895 64.0913C65.3864 64.1035 65.381 64.115 65.3734 64.1251C65.3645 64.1373 65.3528 64.1471 65.3393 64.1538C65.1415 64.2508 64.9819 64.4113 64.8858 64.6096C64.7626 64.8739 64.7308 65.2817 64.8998 65.3848C65.1819 65.5522 65.7734 64.7282 66.0626 64.8825C66.3998 65.0623 65.8928 66.3453 66.0897 66.4282C66.2401 66.4918 66.8951 65.8933 66.937 65.2142C66.9388 65.1888 66.9505 65.1651 66.9697 65.1483C66.9888 65.1314 67.0139 65.1228 67.0393 65.1243C67.0543 65.1254 67.0689 65.1299 67.0819 65.1375C74.0161 69.2088 82.068 68.1887 82.5239 68.1236C83.768 67.9453 90.5402 66.8631 95.7293 61.6119C95.7382 61.6029 95.7488 61.5958 95.7604 61.5909C95.772 61.5861 95.7845 61.5836 95.7971 61.5836C95.8098 61.5836 95.8223 61.5861 95.8339 61.5909C95.8455 61.5958 95.8561 61.6029 95.865 61.6119C95.8754 61.6218 95.8834 61.634 95.8882 61.6476C95.9135 61.7191 95.9444 61.7886 95.9805 61.8553C96.0285 61.9437 96.2301 62.3142 96.4805 62.2987C96.713 62.2832 96.9347 61.9344 96.9285 61.6468C96.9285 61.5646 96.9076 61.5569 96.8123 61.1127C96.7611 60.8747 96.7611 60.8499 96.7766 60.822C96.903 60.5933 97.6696 60.9274 97.7844 60.7375C97.8348 60.6514 97.7169 60.5189 97.2689 59.9917C97.255 59.9745 97.2474 59.953 97.2474 59.9309C97.2474 59.9088 97.255 59.8873 97.2689 59.87C97.8995 59.0621 98.4671 58.2069 98.9665 57.3119L98.9758 57.2956C99.0534 57.6879 99.1456 57.9607 99.1929 57.9576C99.2704 57.953 99.2859 57.2227 99.3425 56.6196C99.344 56.6078 99.3474 56.5963 99.3526 56.5855C99.4296 56.4341 99.5035 56.283 99.5743 56.132C99.5818 56.115 99.5941 56.1004 99.6097 56.0903C99.6254 56.0801 99.6436 56.0746 99.6623 56.0746C99.6809 56.0746 99.6992 56.0801 99.7148 56.0903C99.7304 56.1004 99.7428 56.115 99.7503 56.132C99.8673 56.3956 100.043 56.7662 100.431 56.9545C100.531 57.0034 100.708 57.0902 100.885 57.0321C101.294 56.8956 101.514 56.0452 101.225 55.4879C101.04 55.1289 100.683 54.9662 100.249 54.8111C100.225 54.8025 100.205 54.7847 100.194 54.7616C100.183 54.7385 100.181 54.712 100.19 54.6879C100.854 52.9311 101.266 51.089 101.412 49.2165C101.414 49.191 101.427 49.1674 101.446 49.1507C101.465 49.134 101.491 49.1257 101.516 49.1274C101.538 49.129 101.558 49.1378 101.574 49.1522C101.743 49.3072 101.88 49.3894 101.929 49.3638C102.016 49.3188 101.832 48.9351 101.701 47.7119C101.632 47.0708 101.664 47.0072 101.686 47.0018C101.793 46.9785 102.074 48.3436 102.26 48.3196C102.384 48.3072 102.453 47.6429 102.299 47.025Z" fill="#4EADAF"/>
<path d="M62.6567 51.5946C66.2794 51.326 69.0648 49.0648 68.8779 46.544C68.691 44.0233 65.6027 42.1975 61.9799 42.4661C58.3572 42.7347 55.5719 44.9959 55.7588 47.5166C55.9457 50.0374 59.034 51.8631 62.6567 51.5946Z" fill="#E37A39"/>
<path d="M96.895 49.3282C100.518 49.0596 103.303 46.7984 103.116 44.2777C102.929 41.7569 99.841 39.9311 96.2182 40.1997C92.5955 40.4683 89.8102 42.7295 89.9971 45.2503C90.184 47.771 93.2723 49.5968 96.895 49.3282Z" fill="#E37A39"/>
<path d="M67.424 43.6948C71.7132 43.3768 74.9448 39.8077 74.642 35.723C74.3391 31.6383 70.6166 28.5848 66.3273 28.9027C62.0381 29.2207 58.8065 32.7898 59.1094 36.8745C59.4122 40.9592 63.1348 44.0127 67.424 43.6948Z" fill="#E2E2E2"/>
<path d="M69.0538 39.7698C71.9819 39.5527 74.188 37.1162 73.9812 34.3278C73.7745 31.5393 71.2332 29.4548 68.3052 29.6719C65.3771 29.889 63.171 32.3254 63.3777 35.1139C63.5845 37.9024 66.1257 39.9869 69.0538 39.7698Z" fill="black"/>
<path d="M65.4578 38.7248C65.6513 37.9984 64.7565 37.1292 63.4592 36.7835C62.1618 36.4379 60.9532 36.7465 60.7597 37.473C60.5661 38.1994 61.4609 39.0686 62.7582 39.4142C64.0556 39.7599 65.2642 39.4513 65.4578 38.7248Z" fill="white"/>
<path d="M91.64 42.5107C95.9292 42.1927 99.1656 38.688 98.8686 34.6827C98.5717 30.6774 94.8539 27.6883 90.5646 28.0063C86.2754 28.3242 83.0391 31.829 83.336 35.8342C83.6329 39.8395 87.3508 42.8287 91.64 42.5107Z" fill="#E2E2E2"/>
<path d="M89.0221 38.9062C91.9502 38.6891 94.1596 36.2966 93.9569 33.5624C93.7541 30.8281 91.2161 28.7876 88.2881 29.0046C85.36 29.2217 83.1507 31.6142 83.3534 34.3485C83.5561 37.0827 86.0941 39.1233 89.0221 38.9062Z" fill="black"/>
<path d="M95.1767 36.4363C96.3795 35.8593 97.0974 34.8555 96.7802 34.1942C96.4629 33.533 95.2307 33.4648 94.0279 34.0418C92.8252 34.6189 92.1073 35.6227 92.4245 36.2839C92.7417 36.9451 93.9739 37.0134 95.1767 36.4363Z" fill="white"/>
<path d="M86.005 27.2536C85.6558 27.1476 85.3129 27.0218 84.9779 26.8769C84.642 26.7332 84.3136 26.5738 83.9926 26.3986C83.3491 26.046 82.7388 25.6358 82.1694 25.173C81.8841 24.9405 81.6105 24.6947 81.3477 24.4374L81.1523 24.2412C81.088 24.1753 81.026 24.1071 80.9632 24.0397C80.9322 24.0063 80.9004 23.973 80.8694 23.9381L80.7787 23.8342L80.6903 23.7335L80.6446 23.6808L80.6221 23.6552L80.6004 23.628L80.4252 23.4141L80.3825 23.3598C80.3686 23.342 80.3539 23.3234 80.3407 23.3048L80.257 23.1908L80.1717 23.0815L80.1298 23.0265L80.0903 22.9699L79.9306 22.7428L79.8911 22.6862C79.8787 22.6676 79.8663 22.6474 79.8539 22.628L79.7763 22.5118L79.6988 22.3955L79.6616 22.3373C79.6492 22.318 79.6376 22.2978 79.6259 22.2784C79.5322 22.1234 79.4345 21.9621 79.3492 21.7986C79.305 21.7211 79.2608 21.6373 79.2182 21.5552L79.0957 21.3071L79.0353 21.1823C79.0151 21.1404 78.9965 21.0986 78.9771 21.0559L78.9205 20.9304L78.8926 20.8676C78.8825 20.8466 78.8732 20.8257 78.8647 20.804L78.7601 20.5482C78.7515 20.5265 78.7422 20.5056 78.7337 20.4838L78.7097 20.4195L78.6608 20.2901L78.6213 20.1598L78.5763 20.0296L78.5321 19.8986L78.5097 19.8327L78.4895 19.7668L78.412 19.5025L78.3345 19.2373C78.3213 19.1931 78.3112 19.149 78.2996 19.104L78.267 18.9691L78.2515 18.9024C78.2461 18.88 78.2407 18.8575 78.236 18.835L78.2073 18.7001L78.1787 18.5645C78.1694 18.5195 78.1616 18.4745 78.1531 18.4288C78.1368 18.3381 78.1182 18.2482 78.1058 18.1567L78.0849 18.0211C78.0779 17.9753 78.0701 17.9296 78.0647 17.8838C78.0539 17.7931 78.0407 17.7017 78.0306 17.6102C77.9485 16.8807 77.936 16.1451 77.9934 15.4133C78.0228 15.0489 78.0709 14.6854 78.1306 14.328C78.1933 13.969 78.2756 13.6137 78.3771 13.2637C78.2609 13.9778 78.1995 14.6998 78.1934 15.4234C78.1865 16.1419 78.2383 16.8598 78.3484 17.5699C78.4578 18.2752 78.6269 18.9699 78.8539 19.6466C78.9694 19.9838 79.0957 20.3172 79.2415 20.6443C79.2771 20.7218 79.3151 20.8063 79.3515 20.8877C79.3701 20.928 79.388 20.9691 79.4073 21.0087L79.467 21.1288L79.5864 21.3683C79.6283 21.4459 79.6717 21.5234 79.7143 21.6009C79.7965 21.7559 79.8903 21.911 79.9794 22.066C79.9911 22.0854 80.0019 22.1048 80.0135 22.1234L80.05 22.18L80.1221 22.2924L80.1934 22.4056L80.2298 22.4622L80.267 22.5172L80.4182 22.7381L80.4554 22.7932L80.4957 22.8474L80.5732 22.9552C80.6763 23.1001 80.7887 23.2389 80.898 23.38L80.919 23.4063L80.9399 23.4319L80.9825 23.4831L81.0678 23.5862L81.1531 23.6893L81.2422 23.7893L81.3306 23.8893C81.3608 23.9226 81.3895 23.9567 81.4198 23.9893L81.6035 24.1846L81.6492 24.2335L81.6965 24.2808L81.7911 24.3761L81.8856 24.4707C81.9011 24.487 81.9182 24.5017 81.9345 24.5172L81.9825 24.5637L82.0802 24.6567L82.1298 24.7032L82.1546 24.7265L82.1794 24.749L82.3787 24.9288C82.9173 25.4047 83.4919 25.8383 84.0973 26.2257C84.706 26.6165 85.3438 26.9602 86.005 27.2536Z" fill="#29ABE2"/>
<path d="M80.7512 25.1289C80.6794 25.0034 80.6147 24.874 80.5574 24.7413C80.5001 24.609 80.4484 24.4736 80.4024 24.3351C80.3574 24.1971 80.3179 24.0568 80.2869 23.9149C80.2683 23.8444 80.2566 23.773 80.2427 23.7017C80.2357 23.6661 80.2311 23.6296 80.2249 23.594L80.2078 23.4854C80.1688 23.1959 80.153 22.9038 80.1605 22.6118C80.1605 22.4653 80.1737 22.3195 80.1884 22.1738L80.2008 22.0645C80.2055 22.0281 80.2078 21.9916 80.214 21.9552L80.2481 21.7381C80.3547 21.1616 80.5331 20.6006 80.7791 20.0684C81.0248 19.5379 81.3213 19.0324 81.6644 18.5591C81.7481 18.4397 81.838 18.3265 81.9264 18.2095C81.9714 18.1521 82.0179 18.0963 82.0628 18.0397C82.0861 18.011 82.1086 17.9823 82.1318 17.9544L82.2032 17.8722L82.2745 17.7893L82.3101 17.7474L82.3458 17.7071L82.4915 17.5451C82.5404 17.4908 82.5908 17.4389 82.6404 17.3854C82.6652 17.3591 82.69 17.3319 82.7179 17.3079L82.7954 17.2304C82.8962 17.1265 83.0016 17.0265 83.1055 16.925L83.2652 16.7769L83.3047 16.7397L83.345 16.704L83.4264 16.6312C83.6435 16.4389 83.866 16.2534 84.0939 16.0746C84.5496 15.7188 85.0248 15.3886 85.5171 15.0854C85.7636 14.935 86.0125 14.7901 86.2667 14.6544C86.3939 14.5854 86.5218 14.5195 86.6505 14.4544C86.7791 14.3893 86.9086 14.3273 87.0381 14.2676C86.9156 14.3451 86.7931 14.4226 86.6729 14.5001C86.6117 14.5381 86.552 14.5777 86.4915 14.6156C86.4311 14.6536 86.3706 14.6932 86.3109 14.7335C86.0722 14.8924 85.8357 15.0529 85.6032 15.2203C85.1381 15.5531 84.6877 15.904 84.252 16.273L84.09 16.4125L83.9303 16.5544C83.8768 16.6017 83.8249 16.6498 83.7753 16.6978L83.6977 16.7699L83.6202 16.8436C83.5156 16.9405 83.4148 17.0405 83.3101 17.1397C83.2055 17.2389 83.1101 17.3412 83.0132 17.4451C82.9644 17.497 82.9156 17.5482 82.8675 17.6001C82.8194 17.6521 82.7722 17.7048 82.7241 17.7552L82.5846 17.9149L82.5497 17.9552L82.5156 17.9963L82.4473 18.0777L82.3791 18.1598L82.3125 18.242L82.1799 18.4079C82.0946 18.5211 82.0078 18.6327 81.9272 18.749C81.8466 18.8653 81.7652 18.9815 81.6846 19.0971L81.5714 19.2761C81.5334 19.3358 81.4939 19.3947 81.4597 19.456L81.352 19.6381L81.3249 19.6839L81.2993 19.7304L81.2497 19.8234L81.1993 19.9164L81.1737 19.9629C81.1652 19.9784 81.1582 19.994 81.1504 20.0102L81.0559 20.1994L81.0326 20.2467L81.0101 20.2947L80.9667 20.3909C80.938 20.4552 80.9078 20.5195 80.8822 20.5847L80.8047 20.7808L80.7318 20.9785C80.7063 21.0443 80.6861 21.111 80.6644 21.1785L80.6326 21.2792C80.6264 21.2963 80.6218 21.3126 80.6171 21.3296L80.6032 21.3808L80.5745 21.4823C80.5652 21.5164 80.5543 21.5498 80.5473 21.5847L80.4977 21.7893C80.3752 22.3413 80.3311 22.9079 80.3667 23.4723L80.376 23.5777C80.376 23.6133 80.3807 23.6482 80.3853 23.6839C80.3938 23.7537 80.4016 23.825 80.4125 23.8947C80.4318 24.0351 80.459 24.1746 80.49 24.3141C80.521 24.4537 80.559 24.5909 80.6024 24.7273C80.6233 24.7955 80.6473 24.863 80.6714 24.9304C80.6954 24.9978 80.7233 25.0645 80.7512 25.1289Z" fill="#29ABE2"/>
<path d="M91.4705 15.122L90.6294 14.6375L91.2426 13.7848C91.2965 13.7111 91.3286 13.6237 91.3353 13.5326C91.342 13.4415 91.3229 13.3504 91.2804 13.2696C91.2378 13.1888 91.1734 13.1216 91.0945 13.0757C91.0156 13.0297 90.9253 13.0068 90.834 13.0096L89.5821 13.0453L89.4984 11.9987C89.4911 11.908 89.4585 11.8211 89.4044 11.7479C89.3503 11.6747 89.2767 11.6181 89.1921 11.5846C89.1075 11.551 89.0151 11.5418 88.9256 11.558C88.836 11.5742 88.7527 11.6152 88.6852 11.6763L88.1123 12.1941L87.5224 11.3871C87.4687 11.3137 87.3955 11.2568 87.3112 11.2228C87.2268 11.1888 87.1347 11.1791 87.0451 11.1948C86.9555 11.2104 86.8721 11.2508 86.8042 11.3114C86.7364 11.3719 86.6868 11.4503 86.6612 11.5375L86.2736 12.8654L85.1146 12.5894C85.0253 12.5669 84.9313 12.5702 84.8437 12.5989C84.7561 12.6277 84.6785 12.6807 84.6199 12.7518C84.5613 12.823 84.524 12.9093 84.5125 13.0008C84.501 13.0922 84.5157 13.1851 84.555 13.2685L84.8557 13.9422L84.0953 14.1925C84.0087 14.2206 83.9316 14.2723 83.873 14.3419C83.8143 14.4115 83.7763 14.4961 83.7633 14.5862C83.7503 14.6763 83.7628 14.7682 83.7994 14.8516C83.8361 14.9349 83.8953 15.0063 83.9705 15.0577L85.0301 15.7825L84.3177 16.9499C84.2706 17.0274 84.2459 17.1165 84.2466 17.2072C84.2473 17.2978 84.2733 17.3866 84.3216 17.4633C84.3699 17.5401 84.4387 17.6018 84.5202 17.6416C84.6016 17.6814 84.6926 17.6977 84.7829 17.6887L85.6914 17.5918V18.3174C85.6911 18.4086 85.7165 18.498 85.7645 18.5756C85.8125 18.6531 85.8814 18.7156 85.9632 18.756C86.045 18.7964 86.1365 18.813 86.2272 18.804C86.318 18.795 86.4044 18.7607 86.4767 18.705L87.3395 18.0391L88.2085 19.0522C88.2675 19.1214 88.3448 19.1726 88.4315 19.2001C88.5182 19.2275 88.6109 19.2301 88.699 19.2076C88.7872 19.1851 88.8672 19.1384 88.9301 19.0727C88.993 19.007 89.0363 18.925 89.055 18.836L89.2743 17.8019L90.11 18.0701C90.1965 18.0978 90.2891 18.1009 90.3772 18.0788C90.4654 18.0568 90.5456 18.0105 90.6089 17.9453C90.6721 17.8801 90.7159 17.7985 90.7353 17.7098C90.7547 17.621 90.7489 17.5286 90.7185 17.4429L90.3588 16.4352L91.41 15.9972C91.4949 15.963 91.5685 15.9056 91.6223 15.8316C91.6761 15.7575 91.7079 15.6698 91.7142 15.5785C91.7206 15.4872 91.701 15.396 91.6579 15.3153C91.6148 15.2345 91.5499 15.1676 91.4705 15.122Z" fill="#F4BE38"/>
<path opacity="0.47" d="M82.7627 13.1686L81.6558 12.5314L82.4627 11.4136C82.5316 11.3165 82.5722 11.2023 82.5798 11.0835C82.5875 10.9647 82.562 10.8462 82.5062 10.7411C82.4504 10.636 82.3665 10.5485 82.2638 10.4883C82.1611 10.4281 82.0437 10.3977 81.9248 10.4004L80.2767 10.4469L80.1658 9.07017C80.1562 8.95082 80.1133 8.83655 80.0421 8.74027C79.9709 8.64399 79.8742 8.56955 79.763 8.52536C79.6517 8.48116 79.5302 8.46898 79.4124 8.49019C79.2945 8.5114 79.185 8.56515 79.0961 8.64537L78.341 9.32676L77.5658 8.26474C77.4953 8.16758 77.3989 8.09216 77.2876 8.04704C77.1764 8.00192 77.0547 7.98892 76.9364 8.00951C76.8181 8.0301 76.7079 8.08346 76.6184 8.16352C76.529 8.24358 76.4637 8.34714 76.4302 8.46242L75.9178 10.2066L74.393 9.84304C74.2766 9.81583 74.155 9.82163 74.0418 9.8598C73.9285 9.89796 73.8282 9.96696 73.7521 10.059C73.6759 10.1511 73.627 10.2626 73.6108 10.381C73.5946 10.4994 73.6118 10.6199 73.6604 10.7291L74.0565 11.6159L73.055 11.9446C72.9414 11.9821 72.8406 12.0505 72.7638 12.1423C72.6871 12.234 72.6375 12.3453 72.6207 12.4637C72.6038 12.5821 72.6204 12.7029 72.6685 12.8123C72.7166 12.9218 72.7943 13.0157 72.8929 13.0834L74.2883 14.0376L73.3503 15.5741C73.2879 15.6762 73.2554 15.7938 73.2563 15.9135C73.2572 16.0332 73.2916 16.1502 73.3555 16.2514C73.4194 16.3526 73.5104 16.4339 73.6181 16.4861C73.7258 16.5384 73.846 16.5594 73.965 16.5469L75.1619 16.419V17.3749C75.1624 17.4945 75.1963 17.6117 75.2598 17.7131C75.3234 17.8145 75.414 17.8962 75.5214 17.9488C75.6289 18.0015 75.749 18.023 75.868 18.011C75.9871 17.9991 76.1004 17.954 76.1953 17.8811L77.3309 17.0051L78.4751 18.3392C78.553 18.4302 78.6548 18.4977 78.769 18.5338C78.8832 18.5699 79.0053 18.5733 79.1213 18.5436C79.2374 18.5139 79.3428 18.4523 79.4256 18.3658C79.5084 18.2792 79.5653 18.1712 79.5899 18.0539L79.8775 16.6919L80.9775 17.0462C81.0915 17.0829 81.2135 17.087 81.3297 17.0581C81.4459 17.0291 81.5517 16.9681 81.6351 16.8822C81.7185 16.7962 81.7762 16.6886 81.8016 16.5715C81.8271 16.4545 81.8192 16.3326 81.779 16.2198L81.3054 14.8965L82.6891 14.3206C82.8007 14.2751 82.8972 14.1992 82.9677 14.1014C83.0381 14.0036 83.0795 13.888 83.0872 13.7677C83.0949 13.6474 83.0685 13.5275 83.0111 13.4215C82.9537 13.3155 82.8677 13.2279 82.7627 13.1686Z" fill="#F4BE38"/>
<path opacity="0.47" d="M92.8418 15.2064L91.7349 14.5684L92.5418 13.4506C92.6121 13.3532 92.6536 13.2381 92.6617 13.1183C92.6698 12.9985 92.6442 12.8788 92.5876 12.7728C92.5311 12.6669 92.446 12.5789 92.342 12.519C92.238 12.459 92.1192 12.4294 91.9992 12.4335L90.3511 12.4808L90.2403 11.1033C90.2305 10.9841 90.1877 10.87 90.1165 10.7738C90.0454 10.6777 89.9488 10.6033 89.8376 10.5592C89.7265 10.515 89.6052 10.5028 89.4874 10.5238C89.3697 10.5449 89.2602 10.5985 89.1713 10.6785L88.4163 11.3599L87.6411 10.2978C87.5705 10.2011 87.4743 10.126 87.3632 10.0811C87.2522 10.0363 87.1308 10.0234 87.0129 10.044C86.8949 10.0645 86.785 10.1177 86.6958 10.1976C86.6065 10.2774 86.5413 10.3806 86.5077 10.4955L85.9945 12.2444L84.469 11.8808C84.3523 11.8536 84.2304 11.8595 84.117 11.8979C84.0036 11.9363 83.9032 12.0057 83.8271 12.0982C83.7511 12.1907 83.7024 12.3026 83.6867 12.4213C83.6709 12.5401 83.6887 12.6608 83.7379 12.7699L84.1325 13.656L83.1302 13.9847C83.0153 14.0215 82.9131 14.0899 82.8353 14.1821C82.7576 14.2743 82.7073 14.3865 82.6904 14.506C82.6735 14.6254 82.6906 14.7472 82.7397 14.8574C82.7888 14.9675 82.868 15.0616 82.9682 15.1289L84.3635 16.0824L83.4279 17.6149C83.3656 17.7171 83.3332 17.8347 83.3343 17.9543C83.3353 18.074 83.3698 18.191 83.4338 18.2921C83.4978 18.3932 83.5888 18.4743 83.6965 18.5265C83.8042 18.5786 83.9244 18.5996 84.0434 18.587L85.2372 18.4622V19.4173C85.2375 19.537 85.2713 19.6543 85.3348 19.7558C85.3982 19.8573 85.4888 19.9391 85.5963 19.9918C85.7038 20.0446 85.8239 20.0662 85.9431 20.0542C86.0622 20.0423 86.1756 19.9973 86.2705 19.9242L87.4069 19.0475L88.5504 20.3816C88.6282 20.4726 88.7299 20.5401 88.8441 20.5763C88.9582 20.6124 89.0802 20.6159 89.1963 20.5863C89.3123 20.5567 89.4177 20.4952 89.5006 20.4087C89.5835 20.3222 89.6404 20.2143 89.6651 20.0971L89.9542 18.7351L91.055 19.0893C91.169 19.1259 91.2909 19.1299 91.407 19.1008C91.5231 19.0717 91.6287 19.0108 91.712 18.9248C91.7953 18.8389 91.8529 18.7314 91.8783 18.6144C91.9037 18.4975 91.8959 18.3757 91.8558 18.263L91.3822 16.9358L92.7659 16.3599C92.8778 16.3146 92.9747 16.2388 93.0454 16.141C93.1162 16.0432 93.1579 15.9274 93.1658 15.807C93.1738 15.6865 93.1476 15.5663 93.0903 15.4601C93.033 15.3538 92.9469 15.2659 92.8418 15.2064Z" fill="#F4BE38"/>
<path d="M81.4697 13.211L80.6286 12.7257L81.2418 11.873C81.296 11.7994 81.3284 11.712 81.3352 11.6208C81.3421 11.5296 81.3231 11.4383 81.2804 11.3574C81.2378 11.2765 81.1732 11.2092 81.0942 11.1633C81.0151 11.1174 80.9246 11.0947 80.8332 11.0978L79.5813 11.1335L79.4968 10.087C79.4897 9.99623 79.4573 9.9093 79.4032 9.83605C79.3492 9.76281 79.2757 9.70618 79.1911 9.6726C79.1065 9.63901 79.0142 9.62982 78.9246 9.64607C78.835 9.66231 78.7518 9.70334 78.6844 9.76449L78.1108 10.2815L77.5208 9.48232C77.4671 9.40894 77.394 9.35204 77.3096 9.31805C77.2253 9.28406 77.1331 9.27434 77.0435 9.28998C76.9539 9.30563 76.8705 9.34601 76.8026 9.40657C76.7348 9.46714 76.6853 9.54547 76.6596 9.63271L76.272 10.9606L75.1139 10.6847C75.0253 10.6633 74.9326 10.6672 74.8462 10.6959C74.7598 10.7246 74.6832 10.777 74.625 10.8471C74.5669 10.9172 74.5296 11.0022 74.5173 11.0924C74.5051 11.1826 74.5184 11.2745 74.5557 11.3575L74.8542 12.0281L74.0937 12.2777C74.0065 12.3056 73.9289 12.3576 73.8698 12.4276C73.8107 12.4976 73.7726 12.5829 73.7597 12.6735C73.7469 12.7642 73.7598 12.8567 73.7971 12.9404C73.8343 13.0241 73.8944 13.0956 73.9704 13.1467L75.0301 13.8715L74.3177 15.0343C74.2706 15.1117 74.2459 15.2008 74.2466 15.2915C74.2473 15.3822 74.2732 15.4709 74.3216 15.5477C74.3699 15.6244 74.4386 15.6862 74.5201 15.726C74.6016 15.7658 74.6926 15.7821 74.7828 15.773L75.6914 15.6761V16.4025C75.6911 16.4937 75.7164 16.5832 75.7645 16.6607C75.8125 16.7383 75.8814 16.8008 75.9632 16.8411C76.045 16.8815 76.1364 16.8981 76.2272 16.8891C76.318 16.8801 76.4044 16.8458 76.4766 16.7901L77.3394 16.1242L78.2077 17.1382C78.2669 17.2072 78.3443 17.2584 78.4311 17.2858C78.5179 17.3131 78.6106 17.3157 78.6988 17.2931C78.787 17.2705 78.867 17.2237 78.93 17.158C78.9929 17.0922 79.0362 17.0102 79.0549 16.9211L79.2736 15.887L80.1092 16.156C80.1958 16.1838 80.2885 16.1869 80.3767 16.1648C80.465 16.1428 80.5453 16.0964 80.6086 16.0311C80.6719 15.9658 80.7157 15.8841 80.735 15.7952C80.7542 15.7063 80.7483 15.6138 80.7177 15.5281L80.3588 14.5203L81.4123 14.0831C81.4962 14.0482 81.5687 13.9906 81.6216 13.9167C81.6745 13.8428 81.7057 13.7556 81.7117 13.6649C81.7177 13.5742 81.6982 13.4836 81.6554 13.4034C81.6126 13.3232 81.5483 13.2566 81.4697 13.211Z" fill="#F4BE38"/>
<path d="M74.4391 20.6483C74.6283 19.8669 74.4624 18.6056 72.5128 16.6366C72.4389 16.5615 72.3835 16.4703 72.3506 16.3702C72.3178 16.2701 72.3086 16.1638 72.3236 16.0595C72.3386 15.9552 72.3774 15.8558 72.4371 15.769C72.4968 15.6822 72.5758 15.6104 72.6678 15.5591C72.7635 15.506 72.8706 15.4767 72.98 15.4734C73.0894 15.4702 73.198 15.4933 73.2966 15.5406C73.3953 15.588 73.4812 15.6583 73.5471 15.7457C73.613 15.833 73.6571 15.9349 73.6755 16.0428C74.1407 18.6886 75.1934 19.9188 76.1019 20.5459C80.9019 23.8793 90.8531 16.9669 97.9276 19.3382C98.5718 19.5545 100.379 20.1599 100.476 21.1987C100.579 22.3149 98.6438 23.3196 98.3221 23.487C93.6989 25.8901 87.7151 22.6723 87.4012 23.3963C87.0872 24.1204 93.1648 26.656 92.7826 28.3475C92.543 29.4057 89.7981 30.0467 87.3709 29.6553C82.5546 28.8801 80.1213 24.2204 78.8081 24.9692C78.0763 25.3863 78.8492 26.8212 78.1104 29.3925C77.9833 29.8336 76.8306 33.8313 74.5701 33.9909C72.8593 34.1119 70.9383 32.0041 70.7771 29.984C70.5546 27.1932 73.7422 25.2305 73.2228 24.5491C72.8352 24.0452 70.6647 24.5669 69.0709 25.987C66.6639 28.1281 67.5089 30.5731 65.591 31.5561C63.7189 32.5142 61.0771 31.1243 59.8003 30.1057C58.8623 29.3568 57.7329 28.4553 57.8329 27.5157C58.1817 24.194 73.3569 25.1188 74.4391 20.6483Z" fill="#C4D650"/>
<path d="M111.349 40.4766L108.164 41.9482C107.135 42.4234 106.687 43.6422 107.162 44.6706L108.47 47.5009C108.945 48.5293 110.164 48.9777 111.192 48.5025L114.377 47.0309C115.406 46.5557 115.854 45.3369 115.379 44.3085L114.071 41.4782C113.596 40.4498 112.377 40.0014 111.349 40.4766Z" fill="#C4D650"/>
<path d="M100.719 30.6049L100.8 22.9909C100.798 22.809 100.849 22.6305 100.949 22.4782C101.048 22.3259 101.191 22.2067 101.359 22.1359C101.526 22.0652 101.711 22.046 101.889 22.081C102.068 22.1159 102.232 22.2033 102.361 22.332L107.758 27.4142C108.267 27.8925 108.158 28.732 107.551 29.0126L102.071 31.5444C101.442 31.8351 100.715 31.3305 100.719 30.6049Z" fill="#E37A39"/>
<path d="M106.801 27.3645L106.779 27.5343C106.772 27.5851 106.753 27.6334 106.723 27.675C106.693 27.7166 106.654 27.7501 106.607 27.7725C106.561 27.7949 106.51 27.8056 106.459 27.8035C106.408 27.8014 106.358 27.7867 106.314 27.7607L106.17 27.6754C106.125 27.6491 106.074 27.6346 106.022 27.6332C105.97 27.6317 105.918 27.6435 105.872 27.6673C105.826 27.6911 105.786 27.7262 105.757 27.7693C105.728 27.8125 105.71 27.8623 105.705 27.9141L105.659 28.4374C105.658 28.4538 105.653 28.4698 105.644 28.4834C105.635 28.4971 105.622 28.508 105.607 28.5149C105.592 28.5218 105.576 28.5245 105.56 28.5227C105.543 28.5209 105.528 28.5147 105.515 28.5048L105.063 28.1521C105.025 28.1231 104.98 28.1034 104.933 28.0946C104.885 28.0857 104.837 28.088 104.79 28.1013C104.744 28.1145 104.702 28.1383 104.666 28.1708C104.631 28.2033 104.603 28.2436 104.586 28.2886L104.443 28.6723C104.424 28.7203 104.394 28.7629 104.355 28.7964C104.316 28.8299 104.27 28.8532 104.22 28.8642C104.169 28.8752 104.117 28.8735 104.068 28.8594C104.018 28.8452 103.973 28.819 103.937 28.7831C103.899 28.7464 103.853 28.7199 103.802 28.706C103.751 28.6921 103.698 28.6913 103.647 28.7037C103.596 28.7161 103.549 28.7413 103.51 28.7769C103.471 28.8124 103.442 28.8573 103.426 28.9072L103.305 29.2808C103.291 29.3233 103.267 29.3622 103.237 29.3949C103.206 29.4276 103.168 29.4532 103.127 29.47C103.085 29.4868 103.041 29.4944 102.996 29.4922C102.951 29.4901 102.907 29.4782 102.868 29.4576L102.539 29.2839C102.496 29.2615 102.448 29.2496 102.4 29.249C102.351 29.2484 102.303 29.2592 102.259 29.2805C102.216 29.3019 102.178 29.3332 102.149 29.3718C102.119 29.4105 102.1 29.4556 102.091 29.5033L102.038 29.8072C102.03 29.8533 102.012 29.897 101.985 29.935C101.957 29.9731 101.922 30.0044 101.881 30.0268C101.84 30.0492 101.794 30.062 101.747 30.0642C101.701 30.0664 101.654 30.0581 101.611 30.0397L101.21 29.8645C101.166 29.8459 101.119 29.8375 101.071 29.8402C101.024 29.8429 100.977 29.8565 100.936 29.8799C100.894 29.9034 100.859 29.9361 100.832 29.9755C100.805 30.0149 100.788 30.06 100.781 30.1072L100.704 30.6994C100.696 30.757 100.705 30.8157 100.73 30.8684L105.939 42.1444C106.07 42.427 106.255 42.6811 106.484 42.892C106.713 43.103 106.981 43.2667 107.274 43.3738C107.566 43.481 107.877 43.5294 108.188 43.5164C108.499 43.5033 108.805 43.4291 109.087 43.2979L112.042 41.9328C112.59 41.6795 113.016 41.2186 113.225 40.6517C113.433 40.0847 113.408 39.4581 113.155 38.9095L107.909 27.5614C107.882 27.5016 107.836 27.4524 107.778 27.4211L107.255 27.1335C107.211 27.1098 107.162 27.097 107.112 27.0965C107.062 27.0959 107.012 27.1074 106.968 27.1301C106.923 27.1528 106.884 27.186 106.855 27.2268C106.826 27.2677 106.808 27.3149 106.801 27.3645Z" fill="#F4BE38"/>
<path d="M107.431 29.9128L113.874 44.24" stroke="black" stroke-width="0.1" stroke-miterlimit="10" stroke-linecap="round"/>
<path d="M106.309 29.9128L112.752 44.24" stroke="black" stroke-width="0.1" stroke-miterlimit="10" stroke-linecap="round"/>
<path d="M105.187 29.9128L111.63 44.24" stroke="black" stroke-width="0.1" stroke-miterlimit="10" stroke-linecap="round"/>
<path d="M104.065 29.9128L110.508 44.24" stroke="black" stroke-width="0.1" stroke-miterlimit="10" stroke-linecap="round"/>
<path d="M102.942 29.9128L109.385 44.24" stroke="black" stroke-width="0.1" stroke-miterlimit="10" stroke-linecap="round"/>
<path d="M101.821 29.9128L108.263 44.24" stroke="black" stroke-width="0.1" stroke-miterlimit="10" stroke-linecap="round"/>
<path d="M112.296 39.5008L106.808 42.0371C106.073 42.3765 105.753 43.2471 106.092 43.9816L106.173 44.1561C106.512 44.8907 107.383 45.211 108.117 44.8716L113.606 42.3354C114.341 41.996 114.661 41.1253 114.322 40.3908L114.241 40.2163C113.902 39.4817 113.031 39.1614 112.296 39.5008Z" fill="#4EADAF"/>
<path d="M106.807 16.8408C108.954 16.8408 110.694 15.1006 110.694 12.954C110.694 10.8073 108.954 9.06714 106.807 9.06714C104.661 9.06714 102.92 10.8073 102.92 12.954C102.92 15.1006 104.661 16.8408 106.807 16.8408Z" fill="#4EADAF"/>
<path d="M109.074 9.54768C109.172 9.51385 109.258 9.45083 109.319 9.36706C109.343 9.32985 109.406 9.23295 109.373 9.16241C109.322 9.05466 109.063 9.0376 108.865 9.1097C108.738 9.16538 108.615 9.22854 108.495 9.29884C108.432 9.3345 108.375 9.36939 108.36 9.35466C108.346 9.33993 108.432 9.25543 108.483 9.11745C108.524 8.98544 108.528 8.84462 108.494 8.71047C108.474 8.57714 108.454 8.4531 108.376 8.42675C108.351 8.42222 108.326 8.42306 108.301 8.42921C108.277 8.43536 108.254 8.44668 108.234 8.46241C108.193 8.48566 108.107 8.53993 107.967 8.76473C107.895 8.87339 107.833 8.98894 107.784 9.1097C107.773 9.14675 107.757 9.18201 107.736 9.21435C107.719 9.2097 107.82 8.99884 107.753 8.80892C107.705 8.67404 107.591 8.60504 107.431 8.50737C107.32 8.43993 107.029 8.26318 106.922 8.35931C106.849 8.42442 106.89 8.59187 106.901 8.63218C106.926 8.71838 106.97 8.7979 107.029 8.86473C107.124 9.0004 107.234 9.12541 107.356 9.2376C107.613 9.46086 108.032 9.8252 108.534 9.75931C108.641 9.74148 108.785 9.67791 109.074 9.54768Z" fill="#387777"/>
<path d="M109.311 9.95127C109.45 9.90153 109.57 9.81035 109.656 9.69003C109.689 9.63887 109.778 9.50166 109.733 9.40166C109.661 9.24662 109.29 9.22414 109.016 9.32414C108.836 9.40232 108.661 9.49191 108.492 9.59236C108.403 9.64274 108.322 9.69236 108.301 9.66988C108.28 9.6474 108.402 9.53034 108.475 9.33422C108.547 9.13809 108.521 8.94662 108.491 8.75902C108.461 8.57142 108.433 8.39468 108.323 8.35669C108.288 8.35081 108.252 8.35232 108.217 8.36113C108.183 8.36995 108.151 8.38586 108.123 8.40786C108.065 8.44042 107.944 8.51871 107.746 8.83577C107.644 8.98946 107.557 9.15277 107.486 9.32336C107.46 9.38926 107.43 9.4784 107.418 9.47143C107.406 9.46445 107.537 9.16677 107.442 8.89856C107.374 8.70708 107.209 8.60941 106.987 8.47142C106.832 8.37607 106.419 8.12569 106.266 8.26134C106.163 8.35359 106.222 8.58538 106.237 8.64894C106.273 8.77094 106.335 8.88366 106.419 8.97918C106.555 9.16854 106.711 9.34313 106.884 9.50011C107.248 9.81639 107.842 10.3311 108.551 10.2381C108.699 10.221 108.902 10.1311 109.311 9.95127Z" fill="#4EADAF"/>
<path d="M106.337 11.3802C106.523 10.6147 106.022 9.83566 105.218 9.64008C104.413 9.4445 103.611 9.90646 103.424 10.6719C103.238 11.4374 103.739 12.2164 104.543 12.412C105.348 12.6076 106.15 12.1456 106.337 11.3802Z" fill="#E2E2E2"/>
<path d="M106.235 11.5531C106.362 11.0306 106.02 10.4988 105.472 10.3654C104.923 10.2319 104.375 10.5473 104.248 11.0698C104.121 11.5923 104.463 12.1241 105.012 12.2575C105.56 12.391 106.108 12.0756 106.235 11.5531Z" fill="black"/>
<path d="M105.182 10.6672C105.26 10.5462 105.147 10.3356 104.931 10.1968C104.715 10.0581 104.477 10.0438 104.399 10.1648C104.321 10.2859 104.434 10.4965 104.65 10.6352C104.866 10.774 105.104 10.7883 105.182 10.6672Z" fill="white"/>
<path d="M110.833 12.6241C111.015 11.8732 110.511 11.1059 109.707 10.9103C108.903 10.7148 108.103 11.1649 107.921 11.9158C107.738 12.6667 108.242 13.4339 109.046 13.6295C109.85 13.8251 110.65 13.3749 110.833 12.6241Z" fill="#E2E2E2"/>
<path d="M109.893 12.4645C110.018 11.952 109.674 11.4283 109.125 11.2948C108.576 11.1614 108.031 11.4687 107.906 11.9812C107.781 12.4937 108.125 13.0174 108.674 13.1508C109.222 13.2843 109.768 12.977 109.893 12.4645Z" fill="black"/>
<path d="M109.745 12.1184C109.999 12.084 110.19 11.9426 110.171 11.8026C110.152 11.6626 109.931 11.577 109.676 11.6115C109.422 11.6459 109.232 11.7873 109.251 11.9273C109.27 12.0673 109.491 12.1529 109.745 12.1184Z" fill="white"/>
<path d="M120.831 21.9608C120.823 21.7402 120.865 21.5206 120.954 21.3189C121.341 20.4468 121.364 19.457 121.021 18.5673C120.677 17.6775 119.994 16.9608 119.122 16.5747C118.25 16.1886 117.26 16.1647 116.37 16.5084C115.481 16.8521 114.764 17.5351 114.378 18.4073C114.325 18.5307 114.24 18.6378 114.132 18.7173C113.545 19.147 113.078 19.7214 112.779 20.3846C112.479 21.0478 112.356 21.7772 112.422 22.502C112.488 23.2267 112.74 23.9221 113.154 24.5206C113.568 25.119 114.13 25.6001 114.785 25.917C115.44 26.234 116.166 26.376 116.893 26.3293C117.619 26.2825 118.321 26.0487 118.93 25.6504C119.539 25.2522 120.034 24.7031 120.368 24.0565C120.702 23.41 120.864 22.688 120.836 21.9608H120.831Z" fill="#6B7227"/>
<path d="M120.424 21.9438C120.415 21.7451 120.453 21.5471 120.534 21.3655C120.843 20.5876 120.838 19.7204 120.522 18.9458C120.205 18.1712 119.6 17.5493 118.835 17.2107C118.07 16.8721 117.203 16.843 116.417 17.1295C115.63 17.4161 114.986 17.996 114.618 18.7476C114.568 18.8577 114.491 18.9531 114.394 19.0244C113.864 19.4106 113.443 19.9274 113.172 20.5245C112.901 21.1217 112.789 21.7788 112.847 22.432C112.905 23.0852 113.132 23.7122 113.504 24.2519C113.877 24.7916 114.383 25.2257 114.973 25.512C115.563 25.7982 116.217 25.9268 116.871 25.8852C117.526 25.8437 118.158 25.6334 118.707 25.2748C119.256 24.9163 119.703 24.4217 120.005 23.8391C120.306 23.2566 120.451 22.6061 120.426 21.9508L120.424 21.9438Z" fill="#C4D650"/>
<path d="M117.905 22.5442C118.298 21.6563 118.062 20.6909 117.377 20.388C116.693 20.085 115.82 20.5592 115.427 21.447C115.033 22.3349 115.27 23.3003 115.954 23.6032C116.638 23.9062 117.512 23.432 117.905 22.5442Z" fill="#844019"/>
<path d="M116.446 20.3335C116.668 19.6794 116.291 18.9605 115.604 18.7278C114.917 18.495 114.181 18.8365 113.959 19.4906C113.737 20.1446 114.114 20.8635 114.801 21.0963C115.488 21.329 116.225 20.9875 116.446 20.3335Z" fill="#E2E2E2"/>
<path d="M116.345 20.4764C116.496 20.0295 116.239 19.5384 115.769 19.3794C115.3 19.2204 114.797 19.4538 114.646 19.9006C114.494 20.3475 114.752 20.8386 115.221 20.9976C115.69 21.1565 116.193 20.9232 116.345 20.4764Z" fill="black"/>
<path d="M115.491 19.6208C115.568 19.5209 115.487 19.328 115.308 19.1899C115.13 19.0518 114.922 19.0208 114.845 19.1207C114.768 19.2205 114.85 19.4135 115.028 19.5516C115.207 19.6897 115.414 19.7207 115.491 19.6208Z" fill="white"/>
<path d="M120.253 21.5455C120.47 20.9017 120.088 20.1916 119.399 19.9595C118.71 19.7274 117.975 20.0612 117.758 20.7051C117.542 21.3489 117.924 22.059 118.613 22.2911C119.302 22.5231 120.037 22.1893 120.253 21.5455Z" fill="#E2E2E2"/>
<path d="M119.469 21.5555C119.617 21.118 119.357 20.6344 118.888 20.4755C118.419 20.3165 117.918 20.5423 117.77 20.9798C117.622 21.4173 117.882 21.9008 118.351 22.0598C118.82 22.2188 119.321 21.993 119.469 21.5555Z" fill="black"/>
<path d="M119.367 21.2402C119.592 21.2298 119.769 21.1207 119.763 20.9967C119.758 20.8727 119.571 20.7806 119.346 20.7911C119.122 20.8016 118.945 20.9106 118.95 21.0346C118.956 21.1586 119.143 21.2507 119.367 21.2402Z" fill="white"/>
<path d="M119.949 39.449C122.186 39.449 124 37.6353 124 35.3979C124 33.1605 122.186 31.3467 119.949 31.3467C117.711 31.3467 115.897 33.1605 115.897 35.3979C115.897 37.6353 117.711 39.449 119.949 39.449Z" fill="#D86627"/>
<path d="M119.956 38.9957C122.001 38.9957 123.658 37.3381 123.658 35.2934C123.658 33.2487 122.001 31.5911 119.956 31.5911C117.911 31.5911 116.253 33.2487 116.253 35.2934C116.253 37.3381 117.911 38.9957 119.956 38.9957Z" fill="#E37A39"/>
<path d="M118.376 37.6143C118.536 37.6143 118.666 37.4845 118.666 37.3243C118.666 37.1642 118.536 37.0344 118.376 37.0344C118.216 37.0344 118.086 37.1642 118.086 37.3243C118.086 37.4845 118.216 37.6143 118.376 37.6143Z" fill="#E28B5A"/>
<path d="M122.294 34.1895C122.454 34.1895 122.584 34.0597 122.584 33.8995C122.584 33.7394 122.454 33.6096 122.294 33.6096C122.134 33.6096 122.004 33.7394 122.004 33.8995C122.004 34.0597 122.134 34.1895 122.294 34.1895Z" fill="#E28B5A"/>
<path d="M117.812 38.0864C117.973 38.0864 118.102 37.9566 118.102 37.7965C118.102 37.6364 117.973 37.5066 117.812 37.5066C117.652 37.5066 117.522 37.6364 117.522 37.7965C117.522 37.9566 117.652 38.0864 117.812 38.0864Z" fill="#E28B5A"/>
<path d="M117.305 37.3235C117.465 37.3235 117.594 37.1937 117.594 37.0336C117.594 36.8735 117.465 36.7437 117.305 36.7437C117.144 36.7437 117.015 36.8735 117.015 37.0336C117.015 37.1937 117.144 37.3235 117.305 37.3235Z" fill="#E28B5A"/>
<path d="M119.441 34.4564C119.691 33.8173 119.349 33.0864 118.678 32.824C118.007 32.5615 117.261 32.8669 117.011 33.506C116.761 34.1452 117.102 34.8761 117.773 35.1385C118.444 35.401 119.191 35.0956 119.441 34.4564Z" fill="#E2E2E2"/>
<path d="M119.333 34.5949C119.504 34.1587 119.271 33.6598 118.813 33.4806C118.354 33.3015 117.845 33.5098 117.674 33.946C117.504 34.3822 117.737 34.8811 118.195 35.0603C118.653 35.2394 119.163 35.0311 119.333 34.5949Z" fill="black"/>
<path d="M118.527 33.7074C118.608 33.6121 118.536 33.4175 118.366 33.2728C118.195 33.128 117.992 33.0878 117.911 33.183C117.83 33.2783 117.902 33.4728 118.072 33.6176C118.243 33.7624 118.446 33.8026 118.527 33.7074Z" fill="white"/>
<path d="M123.175 36.0535C123.42 35.4271 123.074 34.7066 122.403 34.4441C121.732 34.1817 120.99 34.4767 120.745 35.1031C120.5 35.7295 120.845 36.4501 121.516 36.7125C122.187 36.9749 122.93 36.6799 123.175 36.0535Z" fill="#E2E2E2"/>
<path d="M122.382 35.8063C122.55 35.3785 122.314 34.8864 121.856 34.7072C121.398 34.5281 120.891 34.7297 120.723 35.1575C120.556 35.5853 120.792 36.0774 121.25 36.2565C121.708 36.4357 122.215 36.2341 122.382 35.8063Z" fill="black"/>
<path d="M122.296 35.494C122.52 35.494 122.701 35.3944 122.701 35.2716C122.701 35.1487 122.52 35.0491 122.296 35.0491C122.073 35.0491 121.892 35.1487 121.892 35.2716C121.892 35.3944 122.073 35.494 122.296 35.494Z" fill="white"/>
<path d="M122.552 31.6871C122.316 31.5563 122.045 31.5021 121.777 31.532C121.69 31.4585 121.588 31.4055 121.478 31.377C121.39 31.3544 121.298 31.3478 121.208 31.3576C121.102 31.2419 120.977 31.1454 120.839 31.0723C120.282 30.7739 119.635 30.8971 119.394 31.3468C119.154 31.7964 119.411 32.4026 119.967 32.701C120.066 32.7531 120.17 32.7937 120.277 32.822C120.342 33.2018 120.577 33.508 120.915 33.5972C121.205 33.6747 121.507 33.5654 121.739 33.3406C122.281 33.6034 122.896 33.4739 123.128 33.039C123.365 32.5909 123.108 31.9855 122.552 31.6871Z" fill="#C4D650"/>
<path fill-rule="evenodd" clip-rule="evenodd" d="M141.269 80.0342H86.1279H30.0979C15.6847 80.0342 4.00049 91.7184 4.00049 106.132C4.00049 120.545 15.6847 132.229 30.0979 132.229H139.255C155.271 132.229 168.255 119.245 168.255 103.229V80.0342H168.255L168.255 63.4548C167.902 64.9896 167.266 66.5256 166.362 68.0162C165.116 70.072 163.386 72.001 161.272 73.6933C159.157 75.3855 156.699 76.8078 154.037 77.8788C151.376 78.9499 148.563 79.6488 145.761 79.9357C145.484 79.964 145.208 79.9882 144.932 80.0084L144.899 80.0342H144.544C143.435 80.1003 142.34 80.1001 141.269 80.0342Z" fill="#E27B38"/>
<path d="M21.5665 105.921V95.1964H23.2695L28.3005 103.068V95.1964H30.0035V105.921H28.3005L23.2695 98.0564V105.921H21.5665ZM35.8814 106.129C34.7374 106.129 33.9163 105.895 33.4179 105.427C32.9196 104.955 32.6704 104.177 32.6704 103.094V99.2654H34.2889V102.73C34.2889 103.48 34.4081 104.013 34.6464 104.329C34.8891 104.645 35.3008 104.803 35.8814 104.803C36.4621 104.803 36.8716 104.645 37.1099 104.329C37.3526 104.013 37.4739 103.48 37.4739 102.73V99.2654H39.0924V103.094C39.0924 104.177 38.8433 104.955 38.3449 105.427C37.8466 105.895 37.0254 106.129 35.8814 106.129ZM44.6247 106.129C43.9141 106.129 43.2771 105.976 42.7137 105.668C42.1547 105.36 41.7106 104.94 41.3812 104.407C41.0562 103.874 40.8937 103.274 40.8937 102.606C40.8937 102.112 40.9869 101.651 41.1732 101.222C41.3596 100.793 41.6174 100.416 41.9467 100.091C42.2761 99.7659 42.6596 99.5124 43.0972 99.3304C43.5349 99.1484 44.0072 99.0574 44.5142 99.0574C45.2076 99.0574 45.8142 99.2004 46.3342 99.4864C46.8586 99.7724 47.2659 100.171 47.5562 100.682C47.8509 101.194 47.9982 101.79 47.9982 102.47C47.9982 102.526 47.9961 102.574 47.9917 102.613C47.9874 102.648 47.9787 102.708 47.9657 102.795H42.5447C42.5447 103.198 42.6357 103.553 42.8177 103.861C42.9997 104.164 43.2532 104.403 43.5782 104.576C43.9076 104.745 44.2846 104.829 44.7092 104.829C45.1122 104.829 45.4697 104.749 45.7817 104.589C46.0981 104.424 46.3841 104.175 46.6397 103.841L47.8162 104.446C47.4999 104.975 47.0601 105.388 46.4967 105.687C45.9377 105.982 45.3137 106.129 44.6247 106.129ZM42.6162 101.781H46.3927C46.3364 101.478 46.2216 101.215 46.0482 100.994C45.8749 100.773 45.6561 100.602 45.3917 100.481C45.1274 100.355 44.8327 100.292 44.5077 100.292C44.1654 100.292 43.8599 100.353 43.5912 100.474C43.3226 100.596 43.1037 100.767 42.9347 100.988C42.7657 101.209 42.6596 101.473 42.6162 101.781ZM51.7408 106.129C51.1818 106.129 50.6835 106.025 50.2458 105.817C49.8125 105.605 49.4593 105.302 49.1863 104.907L49.9013 103.854C50.157 104.192 50.4408 104.455 50.7528 104.641C51.0692 104.827 51.3963 104.92 51.7343 104.92C51.9423 104.92 52.1265 104.884 52.2868 104.81C52.4472 104.732 52.575 104.621 52.6703 104.478C52.7657 104.331 52.8133 104.158 52.8133 103.958C52.8133 103.75 52.7592 103.588 52.6508 103.471C52.5425 103.354 52.38 103.248 52.1633 103.152C51.9467 103.057 51.6737 102.944 51.3443 102.814C51.067 102.697 50.8027 102.567 50.5513 102.424C50.3 102.281 50.092 102.102 49.9273 101.885C49.767 101.664 49.6868 101.384 49.6868 101.046C49.6868 100.661 49.793 100.318 50.0053 100.019C50.222 99.7204 50.5167 99.4864 50.8893 99.3174C51.2663 99.1484 51.6953 99.0639 52.1763 99.0639C52.523 99.0639 52.8718 99.1267 53.2228 99.2524C53.5738 99.3737 53.9248 99.5514 54.2758 99.7854L53.6908 100.806C53.1838 100.386 52.6833 100.175 52.1893 100.175C51.899 100.175 51.665 100.245 51.4873 100.383C51.314 100.522 51.2273 100.7 51.2273 100.916C51.2273 101.094 51.3032 101.246 51.4548 101.371C51.6065 101.497 51.795 101.608 52.0203 101.703C52.2457 101.798 52.471 101.889 52.6963 101.976C53.0517 102.106 53.3637 102.245 53.6323 102.392C53.901 102.539 54.1112 102.73 54.2628 102.964C54.4145 103.198 54.4903 103.51 54.4903 103.9C54.4903 104.368 54.3777 104.769 54.1523 105.102C53.9313 105.436 53.615 105.692 53.2033 105.869C52.7917 106.043 52.3042 106.129 51.7408 106.129ZM58.4367 106.129C57.8344 106.129 57.3642 105.934 57.0262 105.544C56.6926 105.154 56.5257 104.606 56.5257 103.9V100.494H55.7132V99.2654H56.5257V96.7759H58.1442V99.2654H59.6782V100.494H58.1442V103.789C58.1442 104.08 58.2027 104.303 58.3197 104.459C58.4367 104.611 58.6036 104.686 58.8202 104.686C59.0456 104.686 59.2514 104.617 59.4377 104.478L59.8472 105.772C59.6522 105.885 59.4291 105.971 59.1777 106.032C58.9264 106.097 58.6794 106.129 58.4367 106.129ZM61.7018 105.921V99.2654H63.3203V100.234C63.5543 99.8526 63.8468 99.5622 64.1978 99.3629C64.5488 99.1592 64.9344 99.0574 65.3548 99.0574C65.5758 99.0574 65.8011 99.0877 66.0308 99.1484C66.2648 99.2047 66.4641 99.2806 66.6288 99.3759L65.9593 100.747C65.8163 100.661 65.6494 100.591 65.4588 100.539C65.2724 100.487 65.0991 100.461 64.9388 100.461C64.6614 100.461 64.3993 100.533 64.1523 100.676C63.9053 100.819 63.7038 101.003 63.5478 101.228C63.3961 101.454 63.3203 101.696 63.3203 101.956V105.921H61.7018ZM71.1666 106.129C70.4472 106.129 69.7972 105.98 69.2166 105.681C68.6402 105.382 68.1831 104.966 67.8451 104.433C67.5071 103.9 67.3381 103.287 67.3381 102.593C67.3381 101.896 67.5071 101.283 67.8451 100.754C68.1831 100.221 68.6402 99.8049 69.2166 99.5059C69.7929 99.2069 70.4429 99.0574 71.1666 99.0574C71.8859 99.0574 72.5337 99.2069 73.1101 99.5059C73.6907 99.8049 74.1479 100.221 74.4816 100.754C74.8196 101.283 74.9886 101.896 74.9886 102.593C74.9886 103.287 74.8196 103.9 74.4816 104.433C74.1479 104.966 73.6907 105.382 73.1101 105.681C72.5337 105.98 71.8859 106.129 71.1666 106.129ZM71.1666 104.738C71.5739 104.738 71.9379 104.647 72.2586 104.465C72.5836 104.279 72.8392 104.026 73.0256 103.705C73.2119 103.38 73.3051 103.009 73.3051 102.593C73.3051 102.173 73.2119 101.803 73.0256 101.482C72.8392 101.157 72.5836 100.903 72.2586 100.721C71.9379 100.539 71.5739 100.448 71.1666 100.448C70.7636 100.448 70.3996 100.539 70.0746 100.721C69.7496 100.903 69.4939 101.157 69.3076 101.482C69.1212 101.803 69.0281 102.173 69.0281 102.593C69.0281 103.009 69.1212 103.38 69.3076 103.705C69.4939 104.026 69.7496 104.279 70.0746 104.465C70.3996 104.647 70.7636 104.738 71.1666 104.738ZM83.5613 106.129C82.8506 106.129 82.2136 105.976 81.6503 105.668C81.0913 105.36 80.6471 104.94 80.3178 104.407C79.9928 103.874 79.8303 103.274 79.8303 102.606C79.8303 102.112 79.9234 101.651 80.1098 101.222C80.2961 100.793 80.5539 100.416 80.8833 100.091C81.2126 99.7659 81.5961 99.5124 82.0338 99.3304C82.4714 99.1484 82.9438 99.0574 83.4508 99.0574C84.1441 99.0574 84.7508 99.2004 85.2708 99.4864C85.7951 99.7724 86.2024 100.171 86.4928 100.682C86.7874 101.194 86.9348 101.79 86.9348 102.47C86.9348 102.526 86.9326 102.574 86.9283 102.613C86.9239 102.648 86.9153 102.708 86.9023 102.795H81.4813C81.4813 103.198 81.5723 103.553 81.7543 103.861C81.9363 104.164 82.1898 104.403 82.5148 104.576C82.8441 104.745 83.2211 104.829 83.6458 104.829C84.0488 104.829 84.4063 104.749 84.7183 104.589C85.0346 104.424 85.3206 104.175 85.5763 103.841L86.7528 104.446C86.4364 104.975 85.9966 105.388 85.4333 105.687C84.8743 105.982 84.2503 106.129 83.5613 106.129ZM81.5528 101.781H85.3293C85.2729 101.478 85.1581 101.215 84.9848 100.994C84.8114 100.773 84.5926 100.602 84.3283 100.481C84.0639 100.355 83.7693 100.292 83.4443 100.292C83.1019 100.292 82.7964 100.353 82.5278 100.474C82.2591 100.596 82.0403 100.767 81.8713 100.988C81.7023 101.209 81.5961 101.473 81.5528 101.781ZM94.1731 109.301V104.855C93.8785 105.258 93.5166 105.573 93.0876 105.798C92.6586 106.019 92.1928 106.129 91.6901 106.129C91.0618 106.129 90.4985 105.976 90.0001 105.668C89.5061 105.36 89.114 104.94 88.8236 104.407C88.5376 103.87 88.3946 103.265 88.3946 102.593C88.3946 101.913 88.5376 101.309 88.8236 100.78C89.114 100.247 89.5105 99.8266 90.0131 99.5189C90.5158 99.2112 91.0878 99.0574 91.7291 99.0574C92.2361 99.0574 92.702 99.1657 93.1266 99.3824C93.5513 99.5947 93.9001 99.8959 94.1731 100.286V99.2654H95.7916V109.301H94.1731ZM92.1516 104.745C92.5546 104.745 92.91 104.654 93.2176 104.472C93.5296 104.286 93.7745 104.032 93.9521 103.711C94.1298 103.386 94.2186 103.016 94.2186 102.6C94.2186 102.18 94.1298 101.807 93.9521 101.482C93.7745 101.157 93.5296 100.903 93.2176 100.721C92.91 100.535 92.5568 100.442 92.1581 100.442C91.7595 100.442 91.4041 100.535 91.0921 100.721C90.7801 100.903 90.5353 101.157 90.3576 101.482C90.18 101.807 90.0911 102.177 90.0911 102.593C90.0911 103.014 90.1778 103.386 90.3511 103.711C90.5288 104.032 90.7736 104.286 91.0856 104.472C91.3976 104.654 91.753 104.745 92.1516 104.745ZM101.364 106.129C100.22 106.129 99.3987 105.895 98.9004 105.427C98.402 104.955 98.1529 104.177 98.1529 103.094V99.2654H99.7714V102.73C99.7714 103.48 99.8905 104.013 100.129 104.329C100.372 104.645 100.783 104.803 101.364 104.803C101.945 104.803 102.354 104.645 102.592 104.329C102.835 104.013 102.956 103.48 102.956 102.73V99.2654H104.575V103.094C104.575 104.177 104.326 104.955 103.827 105.427C103.329 105.895 102.508 106.129 101.364 106.129ZM106.929 105.921V99.2654H108.547V105.921H106.929ZM107.741 97.9004C107.563 97.9004 107.399 97.8571 107.247 97.7704C107.1 97.6794 106.981 97.5602 106.89 97.4129C106.803 97.2612 106.76 97.0944 106.76 96.9124C106.76 96.7347 106.803 96.5722 106.89 96.4249C106.981 96.2776 107.1 96.1606 107.247 96.0739C107.399 95.9829 107.563 95.9374 107.741 95.9374C107.923 95.9374 108.086 95.9829 108.229 96.0739C108.376 96.1606 108.493 96.2776 108.58 96.4249C108.671 96.5722 108.716 96.7347 108.716 96.9124C108.716 97.0944 108.671 97.2612 108.58 97.4129C108.493 97.5602 108.376 97.6794 108.229 97.7704C108.086 97.8571 107.923 97.9004 107.741 97.9004ZM111.061 109.301V99.2654H112.68V100.279C112.948 99.8937 113.297 99.5947 113.726 99.3824C114.155 99.1657 114.623 99.0574 115.13 99.0574C115.771 99.0574 116.341 99.2112 116.84 99.5189C117.342 99.8266 117.739 100.247 118.029 100.78C118.319 101.309 118.465 101.913 118.465 102.593C118.465 103.265 118.319 103.867 118.029 104.4C117.743 104.933 117.351 105.356 116.853 105.668C116.359 105.976 115.797 106.129 115.169 106.129C114.666 106.129 114.198 106.019 113.765 105.798C113.332 105.573 112.97 105.258 112.68 104.855V109.301H111.061ZM114.708 104.745C115.106 104.745 115.459 104.654 115.767 104.472C116.079 104.286 116.324 104.032 116.502 103.711C116.679 103.386 116.768 103.016 116.768 102.6C116.768 102.184 116.677 101.813 116.495 101.488C116.317 101.159 116.075 100.903 115.767 100.721C115.459 100.535 115.106 100.442 114.708 100.442C114.309 100.442 113.954 100.535 113.642 100.721C113.33 100.903 113.083 101.157 112.901 101.482C112.723 101.807 112.634 102.177 112.634 102.593C112.634 103.009 112.723 103.38 112.901 103.705C113.078 104.03 113.323 104.286 113.635 104.472C113.951 104.654 114.309 104.745 114.708 104.745ZM123.738 106.129C123.019 106.129 122.369 105.98 121.788 105.681C121.212 105.382 120.754 104.966 120.416 104.433C120.078 103.9 119.909 103.287 119.909 102.593C119.909 101.896 120.078 101.283 120.416 100.754C120.754 100.221 121.212 99.8049 121.788 99.5059C122.364 99.2069 123.014 99.0574 123.738 99.0574C124.457 99.0574 125.105 99.2069 125.681 99.5059C126.262 99.8049 126.719 100.221 127.053 100.754C127.391 101.283 127.56 101.896 127.56 102.593C127.56 103.287 127.391 103.9 127.053 104.433C126.719 104.966 126.262 105.382 125.681 105.681C125.105 105.98 124.457 106.129 123.738 106.129ZM123.738 104.738C124.145 104.738 124.509 104.647 124.83 104.465C125.155 104.279 125.411 104.026 125.597 103.705C125.783 103.38 125.876 103.009 125.876 102.593C125.876 102.173 125.783 101.803 125.597 101.482C125.411 101.157 125.155 100.903 124.83 100.721C124.509 100.539 124.145 100.448 123.738 100.448C123.335 100.448 122.971 100.539 122.646 100.721C122.321 100.903 122.065 101.157 121.879 101.482C121.693 101.803 121.599 102.173 121.599 102.593C121.599 103.009 121.693 103.38 121.879 103.705C122.065 104.026 122.321 104.279 122.646 104.465C122.971 104.647 123.335 104.738 123.738 104.738Z" fill="white"/>
<path d="M29.5906 119.218C29.2973 119.101 29.0003 118.965 28.6996 118.811C28.399 118.654 28.0965 118.478 27.7921 118.283C27.0258 118.826 26.155 119.097 25.1796 119.097C24.5343 119.097 23.9348 118.978 23.3811 118.74C22.8275 118.502 22.3435 118.17 21.9291 117.744C21.5148 117.319 21.1921 116.822 20.9611 116.254C20.7301 115.686 20.6146 115.071 20.6146 114.411C20.6146 113.751 20.732 113.135 20.9666 112.563C21.2013 111.991 21.5276 111.491 21.9456 111.062C22.3636 110.629 22.8495 110.292 23.4031 110.05C23.9568 109.804 24.5526 109.681 25.1906 109.681C25.8286 109.681 26.4245 109.802 26.9781 110.044C27.5318 110.286 28.0176 110.624 28.4356 111.056C28.8536 111.485 29.18 111.986 29.4146 112.558C29.6493 113.126 29.7666 113.739 29.7666 114.395C29.7666 114.993 29.6603 115.563 29.4476 116.105C29.235 116.644 28.9325 117.117 28.5401 117.524C28.8115 117.671 29.0755 117.803 29.3321 117.92C29.5888 118.038 29.84 118.137 30.0856 118.217L29.5906 119.218ZM25.1741 118.019C25.4785 118.019 25.77 117.979 26.0486 117.898C26.3273 117.814 26.584 117.693 26.8186 117.535C26.54 117.319 26.2723 117.09 26.0156 116.848C25.759 116.606 25.5188 116.357 25.2951 116.1L25.7846 115.511C26.309 116.05 26.8865 116.533 27.5171 116.958C27.8508 116.635 28.1075 116.252 28.2871 115.808C28.4668 115.365 28.5566 114.894 28.5566 114.395C28.5566 113.878 28.4723 113.399 28.3036 112.959C28.135 112.516 27.8985 112.131 27.5941 111.804C27.2898 111.474 26.9323 111.218 26.5216 111.034C26.1146 110.851 25.671 110.759 25.1906 110.759C24.7103 110.759 24.2648 110.851 23.8541 111.034C23.4435 111.218 23.086 111.474 22.7816 111.804C22.4773 112.134 22.239 112.521 22.0666 112.965C21.898 113.409 21.8136 113.891 21.8136 114.411C21.8136 114.932 21.8961 115.412 22.0611 115.852C22.2298 116.292 22.4645 116.676 22.7651 117.002C23.0695 117.325 23.4251 117.576 23.8321 117.755C24.2428 117.931 24.6901 118.019 25.1741 118.019ZM34.276 119.097C33.3703 119.097 32.7213 118.903 32.329 118.514C31.9367 118.122 31.7405 117.471 31.7405 116.562V113.289H32.8075V116.342C32.8075 117.017 32.9193 117.497 33.143 117.783C33.3667 118.069 33.7443 118.212 34.276 118.212C34.8113 118.212 35.1908 118.069 35.4145 117.783C35.6382 117.497 35.75 117.017 35.75 116.342V113.289H36.817V116.562C36.817 117.471 36.6208 118.122 36.2285 118.514C35.8362 118.903 35.1853 119.097 34.276 119.097ZM38.9511 118.921V113.289H40.0181V118.921H38.9511ZM39.4846 112.151C39.3636 112.151 39.2518 112.122 39.1491 112.063C39.0501 112.001 38.9694 111.918 38.9071 111.815C38.8484 111.713 38.8191 111.601 38.8191 111.48C38.8191 111.355 38.8484 111.243 38.9071 111.144C38.9694 111.045 39.0501 110.967 39.1491 110.908C39.2518 110.846 39.3636 110.814 39.4846 110.814C39.6093 110.814 39.7211 110.846 39.8201 110.908C39.9191 110.967 39.9979 111.045 40.0566 111.144C40.1189 111.243 40.1501 111.355 40.1501 111.48C40.1501 111.601 40.1189 111.713 40.0566 111.815C39.9979 111.918 39.9191 112.001 39.8201 112.063C39.7211 112.122 39.6093 112.151 39.4846 112.151ZM44.9324 119.097C44.3421 119.097 43.8123 118.967 43.3429 118.707C42.8736 118.447 42.5033 118.093 42.2319 117.645C41.9606 117.194 41.8249 116.687 41.8249 116.122C41.8249 115.704 41.9019 115.313 42.0559 114.95C42.2099 114.587 42.4244 114.268 42.6994 113.993C42.9744 113.715 43.2934 113.498 43.6564 113.344C44.0194 113.19 44.4081 113.113 44.8224 113.113C45.4091 113.113 45.9224 113.234 46.3624 113.476C46.8061 113.718 47.1508 114.056 47.3964 114.488C47.6458 114.921 47.7704 115.423 47.7704 115.995C47.7704 116.043 47.7686 116.082 47.7649 116.111C47.7613 116.14 47.7539 116.179 47.7429 116.226H42.9029C42.9029 116.619 42.9909 116.965 43.1669 117.266C43.3466 117.567 43.5923 117.803 43.9039 117.975C44.2193 118.144 44.5804 118.228 44.9874 118.228C45.3724 118.228 45.7171 118.15 46.0214 117.992C46.3258 117.834 46.5898 117.6 46.8134 117.288L47.5944 117.695C47.3268 118.139 46.9583 118.483 46.4889 118.729C46.0233 118.975 45.5044 119.097 44.9324 119.097ZM42.9579 115.44H46.6979C46.6466 115.15 46.5329 114.897 46.3569 114.681C46.1846 114.461 45.9664 114.29 45.7024 114.169C45.4421 114.045 45.1543 113.982 44.8389 113.982C44.5089 113.982 44.2101 114.043 43.9424 114.164C43.6784 114.281 43.4603 114.45 43.2879 114.67C43.1193 114.886 43.0093 115.143 42.9579 115.44ZM44.6959 112.563L44.1954 112.178L45.3834 109.989L46.1644 110.561L44.6959 112.563ZM49.5484 118.921V113.289H50.6154V114.015C50.7877 113.759 51.0352 113.544 51.3579 113.372C51.6806 113.2 52.0637 113.113 52.5074 113.113C52.9437 113.113 53.3214 113.205 53.6404 113.388C53.9594 113.568 54.2051 113.828 54.3774 114.169C54.5534 114.51 54.6414 114.917 54.6414 115.39V118.921H53.5744V115.605C53.5744 115.077 53.4479 114.672 53.1949 114.389C52.9419 114.107 52.5862 113.966 52.1279 113.966C51.8126 113.966 51.5412 114.03 51.3139 114.158C51.0902 114.283 50.9179 114.452 50.7969 114.664C50.6759 114.873 50.6154 115.103 50.6154 115.352V118.921H49.5484ZM59.4451 119.097C58.8548 119.097 58.325 118.967 57.8556 118.707C57.3863 118.447 57.016 118.093 56.7446 117.645C56.4733 117.194 56.3376 116.687 56.3376 116.122C56.3376 115.704 56.4146 115.313 56.5686 114.95C56.7226 114.587 56.9371 114.268 57.2121 113.993C57.4871 113.715 57.8061 113.498 58.1691 113.344C58.5321 113.19 58.9208 113.113 59.3351 113.113C59.9218 113.113 60.4351 113.234 60.8751 113.476C61.3188 113.718 61.6635 114.056 61.9091 114.488C62.1585 114.921 62.2831 115.423 62.2831 115.995C62.2831 116.043 62.2813 116.082 62.2776 116.111C62.274 116.14 62.2666 116.179 62.2556 116.226H57.4156C57.4156 116.619 57.5036 116.965 57.6796 117.266C57.8593 117.567 58.105 117.803 58.4166 117.975C58.732 118.144 59.0931 118.228 59.5001 118.228C59.8851 118.228 60.2298 118.15 60.5341 117.992C60.8385 117.834 61.1025 117.6 61.3261 117.288L62.1071 117.695C61.8395 118.139 61.471 118.483 61.0016 118.729C60.536 118.975 60.0171 119.097 59.4451 119.097ZM57.4706 115.44H61.2106C61.1593 115.15 61.0456 114.897 60.8696 114.681C60.6973 114.461 60.4791 114.29 60.2151 114.169C59.9548 114.045 59.667 113.982 59.3516 113.982C59.0216 113.982 58.7228 114.043 58.4551 114.164C58.1911 114.281 57.973 114.45 57.8006 114.67C57.632 114.886 57.522 115.143 57.4706 115.44ZM65.5196 119.097C65.0503 119.097 64.6341 118.997 64.2711 118.795C63.9118 118.59 63.6258 118.298 63.4131 117.92L63.9246 117.26C64.119 117.587 64.3536 117.84 64.6286 118.019C64.9036 118.199 65.1988 118.289 65.5141 118.289C65.7195 118.289 65.9046 118.249 66.0696 118.168C66.2383 118.087 66.3721 117.972 66.4711 117.821C66.5701 117.667 66.6196 117.486 66.6196 117.277C66.6196 117.075 66.5683 116.918 66.4656 116.804C66.3666 116.687 66.2181 116.584 66.0201 116.496C65.8258 116.408 65.582 116.307 65.2886 116.193C65.054 116.098 64.8266 115.99 64.6066 115.869C64.3866 115.748 64.2051 115.596 64.0621 115.412C63.9228 115.225 63.8531 114.989 63.8531 114.703C63.8531 114.395 63.9356 114.122 64.1006 113.883C64.2693 113.645 64.5003 113.458 64.7936 113.322C65.087 113.187 65.4206 113.119 65.7946 113.119C66.099 113.119 66.3941 113.179 66.6801 113.3C66.9661 113.421 67.2375 113.596 67.4941 113.823L67.0651 114.472C66.6838 114.069 66.2621 113.867 65.8001 113.867C65.5215 113.867 65.296 113.938 65.1236 114.081C64.9513 114.221 64.8651 114.402 64.8651 114.626C64.8651 114.798 64.9275 114.943 65.0521 115.06C65.1768 115.174 65.3363 115.273 65.5306 115.357C65.725 115.442 65.9266 115.524 66.1356 115.605C66.451 115.722 66.726 115.843 66.9606 115.968C67.199 116.093 67.3841 116.254 67.5161 116.452C67.6481 116.646 67.7141 116.908 67.7141 117.238C67.7141 117.623 67.6225 117.955 67.4391 118.234C67.2595 118.513 67.0046 118.727 66.6746 118.877C66.3446 119.024 65.9596 119.097 65.5196 119.097ZM73.8985 119.097C73.4292 119.097 73.013 118.997 72.65 118.795C72.2907 118.59 72.0047 118.298 71.792 117.92L72.3035 117.26C72.4979 117.587 72.7325 117.84 73.0075 118.019C73.2825 118.199 73.5777 118.289 73.893 118.289C74.0984 118.289 74.2835 118.249 74.4485 118.168C74.6172 118.087 74.751 117.972 74.85 117.821C74.949 117.667 74.9985 117.486 74.9985 117.277C74.9985 117.075 74.9472 116.918 74.8445 116.804C74.7455 116.687 74.597 116.584 74.399 116.496C74.2047 116.408 73.9609 116.307 73.6675 116.193C73.4329 116.098 73.2055 115.99 72.9855 115.869C72.7655 115.748 72.584 115.596 72.441 115.412C72.3017 115.225 72.232 114.989 72.232 114.703C72.232 114.395 72.3145 114.122 72.4795 113.883C72.6482 113.645 72.8792 113.458 73.1725 113.322C73.4659 113.187 73.7995 113.119 74.1735 113.119C74.4779 113.119 74.773 113.179 75.059 113.3C75.345 113.421 75.6164 113.596 75.873 113.823L75.444 114.472C75.0627 114.069 74.641 113.867 74.179 113.867C73.9004 113.867 73.6749 113.938 73.5025 114.081C73.3302 114.221 73.244 114.402 73.244 114.626C73.244 114.798 73.3064 114.943 73.431 115.06C73.5557 115.174 73.7152 115.273 73.9095 115.357C74.1039 115.442 74.3055 115.524 74.5145 115.605C74.8299 115.722 75.1049 115.843 75.3395 115.968C75.5779 116.093 75.763 116.254 75.895 116.452C76.027 116.646 76.093 116.908 76.093 117.238C76.093 117.623 76.0014 117.955 75.818 118.234C75.6384 118.513 75.3835 118.727 75.0535 118.877C74.7235 119.024 74.3385 119.097 73.8985 119.097ZM80.6303 119.097C80.0326 119.097 79.4936 118.971 79.0133 118.718C78.5366 118.465 78.1571 118.113 77.8748 117.662C77.5961 117.211 77.4568 116.692 77.4568 116.105C77.4568 115.515 77.5961 114.996 77.8748 114.549C78.1571 114.098 78.5366 113.746 79.0133 113.493C79.4936 113.24 80.0326 113.113 80.6303 113.113C81.2279 113.113 81.7651 113.24 82.2418 113.493C82.7221 113.746 83.1016 114.098 83.3803 114.549C83.6626 114.996 83.8038 115.515 83.8038 116.105C83.8038 116.692 83.6626 117.211 83.3803 117.662C83.1016 118.113 82.7221 118.465 82.2418 118.718C81.7651 118.971 81.2279 119.097 80.6303 119.097ZM80.6358 118.168C81.0281 118.168 81.3801 118.08 81.6918 117.904C82.0034 117.728 82.2491 117.484 82.4288 117.172C82.6084 116.861 82.6983 116.505 82.6983 116.105C82.6983 115.702 82.6084 115.346 82.4288 115.038C82.2491 114.727 82.0034 114.483 81.6918 114.307C81.3801 114.131 81.0281 114.043 80.6358 114.043C80.2398 114.043 79.8859 114.131 79.5743 114.307C79.2626 114.483 79.0169 114.727 78.8373 115.038C78.6576 115.346 78.5678 115.702 78.5678 116.105C78.5678 116.505 78.6576 116.861 78.8373 117.172C79.0169 117.484 79.2626 117.728 79.5743 117.904C79.8859 118.08 80.2398 118.168 80.6358 118.168ZM85.5884 118.921V113.289H86.6554V114.015C86.8938 113.715 87.1633 113.489 87.4639 113.339C87.7646 113.189 88.0983 113.113 88.4649 113.113C88.9196 113.113 89.3193 113.218 89.6639 113.427C90.0086 113.632 90.2488 113.913 90.3844 114.268C90.6191 113.909 90.9014 113.627 91.2314 113.421C91.5614 113.216 91.9483 113.113 92.3919 113.113C92.7953 113.113 93.1528 113.196 93.4644 113.361C93.7761 113.526 94.0218 113.764 94.2014 114.076C94.3811 114.388 94.4709 114.765 94.4709 115.209V118.921H93.4039V115.506C93.4039 115.037 93.2811 114.664 93.0354 114.389C92.7898 114.114 92.4634 113.977 92.0564 113.977C91.7741 113.977 91.5193 114.039 91.2919 114.164C91.0683 114.285 90.8904 114.444 90.7584 114.642C90.6301 114.837 90.5659 115.042 90.5659 115.258V118.921H89.4989V115.434C89.4989 114.991 89.3779 114.637 89.1359 114.373C88.8939 114.109 88.5713 113.977 88.1679 113.977C87.8856 113.977 87.6289 114.037 87.3979 114.158C87.1706 114.276 86.9891 114.43 86.8534 114.62C86.7214 114.811 86.6554 115.011 86.6554 115.22V118.921H85.5884ZM99.3539 119.097C98.7562 119.097 98.2172 118.971 97.7369 118.718C97.2602 118.465 96.8807 118.113 96.5984 117.662C96.3197 117.211 96.1804 116.692 96.1804 116.105C96.1804 115.515 96.3197 114.996 96.5984 114.549C96.8807 114.098 97.2602 113.746 97.7369 113.493C98.2172 113.24 98.7562 113.113 99.3539 113.113C99.9516 113.113 100.489 113.24 100.965 113.493C101.446 113.746 101.825 114.098 102.104 114.549C102.386 114.996 102.527 115.515 102.527 116.105C102.527 116.692 102.386 117.211 102.104 117.662C101.825 118.113 101.446 118.465 100.965 118.718C100.489 118.971 99.9516 119.097 99.3539 119.097ZM99.3594 118.168C99.7517 118.168 100.104 118.08 100.415 117.904C100.727 117.728 100.973 117.484 101.152 117.172C101.332 116.861 101.422 116.505 101.422 116.105C101.422 115.702 101.332 115.346 101.152 115.038C100.973 114.727 100.727 114.483 100.415 114.307C100.104 114.131 99.7517 114.043 99.3594 114.043C98.9634 114.043 98.6096 114.131 98.2979 114.307C97.9862 114.483 97.7406 114.727 97.5609 115.038C97.3812 115.346 97.2914 115.702 97.2914 116.105C97.2914 116.505 97.3812 116.861 97.5609 117.172C97.7406 117.484 97.9862 117.728 98.2979 117.904C98.6096 118.08 98.9634 118.168 99.3594 118.168ZM105.792 119.097C105.323 119.097 104.907 118.997 104.544 118.795C104.184 118.59 103.898 118.298 103.686 117.92L104.197 117.26C104.391 117.587 104.626 117.84 104.901 118.019C105.176 118.199 105.471 118.289 105.787 118.289C105.992 118.289 106.177 118.249 106.342 118.168C106.511 118.087 106.645 117.972 106.744 117.821C106.843 117.667 106.892 117.486 106.892 117.277C106.892 117.075 106.841 116.918 106.738 116.804C106.639 116.687 106.491 116.584 106.293 116.496C106.098 116.408 105.854 116.307 105.561 116.193C105.326 116.098 105.099 115.99 104.879 115.869C104.659 115.748 104.478 115.596 104.335 115.412C104.195 115.225 104.126 114.989 104.126 114.703C104.126 114.395 104.208 114.122 104.373 113.883C104.542 113.645 104.773 113.458 105.066 113.322C105.359 113.187 105.693 113.119 106.067 113.119C106.371 113.119 106.667 113.179 106.953 113.3C107.239 113.421 107.51 113.596 107.767 113.823L107.338 114.472C106.956 114.069 106.535 113.867 106.073 113.867C105.794 113.867 105.568 113.938 105.396 114.081C105.224 114.221 105.138 114.402 105.138 114.626C105.138 114.798 105.2 114.943 105.325 115.06C105.449 115.174 105.609 115.273 105.803 115.357C105.997 115.442 106.199 115.524 106.408 115.605C106.723 115.722 106.998 115.843 107.233 115.968C107.471 116.093 107.657 116.254 107.789 116.452C107.921 116.646 107.987 116.908 107.987 117.238C107.987 117.623 107.895 117.955 107.712 118.234C107.532 118.513 107.277 118.727 106.947 118.877C106.617 119.024 106.232 119.097 105.792 119.097Z" fill="white"/>
</g>
<defs>
<filter id="filter0_d_253_143" x="0" y="0.921387" width="188.255" height="151.406" filterUnits="userSpaceOnUse" color-interpolation-filters="sRGB">
<feFlood flood-opacity="0" result="BackgroundImageFix"/>
<feColorMatrix in="SourceAlpha" type="matrix" values="0 0 0 0 0 0 0 0 0 0 0 0 0 0 0 0 0 0 127 0" result="hardAlpha"/>
<feOffset dx="8" dy="8"/>
<feGaussianBlur stdDeviation="6"/>
<feComposite in2="hardAlpha" operator="out"/>
<feColorMatrix type="matrix" values="0 0 0 0 0.486275 0 0 0 0 0.419608 0 0 0 0 0.686275 0 0 0 0.22 0"/>
<feBlend mode="normal" in2="BackgroundImageFix" result="effect1_dropShadow_253_143"/>
<feBlend mode="normal" in="SourceGraphic" in2="effect1_dropShadow_253_143" result="shape"/>
</filter>
</defs>
</svg>
