<svg width="199" height="153" viewBox="0 0 199 153" fill="none" xmlns="http://www.w3.org/2000/svg">
<g filter="url(#filter0_d_253_132)">
<path d="M4 33.9214C4 17.9052 16.9837 4.92139 33 4.92139H149.789C165.805 4.92139 178.789 17.9051 178.789 33.9214V103.328C178.789 119.344 165.805 132.328 149.789 132.328H33C16.9837 132.328 4 119.344 4 103.328V33.9214Z" fill="#AB9ED3"/>
<path d="M87.9354 73.3689C86.9198 74.7694 85.393 75.7095 83.6887 75.9836L83.6455 75.9908C80.2625 76.5289 77.5108 74.9211 76.7255 74.4256L60.2431 63.2386C55.9683 60.3386 54.7152 54.7054 57.4432 50.6555C60.1719 46.6056 65.8488 45.6717 70.1229 48.5731C70.1826 48.6388 73.8838 51.978 86.6276 63.4358C89.5564 66.0722 90.1207 70.3446 87.9354 73.3689Z" fill="#459696"/>
<path d="M98.5234 77.4447C97.3451 76.1802 96.7139 74.4989 96.7678 72.7686C96.7678 72.7541 96.7678 72.739 96.7678 72.7245C96.8816 69.2885 98.9747 66.8818 99.6081 66.2022L113.674 52.0704C117.32 48.4062 123.069 48.2372 126.517 51.6912C129.964 55.1452 129.802 60.9157 126.157 64.5792C126.08 64.6261 122.113 67.6417 108.491 78.0327C105.357 80.422 101.066 80.1678 98.5234 77.4447Z" fill="#459696"/>
<path d="M90.2267 89.1408H83.1325C81.071 89.1408 79.3443 88.0277 79.1377 86.5665L78.3243 80.7845C78.0674 78.9615 80.2469 77.4389 82.8 77.6577L90.7075 78.3367C92.7229 78.51 94.2424 79.7293 94.2424 81.1767V86.2798C94.2424 87.8602 92.4444 89.1408 90.2267 89.1408Z" fill="#459696"/>
<path d="M98.0386 89.4785H104.425C106.282 89.4785 107.836 88.3662 108.023 86.9042L108.759 81.1258C108.991 79.3035 107.027 77.7802 104.728 77.999L97.6074 78.678C95.7907 78.8513 94.4238 80.0706 94.4238 81.5181V86.6218C94.4231 88.1979 96.0419 89.4785 98.0386 89.4785Z" fill="#459696"/>
<path d="M118.186 63.5717C118.13 63.2402 117.99 62.4161 117.517 62.3041C117.487 62.297 117.456 62.2931 117.424 62.2926C117.398 62.2909 117.372 62.2789 117.354 62.2591C117.336 62.2394 117.326 62.2133 117.326 62.1864C117.325 60.4208 117.158 58.6593 116.827 56.9252C116.823 56.9053 116.825 56.8848 116.833 56.8661C116.841 56.8473 116.853 56.8311 116.87 56.8193C116.886 56.8075 116.905 56.8006 116.925 56.7994C116.945 56.7982 116.966 56.8027 116.983 56.8125C117.322 56.9996 117.614 57.0711 117.666 57.0104C117.791 56.8659 116.698 55.7363 116.502 55.3903C116.497 55.3816 116.494 55.3724 116.492 55.3628C116.486 55.3419 116.481 55.3202 116.476 55.2985C116.548 55.2263 117.147 55.8879 117.368 55.7456C117.545 55.6315 117.424 55.0407 117.144 54.6275C117.116 54.5864 116.656 53.9204 116.253 54.0309C116.239 54.0353 116.225 54.0368 116.21 54.0355C116.196 54.0342 116.182 54.0301 116.169 54.0234C116.157 54.0167 116.146 54.0075 116.137 53.9964C116.127 53.9853 116.121 53.9725 116.117 53.9587C115.74 52.6519 115.274 51.3728 114.722 50.1305C111.787 43.5959 104.531 34.4711 94.0911 33.9236C94.0732 33.9229 94.0557 33.9176 94.0403 33.9082C94.025 33.8988 94.0123 33.8856 94.0035 33.8699C93.9947 33.8542 93.99 33.8364 93.99 33.8184C93.99 33.8004 93.9946 33.7826 94.0033 33.7669C94.3963 33.0583 94.7044 32.3345 94.456 32.1222C94.1847 31.8903 93.3001 32.3158 92.9193 32.8734C92.8437 32.9849 92.7813 33.1049 92.7336 33.2309C92.6703 33.4121 92.6436 33.6041 92.6551 33.7958C92.6557 33.81 92.6535 33.8242 92.6485 33.8375C92.6435 33.8508 92.636 33.863 92.6263 33.8734C92.6165 33.8838 92.6049 33.8921 92.5919 33.8978C92.5789 33.9036 92.565 33.9067 92.5508 33.907L92.3651 33.912C92.3489 33.9126 92.3329 33.9095 92.3182 33.9029C92.3034 33.8962 92.2904 33.8863 92.2801 33.8738C92.0325 33.5726 91.7273 33.1623 91.52 33.2237C91.3761 33.267 91.2926 33.5343 91.2861 33.8897C91.2855 33.9155 91.2755 33.9401 91.258 33.959C91.2405 33.978 91.2167 33.9898 91.1911 33.9922C78.0673 35.3133 72.0743 49.8589 71.4431 51.4617C71.3438 51.7145 71.1897 52.1053 71.0112 52.6174C70.6016 53.7941 70.267 54.9958 70.0093 56.2151C70.0056 56.23 69.9987 56.244 69.9892 56.256C69.9796 56.2679 69.9676 56.2777 69.9539 56.2846C69.9402 56.2914 69.9252 56.2952 69.9099 56.2957C69.8946 56.2962 69.8794 56.2934 69.8653 56.2874C69.733 56.2324 69.5928 56.1988 69.45 56.1877C68.5985 56.1249 67.8665 56.91 67.9644 57.157C68.0263 57.3166 68.4135 57.2148 68.8281 57.2018C68.8522 57.2015 68.8757 57.2093 68.8947 57.2241C68.9138 57.2388 68.9273 57.2596 68.9331 57.2831C68.9388 57.3066 68.9365 57.3313 68.9265 57.3533C68.9164 57.3752 68.8993 57.3931 68.8778 57.404C68.5215 57.5803 68.2473 57.8374 68.2581 58.031C68.2753 58.3625 69.1067 58.5539 69.5011 58.7735C69.5197 58.7839 69.5348 58.7996 69.5444 58.8187C69.5541 58.8377 69.5578 58.8592 69.5551 58.8804C69.5465 58.9483 69.5378 59.0177 69.5292 59.087C69.5269 59.1071 69.5188 59.126 69.5061 59.1416C69.4933 59.1573 69.4764 59.1689 69.4572 59.1751C69.2751 59.238 69.0253 59.3145 68.8619 59.542C68.5021 60.0289 68.7007 60.9411 69.0167 61.0249C69.0794 61.0379 69.1447 61.0274 69.2002 60.9953C69.2168 60.9868 69.2352 60.9828 69.2538 60.9837C69.2723 60.9846 69.2903 60.9904 69.3059 61.0005C69.3216 61.0106 69.3342 61.0247 69.3427 61.0412C69.3512 61.0578 69.3552 61.0764 69.3543 61.095C69.1844 64.3518 69.5357 68.1453 71.1321 71.8572C71.1381 71.8716 71.1408 71.8872 71.14 71.9028C71.1393 71.9184 71.1351 71.9336 71.1278 71.9474C71.1205 71.9612 71.1103 71.9732 71.0979 71.9826C71.0854 71.992 71.0711 71.9985 71.0559 72.0017C70.3238 72.1411 69.7106 72.3477 69.7192 72.4228C69.73 72.5138 70.6808 72.4733 71.3682 72.5116C71.3871 72.5127 71.4053 72.519 71.4209 72.5297C71.4365 72.5404 71.4489 72.5551 71.4568 72.5723C71.5057 72.6749 71.5554 72.7781 71.6065 72.8807C71.6186 72.9048 71.6211 72.9327 71.6135 72.9586C71.6058 72.9845 71.5887 73.0065 71.5655 73.0201C71.3157 73.1646 71.0364 73.3711 70.8917 73.7186C70.8442 73.832 70.76 74.0321 70.8363 74.2242C71.0004 74.6359 71.844 74.8273 72.4335 74.56C72.4567 74.5497 72.4829 74.5481 72.5071 74.5557C72.5314 74.5633 72.552 74.5794 72.5652 74.6012C72.6027 74.6619 72.6372 74.7218 72.6775 74.7818L72.6984 74.8136C72.7094 74.8308 72.7152 74.8509 72.7152 74.8714C72.7152 74.8918 72.7094 74.9119 72.6984 74.9291C72.3507 75.4745 72.2932 76.157 72.4213 76.2423C72.5357 76.3145 72.8064 75.9064 73.1727 75.6904C73.1958 75.6755 73.2238 75.6703 73.2507 75.6758C73.2776 75.6813 73.3013 75.6972 73.3167 75.7201C74.2257 76.9867 75.2789 78.1425 76.455 79.164C76.4686 79.1757 76.4791 79.1907 76.4853 79.2077C76.4916 79.2246 76.4934 79.2429 76.4905 79.2607C76.4877 79.2785 76.4804 79.2953 76.4692 79.3095C76.4581 79.3237 76.4435 79.3348 76.4269 79.3417C76.203 79.432 76.0157 79.595 75.895 79.8046C75.7388 80.0849 75.6697 80.5269 75.8467 80.6533C76.1419 80.8599 76.8544 80.0033 77.1589 80.1976C77.513 80.4222 76.8544 81.7866 77.0625 81.895C77.2215 81.9766 77.9867 81.3735 78.0874 80.6324C78.0898 80.6144 78.0968 80.5973 78.1077 80.5828C78.1185 80.5683 78.133 80.5569 78.1495 80.5496C78.1661 80.5424 78.1843 80.5395 78.2023 80.5414C78.2203 80.5432 78.2375 80.5497 78.2523 80.5602C85.4998 85.5881 94.3812 85.1236 94.8843 85.089C96.2584 84.9951 103.746 84.3587 109.842 79.0181C109.856 79.0063 109.872 78.9981 109.889 78.9942C109.906 78.9903 109.924 78.9909 109.941 78.9959C109.958 79.0009 109.974 79.0101 109.987 79.0226C109.999 79.0352 110.008 79.0508 110.013 79.0679C110.035 79.1484 110.063 79.2271 110.097 79.3034C110.142 79.4038 110.333 79.827 110.608 79.8292C110.864 79.8292 111.134 79.4681 111.15 79.1517C111.155 79.0607 111.135 79.0506 111.067 78.5558C111.03 78.2914 111.031 78.2669 111.051 78.2351C111.208 77.9938 112.019 78.4229 112.155 78.2228C112.217 78.1333 112.099 77.978 111.651 77.3633C111.637 77.3436 111.629 77.3195 111.631 77.2952C111.632 77.2708 111.642 77.2477 111.658 77.2297C112.413 76.3933 113.103 75.4998 113.721 74.5572L113.732 74.5398C113.788 74.9768 113.864 75.2838 113.916 75.2838C114 75.2838 114.077 74.4849 114.188 73.8291C114.19 73.8161 114.194 73.8036 114.201 73.7922C114.297 73.6324 114.39 73.4725 114.48 73.3126C114.49 73.2948 114.505 73.2802 114.523 73.2705C114.541 73.2609 114.561 73.2567 114.582 73.2584C114.602 73.26 114.621 73.2675 114.637 73.28C114.654 73.2924 114.666 73.3093 114.673 73.3285C114.778 73.6268 114.942 74.0508 115.349 74.2863C115.454 74.3477 115.641 74.4568 115.84 74.4062C116.296 74.2899 116.606 73.3755 116.336 72.7406C116.163 72.3318 115.786 72.1252 115.324 71.9193C115.311 71.9136 115.299 71.9052 115.289 71.8948C115.279 71.8843 115.272 71.872 115.267 71.8585C115.262 71.845 115.26 71.8306 115.26 71.8163C115.261 71.8019 115.265 71.7878 115.271 71.7749C116.136 69.9085 116.734 67.9289 117.047 65.8946C117.05 65.8749 117.058 65.8564 117.071 65.8412C117.084 65.826 117.1 65.8147 117.119 65.8086C117.138 65.8026 117.159 65.802 117.178 65.807C117.197 65.812 117.214 65.8224 117.228 65.8369C117.4 66.021 117.543 66.1222 117.599 66.0983C117.699 66.0564 117.527 65.6194 117.483 64.268C117.46 63.5587 117.501 63.4923 117.524 63.4887C117.644 63.4713 117.843 64.9911 118.045 64.9795C118.178 64.9802 118.306 64.2615 118.186 63.5717Z" fill="#4EADAF"/>
<path d="M74.4987 65.3613C78.4791 65.3613 81.7059 63.108 81.7059 60.3284C81.7059 57.5487 78.4791 55.2954 74.4987 55.2954C70.5183 55.2954 67.2915 57.5487 67.2915 60.3284C67.2915 63.108 70.5183 65.3613 74.4987 65.3613Z" fill="#E37A39"/>
<path d="M112.096 65.6597C116.077 65.6597 119.304 63.4063 119.304 60.6267C119.304 57.8471 116.077 55.5938 112.096 55.5938C108.116 55.5938 104.889 57.8471 104.889 60.6267C104.889 63.4063 108.116 65.6597 112.096 65.6597Z" fill="#E37A39"/>
<path d="M80.3482 57.0846C85.0613 57.0846 88.882 53.4336 88.882 48.9299C88.882 44.4261 85.0613 40.7751 80.3482 40.7751C75.6352 40.7751 71.8145 44.4261 71.8145 48.9299C71.8145 53.4336 75.6352 57.0846 80.3482 57.0846Z" fill="#E2E2E2"/>
<path d="M82.7278 55.5925C85.9454 55.5925 88.5537 53.0998 88.5537 50.025C88.5537 46.9502 85.9454 44.4575 82.7278 44.4575C79.5102 44.4575 76.9019 46.9502 76.9019 50.025C76.9019 53.0998 79.5102 55.5925 82.7278 55.5925Z" fill="black"/>
<path d="M81.5131 46.5294C81.78 45.7525 80.8752 44.7349 79.4921 44.2565C78.1091 43.7781 76.7716 44.02 76.5047 44.7969C76.2378 45.5738 77.1427 46.5914 78.5257 47.0699C79.9087 47.5483 81.2462 47.3063 81.5131 46.5294Z" fill="white"/>
<path d="M106.906 57.7558C111.619 57.7558 115.44 54.1756 115.44 49.7592C115.44 45.3429 111.619 41.7627 106.906 41.7627C102.193 41.7627 98.3721 45.3429 98.3721 49.7592C98.3721 54.1756 102.193 57.7558 106.906 57.7558Z" fill="#E2E2E2"/>
<path d="M104.198 55.6048C107.416 55.6048 110.024 53.1606 110.024 50.1456C110.024 47.1307 107.416 44.6865 104.198 44.6865C100.98 44.6865 98.3721 47.1307 98.3721 50.1456C98.3721 53.1606 100.98 55.6048 104.198 55.6048Z" fill="black"/>
<path d="M108.722 48.433C110.083 47.8981 110.949 46.8555 110.656 46.1045C110.363 45.3534 109.022 45.1783 107.661 45.7132C106.3 46.2482 105.434 47.2907 105.727 48.0418C106.02 48.7928 107.361 48.968 108.722 48.433Z" fill="white"/>
<path d="M101.985 40.5665C100.493 39.9658 99.1284 39.0855 97.9646 37.9727C96.783 36.8593 95.8294 35.5251 95.1574 34.0449L95.0351 33.7661L94.9221 33.4837C94.8422 33.2973 94.7839 33.1023 94.7155 32.9116L94.6169 32.6227C94.5823 32.5273 94.5607 32.4284 94.532 32.3338L94.4499 32.0405C94.4247 31.943 94.3923 31.8462 94.3779 31.7465L94.2541 31.1514C94.2167 30.952 94.1915 30.7512 94.1598 30.5511L94.1368 30.4009C94.1303 30.3511 94.1267 30.3005 94.121 30.2499L94.0922 29.948C94.0843 29.8469 94.0713 29.7465 94.0677 29.6454L94.0562 29.3427C93.9891 27.7303 94.2356 26.1202 94.7817 24.6023C94.4106 26.1447 94.2824 27.7359 94.4017 29.3182C94.4634 30.1023 94.592 30.8797 94.786 31.6418C94.835 31.8318 94.894 32.0188 94.9466 32.2074C94.9753 32.3013 94.9969 32.3973 95.0315 32.4891L95.1294 32.7664C95.197 32.9499 95.2546 33.1377 95.3331 33.3175L95.4446 33.5898L95.5656 33.8571C95.8861 34.5732 96.2716 35.2582 96.7172 35.9034C96.9404 36.2248 97.1721 36.5419 97.4233 36.8423C97.6745 37.1428 97.9344 37.439 98.2079 37.7214C99.315 38.8573 100.589 39.8168 101.985 40.5665Z" fill="#29ABE2"/>
<path d="M96.4154 37.8118C96.1507 37.2305 95.9955 36.6051 95.9576 35.9671C95.9227 35.3237 95.9856 34.6788 96.144 34.0544C96.3119 33.4322 96.552 32.832 96.8595 32.266L97.1056 31.8521C97.1872 31.714 97.2759 31.5802 97.3712 31.4513L97.6491 31.0583L97.95 30.6842C98.0486 30.5578 98.1594 30.4422 98.2667 30.323C98.3739 30.2039 98.4826 30.084 98.5949 29.9742L98.9346 29.6369C99.0517 29.5285 99.17 29.4216 99.2895 29.3162C99.4068 29.2078 99.532 29.1096 99.6551 29.0077C99.7782 28.9059 99.8999 28.8048 100.028 28.7109C100.156 28.617 100.281 28.5173 100.41 28.422L100.802 28.1511C101.854 27.4435 102.982 26.8585 104.166 26.4075C103.049 26.9821 101.977 27.6413 100.959 28.3793C100.456 28.7488 99.9728 29.1447 99.5112 29.5654C99.0489 29.9809 98.6171 30.4294 98.2192 30.9074L97.924 31.2685L97.6527 31.6463C97.4619 31.8926 97.3158 32.1663 97.1488 32.4271C96.842 32.965 96.5935 33.5343 96.4075 34.1252C96.2313 34.7211 96.1376 35.3384 96.1289 35.9599C96.1246 36.5886 96.2213 37.214 96.4154 37.8118Z" fill="#29ABE2"/>
<path d="M108.939 27.7068L108.059 27.108L108.799 26.2268C108.863 26.1502 108.904 26.0571 108.918 25.9581C108.933 25.8591 108.919 25.7581 108.879 25.6665C108.839 25.5748 108.774 25.4962 108.692 25.4395C108.61 25.3828 108.514 25.3503 108.414 25.3456L107.047 25.2835L107.039 24.1278C107.039 24.0274 107.011 23.9292 106.957 23.8443C106.904 23.7594 106.828 23.6912 106.738 23.6474C106.648 23.6037 106.548 23.5862 106.448 23.5969C106.349 23.6077 106.254 23.6462 106.176 23.7081L105.507 24.2289L104.928 23.2957C104.875 23.2107 104.799 23.1423 104.709 23.0983C104.619 23.0543 104.519 23.0364 104.419 23.0468C104.32 23.0572 104.225 23.0954 104.146 23.157C104.067 23.2186 104.007 23.3012 103.972 23.3954L103.439 24.8198L102.195 24.4232C102.1 24.3929 101.999 24.3898 101.902 24.4144C101.805 24.439 101.718 24.4902 101.649 24.5623C101.579 24.6343 101.532 24.7244 101.511 24.8222C101.49 24.9201 101.497 25.0218 101.531 25.1159L101.805 25.8786L100.954 26.091C100.857 26.115 100.769 26.1657 100.699 26.2374C100.63 26.309 100.582 26.3988 100.56 26.4965C100.539 26.5942 100.545 26.6959 100.579 26.7902C100.612 26.8845 100.671 26.9676 100.749 27.03L101.846 27.9083L100.975 29.1297C100.917 29.2109 100.883 29.3069 100.876 29.4066C100.87 29.5064 100.891 29.606 100.938 29.6942C100.985 29.7824 101.055 29.8557 101.142 29.9058C101.228 29.9559 101.326 29.9808 101.426 29.9777L102.427 29.9459L102.371 30.7404C102.364 30.8402 102.384 30.94 102.431 31.0286C102.477 31.1171 102.547 31.1909 102.633 31.2414C102.719 31.2919 102.818 31.3173 102.918 31.3145C103.017 31.3118 103.114 31.281 103.197 31.2258L104.194 30.5664L105.058 31.748C105.117 31.8288 105.197 31.8913 105.29 31.9286C105.382 31.9659 105.483 31.9763 105.582 31.9588C105.68 31.9413 105.771 31.8964 105.845 31.8294C105.919 31.7624 105.973 31.6759 106.001 31.5797L106.324 30.4631L107.216 30.8242C107.308 30.862 107.409 30.8731 107.507 30.8562C107.606 30.8393 107.697 30.7951 107.772 30.7286C107.846 30.6621 107.901 30.576 107.929 30.48C107.957 30.3841 107.958 30.2821 107.931 30.1857L107.62 29.051L108.804 28.6566C108.898 28.625 108.981 28.5678 109.045 28.4913C109.108 28.4149 109.149 28.3222 109.163 28.2236C109.177 28.125 109.164 28.0245 109.124 27.9332C109.085 27.842 109.02 27.7636 108.939 27.7068Z" fill="#F4BE38"/>
<path opacity="0.47" d="M99.5826 24.8569L98.4252 24.0681L99.3991 22.9081C99.4835 22.8075 99.5382 22.6852 99.557 22.5551C99.5759 22.4249 99.5581 22.2921 99.5057 22.1716C99.4533 22.051 99.3684 21.9476 99.2605 21.8729C99.1527 21.7982 99.0261 21.7552 98.8952 21.7488L97.09 21.6665L97.0807 20.1497C97.0806 20.0174 97.0435 19.8879 96.9736 19.7757C96.9037 19.6636 96.8038 19.5735 96.6854 19.5156C96.5669 19.4577 96.4346 19.4343 96.3035 19.4483C96.1725 19.4622 96.0479 19.5127 95.9441 19.5942L95.0638 20.2804L94.3016 19.0525C94.2321 18.9409 94.1329 18.851 94.0152 18.7929C93.8975 18.7349 93.766 18.711 93.6355 18.7239C93.505 18.7368 93.3807 18.786 93.2766 18.866C93.1725 18.9461 93.0927 19.0537 93.0463 19.1767L92.3438 21.0547L90.707 20.5325C90.5818 20.4922 90.4479 20.4879 90.3204 20.5201C90.1929 20.5524 90.077 20.6198 89.9858 20.7148C89.8946 20.8098 89.8317 20.9285 89.8044 21.0576C89.777 21.1866 89.7862 21.3207 89.831 21.4447L90.1909 22.4495L89.0702 22.7283C88.9429 22.7601 88.8271 22.827 88.7357 22.9214C88.6443 23.0158 88.581 23.134 88.5529 23.2625C88.5249 23.3911 88.5331 23.525 88.5769 23.6491C88.6206 23.7731 88.6979 23.8825 88.8003 23.9648L90.2478 25.1241L89.0961 26.7327C89.0195 26.8396 88.9743 26.966 88.9656 27.0973C88.9569 27.2287 88.9851 27.36 89.0469 27.4761C89.1087 27.5923 89.2017 27.6887 89.3154 27.7546C89.429 27.8204 89.5588 27.853 89.6899 27.8486L91.0078 27.8067L90.9359 28.8548C90.9266 28.9861 90.9541 29.1174 91.0153 29.2338C91.0765 29.3503 91.1689 29.4472 91.2821 29.5137C91.3953 29.5802 91.5248 29.6136 91.6559 29.6101C91.7871 29.6067 91.9146 29.5664 92.0242 29.494L93.3371 28.6273L94.4787 30.1824C94.5563 30.2884 94.6621 30.3706 94.7839 30.4194C94.9057 30.4683 95.0387 30.482 95.1678 30.4589C95.297 30.4358 95.4171 30.3769 95.5146 30.2888C95.6121 30.2008 95.6831 30.0871 95.7196 29.9606L96.1449 28.4908L97.3182 28.9689C97.4398 29.0184 97.5728 29.0327 97.7021 29.0103C97.8315 28.9879 97.9519 28.9296 98.05 28.8421C98.148 28.7545 98.2197 28.6412 98.2569 28.5149C98.294 28.3886 98.2953 28.2544 98.2604 28.1274L97.8508 26.6337L99.4092 26.1144C99.5347 26.0734 99.6461 25.9978 99.7308 25.8963C99.8155 25.7947 99.87 25.6713 99.8881 25.5401C99.9062 25.4089 99.8872 25.2753 99.8331 25.1545C99.7791 25.0337 99.6923 24.9305 99.5826 24.8569Z" fill="#F4BE38"/>
<path opacity="0.47" d="M110.431 27.9137L109.274 27.1249L110.246 25.9649C110.331 25.8643 110.385 25.7421 110.404 25.6119C110.423 25.4818 110.405 25.3489 110.353 25.2284C110.301 25.1079 110.216 25.0044 110.108 24.9297C110 24.855 109.873 24.812 109.742 24.8057L107.938 24.7233L107.929 23.2065C107.928 23.0749 107.89 22.9461 107.82 22.8348C107.75 22.7235 107.65 22.634 107.532 22.5766C107.414 22.5191 107.283 22.4959 107.152 22.5095C107.022 22.5232 106.898 22.5732 106.794 22.6539L105.914 23.3394L105.151 22.1115C105.082 21.9999 104.982 21.91 104.865 21.8519C104.747 21.7939 104.615 21.77 104.485 21.783C104.355 21.796 104.23 21.8453 104.126 21.9255C104.022 22.0056 103.943 22.1133 103.896 22.2364L103.193 24.1144L101.556 23.5922C101.431 23.5524 101.298 23.5484 101.171 23.5808C101.043 23.6131 100.928 23.6805 100.837 23.7753C100.746 23.8702 100.683 23.9886 100.656 24.1173C100.628 24.246 100.637 24.3799 100.682 24.5037L101.042 25.5092L99.9203 25.788C99.7929 25.8195 99.6769 25.8863 99.5853 25.9806C99.4938 26.075 99.4305 26.1932 99.4024 26.3218C99.3744 26.4505 99.3829 26.5844 99.4268 26.7085C99.4708 26.8326 99.5485 26.9418 99.6511 27.0238L101.098 28.1838L99.9462 29.7917C99.87 29.8988 99.8252 30.0252 99.8168 30.1566C99.8085 30.288 99.8369 30.4191 99.8989 30.5351C99.9609 30.6511 100.054 30.7474 100.168 30.8131C100.281 30.8788 100.411 30.9113 100.542 30.9069L101.859 30.8643L101.787 31.9123C101.778 32.0436 101.806 32.1749 101.867 32.2914C101.928 32.4078 102.02 32.5048 102.134 32.5713C102.247 32.6378 102.376 32.6712 102.507 32.6677C102.639 32.6642 102.766 32.624 102.876 32.5516L104.188 31.6848L105.329 33.2406C105.407 33.3467 105.513 33.4287 105.635 33.4776C105.757 33.5264 105.89 33.54 106.019 33.517C106.148 33.4939 106.268 33.435 106.366 33.347C106.463 33.259 106.535 33.1453 106.571 33.0189L106.996 31.549L108.17 32.0265C108.291 32.0759 108.424 32.0903 108.554 32.0679C108.683 32.0455 108.803 31.9872 108.902 31.8996C109 31.8121 109.071 31.6987 109.108 31.5725C109.146 31.4462 109.147 31.3119 109.112 31.185L108.702 29.6913L110.26 29.1727C110.386 29.1316 110.497 29.0558 110.582 28.954C110.667 28.8522 110.721 28.7285 110.739 28.5971C110.757 28.4657 110.738 28.3318 110.683 28.211C110.629 28.0901 110.541 27.9871 110.431 27.9137Z" fill="#F4BE38"/>
<path d="M98.1662 24.7987L97.2866 24.2L98.0259 23.3188C98.09 23.2422 98.1316 23.1492 98.1458 23.0502C98.1601 22.9512 98.1464 22.8502 98.1064 22.7586C98.0664 22.667 98.0017 22.5885 97.9195 22.5318C97.8374 22.4752 97.7411 22.4428 97.6415 22.4383L96.2703 22.3754L96.2631 21.2198C96.2627 21.1194 96.2343 21.0212 96.181 20.9363C96.1277 20.8513 96.0518 20.7831 95.9618 20.7394C95.8718 20.6957 95.7713 20.6782 95.6719 20.6889C95.5725 20.6996 95.478 20.7382 95.3994 20.8001L94.7307 21.3209L94.1549 20.3877C94.102 20.3029 94.0266 20.2347 93.9371 20.1906C93.8476 20.1466 93.7477 20.1285 93.6485 20.1384C93.5494 20.1483 93.4549 20.1858 93.3759 20.2467C93.2968 20.3076 93.2363 20.3895 93.2011 20.483L92.6678 21.9074L91.424 21.5108C91.329 21.4805 91.2274 21.4774 91.1308 21.502C91.0342 21.5266 90.9463 21.5778 90.8772 21.6499C90.808 21.722 90.7604 21.812 90.7396 21.9099C90.7188 22.0077 90.7258 22.1094 90.7596 22.2035L91.0339 22.967L90.1802 23.1786C90.0835 23.2027 89.9954 23.2535 89.926 23.3252C89.8566 23.3969 89.8085 23.4867 89.7872 23.5844C89.7659 23.6821 89.7723 23.7838 89.8057 23.878C89.839 23.9722 89.8979 24.0552 89.9758 24.1176L91.0749 24.9988L90.2018 26.2202C90.1437 26.3015 90.1095 26.3975 90.1029 26.4973C90.0963 26.5971 90.1178 26.6968 90.1647 26.785C90.2117 26.8733 90.2823 26.9465 90.3686 26.9966C90.4549 27.0466 90.5535 27.0714 90.6531 27.0682L91.6543 27.0364L91.5975 27.831C91.5904 27.9307 91.6112 28.0305 91.6577 28.119C91.7042 28.2075 91.7745 28.2812 91.8606 28.3317C91.9466 28.3822 92.045 28.4076 92.1447 28.4049C92.2444 28.4021 92.3413 28.3715 92.4245 28.3163L93.4214 27.6569L94.2851 28.8393C94.3443 28.9198 94.4247 28.9821 94.5172 29.0191C94.6098 29.0561 94.7108 29.0664 94.8089 29.0489C94.907 29.0313 94.9983 28.9865 95.0723 28.9196C95.1464 28.8527 95.2003 28.7663 95.2281 28.6703L95.5512 27.5536L96.443 27.9147C96.5354 27.9523 96.6364 27.9632 96.7347 27.9462C96.8329 27.9291 96.9244 27.8848 96.9988 27.8183C97.0733 27.7518 97.1277 27.6657 97.1559 27.5698C97.1841 27.4739 97.185 27.3719 97.1585 27.2755L96.8469 26.1408L98.0323 25.7515C98.127 25.7201 98.2111 25.6627 98.275 25.5859C98.3389 25.5091 98.3802 25.4159 98.3941 25.3168C98.408 25.2177 98.3941 25.1167 98.3538 25.0252C98.3135 24.9336 98.2486 24.8552 98.1662 24.7987Z" fill="#F4BE38"/>
<path d="M89.8807 32.3834C90.1507 31.5412 90.0715 30.1443 88.1007 27.8272C88.026 27.7388 87.9727 27.6344 87.9449 27.522C87.917 27.4096 87.9155 27.2922 87.9403 27.1791C87.9651 27.066 88.0156 26.9601 88.0879 26.8698C88.1601 26.7795 88.2522 26.7072 88.357 26.6585C88.4658 26.6079 88.5851 26.5843 88.7049 26.5896C88.8247 26.5949 88.9415 26.6289 89.0455 26.6888C89.1495 26.7487 89.2376 26.8328 89.3026 26.934C89.3675 27.0352 89.4073 27.1505 89.4186 27.2703C89.7138 30.21 90.7632 31.6394 91.7054 32.4058C96.6805 36.4507 108.116 29.6806 115.653 32.8551C116.34 33.144 118.265 33.9558 118.287 35.1007C118.309 36.3337 116.113 37.2777 115.748 37.4352C110.502 39.6916 104.224 35.68 103.822 36.4478C103.421 37.2156 109.856 40.4926 109.301 42.315C108.954 43.4555 105.902 43.9351 103.282 43.3089C98.082 42.0658 95.8002 36.7576 94.3045 37.4742C93.4717 37.8721 94.1987 39.5089 93.181 42.2673C93.006 42.7412 91.4232 47.0345 88.94 47.0222C87.0606 47.0157 85.1323 44.5491 85.1201 42.3201C85.1028 39.2423 88.7449 37.3492 88.2324 36.5597C87.8524 35.9754 85.439 36.3712 83.5783 37.7992C80.7747 39.9509 81.5003 42.7014 79.3244 43.6224C77.201 44.5202 74.4298 42.7816 73.1148 41.5609C72.1496 40.6631 70.9893 39.5833 71.1714 38.5612C71.8314 34.9519 88.3368 37.1975 89.8807 32.3834Z" fill="#C4D650"/>
<path d="M76.0249 24.3127L83.4653 22.7056L83.0241 25.0805L83.5085 27.3398L77.8848 28.554L77.4004 26.2947L76.0249 24.3127Z" fill="#F4BE38"/>
<path d="M81.8036 33.1124C83.3748 32.7732 84.3969 31.3244 84.0865 29.8763C83.7761 28.4283 82.2507 27.5294 80.6795 27.8685C79.1082 28.2077 78.0861 29.6565 78.3965 31.1046C78.7069 32.5526 80.2323 33.4515 81.8036 33.1124Z" fill="#4EADAF"/>
<path d="M83.2642 26.0435L77.5742 27.2717L78.3871 31.0637L84.0771 29.8355L83.2642 26.0435Z" fill="#4EADAF"/>
<path d="M83.2144 25.6326L77.4526 26.8764C77.2307 26.9243 77.0895 27.1437 77.1372 27.3663L77.1374 27.367C77.1851 27.5897 77.4037 27.7314 77.6256 27.6835L83.3874 26.4398C83.6093 26.3919 83.7505 26.1725 83.7028 25.9498L83.7026 25.9491C83.6549 25.7264 83.4363 25.5847 83.2144 25.6326Z" fill="#C4D650"/>
<path d="M83.7671 28.2144L78.0053 29.4582C77.7834 29.5061 77.6422 29.7254 77.6899 29.9481L77.6901 29.9488C77.7378 30.1715 77.9564 30.3132 78.1783 30.2653L83.9401 29.0216C84.162 28.9737 84.3032 28.7543 84.2555 28.5316L84.2554 28.5309C84.2076 28.3082 83.989 28.1665 83.7671 28.2144Z" fill="#C4D650"/>
<path d="M84.0264 29.4249L78.2646 30.6686C78.0427 30.7165 77.9015 30.9359 77.9492 31.1586L77.9494 31.1593C77.9971 31.382 78.2157 31.5237 78.4376 31.4758L84.1994 30.232C84.4213 30.1841 84.5625 29.9647 84.5148 29.7421L84.5146 29.7414C84.4669 29.5187 84.2483 29.377 84.0264 29.4249Z" fill="#C4D650"/>
<path d="M80.2037 25.4385C83.5397 24.7184 85.7098 21.642 85.0507 18.5673C84.3916 15.4926 81.1529 13.5839 77.8168 14.304C74.4808 15.0241 72.3107 18.1004 72.9698 21.1752C73.6289 24.2499 76.8676 26.1586 80.2037 25.4385Z" fill="#F4BE38"/>
<path d="M78.8742 26.21L77.9263 21.7917" stroke="#E37A39" stroke-width="0.5" stroke-linecap="round"/>
<path d="M81.1501 25.7191L80.2021 21.3" stroke="#E37A39" stroke-width="0.5" stroke-linecap="round"/>
<path d="M77.4684 20.4685C77.5728 20.5472 77.7657 20.7964 77.8859 21.0933C77.9373 21.2116 77.968 21.3379 77.9766 21.4667C77.9848 21.5197 77.9735 21.5738 77.9449 21.6191C77.9003 21.6548 77.8457 21.6755 77.7887 21.6783C77.6508 21.6957 77.5111 21.6926 77.3741 21.6689C77.0344 21.6191 76.7313 21.4934 76.6277 21.4147C76.5104 21.3266 76.424 21.0232 76.7177 20.6924C77.0113 20.3616 77.3518 20.3804 77.4684 20.4685Z" stroke="#E37A39" stroke-width="0.5" stroke-linecap="round"/>
<path d="M81.7351 20.3225C81.6696 20.4367 81.4386 20.6707 81.1449 20.8505C81.0275 20.9257 80.8997 20.9832 80.7656 21.021C80.7129 21.0413 80.655 21.0439 80.6008 21.0282C80.5885 21.0225 80.5504 20.9972 80.5129 20.9011C80.4719 20.7787 80.4517 20.6503 80.4532 20.5212C80.4532 20.2005 80.5317 19.8942 80.5972 19.7808C80.6691 19.6523 80.9786 19.5027 81.3752 19.692C81.7718 19.8812 81.81 20.194 81.7351 20.3225Z" stroke="#E37A39" stroke-width="0.5" stroke-linecap="round"/>
<path d="M78.4639 21.4456L80.0675 21.0989" stroke="#E37A39" stroke-width="0.5" stroke-linecap="round"/>
<path fill-rule="evenodd" clip-rule="evenodd" d="M150.24 79.9812H91.5H30.1238C15.696 79.9812 4 91.6772 4 106.105C4 120.533 15.696 132.229 30.1238 132.229H150C166.016 132.229 179 119.245 179 103.229V79.9812L179 63.3901C178.623 64.925 177.946 66.461 176.984 67.9517C175.657 70.0095 173.814 71.9405 171.561 73.6345C169.308 75.3284 166.689 76.7521 163.853 77.8242C161.018 78.8964 158.021 79.596 155.035 79.8831C154.74 79.9115 154.445 79.9359 154.151 79.9561L154.116 79.9812H153.749C152.561 80.0481 151.388 80.048 150.24 79.9812Z" fill="#F3BD37"/>
<path d="M27.7777 105.921V95.1964H29.4807L34.5117 103.068V95.1964H36.2147V105.921H34.5117L29.4807 98.0564V105.921H27.7777ZM42.0926 106.129C40.9486 106.129 40.1274 105.895 39.6291 105.427C39.1308 104.955 38.8816 104.177 38.8816 103.094V99.2654H40.5001V102.73C40.5001 103.48 40.6193 104.013 40.8576 104.329C41.1003 104.645 41.5119 104.803 42.0926 104.803C42.6733 104.803 43.0828 104.645 43.3211 104.329C43.5638 104.013 43.6851 103.48 43.6851 102.73V99.2654H45.3036V103.094C45.3036 104.177 45.0544 104.955 44.5561 105.427C44.0578 105.895 43.2366 106.129 42.0926 106.129ZM50.8359 106.129C50.1253 106.129 49.4883 105.976 48.9249 105.668C48.3659 105.36 47.9218 104.94 47.5924 104.407C47.2674 103.874 47.1049 103.274 47.1049 102.606C47.1049 102.112 47.1981 101.651 47.3844 101.222C47.5708 100.793 47.8286 100.416 48.1579 100.091C48.4873 99.7659 48.8708 99.5124 49.3084 99.3304C49.7461 99.1484 50.2184 99.0574 50.7254 99.0574C51.4188 99.0574 52.0254 99.2004 52.5454 99.4864C53.0698 99.7724 53.4771 100.171 53.7674 100.682C54.0621 101.194 54.2094 101.79 54.2094 102.47C54.2094 102.526 54.2073 102.574 54.2029 102.613C54.1986 102.648 54.1899 102.708 54.1769 102.795H48.7559C48.7559 103.198 48.8469 103.553 49.0289 103.861C49.2109 104.164 49.4644 104.403 49.7894 104.576C50.1188 104.745 50.4958 104.829 50.9204 104.829C51.3234 104.829 51.6809 104.749 51.9929 104.589C52.3093 104.424 52.5953 104.175 52.8509 103.841L54.0274 104.446C53.7111 104.975 53.2713 105.388 52.7079 105.687C52.1489 105.982 51.5249 106.129 50.8359 106.129ZM48.8274 101.781H52.6039C52.5476 101.478 52.4328 101.215 52.2594 100.994C52.0861 100.773 51.8673 100.602 51.6029 100.481C51.3386 100.355 51.0439 100.292 50.7189 100.292C50.3766 100.292 50.0711 100.353 49.8024 100.474C49.5338 100.596 49.3149 100.767 49.1459 100.988C48.9769 101.209 48.8708 101.473 48.8274 101.781ZM57.952 106.129C57.393 106.129 56.8947 106.025 56.457 105.817C56.0237 105.605 55.6705 105.302 55.3975 104.907L56.1125 103.854C56.3682 104.192 56.652 104.455 56.964 104.641C57.2803 104.827 57.6075 104.92 57.9455 104.92C58.1535 104.92 58.3377 104.884 58.498 104.81C58.6583 104.732 58.7862 104.621 58.8815 104.478C58.9768 104.331 59.0245 104.158 59.0245 103.958C59.0245 103.75 58.9703 103.588 58.862 103.471C58.7537 103.354 58.5912 103.248 58.3745 103.152C58.1578 103.057 57.8848 102.944 57.5555 102.814C57.2782 102.697 57.0138 102.567 56.7625 102.424C56.5112 102.281 56.3032 102.102 56.1385 101.885C55.9782 101.664 55.898 101.384 55.898 101.046C55.898 100.661 56.0042 100.318 56.2165 100.019C56.4332 99.7204 56.7278 99.4864 57.1005 99.3174C57.4775 99.1484 57.9065 99.0639 58.3875 99.0639C58.7342 99.0639 59.083 99.1267 59.434 99.2524C59.785 99.3737 60.136 99.5514 60.487 99.7854L59.902 100.806C59.395 100.386 58.8945 100.175 58.4005 100.175C58.1102 100.175 57.8762 100.245 57.6985 100.383C57.5252 100.522 57.4385 100.7 57.4385 100.916C57.4385 101.094 57.5143 101.246 57.666 101.371C57.8177 101.497 58.0062 101.608 58.2315 101.703C58.4568 101.798 58.6822 101.889 58.9075 101.976C59.2628 102.106 59.5748 102.245 59.8435 102.392C60.1122 102.539 60.3223 102.73 60.474 102.964C60.6257 103.198 60.7015 103.51 60.7015 103.9C60.7015 104.368 60.5888 104.769 60.3635 105.102C60.1425 105.436 59.8262 105.692 59.4145 105.869C59.0028 106.043 58.5153 106.129 57.952 106.129ZM64.6479 106.129C64.0456 106.129 63.5754 105.934 63.2374 105.544C62.9037 105.154 62.7369 104.606 62.7369 103.9V100.494H61.9244V99.2654H62.7369V96.7759H64.3554V99.2654H65.8894V100.494H64.3554V103.789C64.3554 104.08 64.4139 104.303 64.5309 104.459C64.6479 104.611 64.8147 104.686 65.0314 104.686C65.2567 104.686 65.4626 104.617 65.6489 104.478L66.0584 105.772C65.8634 105.885 65.6402 105.971 65.3889 106.032C65.1376 106.097 64.8906 106.129 64.6479 106.129ZM67.9129 105.921V99.2654H69.5314V100.234C69.7654 99.8526 70.0579 99.5622 70.4089 99.3629C70.7599 99.1592 71.1456 99.0574 71.5659 99.0574C71.7869 99.0574 72.0123 99.0877 72.2419 99.1484C72.4759 99.2047 72.6753 99.2806 72.8399 99.3759L72.1704 100.747C72.0274 100.661 71.8606 100.591 71.6699 100.539C71.4836 100.487 71.3103 100.461 71.1499 100.461C70.8726 100.461 70.6104 100.533 70.3634 100.676C70.1164 100.819 69.9149 101.003 69.7589 101.228C69.6073 101.454 69.5314 101.696 69.5314 101.956V105.921H67.9129ZM77.3778 106.129C76.6584 106.129 76.0084 105.98 75.4278 105.681C74.8514 105.382 74.3943 104.966 74.0563 104.433C73.7183 103.9 73.5493 103.287 73.5493 102.593C73.5493 101.896 73.7183 101.283 74.0563 100.754C74.3943 100.221 74.8514 99.8049 75.4278 99.5059C76.0041 99.2069 76.6541 99.0574 77.3778 99.0574C78.0971 99.0574 78.7449 99.2069 79.3213 99.5059C79.9019 99.8049 80.3591 100.221 80.6928 100.754C81.0308 101.283 81.1998 101.896 81.1998 102.593C81.1998 103.287 81.0308 103.9 80.6928 104.433C80.3591 104.966 79.9019 105.382 79.3213 105.681C78.7449 105.98 78.0971 106.129 77.3778 106.129ZM77.3778 104.738C77.7851 104.738 78.1491 104.647 78.4698 104.465C78.7948 104.279 79.0504 104.026 79.2368 103.705C79.4231 103.38 79.5163 103.009 79.5163 102.593C79.5163 102.173 79.4231 101.803 79.2368 101.482C79.0504 101.157 78.7948 100.903 78.4698 100.721C78.1491 100.539 77.7851 100.448 77.3778 100.448C76.9748 100.448 76.6108 100.539 76.2858 100.721C75.9608 100.903 75.7051 101.157 75.5188 101.482C75.3324 101.803 75.2393 102.173 75.2393 102.593C75.2393 103.009 75.3324 103.38 75.5188 103.705C75.7051 104.026 75.9608 104.279 76.2858 104.465C76.6108 104.647 76.9748 104.738 77.3778 104.738ZM89.8699 106.129C89.1506 106.129 88.5006 105.98 87.9199 105.681C87.3436 105.382 86.8864 104.966 86.5484 104.433C86.2104 103.9 86.0414 103.287 86.0414 102.593C86.0414 101.896 86.2104 101.283 86.5484 100.754C86.8864 100.221 87.3436 99.8049 87.9199 99.5059C88.4963 99.2069 89.1463 99.0574 89.8699 99.0574C90.5893 99.0574 91.2371 99.2069 91.8134 99.5059C92.3941 99.8049 92.8513 100.221 93.1849 100.754C93.5229 101.283 93.6919 101.896 93.6919 102.593C93.6919 103.287 93.5229 103.9 93.1849 104.433C92.8513 104.966 92.3941 105.382 91.8134 105.681C91.2371 105.98 90.5893 106.129 89.8699 106.129ZM89.8699 104.738C90.2773 104.738 90.6413 104.647 90.9619 104.465C91.2869 104.279 91.5426 104.026 91.7289 103.705C91.9153 103.38 92.0084 103.009 92.0084 102.593C92.0084 102.173 91.9153 101.803 91.7289 101.482C91.5426 101.157 91.2869 100.903 90.9619 100.721C90.6413 100.539 90.2773 100.448 89.8699 100.448C89.4669 100.448 89.1029 100.539 88.7779 100.721C88.4529 100.903 88.1973 101.157 88.0109 101.482C87.8246 101.803 87.7314 102.173 87.7314 102.593C87.7314 103.009 87.8246 103.38 88.0109 103.705C88.1973 104.026 88.4529 104.279 88.7779 104.465C89.1029 104.647 89.4669 104.738 89.8699 104.738ZM99.7602 106.129C99.2532 106.129 98.783 106.017 98.3497 105.791C97.9207 105.566 97.561 105.254 97.2707 104.855V105.921H95.6522V94.7414H97.2707V100.286C97.5394 99.9002 97.886 99.5991 98.3107 99.3824C98.7397 99.1657 99.212 99.0574 99.7277 99.0574C100.365 99.0574 100.935 99.2112 101.437 99.5189C101.94 99.8266 102.334 100.247 102.62 100.78C102.911 101.309 103.056 101.913 103.056 102.593C103.056 103.278 102.908 103.887 102.614 104.42C102.319 104.953 101.923 105.371 101.424 105.674C100.93 105.978 100.376 106.129 99.7602 106.129ZM99.2987 104.745C99.7017 104.745 100.057 104.654 100.365 104.472C100.677 104.286 100.919 104.032 101.093 103.711C101.27 103.386 101.359 103.016 101.359 102.6C101.359 102.184 101.268 101.813 101.086 101.488C100.909 101.159 100.666 100.903 100.358 100.721C100.051 100.535 99.6974 100.442 99.2987 100.442C98.9 100.442 98.5425 100.535 98.2262 100.721C97.9142 100.903 97.6694 101.159 97.4917 101.488C97.314 101.813 97.2252 102.184 97.2252 102.6C97.2252 103.016 97.3119 103.386 97.4852 103.711C97.6629 104.032 97.9077 104.286 98.2197 104.472C98.536 104.654 98.8957 104.745 99.2987 104.745ZM104.565 109.496C104.297 109.496 104.024 109.464 103.746 109.399C103.469 109.334 103.244 109.243 103.07 109.126L103.564 107.819C103.764 107.971 103.989 108.047 104.24 108.047C104.791 108.047 105.066 107.668 105.066 106.909V99.2654H106.684V107.169C106.684 107.902 106.498 108.472 106.125 108.879C105.757 109.291 105.237 109.496 104.565 109.496ZM105.872 97.8939C105.694 97.8939 105.53 97.8506 105.378 97.7639C105.231 97.6729 105.111 97.5537 105.02 97.4064C104.934 97.2547 104.89 97.0879 104.89 96.9059C104.89 96.7282 104.934 96.5657 105.02 96.4184C105.111 96.2667 105.231 96.1476 105.378 96.0609C105.53 95.9742 105.694 95.9309 105.872 95.9309C106.054 95.9309 106.219 95.9742 106.366 96.0609C106.513 96.1476 106.63 96.2667 106.717 96.4184C106.808 96.5657 106.853 96.7282 106.853 96.9059C106.853 97.0836 106.808 97.2482 106.717 97.3999C106.63 97.5516 106.511 97.6729 106.359 97.7639C106.212 97.8506 106.05 97.8939 105.872 97.8939ZM112.37 106.129C111.659 106.129 111.022 105.976 110.459 105.668C109.9 105.36 109.456 104.94 109.127 104.407C108.802 103.874 108.639 103.274 108.639 102.606C108.639 102.112 108.732 101.651 108.919 101.222C109.105 100.793 109.363 100.416 109.692 100.091C110.021 99.7659 110.405 99.5124 110.843 99.3304C111.28 99.1484 111.753 99.0574 112.26 99.0574C112.953 99.0574 113.56 99.2004 114.08 99.4864C114.604 99.7724 115.011 100.171 115.302 100.682C115.596 101.194 115.744 101.79 115.744 102.47C115.744 102.526 115.741 102.574 115.737 102.613C115.733 102.648 115.724 102.708 115.711 102.795H110.29C110.29 103.198 110.381 103.553 110.563 103.861C110.745 104.164 110.999 104.403 111.324 104.576C111.653 104.745 112.03 104.829 112.455 104.829C112.858 104.829 113.215 104.749 113.527 104.589C113.843 104.424 114.129 104.175 114.385 103.841L115.562 104.446C115.245 104.975 114.805 105.388 114.242 105.687C113.683 105.982 113.059 106.129 112.37 106.129ZM110.362 101.781H114.138C114.082 101.478 113.967 101.215 113.794 100.994C113.62 100.773 113.401 100.602 113.137 100.481C112.873 100.355 112.578 100.292 112.253 100.292C111.911 100.292 111.605 100.353 111.337 100.474C111.068 100.596 110.849 100.767 110.68 100.988C110.511 101.209 110.405 101.473 110.362 101.781ZM119.707 106.129C119.105 106.129 118.635 105.934 118.297 105.544C117.963 105.154 117.796 104.606 117.796 103.9V100.494H116.984V99.2654H117.796V96.7759H119.415V99.2654H120.949V100.494H119.415V103.789C119.415 104.08 119.473 104.303 119.59 104.459C119.707 104.611 119.874 104.686 120.091 104.686C120.316 104.686 120.522 104.617 120.708 104.478L121.118 105.772C120.923 105.885 120.7 105.971 120.448 106.032C120.197 106.097 119.95 106.129 119.707 106.129ZM122.966 105.921V99.2654H124.585V105.921H122.966ZM123.779 97.9004C123.601 97.9004 123.436 97.8571 123.285 97.7704C123.137 97.6794 123.018 97.5602 122.927 97.4129C122.84 97.2612 122.797 97.0944 122.797 96.9124C122.797 96.7347 122.84 96.5722 122.927 96.4249C123.018 96.2776 123.137 96.1606 123.285 96.0739C123.436 95.9829 123.601 95.9374 123.779 95.9374C123.961 95.9374 124.123 95.9829 124.266 96.0739C124.413 96.1606 124.53 96.2776 124.617 96.4249C124.708 96.5722 124.754 96.7347 124.754 96.9124C124.754 97.0944 124.708 97.2612 124.617 97.4129C124.53 97.5602 124.413 97.6794 124.266 97.7704C124.123 97.8571 123.961 97.9004 123.779 97.9004ZM129.265 105.921L125.859 99.2654H127.77L129.804 103.744L131.839 99.2654H133.75L130.344 105.921H129.265ZM138.328 106.129C137.609 106.129 136.959 105.98 136.378 105.681C135.802 105.382 135.344 104.966 135.006 104.433C134.668 103.9 134.499 103.287 134.499 102.593C134.499 101.896 134.668 101.283 135.006 100.754C135.344 100.221 135.802 99.8049 136.378 99.5059C136.954 99.2069 137.604 99.0574 138.328 99.0574C139.047 99.0574 139.695 99.2069 140.271 99.5059C140.852 99.8049 141.309 100.221 141.643 100.754C141.981 101.283 142.15 101.896 142.15 102.593C142.15 103.287 141.981 103.9 141.643 104.433C141.309 104.966 140.852 105.382 140.271 105.681C139.695 105.98 139.047 106.129 138.328 106.129ZM138.328 104.738C138.735 104.738 139.099 104.647 139.42 104.465C139.745 104.279 140.001 104.026 140.187 103.705C140.373 103.38 140.466 103.009 140.466 102.593C140.466 102.173 140.373 101.803 140.187 101.482C140.001 101.157 139.745 100.903 139.42 100.721C139.099 100.539 138.735 100.448 138.328 100.448C137.925 100.448 137.561 100.539 137.236 100.721C136.911 100.903 136.655 101.157 136.469 101.482C136.283 101.803 136.189 102.173 136.189 102.593C136.189 103.009 136.283 103.38 136.469 103.705C136.655 104.026 136.911 104.279 137.236 104.465C137.561 104.647 137.925 104.738 138.328 104.738Z" fill="white"/>
<path d="M31.6177 119.097C30.9357 119.097 30.2995 118.978 29.7092 118.74C29.1225 118.498 28.6073 118.164 28.1637 117.739C27.7237 117.31 27.3808 116.809 27.1352 116.237C26.8895 115.665 26.7667 115.049 26.7667 114.389C26.7667 113.729 26.8895 113.113 27.1352 112.541C27.3845 111.969 27.7292 111.471 28.1692 111.045C28.6092 110.616 29.1225 110.283 29.7092 110.044C30.2958 109.802 30.9302 109.681 31.6122 109.681C32.1768 109.681 32.7085 109.764 33.2072 109.929C33.7095 110.09 34.1477 110.312 34.5217 110.594L34.0157 111.535C33.715 111.293 33.363 111.108 32.9597 110.979C32.5563 110.847 32.131 110.781 31.6837 110.781C31.1447 110.781 30.6497 110.873 30.1987 111.056C29.7477 111.24 29.3553 111.496 29.0217 111.826C28.6917 112.153 28.435 112.536 28.2517 112.976C28.072 113.412 27.9822 113.883 27.9822 114.389C27.9822 114.895 28.072 115.368 28.2517 115.808C28.435 116.245 28.6917 116.628 29.0217 116.958C29.3553 117.284 29.7477 117.539 30.1987 117.722C30.6497 117.906 31.1447 117.997 31.6837 117.997C32.131 117.997 32.5563 117.933 32.9597 117.805C33.363 117.673 33.715 117.486 34.0157 117.244L34.5217 118.184C34.155 118.459 33.7223 118.681 33.2237 118.85C32.725 119.015 32.1897 119.097 31.6177 119.097ZM38.7838 119.097C38.1862 119.097 37.6472 118.971 37.1668 118.718C36.6902 118.465 36.3107 118.113 36.0283 117.662C35.7497 117.211 35.6103 116.692 35.6103 116.105C35.6103 115.515 35.7497 114.996 36.0283 114.549C36.3107 114.098 36.6902 113.746 37.1668 113.493C37.6472 113.24 38.1862 113.113 38.7838 113.113C39.3815 113.113 39.9187 113.24 40.3953 113.493C40.8757 113.746 41.2552 114.098 41.5338 114.549C41.8162 114.996 41.9573 115.515 41.9573 116.105C41.9573 116.692 41.8162 117.211 41.5338 117.662C41.2552 118.113 40.8757 118.465 40.3953 118.718C39.9187 118.971 39.3815 119.097 38.7838 119.097ZM38.7893 118.168C39.1817 118.168 39.5337 118.08 39.8453 117.904C40.157 117.728 40.4027 117.484 40.5823 117.172C40.762 116.861 40.8518 116.505 40.8518 116.105C40.8518 115.702 40.762 115.346 40.5823 115.038C40.4027 114.727 40.157 114.483 39.8453 114.307C39.5337 114.131 39.1817 114.043 38.7893 114.043C38.3933 114.043 38.0395 114.131 37.7278 114.307C37.4162 114.483 37.1705 114.727 36.9908 115.038C36.8112 115.346 36.7213 115.702 36.7213 116.105C36.7213 116.505 36.8112 116.861 36.9908 117.172C37.1705 117.484 37.4162 117.728 37.7278 117.904C38.0395 118.08 38.3933 118.168 38.7893 118.168ZM43.742 118.921V113.289H44.809V114.015C44.9813 113.759 45.2288 113.544 45.5515 113.372C45.8742 113.2 46.2573 113.113 46.701 113.113C47.1373 113.113 47.515 113.205 47.834 113.388C48.153 113.568 48.3987 113.828 48.571 114.169C48.747 114.51 48.835 114.917 48.835 115.39V118.921H47.768V115.605C47.768 115.077 47.6415 114.672 47.3885 114.389C47.1355 114.107 46.7798 113.966 46.3215 113.966C46.0062 113.966 45.7348 114.03 45.5075 114.158C45.2838 114.283 45.1115 114.452 44.9905 114.664C44.8695 114.873 44.809 115.103 44.809 115.352V118.921H43.742ZM53.7047 119.097C53.1071 119.097 52.5681 118.971 52.0877 118.718C51.6111 118.465 51.2316 118.113 50.9492 117.662C50.6706 117.211 50.5312 116.692 50.5312 116.105C50.5312 115.515 50.6706 114.996 50.9492 114.549C51.2316 114.098 51.6111 113.746 52.0877 113.493C52.5681 113.24 53.1071 113.113 53.7047 113.113C54.3024 113.113 54.8396 113.24 55.3162 113.493C55.7966 113.746 56.1761 114.098 56.4547 114.549C56.7371 114.996 56.8782 115.515 56.8782 116.105C56.8782 116.692 56.7371 117.211 56.4547 117.662C56.1761 118.113 55.7966 118.465 55.3162 118.718C54.8396 118.971 54.3024 119.097 53.7047 119.097ZM53.7102 118.168C54.1026 118.168 54.4546 118.08 54.7662 117.904C55.0779 117.728 55.3236 117.484 55.5032 117.172C55.6829 116.861 55.7727 116.505 55.7727 116.105C55.7727 115.702 55.6829 115.346 55.5032 115.038C55.3236 114.727 55.0779 114.483 54.7662 114.307C54.4546 114.131 54.1026 114.043 53.7102 114.043C53.3142 114.043 52.9604 114.131 52.6487 114.307C52.3371 114.483 52.0914 114.727 51.9117 115.038C51.7321 115.346 51.6422 115.702 51.6422 116.105C51.6422 116.505 51.7321 116.861 51.9117 117.172C52.0914 117.484 52.3371 117.728 52.6487 117.904C52.9604 118.08 53.3142 118.168 53.7102 118.168ZM61.3079 119.097C60.8826 119.097 60.4829 119.022 60.1089 118.872C59.7386 118.722 59.4122 118.511 59.1299 118.239C58.8476 117.968 58.6257 117.651 58.4644 117.288C58.3067 116.925 58.2279 116.531 58.2279 116.105C58.2279 115.687 58.3049 115.299 58.4589 114.939C58.6129 114.576 58.8292 114.259 59.1079 113.988C59.3866 113.713 59.7129 113.498 60.0869 113.344C60.4609 113.19 60.8661 113.113 61.3024 113.113C61.6727 113.113 62.0247 113.168 62.3584 113.278C62.6921 113.385 62.9744 113.53 63.2054 113.713L62.8039 114.433C62.4336 114.147 61.9807 114.004 61.4454 114.004C61.0201 114.004 60.6479 114.1 60.3289 114.29C60.0099 114.477 59.7624 114.73 59.5864 115.049C59.4141 115.368 59.3279 115.72 59.3279 116.105C59.3279 116.501 59.4177 116.859 59.5974 117.178C59.7771 117.493 60.0264 117.744 60.3454 117.931C60.6681 118.115 61.0384 118.206 61.4564 118.206C61.7167 118.206 61.9624 118.17 62.1934 118.096C62.4244 118.019 62.6261 117.913 62.7984 117.777L63.2054 118.498C62.9707 118.678 62.6884 118.822 62.3584 118.932C62.0284 119.042 61.6782 119.097 61.3079 119.097ZM67.4962 119.097C66.9058 119.097 66.376 118.967 65.9067 118.707C65.4373 118.447 65.067 118.093 64.7957 117.645C64.5243 117.194 64.3887 116.687 64.3887 116.122C64.3887 115.704 64.4657 115.313 64.6197 114.95C64.7737 114.587 64.9882 114.268 65.2632 113.993C65.5382 113.715 65.8572 113.498 66.2202 113.344C66.5832 113.19 66.9718 113.113 67.3862 113.113C67.9728 113.113 68.4862 113.234 68.9262 113.476C69.3698 113.718 69.7145 114.056 69.9602 114.488C70.2095 114.921 70.3342 115.423 70.3342 115.995C70.3342 116.043 70.3323 116.082 70.3287 116.111C70.325 116.14 70.3177 116.179 70.3067 116.226H65.4667C65.4667 116.619 65.5547 116.965 65.7307 117.266C65.9103 117.567 66.156 117.803 66.4677 117.975C66.783 118.144 67.1442 118.228 67.5512 118.228C67.9362 118.228 68.2808 118.15 68.5852 117.992C68.8895 117.834 69.1535 117.6 69.3772 117.288L70.1582 117.695C69.8905 118.139 69.522 118.483 69.0527 118.729C68.587 118.975 68.0682 119.097 67.4962 119.097ZM65.5217 115.44H69.2617C69.2103 115.15 69.0967 114.897 68.9207 114.681C68.7483 114.461 68.5302 114.29 68.2662 114.169C68.0058 114.045 67.718 113.982 67.4027 113.982C67.0727 113.982 66.7738 114.043 66.5062 114.164C66.2422 114.281 66.024 114.45 65.8517 114.67C65.683 114.886 65.573 115.143 65.5217 115.44ZM77.6368 119.097C77.0464 119.097 76.5166 118.967 76.0473 118.707C75.578 118.447 75.2076 118.093 74.9363 117.645C74.6649 117.194 74.5293 116.687 74.5293 116.122C74.5293 115.704 74.6063 115.313 74.7603 114.95C74.9143 114.587 75.1288 114.268 75.4038 113.993C75.6788 113.715 75.9978 113.498 76.3608 113.344C76.7238 113.19 77.1124 113.113 77.5268 113.113C78.1135 113.113 78.6268 113.234 79.0668 113.476C79.5105 113.718 79.8551 114.056 80.1008 114.488C80.3501 114.921 80.4748 115.423 80.4748 115.995C80.4748 116.043 80.473 116.082 80.4693 116.111C80.4656 116.14 80.4583 116.179 80.4473 116.226H75.6073C75.6073 116.619 75.6953 116.965 75.8713 117.266C76.0509 117.567 76.2966 117.803 76.6083 117.975C76.9236 118.144 77.2848 118.228 77.6918 118.228C78.0768 118.228 78.4215 118.15 78.7258 117.992C79.0301 117.834 79.2941 117.6 79.5178 117.288L80.2988 117.695C80.0311 118.139 79.6626 118.483 79.1933 118.729C78.7276 118.975 78.2088 119.097 77.6368 119.097ZM75.6623 115.44H79.4023C79.351 115.15 79.2373 114.897 79.0613 114.681C78.889 114.461 78.6708 114.29 78.4068 114.169C78.1465 114.045 77.8586 113.982 77.5433 113.982C77.2133 113.982 76.9145 114.043 76.6468 114.164C76.3828 114.281 76.1646 114.45 75.9923 114.67C75.8236 114.886 75.7136 115.143 75.6623 115.44ZM82.2313 118.921V109.461H83.2983V118.921H82.2313ZM88.4188 121.781V113.289H89.4858V114.312C89.7131 113.935 90.0193 113.641 90.4043 113.432C90.7929 113.22 91.2201 113.113 91.6858 113.113C92.2284 113.113 92.7106 113.244 93.1323 113.504C93.5576 113.764 93.8931 114.12 94.1388 114.571C94.3844 115.018 94.5073 115.53 94.5073 116.105C94.5073 116.674 94.3844 117.185 94.1388 117.64C93.8968 118.091 93.5649 118.447 93.1433 118.707C92.7216 118.967 92.2431 119.097 91.7078 119.097C91.2458 119.097 90.8204 118.989 90.4318 118.773C90.0431 118.557 89.7278 118.254 89.4858 117.865V121.781H88.4188ZM91.4273 118.179C91.8086 118.179 92.1478 118.091 92.4448 117.915C92.7418 117.735 92.9746 117.49 93.1433 117.178C93.3119 116.866 93.3963 116.511 93.3963 116.111C93.3963 115.708 93.3101 115.35 93.1378 115.038C92.9691 114.723 92.7363 114.477 92.4393 114.301C92.1459 114.122 91.8086 114.032 91.4273 114.032C91.0459 114.032 90.7049 114.122 90.4043 114.301C90.1073 114.477 89.8726 114.721 89.7003 115.033C89.5316 115.345 89.4473 115.702 89.4473 116.105C89.4473 116.509 89.5316 116.866 89.7003 117.178C89.8726 117.49 90.1073 117.735 90.4043 117.915C90.7049 118.091 91.0459 118.179 91.4273 118.179ZM99.069 119.097C98.4713 119.097 97.9323 118.971 97.452 118.718C96.9753 118.465 96.5958 118.113 96.3135 117.662C96.0348 117.211 95.8955 116.692 95.8955 116.105C95.8955 115.515 96.0348 114.996 96.3135 114.549C96.5958 114.098 96.9753 113.746 97.452 113.493C97.9323 113.24 98.4713 113.113 99.069 113.113C99.6667 113.113 100.204 113.24 100.68 113.493C101.161 113.746 101.54 114.098 101.819 114.549C102.101 114.996 102.242 115.515 102.242 116.105C102.242 116.692 102.101 117.211 101.819 117.662C101.54 118.113 101.161 118.465 100.68 118.718C100.204 118.971 99.6667 119.097 99.069 119.097ZM99.0745 118.168C99.4668 118.168 99.8188 118.08 100.13 117.904C100.442 117.728 100.688 117.484 100.867 117.172C101.047 116.861 101.137 116.505 101.137 116.105C101.137 115.702 101.047 115.346 100.867 115.038C100.688 114.727 100.442 114.483 100.13 114.307C99.8188 114.131 99.4668 114.043 99.0745 114.043C98.6785 114.043 98.3247 114.131 98.013 114.307C97.7013 114.483 97.4557 114.727 97.276 115.038C97.0963 115.346 97.0065 115.702 97.0065 116.105C97.0065 116.505 97.0963 116.861 97.276 117.172C97.4557 117.484 97.7013 117.728 98.013 117.904C98.3247 118.08 98.6785 118.168 99.0745 118.168ZM104.027 118.921V113.289H105.094V114.114C105.281 113.788 105.519 113.541 105.809 113.372C106.099 113.2 106.427 113.113 106.794 113.113C106.97 113.113 107.147 113.135 107.327 113.179C107.51 113.22 107.668 113.275 107.8 113.344L107.36 114.246C107.246 114.184 107.114 114.135 106.964 114.098C106.814 114.061 106.673 114.043 106.541 114.043C106.295 114.043 106.06 114.107 105.837 114.235C105.617 114.36 105.437 114.523 105.298 114.725C105.162 114.927 105.094 115.143 105.094 115.374V118.921H104.027ZM116.596 121.781V117.865C116.35 118.254 116.033 118.557 115.645 118.773C115.26 118.989 114.836 119.097 114.374 119.097C113.839 119.097 113.36 118.967 112.939 118.707C112.517 118.447 112.183 118.091 111.938 117.64C111.696 117.185 111.575 116.674 111.575 116.105C111.575 115.53 111.697 115.018 111.943 114.571C112.189 114.12 112.522 113.764 112.944 113.504C113.369 113.244 113.853 113.113 114.396 113.113C114.862 113.113 115.287 113.22 115.672 113.432C116.057 113.641 116.365 113.937 116.596 114.318V113.289H117.663V121.781H116.596ZM114.655 118.179C115.04 118.179 115.381 118.091 115.678 117.915C115.975 117.735 116.207 117.49 116.376 117.178C116.545 116.866 116.629 116.509 116.629 116.105C116.629 115.702 116.545 115.345 116.376 115.033C116.207 114.721 115.975 114.477 115.678 114.301C115.381 114.122 115.041 114.032 114.66 114.032C114.279 114.032 113.94 114.122 113.643 114.301C113.346 114.477 113.111 114.721 112.939 115.033C112.77 115.345 112.686 115.702 112.686 116.105C112.686 116.509 112.77 116.866 112.939 117.178C113.107 117.49 113.34 117.735 113.637 117.915C113.934 118.091 114.273 118.179 114.655 118.179ZM122.335 119.097C121.429 119.097 120.78 118.903 120.388 118.514C119.996 118.122 119.799 117.471 119.799 116.562V113.289H120.866V116.342C120.866 117.017 120.978 117.497 121.202 117.783C121.426 118.069 121.803 118.212 122.335 118.212C122.87 118.212 123.25 118.069 123.473 117.783C123.697 117.497 123.809 117.017 123.809 116.342V113.289H124.876V116.562C124.876 117.471 124.68 118.122 124.287 118.514C123.895 118.903 123.244 119.097 122.335 119.097ZM129.672 119.097C129.082 119.097 128.552 118.967 128.082 118.707C127.613 118.447 127.243 118.093 126.971 117.645C126.7 117.194 126.564 116.687 126.564 116.122C126.564 115.704 126.641 115.313 126.795 114.95C126.949 114.587 127.164 114.268 127.439 113.993C127.714 113.715 128.033 113.498 128.396 113.344C128.759 113.19 129.148 113.113 129.562 113.113C130.149 113.113 130.662 113.234 131.102 113.476C131.546 113.718 131.89 114.056 132.136 114.488C132.385 114.921 132.51 115.423 132.51 115.995C132.51 116.043 132.508 116.082 132.504 116.111C132.501 116.14 132.493 116.179 132.482 116.226H127.642C127.642 116.619 127.73 116.965 127.906 117.266C128.086 117.567 128.332 117.803 128.643 117.975C128.959 118.144 129.32 118.228 129.727 118.228C130.112 118.228 130.457 118.15 130.761 117.992C131.065 117.834 131.329 117.6 131.553 117.288L132.334 117.695C132.066 118.139 131.698 118.483 131.228 118.729C130.763 118.975 130.244 119.097 129.672 119.097ZM127.697 115.44H131.437C131.386 115.15 131.272 114.897 131.096 114.681C130.924 114.461 130.706 114.29 130.442 114.169C130.182 114.045 129.894 113.982 129.578 113.982C129.248 113.982 128.95 114.043 128.682 114.164C128.418 114.281 128.2 114.45 128.027 114.67C127.859 114.886 127.749 115.143 127.697 115.44ZM129.435 112.563L128.935 112.178L130.123 109.989L130.904 110.561L129.435 112.563Z" fill="white"/>
</g>
<defs>
<filter id="filter0_d_253_132" x="0" y="0.921387" width="199" height="151.406" filterUnits="userSpaceOnUse" color-interpolation-filters="sRGB">
<feFlood flood-opacity="0" result="BackgroundImageFix"/>
<feColorMatrix in="SourceAlpha" type="matrix" values="0 0 0 0 0 0 0 0 0 0 0 0 0 0 0 0 0 0 127 0" result="hardAlpha"/>
<feOffset dx="8" dy="8"/>
<feGaussianBlur stdDeviation="6"/>
<feComposite in2="hardAlpha" operator="out"/>
<feColorMatrix type="matrix" values="0 0 0 0 0.486275 0 0 0 0 0.419608 0 0 0 0 0.686275 0 0 0 0.22 0"/>
<feBlend mode="normal" in2="BackgroundImageFix" result="effect1_dropShadow_253_132"/>
<feBlend mode="normal" in="SourceGraphic" in2="effect1_dropShadow_253_132" result="shape"/>
</filter>
</defs>
</svg>
