<svg width="337" height="396" viewBox="0 0 337 396" fill="none" xmlns="http://www.w3.org/2000/svg">
<g clip-path="url(#clip0_255_68)" filter="url(#filter0_dd_255_68)">
<path d="M282.865 193.099C279.827 184.635 279.349 175.468 281.49 166.74L281.524 166.601C298.029 98.9226 250.554 30.5902 177.756 25.0516C132.569 21.611 81.2631 53.2822 64.0654 95.1131C60.6345 103.427 58.1657 112.105 56.707 120.98C53.0353 143.459 47.0315 165.51 38.2736 186.536C36.664 190.398 35.2325 194.367 33.9789 198.443C10.9882 273.276 58.7766 351.731 135.947 365.846C203.763 378.25 270.277 335.832 286.788 268.129C293.082 242.302 291.228 216.392 282.865 193.099Z" fill="#CE9C2C"/>
<path d="M272.206 196.888C269.413 189.105 268.973 180.676 270.943 172.65L270.974 172.522C286.15 110.295 242.501 47.4747 175.571 42.3818C134.026 39.2232 86.8559 68.3405 71.0415 106.799C67.8869 114.443 65.617 122.422 64.276 130.582C60.9012 151.249 55.3809 171.523 47.3281 190.855C45.8489 194.404 44.5342 198.053 43.384 201.8C22.2469 270.6 66.1833 342.732 137.129 355.709C199.478 367.113 260.63 328.112 275.81 265.869C281.599 242.122 279.894 218.303 272.206 196.888Z" fill="#F4BE38"/>
<path d="M239.575 307.636C242.589 308.371 245.626 306.529 246.36 303.521C247.093 300.514 245.245 297.48 242.231 296.745C239.217 296.01 236.18 297.852 235.446 300.86C234.713 303.867 236.561 306.901 239.575 307.636Z" fill="#CE9C2C"/>
<path d="M214.554 328.132C217.568 328.867 220.605 327.025 221.339 324.017C222.072 321.01 220.224 317.976 217.21 317.241C214.196 316.506 211.159 318.348 210.425 321.356C209.692 324.363 211.54 327.397 214.554 328.132Z" fill="#CE9C2C"/>
<path d="M220.105 306.529C223.119 307.264 226.156 305.421 226.89 302.414C227.623 299.406 225.775 296.373 222.761 295.638C219.748 294.903 216.71 296.745 215.976 299.752C215.243 302.76 217.091 305.794 220.105 306.529Z" fill="#CE9C2C"/>
<path d="M245.329 278.196C248.343 278.931 251.38 277.089 252.114 274.081C252.847 271.074 250.999 268.04 247.985 267.305C244.971 266.57 241.934 268.412 241.2 271.42C240.467 274.427 242.315 277.461 245.329 278.196Z" fill="#CE9C2C"/>
<path d="M94.9353 150.399C119.032 156.276 143.094 142.476 148.679 119.576C154.264 96.6754 139.257 73.3473 115.16 67.4706C91.0631 61.5938 67.0014 75.394 61.4165 98.2941C55.8317 121.194 70.8386 144.522 94.9353 150.399Z" fill="#E2E2E2"/>
<path d="M110.838 131.809C127.289 135.821 143.716 126.4 147.529 110.766C151.341 95.1326 141.096 79.2068 124.645 75.1948C108.194 71.1828 91.7676 80.6039 87.9549 96.2374C84.1422 111.871 94.3874 127.797 110.838 131.809Z" fill="black"/>
<path d="M91.0833 117.325C93.4116 113.707 90.0478 107.405 83.5701 103.248C77.0925 99.091 69.9538 98.6541 67.6256 102.272C65.2973 105.89 68.6611 112.193 75.1388 116.35C81.6165 120.507 88.7551 120.943 91.0833 117.325Z" fill="white"/>
<path d="M229.893 186.927C253.99 192.804 277.964 179.364 283.44 156.909C288.916 134.454 273.822 111.487 249.725 105.61C225.628 99.7333 201.654 113.173 196.178 135.628C190.702 158.083 205.796 181.05 229.893 186.927Z" fill="#E2E2E2"/>
<path d="M221.923 162.547C238.374 166.559 254.741 157.384 258.48 142.055C262.218 126.725 251.913 111.045 235.462 107.033C219.011 103.021 202.645 112.196 198.906 127.526C195.167 142.855 205.473 158.535 221.923 162.547Z" fill="black"/>
<path d="M260.085 159.95C267.708 158.926 273.428 154.706 272.861 150.522C272.293 146.338 265.653 143.776 258.03 144.799C250.407 145.822 244.688 150.043 245.255 154.227C245.823 158.411 252.462 160.973 260.085 159.95Z" fill="white"/>
<path d="M254.987 288.257C258.001 288.992 261.039 287.15 261.772 284.142C262.505 281.135 260.657 278.101 257.643 277.366C254.63 276.631 251.592 278.473 250.858 281.481C250.125 284.488 251.974 287.522 254.987 288.257Z" fill="#CE9C2C"/>
<path d="M233.197 285.552C236.211 286.287 239.249 284.445 239.982 281.438C240.716 278.43 238.867 275.397 235.853 274.662C232.84 273.927 229.802 275.769 229.069 278.776C228.335 281.784 230.184 284.818 233.197 285.552Z" fill="#CE9C2C"/>
<path d="M196.813 323.537C199.827 324.272 202.865 322.43 203.598 319.422C204.332 316.415 202.483 313.381 199.469 312.646C196.456 311.911 193.418 313.753 192.685 316.761C191.951 319.768 193.8 322.802 196.813 323.537Z" fill="#CE9C2C"/>
<path d="M203.769 264.61C206.782 265.345 209.82 263.503 210.553 260.495C211.287 257.488 209.438 254.454 206.425 253.719C203.411 252.984 200.373 254.826 199.64 257.834C198.907 260.841 200.755 263.875 203.769 264.61Z" fill="#CE9C2C"/>
<path d="M199.259 210.493C202.273 211.228 205.31 209.386 206.044 206.379C206.777 203.371 204.929 200.337 201.915 199.603C198.901 198.868 195.864 200.71 195.13 203.717C194.397 206.725 196.245 209.758 199.259 210.493Z" fill="#CE9C2C"/>
</g>
<defs>
<filter id="filter0_dd_255_68" x="-3.1106" y="0.0625" width="344.111" height="403.24" filterUnits="userSpaceOnUse" color-interpolation-filters="sRGB">
<feFlood flood-opacity="0" result="BackgroundImageFix"/>
<feColorMatrix in="SourceAlpha" type="matrix" values="0 0 0 0 0 0 0 0 0 0 0 0 0 0 0 0 0 0 127 0" result="hardAlpha"/>
<feOffset dy="4"/>
<feGaussianBlur stdDeviation="2"/>
<feComposite in2="hardAlpha" operator="out"/>
<feColorMatrix type="matrix" values="0 0 0 0 0 0 0 0 0 0 0 0 0 0 0 0 0 0 0.25 0"/>
<feBlend mode="normal" in2="BackgroundImageFix" result="effect1_dropShadow_255_68"/>
<feColorMatrix in="SourceAlpha" type="matrix" values="0 0 0 0 0 0 0 0 0 0 0 0 0 0 0 0 0 0 127 0" result="hardAlpha"/>
<feOffset dy="4"/>
<feGaussianBlur stdDeviation="2"/>
<feComposite in2="hardAlpha" operator="out"/>
<feColorMatrix type="matrix" values="0 0 0 0 0 0 0 0 0 0 0 0 0 0 0 0 0 0 0.25 0"/>
<feBlend mode="normal" in2="effect1_dropShadow_255_68" result="effect2_dropShadow_255_68"/>
<feBlend mode="normal" in="SourceGraphic" in2="effect2_dropShadow_255_68" result="shape"/>
</filter>
<clipPath id="clip0_255_68">
<rect width="262.349" height="342.843" fill="white" transform="translate(82.1208 0.0625) rotate(13.7057)"/>
</clipPath>
</defs>
</svg>
