<svg width="194" height="266" viewBox="0 0 194 266" fill="none" xmlns="http://www.w3.org/2000/svg">
<path d="M0 29C0 12.9837 12.9837 0 29 0H165C181.016 0 194 12.9837 194 29V236.467C194 252.483 181.016 265.467 165 265.467H29C12.9837 265.467 0 252.483 0 236.467V29Z" fill="#AB9ED3"/>
<path d="M72.8249 189.109C68.7816 190.777 64.2424 190.777 60.1991 189.109L60.0958 189.065C52.0724 185.733 48.2498 178.632 47.2084 176.525L26.3476 130.585C20.9403 118.676 25.681 104.881 36.9155 99.7749C48.1599 94.6693 61.6605 100.186 67.0761 112.096C67.1177 112.317 70.707 124.415 83.1145 165.98C85.9639 175.543 81.5365 185.498 72.8249 189.109Z" fill="#459696"/>
<path d="M92.2677 212.919L74.3029 212.262C69.079 212.071 64.8048 209.096 64.4183 205.392L62.8836 190.728C62.4003 186.103 68.0642 182.458 74.5112 183.248L94.4872 185.686C99.5812 186.309 103.319 189.529 103.18 193.185L102.709 206.069C102.559 210.056 97.8865 213.127 92.2677 212.919Z" fill="#459696"/>
<path d="M112.029 214.494L128.207 215.085C132.911 215.252 136.952 212.586 137.558 208.92L139.953 194.391C140.708 189.81 135.875 185.783 130.032 186.124L111.929 187.179C107.311 187.447 103.735 190.4 103.597 194.054L103.127 206.94C102.985 210.926 106.97 214.309 112.029 214.494Z" fill="#459696"/>
<path d="M134.936 111.591C139.152 110.431 143.657 110.987 147.465 113.137L147.563 113.194C155.117 117.48 158.034 125.006 158.808 127.226L173.856 175.383C177.757 187.871 171.357 200.976 159.576 204.659C147.788 208.341 135.069 201.206 131.168 188.72C131.155 188.494 129.08 176.056 121.882 133.273C120.227 123.437 125.846 114.102 134.936 111.591Z" fill="#459696"/>
<path d="M165.473 150.953C165.361 150.11 165.083 148.017 163.897 147.692C163.82 147.67 163.741 147.657 163.662 147.654C163.593 147.647 163.531 147.615 163.486 147.563C163.442 147.511 163.419 147.444 163.423 147.375C163.582 142.917 163.321 138.454 162.643 134.045C162.636 133.994 162.642 133.943 162.663 133.896C162.684 133.849 162.717 133.809 162.76 133.781C162.802 133.752 162.852 133.737 162.903 133.736C162.954 133.735 163.005 133.748 163.048 133.775C163.89 134.275 164.623 134.485 164.76 134.336C165.093 133.978 162.427 131.03 161.96 130.139C161.948 130.117 161.94 130.093 161.937 130.069L161.902 129.902C161.902 129.902 161.902 129.902 161.902 129.894C162.092 129.727 163.547 131.444 164.12 131.105C164.578 130.835 164.328 129.329 163.658 128.261C163.59 128.154 162.492 126.428 161.454 126.673C161.384 126.69 161.311 126.68 161.249 126.644C161.187 126.608 161.141 126.55 161.12 126.481C160.288 123.148 159.226 119.875 157.941 116.688C151.109 99.9183 133.568 76.2097 107.17 73.8635C107.099 73.8576 107.033 73.8238 106.986 73.7694C106.94 73.7151 106.917 73.6447 106.923 73.5736C106.927 73.5328 106.94 73.4934 106.961 73.4586C108.023 71.7056 108.869 69.9077 108.261 69.3478C107.594 68.7379 105.313 69.7294 104.298 71.1008C104.098 71.3759 103.93 71.6734 103.799 71.9873C103.622 72.4393 103.537 72.9219 103.549 73.407C103.549 73.4426 103.542 73.4778 103.528 73.5107C103.514 73.5435 103.494 73.5734 103.469 73.5984C103.444 73.6235 103.414 73.6434 103.381 73.6568C103.348 73.6703 103.313 73.6771 103.277 73.6769H102.807C102.766 73.6778 102.726 73.6689 102.689 73.651C102.652 73.633 102.62 73.6065 102.596 73.5736C101.996 72.7888 101.262 71.7273 100.729 71.8656C100.361 71.9623 100.124 72.6288 100.076 73.5319C100.072 73.5971 100.044 73.6584 99.9974 73.7044C99.9511 73.7504 99.8896 73.778 99.8244 73.7819C66.4278 75.8965 49.9027 112.064 48.1631 116.052C47.8898 116.68 47.4616 117.653 46.9567 118.926C45.8096 121.862 44.8506 124.867 44.0856 127.924C44.0769 127.959 44.0613 127.992 44.0397 128.021C44.0181 128.049 43.9909 128.074 43.9599 128.092C43.9288 128.11 43.8944 128.121 43.8587 128.126C43.8231 128.13 43.7869 128.127 43.7523 128.118C43.7362 128.114 43.7206 128.109 43.7057 128.103C43.3761 127.951 43.0246 127.853 42.6642 127.811C40.513 127.573 38.59 129.477 38.8116 130.119C38.9533 130.529 39.9431 130.307 40.9962 130.312C41.0573 130.313 41.1162 130.335 41.1632 130.374C41.2103 130.413 41.2428 130.467 41.2553 130.527C41.2679 130.586 41.2598 130.649 41.2324 130.703C41.205 130.758 41.1599 130.801 41.1045 130.827C40.1864 131.239 39.4665 131.855 39.4748 132.353C39.4898 133.187 41.5794 133.753 42.5576 134.341C42.6036 134.369 42.6402 134.411 42.6627 134.46C42.6853 134.509 42.6928 134.563 42.6842 134.616C42.6559 134.783 42.6275 134.963 42.6009 135.136C42.593 135.186 42.5712 135.233 42.5379 135.272C42.5046 135.31 42.4612 135.338 42.4126 135.353C41.9443 135.494 41.3161 135.664 40.8712 136.223C39.9164 137.419 40.333 139.742 41.1245 139.982C41.2823 140.021 41.4488 140.001 41.5928 139.925C41.6571 139.895 41.7308 139.891 41.7979 139.915C41.865 139.939 41.92 139.988 41.951 140.052C41.971 140.095 41.9796 140.143 41.976 140.19C41.2462 148.395 41.7827 158.005 45.487 167.53C45.5126 167.596 45.5111 167.669 45.4826 167.734C45.4542 167.799 45.4013 167.85 45.3353 167.876C45.3173 167.884 45.2982 167.89 45.2787 167.893C43.4107 168.176 41.8377 168.641 41.8544 168.831C41.8727 169.064 44.2839 169.049 46.0202 169.209C46.0685 169.215 46.1145 169.233 46.1532 169.262C46.192 169.292 46.222 169.331 46.2402 169.376C46.3512 169.642 46.4684 169.906 46.5917 170.171C46.6196 170.233 46.6229 170.303 46.6009 170.367C46.579 170.432 46.5334 170.485 46.4734 170.517C45.8286 170.851 45.102 171.351 44.7038 172.219C44.5722 172.5 44.3405 172.999 44.5155 173.485C44.8938 174.542 47.005 175.103 48.5314 174.485C48.5918 174.461 48.6588 174.46 48.7201 174.482C48.7813 174.504 48.8326 174.547 48.8646 174.603C48.9513 174.758 49.0396 174.913 49.1312 175.068L49.1796 175.15C49.2062 175.195 49.2193 175.246 49.2176 175.298C49.2158 175.35 49.1991 175.4 49.1696 175.443C48.2381 176.788 48.0298 178.509 48.3464 178.731C48.6297 178.931 49.3462 177.919 50.301 177.408C50.3604 177.375 50.43 177.366 50.4958 177.382C50.5617 177.398 50.6189 177.439 50.6559 177.496C52.8421 180.772 55.4027 183.783 58.2861 186.466C58.338 186.514 58.3687 186.58 58.3715 186.651C58.3743 186.722 58.349 186.791 58.3011 186.843C58.2729 186.874 58.2374 186.898 58.1977 186.913C57.6218 187.12 57.1318 187.514 56.8064 188.032C56.3848 188.724 56.1682 189.839 56.6081 190.17C57.3346 190.718 59.2225 188.627 59.9724 189.14C60.8489 189.74 59.0559 193.128 59.5725 193.418C59.9674 193.638 61.9603 192.186 62.2853 190.323C62.2913 190.289 62.3041 190.256 62.323 190.226C62.3419 190.197 62.3665 190.171 62.3953 190.151C62.4241 190.131 62.4566 190.117 62.491 190.11C62.5253 190.102 62.5607 190.102 62.5952 190.109C62.6365 190.116 62.6754 190.133 62.7085 190.159C80.6066 203.523 103.15 203.171 104.428 203.131C107.918 203.021 126.947 202.108 142.884 189.189C142.939 189.144 143.009 189.122 143.08 189.129C143.15 189.135 143.215 189.169 143.261 189.224C143.286 189.254 143.304 189.29 143.314 189.329C143.361 189.535 143.425 189.736 143.504 189.932C143.609 190.189 144.054 191.275 144.749 191.308C145.399 191.338 146.115 190.442 146.187 189.642C146.207 189.414 146.155 189.387 146.02 188.131C145.952 187.464 145.958 187.391 146.01 187.317C146.43 186.724 148.445 187.882 148.81 187.391C148.976 187.169 148.688 186.766 147.613 185.175C147.58 185.124 147.564 185.063 147.57 185.002C147.576 184.942 147.602 184.885 147.645 184.841C149.635 182.801 151.464 180.611 153.117 178.289L153.147 178.248C153.247 179.356 153.41 180.137 153.544 180.142C153.759 180.152 154.025 178.143 154.367 176.493C154.374 176.461 154.387 176.43 154.405 176.403C154.662 176.008 154.905 175.613 155.157 175.218C155.183 175.174 155.222 175.138 155.268 175.115C155.315 175.092 155.367 175.083 155.418 175.089C155.47 175.095 155.518 175.116 155.558 175.149C155.597 175.183 155.627 175.227 155.642 175.277C155.883 176.04 156.256 177.109 157.268 177.756C157.529 177.923 157.993 178.214 158.499 178.106C159.666 177.853 160.536 175.573 159.911 173.94C159.509 172.892 158.578 172.335 157.421 171.774C157.357 171.743 157.309 171.687 157.285 171.62C157.262 171.553 157.267 171.479 157.298 171.416C159.661 166.783 161.359 161.841 162.34 156.734C162.347 156.699 162.36 156.666 162.379 156.637C162.398 156.607 162.423 156.582 162.452 156.562C162.481 156.542 162.513 156.529 162.548 156.521C162.582 156.514 162.617 156.514 162.652 156.52C162.71 156.531 162.764 156.561 162.803 156.605C163.223 157.087 163.577 157.353 163.72 157.3C163.973 157.202 163.585 156.085 163.597 152.668C163.597 150.876 163.712 150.71 163.772 150.703C164.075 150.671 164.438 154.526 164.953 154.516C165.306 154.509 165.701 152.706 165.473 150.953Z" fill="#4EADAF"/>
<path d="M73.3387 139.381C73.5948 132.364 65.6275 126.377 55.5432 126.009C45.4589 125.641 37.0764 131.031 36.8204 138.048C36.5643 145.065 44.5316 151.052 54.6159 151.42C64.7001 151.788 73.0826 146.398 73.3387 139.381Z" fill="#E37A39"/>
<path d="M168.557 143.614C168.813 136.597 160.846 130.61 150.761 130.242C140.677 129.874 132.295 135.265 132.039 142.282C131.783 149.299 139.75 155.286 149.834 155.654C159.918 156.022 168.301 150.631 168.557 143.614Z" fill="#E37A39"/>
<path d="M92.567 111.268C92.9819 99.8973 83.6389 90.3261 71.6987 89.8904C59.7586 89.4546 49.7427 98.3193 49.3278 109.69C48.9128 121.061 58.2558 130.632 70.196 131.068C82.1362 131.504 92.152 122.639 92.567 111.268Z" fill="#E2E2E2"/>
<path d="M91.1687 107.217C91.4519 99.4539 85.0738 92.9196 76.9227 92.6221C68.7716 92.3246 61.9342 98.3767 61.6509 106.14C61.3676 113.903 67.7457 120.437 75.8968 120.734C84.0479 121.032 90.8854 114.98 91.1687 107.217Z" fill="black"/>
<path d="M66.2944 116.746C67.0513 114.799 64.8467 112.126 61.3703 110.774C57.894 109.422 54.4624 109.904 53.7055 111.85C52.9487 113.796 55.1533 116.47 58.6297 117.822C62.106 119.173 65.5376 118.692 66.2944 116.746Z" fill="white"/>
<path d="M159.772 115.821C160.179 104.672 150.829 95.2806 138.889 94.8449C126.949 94.4091 116.94 103.094 116.533 114.243C116.126 125.393 125.476 134.784 137.416 135.22C149.356 135.656 159.365 126.971 159.772 115.821Z" fill="#E2E2E2"/>
<path d="M146.555 111.224C146.833 103.612 140.45 97.1999 132.299 96.9024C124.148 96.605 117.315 102.535 117.037 110.147C116.76 117.759 123.142 124.171 131.293 124.469C139.444 124.766 146.277 118.836 146.555 111.224Z" fill="black"/>
<path d="M149.047 119.53C152.545 118.305 154.835 115.753 154.161 113.83C153.488 111.907 150.106 111.341 146.609 112.566C143.111 113.791 140.821 116.343 141.495 118.266C142.168 120.189 145.55 120.755 149.047 119.53Z" fill="white"/>
<path d="M126.539 91.3733C125.609 90.9733 124.702 90.5216 123.823 90.0202C122.942 89.5203 122.084 88.9788 121.25 88.3956C119.579 87.2254 118.018 85.9064 116.584 84.4547C115.868 83.7265 115.19 82.955 114.541 82.1702L114.062 81.5703C113.905 81.3687 113.755 81.1604 113.602 80.9554C113.527 80.8538 113.448 80.7504 113.375 80.6471L113.155 80.3322L112.937 80.0156L112.827 79.859L112.772 79.779L112.72 79.699L112.304 79.0525L112.202 78.8858C112.169 78.8325 112.134 78.7758 112.102 78.7192L111.907 78.3859L111.71 78.0527L111.612 77.886L111.519 77.7194L111.149 77.0529L111.057 76.8862C111.027 76.8279 111.001 76.7712 110.972 76.7196L110.806 76.3763L110.639 76.0314L110.552 75.8648C110.524 75.8064 110.499 75.7481 110.472 75.6898C110.264 75.2216 110.041 74.76 109.854 74.2817C109.757 74.0451 109.661 73.8085 109.567 73.5686L109.308 72.8454L109.178 72.4821C109.134 72.3621 109.098 72.2388 109.056 72.1172L108.939 71.7522L108.879 71.5706C108.859 71.5106 108.839 71.449 108.823 71.3873L108.611 70.6475C108.594 70.5858 108.574 70.5258 108.559 70.4625L108.513 70.2759L108.418 69.9043L108.324 69.531L108.241 69.1561L108.158 68.7812L108.116 68.5946L108.081 68.4046L107.939 67.6497L107.819 66.8932C107.798 66.7666 107.781 66.6416 107.766 66.5133L107.716 66.1317L107.693 65.9417C107.685 65.8784 107.676 65.8151 107.671 65.7501L107.633 65.3685L107.596 64.9869C107.585 64.8603 107.576 64.732 107.568 64.6054C107.55 64.3504 107.526 64.0955 107.52 63.8388L107.503 63.4572C107.503 63.3289 107.491 63.2006 107.49 63.074C107.49 62.8174 107.48 62.5624 107.48 62.3075C107.476 60.2677 107.667 58.2322 108.049 56.2287C108.243 55.2289 108.474 54.2424 108.763 53.271C109.043 52.299 109.377 51.3433 109.762 50.4082C109.223 52.3446 108.833 54.3194 108.596 56.3153C108.356 58.2964 108.279 60.2938 108.364 62.2875C108.449 64.2712 108.703 66.244 109.123 68.1846C109.338 69.1511 109.586 70.1126 109.882 71.0574C109.956 71.294 110.036 71.529 110.112 71.7639C110.152 71.8806 110.187 71.9989 110.231 72.1155L110.357 72.4654L110.614 73.162C110.706 73.3919 110.802 73.6202 110.894 73.8502C111.072 74.3117 111.285 74.76 111.485 75.2132C111.51 75.2699 111.534 75.3265 111.562 75.3799L111.644 75.5465L111.81 75.8798L111.977 76.213L112.059 76.3797L112.147 76.5463L112.495 77.2012L112.582 77.3678L112.675 77.5344L112.86 77.856C113.102 78.2893 113.37 78.7059 113.628 79.1291L113.677 79.2091L113.728 79.2857L113.83 79.4407L114.033 79.7506L114.237 80.0622C114.307 80.1639 114.38 80.2639 114.451 80.3655L114.666 80.6688C114.74 80.7704 114.808 80.8738 114.881 80.9721L115.316 81.5536L115.428 81.7003L115.545 81.8469L115.776 82.1385L116.009 82.4301C116.048 82.4784 116.088 82.5251 116.128 82.5734L116.248 82.715L116.488 83.0017L116.613 83.1466L116.673 83.2183L116.734 83.2866L117.234 83.8448C118.576 85.3238 120.029 86.697 121.582 87.9523C123.145 89.2168 124.802 90.3604 126.539 91.3733Z" fill="#29ABE2"/>
<path d="M112.682 83.9032C112.523 83.5356 112.384 83.1596 112.265 82.7768C112.146 82.3913 112.047 82.0025 111.967 81.6104C111.887 81.2171 111.82 80.8172 111.777 80.4156C111.749 80.2156 111.739 80.014 111.722 79.8124C111.712 79.7107 111.71 79.6108 111.705 79.5091L111.69 79.2058C111.671 78.3942 111.718 77.5823 111.829 76.778C111.88 76.3747 111.954 75.9748 112.039 75.5766L112.107 75.28C112.13 75.1816 112.149 75.0817 112.177 74.9834L112.344 74.3935C112.813 72.8328 113.476 71.337 114.317 69.941C115.158 68.5527 116.131 67.2486 117.223 66.0468C117.491 65.7435 117.774 65.4553 118.056 65.162C118.197 65.017 118.342 64.8771 118.486 64.7337C118.557 64.6621 118.627 64.5904 118.702 64.5205L118.922 64.3138L119.149 64.1072L119.259 64.0039L119.371 63.9022L119.822 63.499C119.975 63.3674 120.13 63.2374 120.282 63.1057C120.36 63.0408 120.435 62.9741 120.514 62.9108L120.75 62.7208C121.06 62.4625 121.382 62.2209 121.7 61.971L122.185 61.611L122.307 61.5211L122.43 61.4344L122.677 61.2594C123.343 60.7945 124.01 60.348 124.689 59.9264C126.056 59.0832 127.469 58.3171 128.922 57.6318C129.648 57.2986 130.38 56.9653 131.125 56.6704C131.496 56.5204 131.869 56.3754 132.245 56.2355C132.62 56.0988 132.996 55.9638 133.376 55.8389C133.016 56.0055 132.655 56.1821 132.296 56.3604L131.76 56.6237C131.581 56.712 131.405 56.802 131.228 56.8937C130.52 57.2586 129.817 57.6318 129.124 58.0218C127.735 58.7994 126.384 59.6325 125.071 60.5213L124.581 60.8545L124.096 61.1978C123.93 61.3111 123.776 61.4294 123.616 61.5461L123.376 61.7127L123.14 61.8927C122.823 62.1276 122.513 62.3742 122.203 62.6158C121.893 62.8575 121.588 63.1157 121.288 63.369C121.139 63.4957 120.987 63.6223 120.84 63.7539L120.395 64.1439L119.96 64.5438L119.85 64.6438L119.745 64.7471L119.532 64.952L119.316 65.157L119.106 65.3653C118.967 65.5036 118.827 65.6419 118.689 65.7835C118.419 66.0685 118.146 66.3518 117.886 66.645C117.626 66.9383 117.368 67.2366 117.111 67.5332L116.739 67.9898C116.616 68.1447 116.491 68.2947 116.376 68.453L116.023 68.9229L115.935 69.0412L115.85 69.1612L115.683 69.4028L115.516 69.6444L115.433 69.7661C115.405 69.8061 115.38 69.8477 115.353 69.8894L115.035 70.3893L114.956 70.5126L114.88 70.6392L114.73 70.8908C114.631 71.0575 114.528 71.2241 114.438 71.4007L114.15 71.9106L113.888 72.4355C113.798 72.6105 113.722 72.7888 113.642 72.9671L113.522 73.2354C113.502 73.2804 113.483 73.3254 113.465 73.3703L113.41 73.507L113.3 73.7786C113.263 73.8686 113.225 73.9586 113.193 74.0519L112.993 74.6034C112.487 76.0895 112.192 77.6393 112.117 79.2075L112.109 79.5024C112.109 79.6008 112.109 79.6991 112.109 79.7974C112.109 79.994 112.109 80.1923 112.119 80.3889C112.129 80.7839 112.162 81.1771 112.205 81.5704C112.249 81.9636 112.312 82.3552 112.39 82.7451C112.429 82.9401 112.472 83.135 112.52 83.3283C112.569 83.5216 112.624 83.7099 112.682 83.9032Z" fill="#29ABE2"/>
<path d="M145.344 59.5514L143.177 57.9567L145.13 55.8005C145.3 55.6132 145.414 55.3822 145.459 55.1337C145.504 54.8851 145.479 54.6288 145.387 54.3938C145.294 54.1587 145.137 53.9543 144.934 53.8036C144.732 53.6529 144.491 53.5619 144.239 53.5409L140.771 53.256L140.86 50.3416C140.867 50.0891 140.804 49.8396 140.677 49.6212C140.55 49.4028 140.364 49.2243 140.141 49.1057C139.918 48.9872 139.666 48.9334 139.414 48.9504C139.162 48.9673 138.92 49.0544 138.715 49.2018L136.974 50.4549L135.592 48.047C135.467 47.8278 135.282 47.6481 135.06 47.5283C134.837 47.4084 134.586 47.3532 134.333 47.3688C134.081 47.3844 133.838 47.4702 133.632 47.6166C133.426 47.7629 133.266 47.964 133.168 48.197L131.685 51.7446L128.57 50.6282C128.332 50.5401 128.074 50.5208 127.825 50.5727C127.576 50.6245 127.347 50.7453 127.164 50.9213C126.981 51.0972 126.851 51.3212 126.789 51.5676C126.727 51.814 126.736 52.0728 126.814 52.3145L127.437 54.2674L125.264 54.7257C125.017 54.7773 124.789 54.8972 124.606 55.0717C124.424 55.2462 124.293 55.4684 124.23 55.7131C124.167 55.9578 124.174 56.2152 124.25 56.4563C124.326 56.6973 124.468 56.9123 124.659 57.0769L127.364 59.4097L125.039 62.4091C124.885 62.609 124.79 62.8481 124.764 63.0994C124.738 63.3507 124.783 63.6042 124.894 63.8312C125.005 64.0583 125.177 64.2498 125.391 64.3843C125.604 64.5187 125.852 64.5907 126.104 64.592L128.644 64.6037L128.427 66.6033C128.4 66.8545 128.443 67.1084 128.553 67.3361C128.662 67.5638 128.834 67.7563 129.047 67.8917C129.26 68.0272 129.507 68.1002 129.76 68.1025C130.013 68.1048 130.261 68.0363 130.477 67.9047L133.063 66.3317L135.146 69.3994C135.288 69.6084 135.485 69.7736 135.716 69.8763C135.947 69.9789 136.202 70.0149 136.452 69.9803C136.703 69.9456 136.938 69.8416 137.133 69.6801C137.327 69.5185 137.472 69.3059 137.552 69.0661L138.478 66.2717L140.705 67.2715C140.935 67.3751 141.19 67.4121 141.44 67.3783C141.691 67.3445 141.927 67.2413 142.121 67.0804C142.316 66.9195 142.462 66.7072 142.542 66.4677C142.623 66.2282 142.634 65.971 142.576 65.7251L141.891 62.824L144.927 61.9392C145.168 61.8666 145.384 61.7285 145.55 61.5404C145.717 61.3522 145.828 61.1214 145.872 60.8737C145.915 60.626 145.888 60.3712 145.795 60.1377C145.702 59.9042 145.546 59.7012 145.344 59.5514Z" fill="#F4BE38"/>
<path opacity="0.47" d="M121.902 51.4929L119.039 49.395L121.612 46.5622C121.835 46.3155 121.984 46.0114 122.044 45.6841C122.103 45.3569 122.069 45.0196 121.947 44.7104C121.825 44.4011 121.618 44.1323 121.351 43.9342C121.084 43.7362 120.767 43.6167 120.435 43.5895L115.871 43.2146L115.986 39.382C115.996 39.0495 115.913 38.7207 115.746 38.4329C115.579 38.1451 115.335 37.9098 115.041 37.7537C114.748 37.5976 114.416 37.527 114.084 37.5497C113.752 37.5724 113.433 37.6876 113.163 37.8823L110.87 39.532L109.051 36.3659C108.885 36.0775 108.642 35.841 108.35 35.6833C108.057 35.5257 107.726 35.453 107.394 35.4736C107.062 35.4943 106.742 35.6073 106.471 35.8001C106.2 35.9928 105.988 36.2575 105.86 36.5642L103.91 41.23L99.8193 39.7436C99.5062 39.6315 99.168 39.6091 98.8429 39.6791C98.5177 39.7492 98.2187 39.9087 97.9795 40.1398C97.7403 40.3708 97.5704 40.6642 97.4892 40.9867C97.408 41.3092 97.4186 41.648 97.5198 41.9648L98.3413 44.536L95.4752 45.1358C95.1498 45.2039 94.8499 45.3617 94.6095 45.5914C94.369 45.821 94.1977 46.1134 94.1148 46.4354C94.0319 46.7574 94.0408 47.0961 94.1405 47.4133C94.2401 47.7305 94.4266 48.0135 94.6787 48.2302L98.238 51.2929L95.1703 55.2471C94.9665 55.51 94.8404 55.8246 94.8062 56.1553C94.7719 56.4861 94.831 56.8199 94.9767 57.1188C95.1223 57.4178 95.3488 57.67 95.6304 57.8469C95.912 58.0238 96.2374 58.1184 96.57 58.1199L99.911 58.1349L99.626 60.7744C99.5909 61.1043 99.6485 61.4376 99.7924 61.7366C99.9363 62.0356 100.161 62.2885 100.441 62.4669C100.72 62.6452 101.045 62.7419 101.376 62.7462C101.708 62.7504 102.035 62.6619 102.319 62.4907L105.725 60.4194L108.484 64.452C108.672 64.7267 108.932 64.9435 109.237 65.0779C109.541 65.2123 109.877 65.2589 110.206 65.2125C110.535 65.166 110.845 65.0284 111.1 64.815C111.356 64.6017 111.546 64.3213 111.65 64.0054L112.862 60.3395L115.784 61.6575C116.088 61.7935 116.423 61.8419 116.753 61.7973C117.082 61.7527 117.393 61.6168 117.649 61.405C117.906 61.1931 118.098 60.9139 118.204 60.5987C118.31 60.2835 118.325 59.9449 118.249 59.6213L117.349 55.812L121.348 54.6456C121.669 54.5531 121.957 54.3726 122.18 54.1244C122.403 53.8763 122.551 53.5705 122.609 53.2419C122.667 52.9134 122.631 52.5753 122.506 52.2661C122.381 51.9568 122.171 51.6889 121.902 51.4929Z" fill="#F4BE38"/>
<path opacity="0.47" d="M149.105 60.2129L146.242 58.1133L148.813 55.2805C149.036 55.0345 149.185 54.7312 149.245 54.4047C149.305 54.0783 149.272 53.7416 149.151 53.4327C149.03 53.1238 148.825 52.8548 148.559 52.6561C148.293 52.4573 147.977 52.3367 147.647 52.3078L143.082 51.9329L143.197 48.1003C143.207 47.768 143.124 47.4396 142.957 47.1522C142.789 46.8648 142.545 46.6299 142.252 46.4739C141.958 46.3179 141.627 46.2471 141.295 46.2695C140.963 46.2919 140.645 46.4066 140.375 46.6006L138.082 48.2503L136.262 45.0842C136.097 44.7958 135.854 44.5595 135.561 44.4019C135.268 44.2444 134.936 44.1719 134.605 44.1927C134.273 44.2135 133.953 44.3267 133.682 44.5196C133.411 44.7125 133.199 44.9773 133.071 45.2842L131.118 49.9499L127.019 48.4802C126.706 48.3677 126.367 48.345 126.042 48.4148C125.717 48.4846 125.417 48.6441 125.178 48.8753C124.938 49.1064 124.768 49.3999 124.687 49.7227C124.606 50.0454 124.616 50.3845 124.718 50.7014L125.541 53.2709L122.675 53.8725C122.349 53.9405 122.05 54.0983 121.809 54.328C121.569 54.5577 121.397 54.85 121.315 55.172C121.232 55.494 121.241 55.8327 121.34 56.1499C121.44 56.4671 121.626 56.7501 121.878 56.9668L125.436 60.0296L122.377 63.9838C122.173 64.2469 122.048 64.5615 122.014 64.8922C121.98 65.2229 122.04 65.5565 122.185 65.8553C122.331 66.1541 122.557 66.4061 122.839 66.5831C123.12 66.76 123.446 66.8547 123.778 66.8565L127.111 66.8715L126.826 69.4893C126.79 69.8201 126.847 70.1544 126.991 70.4543C127.135 70.7542 127.36 71.0078 127.641 71.1863C127.922 71.3647 128.247 71.461 128.58 71.4641C128.912 71.4673 129.239 71.3771 129.524 71.204L132.928 69.1327L135.677 73.1669C135.864 73.4423 136.125 73.6597 136.429 73.7946C136.733 73.9296 137.069 73.9765 137.399 73.9302C137.728 73.8839 138.038 73.7461 138.294 73.5326C138.549 73.319 138.739 73.0382 138.843 72.722L140.06 69.0561L142.991 70.3708C143.294 70.5065 143.63 70.5546 143.959 70.5097C144.289 70.4649 144.599 70.3287 144.855 70.1168C145.111 69.9048 145.303 69.6254 145.409 69.3102C145.515 68.995 145.53 68.6565 145.454 68.3329L144.554 64.5237L148.553 63.3572C148.871 63.263 149.156 63.0819 149.377 62.8343C149.598 62.5867 149.745 62.2825 149.802 61.9558C149.86 61.6291 149.825 61.293 149.702 60.985C149.578 60.6771 149.372 60.4097 149.105 60.2129Z" fill="#F4BE38"/>
<path d="M118.316 51.2115L116.149 49.6185L118.102 47.4622C118.272 47.2749 118.386 47.0438 118.431 46.795C118.476 46.5463 118.451 46.2899 118.358 46.0549C118.265 45.8198 118.108 45.6154 117.905 45.4648C117.702 45.3142 117.461 45.2234 117.209 45.2027L113.743 44.9177L113.832 42.0033C113.839 41.7509 113.776 41.5013 113.649 41.283C113.522 41.0646 113.336 40.8861 113.113 40.7675C112.89 40.649 112.638 40.5952 112.386 40.6121C112.134 40.6291 111.892 40.7162 111.687 40.8636L109.942 42.1166L108.561 39.7071C108.435 39.4879 108.251 39.3082 108.028 39.1884C107.806 39.0686 107.555 39.0135 107.302 39.0293C107.05 39.045 106.808 39.1311 106.602 39.2777C106.396 39.4243 106.235 39.6256 106.138 39.8588L104.652 43.4047L101.539 42.2883C101.301 42.2028 101.044 42.1856 100.797 42.2386C100.55 42.2916 100.323 42.4127 100.141 42.5882C99.9596 42.7637 99.8306 42.9866 99.769 43.2316C99.7074 43.4766 99.7156 43.734 99.7927 43.9746L100.418 45.9275L98.2397 46.3841C97.9924 46.4357 97.7644 46.5556 97.5817 46.7301C97.3989 46.9046 97.2687 47.1268 97.2058 47.3715C97.1428 47.6162 97.1496 47.8737 97.2255 48.1147C97.3013 48.3557 97.4431 48.5707 97.6348 48.7353L100.339 51.0682L98.0064 54.0676C97.852 54.2675 97.7565 54.5066 97.7308 54.7579C97.7051 55.0092 97.7502 55.2627 97.8609 55.4897C97.9717 55.7167 98.1437 55.9083 98.3576 56.0427C98.5714 56.1771 98.8186 56.2491 99.0712 56.2505L101.609 56.2621L101.392 58.2617C101.366 58.5128 101.41 58.7662 101.52 58.9936C101.629 59.2209 101.8 59.4131 102.013 59.5484C102.226 59.6837 102.473 59.7568 102.726 59.7594C102.978 59.762 103.226 59.694 103.442 59.5631L106.033 57.9918L108.121 61.0562C108.263 61.2653 108.46 61.4306 108.691 61.5333C108.922 61.6361 109.177 61.6721 109.427 61.6375C109.677 61.6028 109.913 61.4987 110.107 61.3371C110.301 61.1755 110.446 60.9627 110.526 60.7229L111.447 57.9335L113.672 58.9333C113.902 59.0368 114.157 59.0737 114.408 59.0398C114.658 59.0059 114.894 58.9026 115.089 58.7415C115.284 58.5804 115.43 58.368 115.511 58.1284C115.591 57.8887 115.603 57.6313 115.545 57.3852L114.861 54.4925L117.897 53.606C118.14 53.535 118.358 53.3974 118.527 53.2088C118.696 53.0201 118.808 52.7881 118.852 52.5389C118.895 52.2896 118.868 52.0332 118.773 51.7986C118.679 51.564 118.52 51.3606 118.316 51.2115Z" fill="#F4BE38"/>
<path d="M96.6284 69.5928C97.3899 67.4915 97.3183 63.9589 92.5376 57.9285C92.3547 57.6985 92.2276 57.4292 92.1664 57.1417C92.1052 56.8543 92.1115 56.5566 92.1848 56.2721C92.2581 55.9875 92.3965 55.7238 92.589 55.5018C92.7814 55.2797 93.0228 55.1053 93.2941 54.9924C93.5745 54.8746 93.8791 54.8258 94.1824 54.8501C94.4855 54.8744 94.7785 54.9711 95.0366 55.132C95.2947 55.293 95.5104 55.5135 95.6656 55.7751C95.8208 56.0367 95.911 56.3317 95.9286 56.6354C96.4035 64.0839 98.928 67.7898 101.248 69.8127C113.478 80.4889 143.072 64.4505 161.877 73.1637C163.59 73.9569 168.394 76.1831 168.342 79.0775C168.286 82.1903 162.635 84.3715 161.695 84.7347C148.198 89.947 132.66 79.2358 131.571 81.1388C130.5 83.0134 146.485 91.905 144.912 96.4574C143.927 99.3168 136.146 100.242 129.568 98.417C116.511 94.7961 111.219 81.1905 107.365 82.8551C105.215 83.7833 106.91 87.9824 104.075 94.8527C103.589 96.0325 99.1829 106.717 92.8925 106.465C88.1335 106.274 83.4727 99.8684 83.6477 94.2395C83.8893 86.4677 93.2924 82.0236 92.0644 79.984C91.1562 78.4743 85.0058 79.2492 80.1601 82.6835C72.8599 87.8491 74.4446 94.866 68.8473 96.9906C63.3851 99.0635 56.5165 94.4161 53.3055 91.2134C50.9426 88.8572 48.1015 86.0245 48.6664 83.46C50.6627 74.4001 92.271 81.6037 96.6284 69.5928Z" fill="#C4D650"/>
<path d="M36.1655 49.9667L36.0589 49.3001C35.3924 47.0095 35.514 45.006 36.4238 43.2897C37.3336 41.5733 38.5001 40.2758 39.9231 39.3971C41.3538 38.5152 42.5962 37.3594 43.5791 35.9961C44.5866 34.602 44.8371 33.0378 44.3306 31.3037C43.824 29.5696 42.9353 28.3654 41.6644 27.6911C40.3958 27.0246 38.7761 26.9785 36.8054 27.5528C34.8347 28.1272 33.4733 28.8598 32.7212 29.7507C31.9658 30.6394 31.577 31.4337 31.5548 32.1336L31.5948 33.1634C31.5226 34.6897 31.2715 35.9062 30.8416 36.8126C30.6368 37.2553 30.3362 37.647 29.9616 37.9593C29.587 38.2717 29.1477 38.497 28.6754 38.6189C27.67 38.9156 26.2448 38.9855 24.3996 38.8289C20.8447 38.5401 18.8007 37.4897 18.2675 35.6779C18.0296 34.8412 17.9494 33.9677 18.0309 33.1017C18.1097 32.1819 18.173 31.4109 18.2208 30.7888C18.2686 30.1667 18.5569 29.0259 19.0856 27.3662C19.5899 25.7531 20.3066 24.2144 21.2169 22.7905C22.1123 21.3985 23.5231 19.9432 25.4494 18.4247C27.3756 16.9061 29.6702 15.7552 32.333 14.972C37.983 13.3157 43.1253 13.7762 47.7599 16.3534C52.3945 18.9307 55.4172 22.6183 56.8281 27.4162C57.4891 29.5903 57.7011 31.8762 57.4513 34.1348C57.1947 36.3244 56.6448 38.1501 55.8016 39.6121C54.1097 42.5337 52.3606 44.6666 50.5543 46.0108L49.3879 46.7856C49.6047 47.4769 49.768 48.1839 49.8761 48.9002C49.9237 49.5023 49.8342 50.1073 49.6145 50.6699C49.3779 51.3464 48.8286 51.9413 47.9665 52.4545C47.1045 52.9677 45.9003 53.451 44.3539 53.9042C42.8075 54.3574 41.53 54.5874 40.5213 54.5941C39.5126 54.6007 38.7272 54.3391 38.1651 53.8092C37.681 53.3794 37.2799 52.8643 36.982 52.2895C36.6553 51.5355 36.3824 50.7593 36.1655 49.9667ZM40.0298 64.3321C40.2153 63.3801 40.7991 62.5575 41.7811 61.8643C42.7631 61.1711 44.4294 60.4807 46.7801 59.793C49.1263 59.1065 50.9709 59.1304 52.314 59.8647C53.657 60.599 54.7679 62.4586 55.6466 65.4436C56.2721 67.5765 56.4704 69.24 56.2415 70.4342C56.1448 71.0011 55.932 71.5419 55.6166 72.0227C55.3012 72.5036 54.89 72.9141 54.4085 73.2287C53.4187 73.8952 51.7774 74.5645 49.4845 75.2366C47.1917 75.9087 45.2687 75.8648 43.7157 75.1049C42.5426 74.4651 41.6367 73.052 40.9979 70.8658L40.6213 69.5861C40.3345 68.6558 40.1008 67.71 39.9215 66.7533C39.8196 65.9456 39.8585 65.1265 40.0364 64.3321H40.0298Z" fill="#E37A39"/>
<path fill-rule="evenodd" clip-rule="evenodd" d="M162.109 188.453H97H29C12.9837 188.453 0 201.436 0 217.453V236.455C0 252.471 12.9837 265.455 29 265.455H165C181.016 265.455 194 252.471 194 236.455V188.453H194V164C193.582 166.263 192.831 168.527 191.765 170.724C190.293 173.757 188.25 176.603 185.753 179.1C183.255 181.596 180.352 183.694 177.208 185.274C174.065 186.855 170.743 187.886 167.433 188.309C167.105 188.351 166.778 188.387 166.452 188.416L166.415 188.453H166.016C164.693 188.552 163.387 188.552 162.109 188.453Z" fill="#4AAEAD"/>
<path d="M35.2445 229.575C34.5728 229.575 33.9748 229.43 33.4505 229.14C32.9262 228.849 32.5145 228.459 32.2155 227.97C31.9208 227.48 31.7735 226.94 31.7735 226.351C31.7735 225.805 31.897 225.304 32.144 224.849C32.391 224.394 32.729 224.02 33.158 223.725C33.587 223.426 34.0702 223.246 34.6075 223.185V221.768H36.1025V224.609C36.0158 224.587 35.914 224.57 35.797 224.557C35.68 224.544 35.5543 224.537 35.42 224.537C34.9953 224.537 34.6227 224.609 34.302 224.752C33.9857 224.891 33.7387 225.096 33.561 225.369C33.3877 225.638 33.301 225.968 33.301 226.358C33.301 226.726 33.3812 227.042 33.5415 227.307C33.7062 227.571 33.9358 227.775 34.2305 227.918C34.5252 228.061 34.8697 228.132 35.264 228.132C35.8317 228.132 36.2932 227.98 36.6485 227.677C37.0038 227.374 37.2075 226.956 37.2595 226.423L38.618 226.689C38.5443 227.291 38.3493 227.809 38.033 228.243C37.7167 228.676 37.3158 229.005 36.8305 229.231C36.3495 229.46 35.8208 229.575 35.2445 229.575ZM35.3615 220.592C35.1665 220.592 34.9867 220.544 34.822 220.449C34.6573 220.349 34.5273 220.219 34.432 220.059C34.341 219.899 34.2955 219.719 34.2955 219.519C34.2955 219.32 34.341 219.14 34.432 218.98C34.5273 218.82 34.6573 218.692 34.822 218.596C34.9867 218.497 35.1665 218.447 35.3615 218.447C35.5608 218.447 35.7407 218.497 35.901 218.596C36.0657 218.692 36.1957 218.82 36.291 218.98C36.3863 219.14 36.434 219.32 36.434 219.519C36.434 219.719 36.3863 219.899 36.291 220.059C36.1957 220.219 36.0657 220.349 35.901 220.449C35.7407 220.544 35.5608 220.592 35.3615 220.592ZM50.3948 226.351C50.0524 226.217 49.7058 226.061 49.3548 225.883C49.0081 225.701 48.6593 225.499 48.3083 225.278C47.4156 225.898 46.4059 226.208 45.2793 226.208C44.5209 226.208 43.8146 226.067 43.1603 225.786C42.5059 225.504 41.9318 225.112 41.4378 224.609C40.9481 224.102 40.5668 223.513 40.2938 222.841C40.0208 222.169 39.8843 221.443 39.8843 220.663C39.8843 219.888 40.0229 219.162 40.3003 218.486C40.5776 217.81 40.9633 217.218 41.4573 216.711C41.9513 216.2 42.5254 215.801 43.1798 215.515C43.8341 215.225 44.5383 215.08 45.2923 215.08C46.0419 215.08 46.7439 215.223 47.3983 215.509C48.0526 215.795 48.6268 216.194 49.1208 216.705C49.6148 217.212 50.0004 217.803 50.2778 218.479C50.5594 219.151 50.7003 219.875 50.7003 220.65C50.7003 221.3 50.5898 221.924 50.3688 222.522C50.1521 223.116 49.8423 223.645 49.4393 224.108C49.7339 224.26 50.0243 224.397 50.3103 224.518C50.5963 224.639 50.8758 224.743 51.1488 224.83L50.3948 226.351ZM45.2728 224.57C45.5631 224.57 45.8404 224.533 46.1048 224.459C46.3691 224.381 46.6118 224.271 46.8328 224.128C46.5294 223.881 46.2369 223.621 45.9553 223.348C45.6779 223.075 45.4201 222.793 45.1818 222.503L45.9163 221.606C46.5099 222.226 47.1643 222.776 47.8793 223.257C48.1956 222.919 48.4383 222.525 48.6073 222.074C48.7763 221.623 48.8608 221.149 48.8608 220.65C48.8608 220.083 48.7719 219.561 48.5943 219.084C48.4166 218.607 48.1674 218.193 47.8468 217.842C47.5261 217.487 47.1469 217.212 46.7093 217.017C46.2759 216.818 45.8036 216.718 45.2923 216.718C44.7766 216.718 44.2999 216.818 43.8623 217.017C43.4289 217.212 43.0519 217.487 42.7313 217.842C42.4106 218.193 42.1593 218.609 41.9773 219.09C41.7996 219.571 41.7108 220.096 41.7108 220.663C41.7108 221.231 41.7974 221.753 41.9708 222.23C42.1484 222.707 42.3976 223.12 42.7183 223.471C43.0389 223.818 43.4159 224.089 43.8493 224.284C44.2826 224.475 44.7571 224.57 45.2728 224.57ZM56.0982 226.208C54.9542 226.208 54.1331 225.974 53.6347 225.506C53.1364 225.034 52.8872 224.256 52.8872 223.172V219.344H54.5057V222.808C54.5057 223.558 54.6249 224.091 54.8632 224.407C55.1059 224.724 55.5176 224.882 56.0982 224.882C56.6789 224.882 57.0884 224.724 57.3267 224.407C57.5694 224.091 57.6907 223.558 57.6907 222.808V219.344H59.3092V223.172C59.3092 224.256 59.0601 225.034 58.5617 225.506C58.0634 225.974 57.2422 226.208 56.0982 226.208ZM64.8415 226.208C64.1309 226.208 63.4939 226.054 62.9305 225.746C62.3715 225.439 61.9274 225.018 61.598 224.485C61.273 223.952 61.1105 223.352 61.1105 222.685C61.1105 222.191 61.2037 221.729 61.39 221.3C61.5764 220.871 61.8342 220.494 62.1635 220.169C62.4929 219.844 62.8764 219.591 63.314 219.409C63.7517 219.227 64.224 219.136 64.731 219.136C65.4244 219.136 66.031 219.279 66.551 219.565C67.0754 219.851 67.4827 220.25 67.773 220.761C68.0677 221.272 68.215 221.868 68.215 222.548C68.215 222.605 68.2129 222.652 68.2085 222.691C68.2042 222.726 68.1955 222.787 68.1825 222.873H62.7615C62.7615 223.276 62.8525 223.632 63.0345 223.939C63.2165 224.243 63.47 224.481 63.795 224.654C64.1244 224.823 64.5014 224.908 64.926 224.908C65.329 224.908 65.6865 224.828 65.9985 224.667C66.3149 224.503 66.6009 224.254 66.8565 223.92L68.033 224.524C67.7167 225.053 67.2769 225.467 66.7135 225.766C66.1545 226.061 65.5305 226.208 64.8415 226.208ZM62.833 221.859H66.6095C66.5532 221.556 66.4384 221.294 66.265 221.073C66.0917 220.852 65.8729 220.681 65.6085 220.559C65.3442 220.434 65.0495 220.371 64.7245 220.371C64.3822 220.371 64.0767 220.432 63.808 220.553C63.5394 220.674 63.3205 220.845 63.1515 221.066C62.9825 221.287 62.8764 221.552 62.833 221.859ZM64.497 218.564L63.782 217.998L65.3745 215.268L66.5055 216.107L64.497 218.564ZM76.7878 226.208C76.0772 226.208 75.4402 226.054 74.8768 225.746C74.3178 225.439 73.8737 225.018 73.5443 224.485C73.2193 223.952 73.0568 223.352 73.0568 222.685C73.0568 222.191 73.15 221.729 73.3363 221.3C73.5227 220.871 73.7805 220.494 74.1098 220.169C74.4392 219.844 74.8227 219.591 75.2603 219.409C75.698 219.227 76.1703 219.136 76.6773 219.136C77.3707 219.136 77.9773 219.279 78.4973 219.565C79.0217 219.851 79.429 220.25 79.7193 220.761C80.014 221.272 80.1613 221.868 80.1613 222.548C80.1613 222.605 80.1592 222.652 80.1548 222.691C80.1505 222.726 80.1418 222.787 80.1288 222.873H74.7078C74.7078 223.276 74.7988 223.632 74.9808 223.939C75.1628 224.243 75.4163 224.481 75.7413 224.654C76.0707 224.823 76.4477 224.908 76.8723 224.908C77.2753 224.908 77.6328 224.828 77.9448 224.667C78.2612 224.503 78.5472 224.254 78.8028 223.92L79.9793 224.524C79.663 225.053 79.2232 225.467 78.6598 225.766C78.1008 226.061 77.4768 226.208 76.7878 226.208ZM74.7793 221.859H78.5558C78.4995 221.556 78.3847 221.294 78.2113 221.073C78.038 220.852 77.8192 220.681 77.5548 220.559C77.2905 220.434 76.9958 220.371 76.6708 220.371C76.3285 220.371 76.023 220.432 75.7543 220.553C75.4857 220.674 75.2668 220.845 75.0978 221.066C74.9288 221.287 74.8227 221.552 74.7793 221.859ZM83.9039 226.208C83.3449 226.208 82.8466 226.104 82.4089 225.896C81.9756 225.684 81.6224 225.38 81.3494 224.986L82.0644 223.933C82.3201 224.271 82.6039 224.533 82.9159 224.719C83.2322 224.906 83.5594 224.999 83.8974 224.999C84.1054 224.999 84.2896 224.962 84.4499 224.888C84.6102 224.81 84.7381 224.7 84.8334 224.557C84.9287 224.41 84.9764 224.236 84.9764 224.037C84.9764 223.829 84.9222 223.666 84.8139 223.549C84.7056 223.432 84.5431 223.326 84.3264 223.231C84.1097 223.136 83.8367 223.023 83.5074 222.893C83.2301 222.776 82.9657 222.646 82.7144 222.503C82.4631 222.36 82.2551 222.18 82.0904 221.963C81.9301 221.742 81.8499 221.463 81.8499 221.125C81.8499 220.739 81.9561 220.397 82.1684 220.098C82.3851 219.799 82.6797 219.565 83.0524 219.396C83.4294 219.227 83.8584 219.142 84.3394 219.142C84.6861 219.142 85.0349 219.205 85.3859 219.331C85.7369 219.452 86.0879 219.63 86.4389 219.864L85.8539 220.884C85.3469 220.464 84.8464 220.254 84.3524 220.254C84.0621 220.254 83.8281 220.323 83.6504 220.462C83.4771 220.601 83.3904 220.778 83.3904 220.995C83.3904 221.173 83.4662 221.324 83.6179 221.45C83.7696 221.576 83.9581 221.686 84.1834 221.781C84.4087 221.877 84.6341 221.968 84.8594 222.054C85.2147 222.184 85.5267 222.323 85.7954 222.47C86.0641 222.618 86.2742 222.808 86.4259 223.042C86.5776 223.276 86.6534 223.588 86.6534 223.978C86.6534 224.446 86.5407 224.847 86.3154 225.181C86.0944 225.515 85.7781 225.77 85.3664 225.948C84.9547 226.121 84.4672 226.208 83.9039 226.208ZM91.873 226V215.275H94.6615C95.6972 215.275 96.5053 215.505 97.086 215.964C97.671 216.419 97.9635 217.091 97.9635 217.979C97.9635 219.114 97.4825 219.907 96.5205 220.358C97.2918 220.475 97.8833 220.765 98.295 221.229C98.7067 221.688 98.9125 222.293 98.9125 223.042C98.9125 223.658 98.7738 224.186 98.4965 224.628C98.2192 225.07 97.8227 225.411 97.307 225.649C96.7957 225.883 96.1868 226 95.4805 226H91.873ZM93.576 219.792H94.2845C94.9432 219.792 95.448 219.654 95.799 219.376C96.15 219.099 96.3255 218.703 96.3255 218.187C96.3255 217.667 96.1522 217.273 95.8055 217.004C95.4588 216.735 94.9518 216.601 94.2845 216.601H93.576V219.792ZM93.576 224.661H94.928C95.6517 224.661 96.1998 224.518 96.5725 224.232C96.9495 223.946 97.138 223.532 97.138 222.99C97.138 222.44 96.9452 222.015 96.5595 221.716C96.1782 221.417 95.6343 221.268 94.928 221.268H93.576V224.661ZM100.625 226V219.344H102.243V226H100.625ZM101.437 217.979C101.26 217.979 101.095 217.936 100.943 217.849C100.796 217.758 100.677 217.639 100.586 217.491C100.499 217.34 100.456 217.173 100.456 216.991C100.456 216.813 100.499 216.651 100.586 216.503C100.677 216.356 100.796 216.239 100.943 216.152C101.095 216.061 101.26 216.016 101.437 216.016C101.619 216.016 101.782 216.061 101.925 216.152C102.072 216.239 102.189 216.356 102.276 216.503C102.367 216.651 102.412 216.813 102.412 216.991C102.412 217.173 102.367 217.34 102.276 217.491C102.189 217.639 102.072 217.758 101.925 217.849C101.782 217.936 101.619 217.979 101.437 217.979ZM108.027 226.208C107.308 226.208 106.658 226.059 106.077 225.759C105.501 225.46 105.043 225.044 104.705 224.511C104.367 223.978 104.198 223.365 104.198 222.672C104.198 221.974 104.367 221.361 104.705 220.832C105.043 220.299 105.501 219.883 106.077 219.584C106.653 219.285 107.303 219.136 108.027 219.136C108.746 219.136 109.394 219.285 109.97 219.584C110.551 219.883 111.008 220.299 111.342 220.832C111.68 221.361 111.849 221.974 111.849 222.672C111.849 223.365 111.68 223.978 111.342 224.511C111.008 225.044 110.551 225.46 109.97 225.759C109.394 226.059 108.746 226.208 108.027 226.208ZM108.027 224.817C108.434 224.817 108.798 224.726 109.119 224.544C109.444 224.358 109.7 224.104 109.886 223.783C110.072 223.458 110.165 223.088 110.165 222.672C110.165 222.252 110.072 221.881 109.886 221.56C109.7 221.235 109.444 220.982 109.119 220.8C108.798 220.618 108.434 220.527 108.027 220.527C107.624 220.527 107.26 220.618 106.935 220.8C106.61 220.982 106.354 221.235 106.168 221.56C105.982 221.881 105.888 222.252 105.888 222.672C105.888 223.088 105.982 223.458 106.168 223.783C106.354 224.104 106.61 224.358 106.935 224.544C107.26 224.726 107.624 224.817 108.027 224.817ZM117.562 226V215.275H123.366V216.77H118.803L119.265 216.367V220.462L118.803 219.877H123.08V221.372H118.803L119.265 220.787V226H117.562ZM128.225 226.208C127.506 226.208 126.856 226.059 126.275 225.759C125.699 225.46 125.242 225.044 124.904 224.511C124.566 223.978 124.397 223.365 124.397 222.672C124.397 221.974 124.566 221.361 124.904 220.832C125.242 220.299 125.699 219.883 126.275 219.584C126.852 219.285 127.502 219.136 128.225 219.136C128.945 219.136 129.592 219.285 130.169 219.584C130.749 219.883 131.207 220.299 131.54 220.832C131.878 221.361 132.047 221.974 132.047 222.672C132.047 223.365 131.878 223.978 131.54 224.511C131.207 225.044 130.749 225.46 130.169 225.759C129.592 226.059 128.945 226.208 128.225 226.208ZM128.225 224.817C128.633 224.817 128.997 224.726 129.317 224.544C129.642 224.358 129.898 224.104 130.084 223.783C130.271 223.458 130.364 223.088 130.364 222.672C130.364 222.252 130.271 221.881 130.084 221.56C129.898 221.235 129.642 220.982 129.317 220.8C128.997 220.618 128.633 220.527 128.225 220.527C127.822 220.527 127.458 220.618 127.133 220.8C126.808 220.982 126.553 221.235 126.366 221.56C126.18 221.881 126.087 222.252 126.087 222.672C126.087 223.088 126.18 223.458 126.366 223.783C126.553 224.104 126.808 224.358 127.133 224.544C127.458 224.726 127.822 224.817 128.225 224.817ZM137.277 226.208C136.558 226.208 135.908 226.059 135.327 225.759C134.751 225.46 134.293 225.044 133.955 224.511C133.617 223.978 133.448 223.365 133.448 222.672C133.448 221.974 133.617 221.361 133.955 220.832C134.293 220.299 134.751 219.883 135.327 219.584C135.903 219.285 136.553 219.136 137.277 219.136C137.996 219.136 138.644 219.285 139.22 219.584C139.801 219.883 140.258 220.299 140.592 220.832C140.93 221.361 141.099 221.974 141.099 222.672C141.099 223.365 140.93 223.978 140.592 224.511C140.258 225.044 139.801 225.46 139.22 225.759C138.644 226.059 137.996 226.208 137.277 226.208ZM137.277 224.817C137.684 224.817 138.048 224.726 138.369 224.544C138.694 224.358 138.95 224.104 139.136 223.783C139.322 223.458 139.415 223.088 139.415 222.672C139.415 222.252 139.322 221.881 139.136 221.56C138.95 221.235 138.694 220.982 138.369 220.8C138.048 220.618 137.684 220.527 137.277 220.527C136.874 220.527 136.51 220.618 136.185 220.8C135.86 220.982 135.604 221.235 135.418 221.56C135.232 221.881 135.138 222.252 135.138 222.672C135.138 223.088 135.232 223.458 135.418 223.783C135.604 224.104 135.86 224.358 136.185 224.544C136.51 224.726 136.874 224.817 137.277 224.817ZM145.848 226.208C145.241 226.208 144.686 226.056 144.184 225.753C143.685 225.45 143.289 225.031 142.994 224.498C142.704 223.965 142.559 223.357 142.559 222.672C142.559 221.992 142.702 221.387 142.988 220.858C143.278 220.325 143.672 219.905 144.171 219.597C144.673 219.29 145.245 219.136 145.887 219.136C146.398 219.136 146.868 219.244 147.297 219.461C147.726 219.678 148.073 219.979 148.337 220.364V214.813H149.956V226H148.337V224.934C148.047 225.333 147.685 225.645 147.252 225.87C146.823 226.095 146.355 226.208 145.848 226.208ZM146.316 224.823C146.719 224.823 147.074 224.732 147.382 224.55C147.694 224.364 147.939 224.111 148.116 223.79C148.294 223.465 148.383 223.094 148.383 222.678C148.383 222.262 148.294 221.892 148.116 221.567C147.939 221.238 147.694 220.982 147.382 220.8C147.074 220.614 146.719 220.52 146.316 220.52C145.921 220.52 145.568 220.614 145.256 220.8C144.944 220.982 144.699 221.238 144.522 221.567C144.344 221.892 144.255 222.265 144.255 222.685C144.255 223.097 144.342 223.465 144.515 223.79C144.693 224.111 144.938 224.364 145.25 224.55C145.562 224.732 145.917 224.823 146.316 224.823ZM155.027 226.208C154.832 226.208 154.653 226.158 154.488 226.059C154.328 225.963 154.2 225.835 154.104 225.675C154.009 225.51 153.961 225.33 153.961 225.135C153.961 224.936 154.009 224.756 154.104 224.596C154.2 224.431 154.328 224.301 154.488 224.206C154.653 224.111 154.832 224.063 155.027 224.063C155.227 224.063 155.407 224.111 155.567 224.206C155.732 224.301 155.862 224.431 155.957 224.596C156.052 224.756 156.1 224.936 156.1 225.135C156.1 225.33 156.052 225.51 155.957 225.675C155.862 225.835 155.732 225.963 155.567 226.059C155.407 226.158 155.227 226.208 155.027 226.208ZM154.286 222.886V220.046C154.377 220.063 154.481 220.081 154.598 220.098C154.715 220.111 154.839 220.117 154.969 220.117C155.398 220.117 155.771 220.048 156.087 219.909C156.403 219.766 156.648 219.558 156.821 219.286C156.999 219.012 157.088 218.683 157.088 218.297C157.088 217.929 157.008 217.613 156.847 217.348C156.687 217.084 156.46 216.88 156.165 216.737C155.87 216.594 155.524 216.523 155.125 216.523C154.562 216.523 154.102 216.675 153.747 216.978C153.392 217.277 153.186 217.695 153.129 218.232L151.777 217.966C151.851 217.359 152.044 216.841 152.356 216.412C152.672 215.979 153.071 215.65 153.552 215.424C154.037 215.195 154.568 215.08 155.144 215.08C155.82 215.08 156.418 215.225 156.938 215.515C157.463 215.806 157.872 216.196 158.167 216.685C158.466 217.171 158.615 217.71 158.615 218.304C158.615 218.846 158.492 219.346 158.245 219.805C157.998 220.26 157.66 220.635 157.231 220.93C156.806 221.225 156.325 221.404 155.788 221.469V222.886H154.286Z" fill="white"/>
<path d="M34.7015 240.176C34.2468 240.176 33.8417 240.114 33.486 239.989C33.1303 239.861 32.8242 239.705 32.5675 239.521C32.3108 239.338 32.1 239.158 31.935 238.982C31.77 238.803 31.649 238.662 31.572 238.559L32.1825 237.69C32.2668 237.793 32.3805 237.925 32.5235 238.086C32.6665 238.247 32.8425 238.409 33.0515 238.57C33.2605 238.731 33.5043 238.867 33.783 238.977C34.0617 239.087 34.377 239.142 34.729 239.142C35.0627 239.142 35.3652 239.083 35.6365 238.966C35.9078 238.849 36.1242 238.674 36.2855 238.443C36.4505 238.212 36.533 237.926 36.533 237.585C36.533 237.296 36.4743 237.05 36.357 236.848C36.2397 236.643 36.0765 236.467 35.8675 236.32C35.6585 236.174 35.4147 236.04 35.136 235.919C34.8573 235.794 34.5567 235.67 34.234 235.545C34.0067 235.453 33.7757 235.347 33.541 235.226C33.3063 235.101 33.09 234.951 32.892 234.775C32.694 234.595 32.5345 234.383 32.4135 234.137C32.2925 233.891 32.232 233.602 32.232 233.268C32.232 232.931 32.2962 232.612 32.4245 232.311C32.5528 232.01 32.7343 231.744 32.969 231.513C33.2037 231.279 33.4823 231.095 33.805 230.963C34.1313 230.828 34.4925 230.76 34.8885 230.76C35.2405 230.76 35.5723 230.815 35.884 230.925C36.1993 231.035 36.4798 231.176 36.7255 231.348C36.9712 231.517 37.1673 231.695 37.314 231.882L36.7915 232.701C36.6705 232.544 36.5165 232.395 36.3295 232.256C36.1425 232.113 35.928 231.997 35.686 231.909C35.444 231.821 35.1837 231.777 34.905 231.777C34.564 231.777 34.2743 231.849 34.036 231.992C33.8013 232.131 33.6217 232.313 33.497 232.536C33.3723 232.76 33.31 232.998 33.31 233.251C33.31 233.479 33.3558 233.671 33.4475 233.829C33.5428 233.987 33.6693 234.12 33.827 234.23C33.9847 234.34 34.1625 234.438 34.3605 234.522C34.5585 234.606 34.762 234.687 34.971 234.764C35.345 234.911 35.6988 235.063 36.0325 235.22C36.3662 235.374 36.6595 235.556 36.9125 235.765C37.1655 235.97 37.3635 236.218 37.5065 236.507C37.6532 236.797 37.7265 237.147 37.7265 237.558C37.7265 238.112 37.5945 238.585 37.3305 238.977C37.0702 239.366 36.7127 239.663 36.258 239.868C35.8033 240.073 35.2845 240.176 34.7015 240.176ZM42.3588 240.176C41.7611 240.176 41.2221 240.05 40.7418 239.796C40.2651 239.543 39.8856 239.191 39.6033 238.74C39.3246 238.289 39.1853 237.771 39.1853 237.184C39.1853 236.594 39.3246 236.075 39.6033 235.627C39.8856 235.176 40.2651 234.824 40.7418 234.571C41.2221 234.318 41.7611 234.192 42.3588 234.192C42.9565 234.192 43.4936 234.318 43.9703 234.571C44.4506 234.824 44.8301 235.176 45.1088 235.627C45.3911 236.075 45.5323 236.594 45.5323 237.184C45.5323 237.771 45.3911 238.289 45.1088 238.74C44.8301 239.191 44.4506 239.543 43.9703 239.796C43.4936 240.05 42.9565 240.176 42.3588 240.176ZM42.3643 239.246C42.7566 239.246 43.1086 239.158 43.4203 238.982C43.732 238.806 43.9776 238.563 44.1573 238.251C44.337 237.939 44.4268 237.584 44.4268 237.184C44.4268 236.781 44.337 236.425 44.1573 236.117C43.9776 235.805 43.732 235.561 43.4203 235.385C43.1086 235.209 42.7566 235.121 42.3643 235.121C41.9683 235.121 41.6145 235.209 41.3028 235.385C40.9911 235.561 40.7455 235.805 40.5658 236.117C40.3861 236.425 40.2963 236.781 40.2963 237.184C40.2963 237.584 40.3861 237.939 40.5658 238.251C40.7455 238.563 40.9911 238.806 41.3028 238.982C41.6145 239.158 41.9683 239.246 42.3643 239.246ZM50.6329 240.176C50.1673 240.176 49.7401 240.068 49.3514 239.851C48.9628 239.631 48.6474 239.329 48.4054 238.944V240H47.3384V230.54H48.4054V235.396C48.6328 235.019 48.9389 234.724 49.3239 234.511C49.7126 234.298 50.1416 234.192 50.6109 234.192C51.1499 234.192 51.6321 234.322 52.0574 234.582C52.4828 234.843 52.8164 235.198 53.0584 235.649C53.3041 236.097 53.4269 236.608 53.4269 237.184C53.4269 237.763 53.3023 238.278 53.0529 238.729C52.8073 239.18 52.4736 239.534 52.0519 239.791C51.6303 240.048 51.1573 240.176 50.6329 240.176ZM50.3469 239.257C50.7319 239.257 51.0711 239.169 51.3644 238.993C51.6614 238.814 51.8943 238.568 52.0629 238.256C52.2316 237.945 52.3159 237.589 52.3159 237.189C52.3159 236.786 52.2298 236.429 52.0574 236.117C51.8888 235.802 51.6559 235.556 51.3589 235.38C51.0656 235.2 50.7283 235.11 50.3469 235.11C49.9656 235.11 49.6246 235.2 49.3239 235.38C49.0269 235.556 48.7923 235.802 48.6199 236.117C48.4513 236.429 48.3669 236.786 48.3669 237.189C48.3669 237.589 48.4513 237.945 48.6199 238.256C48.7886 238.568 49.0214 238.814 49.3184 238.993C49.6191 239.169 49.9619 239.257 50.3469 239.257ZM55.2662 240V234.368H56.3332V235.193C56.5202 234.867 56.7585 234.619 57.0482 234.45C57.3378 234.278 57.666 234.192 58.0327 234.192C58.2087 234.192 58.3865 234.214 58.5662 234.258C58.7495 234.298 58.9072 234.353 59.0392 234.423L58.5992 235.325C58.4855 235.263 58.3535 235.213 58.2032 235.176C58.0528 235.14 57.9117 235.121 57.7797 235.121C57.534 235.121 57.2993 235.186 57.0757 235.314C56.8557 235.439 56.676 235.602 56.5367 235.803C56.401 236.005 56.3332 236.221 56.3332 236.452V240H55.2662ZM62.95 240.176C62.3597 240.176 61.8298 240.046 61.3605 239.785C60.8912 239.525 60.5208 239.171 60.2495 238.724C59.9782 238.273 59.8425 237.765 59.8425 237.2C59.8425 236.782 59.9195 236.392 60.0735 236.029C60.2275 235.666 60.442 235.347 60.717 235.072C60.992 234.793 61.311 234.577 61.674 234.423C62.037 234.269 62.4257 234.192 62.84 234.192C63.4267 234.192 63.94 234.313 64.38 234.555C64.8237 234.797 65.1683 235.134 65.414 235.567C65.6633 236 65.788 236.502 65.788 237.074C65.788 237.122 65.7862 237.16 65.7825 237.189C65.7788 237.219 65.7715 237.257 65.7605 237.305H60.9205C60.9205 237.697 61.0085 238.044 61.1845 238.344C61.3642 238.645 61.6098 238.882 61.9215 239.054C62.2368 239.223 62.598 239.307 63.005 239.307C63.39 239.307 63.7347 239.228 64.039 239.07C64.3433 238.913 64.6073 238.678 64.831 238.366L65.612 238.773C65.3443 239.217 64.9758 239.562 64.5065 239.807C64.0408 240.053 63.522 240.176 62.95 240.176ZM60.9755 236.518H64.7155C64.6642 236.229 64.5505 235.976 64.3745 235.759C64.2022 235.539 63.984 235.369 63.72 235.248C63.4597 235.123 63.1718 235.061 62.8565 235.061C62.5265 235.061 62.2277 235.121 61.96 235.242C61.696 235.36 61.4778 235.528 61.3055 235.748C61.1368 235.965 61.0268 236.221 60.9755 236.518ZM70.4341 240V230.54H71.5011V240H70.4341ZM76.1405 240.176C75.6161 240.176 75.1413 240.048 74.716 239.791C74.2943 239.531 73.9588 239.175 73.7095 238.724C73.4638 238.273 73.341 237.758 73.341 237.178C73.341 236.606 73.462 236.097 73.704 235.649C73.946 235.198 74.2778 234.843 74.6995 234.582C75.1211 234.322 75.6015 234.192 76.1405 234.192C76.6171 234.192 77.0516 234.298 77.444 234.511C77.84 234.724 78.1461 235.019 78.3625 235.396V234.368H79.4295V240H78.3625V238.944C78.1168 239.333 77.8015 239.635 77.4165 239.851C77.0315 240.068 76.6061 240.176 76.1405 240.176ZM76.4265 239.257C76.8115 239.257 77.1506 239.169 77.444 238.993C77.741 238.814 77.9738 238.568 78.1425 238.256C78.3111 237.945 78.3955 237.587 78.3955 237.184C78.3955 236.781 78.3111 236.423 78.1425 236.111C77.9738 235.8 77.741 235.556 77.444 235.38C77.1506 235.2 76.8115 235.11 76.4265 235.11C76.0451 235.11 75.706 235.2 75.409 235.38C75.112 235.556 74.8773 235.8 74.705 236.111C74.5363 236.423 74.452 236.781 74.452 237.184C74.452 237.584 74.5363 237.941 74.705 238.256C74.8773 238.568 75.112 238.814 75.409 238.993C75.706 239.169 76.0451 239.257 76.4265 239.257ZM86.9364 240.176C86.412 240.176 85.9372 240.048 85.5119 239.791C85.0902 239.531 84.7547 239.175 84.5054 238.724C84.2597 238.273 84.1369 237.758 84.1369 237.178C84.1369 236.606 84.2579 236.097 84.4999 235.649C84.7419 235.198 85.0737 234.843 85.4954 234.582C85.917 234.322 86.3974 234.192 86.9364 234.192C87.413 234.192 87.8475 234.298 88.2399 234.511C88.6359 234.724 88.942 235.019 89.1584 235.396V234.368H90.2254V240H89.1584V238.944C88.9127 239.333 88.5974 239.635 88.2124 239.851C87.8274 240.068 87.402 240.176 86.9364 240.176ZM87.2224 239.257C87.6074 239.257 87.9465 239.169 88.2399 238.993C88.5369 238.814 88.7697 238.568 88.9384 238.256C89.107 237.945 89.1914 237.587 89.1914 237.184C89.1914 236.781 89.107 236.423 88.9384 236.111C88.7697 235.8 88.5369 235.556 88.2399 235.38C87.9465 235.2 87.6074 235.11 87.2224 235.11C86.841 235.11 86.5019 235.2 86.2049 235.38C85.9079 235.556 85.6732 235.8 85.5009 236.111C85.3322 236.423 85.2479 236.781 85.2479 237.184C85.2479 237.584 85.3322 237.941 85.5009 238.256C85.6732 238.568 85.9079 238.814 86.2049 238.993C86.5019 239.169 86.841 239.257 87.2224 239.257ZM92.4771 242.86V234.368H93.5441V235.391C93.7714 235.013 94.0776 234.72 94.4626 234.511C94.8513 234.298 95.2784 234.192 95.7441 234.192C96.2868 234.192 96.7689 234.322 97.1906 234.582C97.6159 234.843 97.9514 235.198 98.1971 235.649C98.4428 236.097 98.5656 236.608 98.5656 237.184C98.5656 237.752 98.4428 238.264 98.1971 238.718C97.9551 239.169 97.6233 239.525 97.2016 239.785C96.7799 240.046 96.3014 240.176 95.7661 240.176C95.3041 240.176 94.8788 240.068 94.4901 239.851C94.1014 239.635 93.7861 239.333 93.5441 238.944V242.86H92.4771ZM95.4856 239.257C95.8669 239.257 96.2061 239.169 96.5031 238.993C96.8001 238.814 97.0329 238.568 97.2016 238.256C97.3703 237.945 97.4546 237.589 97.4546 237.189C97.4546 236.786 97.3684 236.429 97.1961 236.117C97.0274 235.802 96.7946 235.556 96.4976 235.38C96.2043 235.2 95.8669 235.11 95.4856 235.11C95.1043 235.11 94.7633 235.2 94.4626 235.38C94.1656 235.556 93.9309 235.8 93.7586 236.111C93.5899 236.423 93.5056 236.781 93.5056 237.184C93.5056 237.587 93.5899 237.945 93.7586 238.256C93.9309 238.568 94.1656 238.814 94.4626 238.993C94.7633 239.169 95.1043 239.257 95.4856 239.257ZM100.405 242.86V234.368H101.472V235.391C101.699 235.013 102.005 234.72 102.39 234.511C102.779 234.298 103.206 234.192 103.672 234.192C104.215 234.192 104.697 234.322 105.118 234.582C105.544 234.843 105.879 235.198 106.125 235.649C106.371 236.097 106.493 236.608 106.493 237.184C106.493 237.752 106.371 238.264 106.125 238.718C105.883 239.169 105.551 239.525 105.129 239.785C104.708 240.046 104.229 240.176 103.694 240.176C103.232 240.176 102.807 240.068 102.418 239.851C102.029 239.635 101.714 239.333 101.472 238.944V242.86H100.405ZM103.413 239.257C103.795 239.257 104.134 239.169 104.431 238.993C104.728 238.814 104.961 238.568 105.129 238.256C105.298 237.945 105.382 237.589 105.382 237.189C105.382 236.786 105.296 236.429 105.124 236.117C104.955 235.802 104.722 235.556 104.425 235.38C104.132 235.2 103.795 235.11 103.413 235.11C103.032 235.11 102.691 235.2 102.39 235.38C102.093 235.556 101.859 235.8 101.686 236.111C101.518 236.423 101.433 236.781 101.433 237.184C101.433 237.587 101.518 237.945 101.686 238.256C101.859 238.568 102.093 238.814 102.39 238.993C102.691 239.169 103.032 239.257 103.413 239.257Z" fill="white"/>
</svg>
