<svg width="375" height="144" viewBox="0 0 375 144" fill="none" xmlns="http://www.w3.org/2000/svg">
<g filter="url(#filter0_d_253_110)">
<path d="M4 33.9214C4 17.9051 16.9837 4.92139 33 4.92139H325.496C341.513 4.92139 354.497 17.9051 354.497 33.9214V94.9214C354.497 110.938 341.513 123.921 325.497 123.921H33C16.9838 123.921 4 110.938 4 94.9214V33.9214Z" fill="#AB9ED3"/>
<path d="M177.211 72.1555C193.807 72.1555 207.261 58.7017 207.261 42.1055C207.261 25.5093 193.807 12.0554 177.211 12.0554C160.615 12.0554 147.161 25.5093 147.161 42.1055C147.161 58.7017 160.615 72.1555 177.211 72.1555Z" fill="#635A8C"/>
<path d="M173.027 57.729C172.1 59.0027 170.707 59.8579 169.152 60.1078L169.112 60.1144C166.022 60.6037 163.51 59.1411 162.796 58.6897L147.736 48.5126C143.833 45.8732 142.688 40.7468 145.18 37.061C147.671 33.3759 152.855 32.5275 156.759 35.1669C156.813 35.2274 160.194 38.2656 171.831 48.6927C174.51 51.0908 175.023 54.9813 173.027 57.729Z" fill="#459696"/>
<path d="M187.873 34.8975C189.224 34.0871 190.84 33.8436 192.37 34.2201L192.409 34.23C195.445 34.9853 197.186 37.3128 197.67 38.0082L207.559 53.2586C210.122 57.2117 209.174 62.3787 205.442 64.7987C201.71 67.2193 196.606 65.9761 194.042 62.023C194.016 61.9466 192.09 57.8293 185.447 43.6872C183.918 40.4335 184.963 36.65 187.873 34.8975Z" fill="#459696"/>
<path d="M175.12 72.0831H168.644C166.761 72.0831 165.187 71.0706 164.996 69.7403L164.251 64.4789C164.016 62.8201 166.006 61.434 168.338 61.6334L175.558 62.2497C177.4 62.4073 178.787 63.5175 178.787 64.8345V69.4783C178.787 70.9177 177.144 72.0831 175.12 72.0831Z" fill="#459696"/>
<path d="M182.253 72.3903H188.085C189.78 72.3903 191.2 71.3777 191.369 70.0474L192.041 64.786C192.252 63.1273 190.46 61.7411 188.361 61.9405L181.858 62.5582C180.196 62.7157 178.951 63.826 178.951 65.143V69.7868C178.951 71.2248 180.43 72.3903 182.253 72.3903Z" fill="#459696"/>
<path d="M200.654 48.8151C200.603 48.5132 200.475 47.7633 200.043 47.6616C200.016 47.6551 199.987 47.6515 199.958 47.651C199.934 47.6496 199.911 47.6387 199.894 47.6206C199.877 47.6025 199.868 47.5786 199.869 47.5539C199.867 45.9476 199.715 44.3449 199.413 42.7672C199.41 42.7491 199.411 42.7305 199.418 42.7134C199.425 42.6964 199.437 42.6816 199.451 42.6709C199.466 42.6601 199.484 42.6538 199.502 42.6528C199.521 42.6517 199.539 42.6558 199.555 42.6648C199.865 42.8343 200.132 42.8995 200.179 42.8443C200.293 42.7113 199.295 41.6848 199.115 41.3704C199.111 41.3624 199.108 41.3539 199.105 41.3451L199.091 41.2866C199.158 41.2201 199.704 41.8231 199.906 41.6935C200.067 41.5898 199.958 41.0513 199.702 40.6756C199.676 40.6384 199.256 40.0327 198.888 40.1331C198.875 40.137 198.862 40.1384 198.849 40.1371C198.836 40.1359 198.823 40.1321 198.812 40.1259C198.8 40.1197 198.79 40.1113 198.782 40.1011C198.774 40.0909 198.767 40.0792 198.764 40.0667C198.42 38.8777 197.995 37.7139 197.491 36.5836C194.81 30.6368 188.183 22.3338 178.651 21.8358C178.634 21.835 178.618 21.8301 178.604 21.8214C178.59 21.8128 178.579 21.8007 178.571 21.7863C178.563 21.772 178.558 21.7558 178.558 21.7393C178.558 21.7229 178.562 21.7067 178.57 21.6922C178.93 21.048 179.211 20.3892 178.984 20.1964C178.736 19.985 177.929 20.3726 177.581 20.8792C177.512 20.9809 177.455 21.0902 177.411 21.2049C177.353 21.3701 177.329 21.545 177.34 21.7195C177.34 21.7324 177.338 21.7453 177.333 21.7574C177.329 21.7694 177.322 21.7805 177.313 21.7898C177.304 21.7992 177.293 21.8066 177.281 21.8118C177.27 21.817 177.257 21.8197 177.244 21.8199L177.075 21.8245C177.06 21.8252 177.046 21.8224 177.032 21.8164C177.019 21.8104 177.007 21.8014 176.997 21.79C176.771 21.5154 176.493 21.1424 176.303 21.1996C176.17 21.2395 176.095 21.4828 176.089 21.8053C176.089 21.8288 176.08 21.8513 176.064 21.8686C176.048 21.8859 176.026 21.8967 176.003 21.899C164.016 23.1003 158.543 36.3363 157.966 37.7949C157.876 38.025 157.735 38.3807 157.567 38.8454C157.193 39.9163 156.887 41.0099 156.652 42.1196C156.648 42.1335 156.642 42.1464 156.633 42.1576C156.625 42.1688 156.614 42.1778 156.601 42.1842C156.588 42.1905 156.574 42.194 156.56 42.1943C156.546 42.1947 156.532 42.1919 156.519 42.1861C156.398 42.1358 156.27 42.1051 156.14 42.095C155.362 42.0379 154.694 42.7505 154.782 42.9773C154.839 43.1228 155.192 43.0298 155.572 43.0178C155.594 43.0171 155.616 43.024 155.634 43.0374C155.651 43.0508 155.664 43.0698 155.669 43.0914C155.675 43.1129 155.672 43.1356 155.663 43.1558C155.654 43.1759 155.638 43.1922 155.618 43.202C155.292 43.3622 155.041 43.5929 155.051 43.7724C155.067 44.0742 155.827 44.2484 156.186 44.4478C156.203 44.4571 156.217 44.4714 156.226 44.4887C156.235 44.506 156.238 44.5256 156.235 44.5449C156.228 44.6074 156.22 44.6699 156.212 44.7331C156.21 44.7515 156.203 44.7689 156.191 44.7831C156.179 44.7974 156.163 44.808 156.146 44.8135C155.98 44.8707 155.755 44.9405 155.602 45.1459C155.274 45.5887 155.455 46.4197 155.744 46.4955C155.801 46.5073 155.86 46.4979 155.911 46.4689C155.926 46.461 155.943 46.4573 155.96 46.458C155.977 46.4588 155.993 46.464 156.008 46.4732C156.022 46.4824 156.034 46.4952 156.041 46.5103C156.049 46.5254 156.053 46.5423 156.052 46.5593C155.896 49.5224 156.218 52.9749 157.676 56.3548C157.681 56.3678 157.684 56.3819 157.684 56.3961C157.683 56.4103 157.68 56.4243 157.674 56.437C157.667 56.4497 157.658 56.4608 157.647 56.4696C157.636 56.4784 157.623 56.4846 157.609 56.4878C156.94 56.6148 156.38 56.8029 156.388 56.8714C156.398 56.9545 157.266 56.9173 157.894 56.9525C157.911 56.9536 157.928 56.9592 157.942 56.9687C157.956 56.9783 157.968 56.9916 157.975 57.007C158.02 57.101 158.065 57.1947 158.112 57.2883C158.123 57.3102 158.126 57.3355 158.119 57.359C158.112 57.3825 158.096 57.4024 158.074 57.4146C157.846 57.5475 157.591 57.7344 157.459 58.0508C157.416 58.1539 157.339 58.336 157.408 58.5089C157.559 58.8838 158.326 59.0587 158.867 58.8147C158.888 58.8055 158.912 58.8042 158.934 58.8112C158.957 58.8181 158.976 58.8328 158.988 58.8526C159.021 58.9078 159.054 58.9623 159.09 59.0168C159.096 59.0268 159.102 59.0361 159.109 59.0454C159.119 59.0612 159.124 59.0795 159.124 59.0982C159.124 59.117 159.119 59.1353 159.109 59.1511C158.792 59.6477 158.739 60.27 158.856 60.3478C158.961 60.4143 159.207 60.0426 159.542 59.8458C159.563 59.8334 159.587 59.8292 159.611 59.8342C159.635 59.8391 159.656 59.8527 159.671 59.8724C160.5 61.0252 161.462 62.077 162.536 63.0064C162.549 63.0171 162.558 63.0308 162.564 63.0462C162.57 63.0617 162.571 63.0783 162.569 63.0946C162.566 63.1108 162.56 63.1262 162.549 63.1391C162.539 63.1521 162.526 63.1623 162.511 63.1686C162.306 63.2506 162.135 63.3988 162.025 63.5895C161.882 63.8441 161.819 64.249 161.981 64.362C162.25 64.5501 162.902 63.7723 163.178 63.9471C163.501 64.1512 162.9 65.3945 163.09 65.4922C163.235 65.5667 163.933 65.0175 164.025 64.3427C164.027 64.3263 164.034 64.3107 164.043 64.2974C164.053 64.2841 164.066 64.2736 164.082 64.2669C164.097 64.2602 164.113 64.2575 164.13 64.2592C164.146 64.2608 164.162 64.2667 164.175 64.2762C170.794 68.8516 178.904 68.4287 179.364 68.3981C180.619 68.3124 187.456 67.7333 193.024 62.8735C193.036 62.8626 193.05 62.8549 193.066 62.8513C193.082 62.8476 193.099 62.8481 193.114 62.8526C193.13 62.8571 193.144 62.8656 193.156 62.8771C193.167 62.8887 193.175 62.903 193.18 62.9187C193.2 62.9919 193.225 63.0635 193.256 63.1327C193.297 63.2238 193.472 63.6094 193.722 63.6114C193.956 63.6114 194.202 63.279 194.217 62.9951C194.222 62.912 194.203 62.9034 194.14 62.4526C194.107 62.2119 194.109 62.1867 194.126 62.1608C194.269 61.9414 195.01 62.3316 195.134 62.1495C195.191 62.0677 195.083 61.9267 194.676 61.3676C194.662 61.3498 194.656 61.3279 194.657 61.3057C194.658 61.2836 194.667 61.2625 194.682 61.246C195.371 60.4858 196.001 59.6733 196.566 58.816L196.576 58.8001C196.627 59.199 196.696 59.4769 196.744 59.4769C196.821 59.4769 196.891 58.7502 196.992 58.1532C196.994 58.1412 196.998 58.1298 197.005 58.1193C197.093 57.9744 197.178 57.829 197.259 57.6832C197.268 57.6668 197.282 57.6535 197.298 57.6446C197.314 57.6358 197.333 57.6319 197.352 57.6335C197.37 57.635 197.388 57.6419 197.403 57.6534C197.417 57.6648 197.429 57.6802 197.435 57.6978C197.532 57.9697 197.681 58.352 198.052 58.5687C198.149 58.6252 198.318 58.7249 198.501 58.6784C198.918 58.5727 199.2 57.7403 198.954 57.1626C198.796 56.791 198.452 56.6022 198.03 56.4153C198.018 56.4102 198.007 56.4027 197.998 56.3933C197.989 56.3839 197.983 56.3729 197.978 56.3608C197.973 56.3487 197.971 56.3358 197.972 56.3229C197.972 56.31 197.976 56.2974 197.981 56.2857C198.771 54.5869 199.317 52.7852 199.603 50.9339C199.605 50.915 199.613 50.8972 199.625 50.8825C199.637 50.8679 199.653 50.8571 199.671 50.8515C199.689 50.8459 199.708 50.8457 199.726 50.851C199.744 50.8564 199.761 50.8669 199.773 50.8813C199.93 51.0489 200.061 51.1413 200.112 51.1194C200.202 51.0815 200.045 50.6839 200.006 49.4573C199.985 48.8118 200.022 48.7512 200.044 48.7479C200.152 48.7326 200.335 50.1155 200.519 50.1048C200.644 50.0969 200.761 49.4427 200.654 48.8151Z" fill="#4EADAF"/>
<path d="M160.758 50.4439C164.393 50.4439 167.34 48.3934 167.34 45.8639C167.34 43.3345 164.393 41.2839 160.758 41.2839C157.123 41.2839 154.176 43.3345 154.176 45.8639C154.176 48.3934 157.123 50.4439 160.758 50.4439Z" fill="#E37A39"/>
<path d="M195.091 50.7151C198.726 50.7151 201.672 48.6646 201.672 46.1351C201.672 43.6057 198.726 41.5552 195.091 41.5552C191.456 41.5552 188.509 43.6057 188.509 46.1351C188.509 48.6646 191.456 50.7151 195.091 50.7151Z" fill="#E37A39"/>
<path d="M166.099 42.9121C170.402 42.9121 173.891 39.5897 173.891 35.4913C173.891 31.3929 170.402 28.0706 166.099 28.0706C161.795 28.0706 158.306 31.3929 158.306 35.4913C158.306 39.5897 161.795 42.9121 166.099 42.9121Z" fill="#E2E2E2"/>
<path d="M168.272 41.5538C171.21 41.5538 173.592 39.2857 173.592 36.4878C173.592 33.69 171.21 31.4219 168.272 31.4219C165.333 31.4219 162.952 33.69 162.952 36.4878C162.952 39.2857 165.333 41.5538 168.272 41.5538Z" fill="black"/>
<path d="M167.162 33.3064C167.406 32.5993 166.58 31.6732 165.317 31.2379C164.054 30.8025 162.833 31.0228 162.589 31.7299C162.346 32.437 163.172 33.3632 164.435 33.7985C165.697 34.2338 166.919 34.0135 167.162 33.3064Z" fill="white"/>
<path d="M190.351 43.5222C194.655 43.5222 198.144 40.2644 198.144 36.2457C198.144 32.227 194.655 28.9692 190.351 28.9692C186.048 28.9692 182.559 32.227 182.559 36.2457C182.559 40.2644 186.048 43.5222 190.351 43.5222Z" fill="#E2E2E2"/>
<path d="M187.878 41.565C190.816 41.565 193.198 39.341 193.198 36.5975C193.198 33.8539 190.816 31.6299 187.878 31.6299C184.94 31.6299 182.558 33.8539 182.558 36.5975C182.558 39.341 184.94 41.565 187.878 41.565Z" fill="black"/>
<path d="M192.009 35.0391C193.252 34.5522 194.043 33.6034 193.775 32.92C193.508 32.2366 192.283 32.0773 191.04 32.5642C189.797 33.0511 189.006 33.9998 189.274 34.6832C189.541 35.3667 190.766 35.526 192.009 35.0391Z" fill="white"/>
<path d="M185.857 27.8784C184.495 27.3317 183.249 26.5307 182.186 25.5183C181.65 25.0111 181.164 24.4546 180.733 23.8562C180.303 23.255 179.932 22.6141 179.625 21.9422L179.513 21.6956L179.41 21.4389C179.336 21.2687 179.283 21.0919 179.221 20.9177L179.131 20.6564C179.1 20.5694 179.079 20.4789 179.053 20.3905L178.979 20.1246C178.956 20.0355 178.926 19.9477 178.912 19.8587L178.799 19.3175C178.765 19.136 178.741 18.9532 178.713 18.771L178.692 18.638C178.686 18.5922 178.683 18.5463 178.678 18.5004L178.651 18.2252C178.644 18.1334 178.632 18.0424 178.629 17.9506L178.618 17.6747C178.558 16.2074 178.784 14.7424 179.283 13.3613C178.944 14.766 178.828 16.2152 178.938 17.6561C178.993 18.3696 179.111 19.077 179.289 19.7702C179.332 19.9431 179.386 20.1133 179.435 20.2848C179.461 20.3706 179.481 20.4577 179.512 20.5414L179.602 20.7934C179.664 20.9609 179.716 21.1318 179.788 21.2953L179.89 21.5427L180 21.7866C180.293 22.438 180.645 23.0611 181.052 23.6482C181.255 23.9407 181.467 24.2292 181.697 24.5038C181.926 24.7784 182.162 25.0469 182.413 25.3016C183.423 26.3305 184.585 27.1995 185.857 27.8784Z" fill="#29ABE2"/>
<path d="M180.771 25.3733C180.529 24.8443 180.388 24.2752 180.353 23.6947C180.322 23.1092 180.379 22.5224 180.523 21.9541C180.677 21.3879 180.896 20.8417 181.177 20.3267L181.402 19.9497C181.476 19.8242 181.557 19.7026 181.644 19.5854L181.898 19.2277L182.172 18.8873C182.262 18.7723 182.364 18.6673 182.461 18.5596C182.559 18.4519 182.655 18.3415 182.761 18.2418L183.072 17.9346C183.179 17.8395 183.286 17.7392 183.395 17.6401C183.505 17.541 183.617 17.452 183.728 17.3602C183.839 17.2685 183.952 17.1754 184.069 17.0896C184.186 17.0039 184.3 16.9134 184.417 16.829L184.776 16.5824C185.736 15.9388 186.767 15.4067 187.848 14.9961C186.829 15.5183 185.851 16.1172 184.922 16.7878C184.463 17.1253 184.021 17.4863 183.598 17.8695C183.177 18.2488 182.784 18.6578 182.421 19.0934L182.152 19.4212L181.901 19.7675C181.727 19.9916 181.594 20.2409 181.441 20.4782C181.161 20.9676 180.934 21.4856 180.764 22.0233C180.603 22.5645 180.517 23.1254 180.509 23.69C180.506 24.2615 180.594 24.8298 180.771 25.3733Z" fill="#29ABE2"/>
<path d="M192.208 16.1774L191.405 15.6323L192.08 14.8298C192.137 14.7601 192.174 14.6758 192.186 14.5863C192.199 14.4968 192.186 14.4056 192.15 14.3228C192.113 14.2401 192.055 14.1691 191.98 14.1178C191.906 14.0664 191.819 14.0368 191.729 14.0321L190.477 13.9755L190.47 12.9251C190.469 12.8341 190.443 12.745 190.395 12.668C190.346 12.591 190.277 12.5292 190.195 12.4894C190.113 12.4496 190.022 12.4336 189.931 12.443C189.841 12.4525 189.755 12.487 189.683 12.5428L189.069 13.0142L188.543 12.1652C188.495 12.0882 188.426 12.0263 188.344 11.9865C188.262 11.9467 188.171 11.9305 188.08 11.9398C187.99 11.9492 187.904 11.9836 187.832 12.0393C187.76 12.095 187.705 12.1697 187.673 12.255L187.186 13.5514L186.049 13.1857C185.962 13.1583 185.87 13.1557 185.782 13.1781C185.693 13.2006 185.613 13.2472 185.55 13.3127C185.487 13.3782 185.444 13.4601 185.425 13.549C185.406 13.6379 185.412 13.7304 185.443 13.816L185.693 14.5154L184.915 14.7082C184.827 14.73 184.747 14.7761 184.683 14.8413C184.62 14.9066 184.576 14.9883 184.556 15.0772C184.537 15.1661 184.543 15.2587 184.573 15.3445C184.604 15.4302 184.657 15.5058 184.729 15.5625L185.733 16.3643L184.935 17.4765C184.883 17.5504 184.852 17.6373 184.847 17.7275C184.841 17.8178 184.861 17.9078 184.904 17.9874C184.946 18.0671 185.01 18.1333 185.088 18.1787C185.167 18.2241 185.256 18.2468 185.346 18.2444L186.26 18.2158L186.211 18.9398C186.204 19.0306 186.223 19.1214 186.266 19.202C186.308 19.2825 186.372 19.3496 186.451 19.3955C186.529 19.4415 186.619 19.4646 186.71 19.4622C186.801 19.4598 186.89 19.432 186.966 19.3819L187.877 18.7836L188.67 19.8572C188.725 19.9294 188.798 19.985 188.882 20.0179C188.967 20.0507 189.058 20.0595 189.147 20.0433C189.236 20.0271 189.319 19.9866 189.386 19.9261C189.453 19.8657 189.502 19.7877 189.528 19.701L189.823 18.6852L190.637 19.0176C190.721 19.0518 190.813 19.0617 190.903 19.0464C190.992 19.031 191.076 18.9909 191.144 18.9306C191.212 18.8703 191.261 18.7922 191.287 18.7052C191.313 18.6181 191.314 18.5255 191.29 18.4378L191.007 17.4047L192.088 17.0417C192.174 17.0129 192.25 16.9607 192.308 16.8909C192.366 16.8212 192.403 16.7366 192.415 16.6468C192.428 16.557 192.415 16.4655 192.378 16.3826C192.342 16.2997 192.283 16.2286 192.208 16.1774Z" fill="#F4BE38"/>
<path opacity="0.47" d="M183.664 13.5845L182.607 12.8672L183.495 11.8115C183.572 11.7196 183.622 11.6078 183.639 11.4889C183.656 11.37 183.639 11.2488 183.591 11.1389C183.543 11.029 183.464 10.9349 183.365 10.8673C183.266 10.7997 183.15 10.7613 183.03 10.7564L181.382 10.6813L181.373 9.29909C181.371 9.17993 181.337 9.06354 181.273 8.96295C181.209 8.86236 181.118 8.78153 181.011 8.72951C180.904 8.67749 180.784 8.65633 180.666 8.66839C180.547 8.68045 180.434 8.72526 180.34 8.79781L179.536 9.42009L178.84 8.30252C178.776 8.20082 178.686 8.11889 178.578 8.06599C178.471 8.01308 178.351 7.99131 178.231 8.00314C178.112 8.01496 177.999 8.05992 177.904 8.13291C177.809 8.20591 177.736 8.30404 177.694 8.4162L177.052 10.1228L175.557 9.64746C175.443 9.61141 175.321 9.60796 175.205 9.63752C175.089 9.66707 174.983 9.72845 174.901 9.81472C174.818 9.90099 174.76 10.0087 174.735 10.1258C174.71 10.2428 174.719 10.3645 174.759 10.4772L175.092 11.3913L174.064 11.6453C173.948 11.6742 173.842 11.735 173.759 11.8209C173.675 11.9068 173.618 12.0143 173.592 12.1313C173.566 12.2483 173.574 12.3701 173.614 12.483C173.654 12.5959 173.725 12.6954 173.818 12.7701L175.139 13.8252L174.09 15.2878C174.021 15.3852 173.979 15.5002 173.972 15.6197C173.964 15.7393 173.989 15.8586 174.046 15.9643C174.102 16.07 174.187 16.1578 174.291 16.2177C174.395 16.2777 174.513 16.3075 174.633 16.3037L175.835 16.2651L175.769 17.2185C175.76 17.338 175.786 17.4575 175.842 17.5634C175.897 17.6694 175.982 17.7576 176.085 17.8182C176.189 17.8787 176.307 17.9091 176.427 17.9059C176.546 17.9027 176.663 17.8661 176.763 17.8002L177.96 17.0104L179.002 18.4258C179.073 18.5215 179.169 18.5955 179.28 18.6396C179.391 18.6837 179.511 18.696 179.629 18.6753C179.746 18.6546 179.855 18.6017 179.944 18.5224C180.033 18.4431 180.098 18.3406 180.132 18.2264L180.52 16.8887L181.592 17.3235C181.703 17.3685 181.825 17.3815 181.943 17.3611C182.061 17.3407 182.171 17.2877 182.26 17.208C182.35 17.1283 182.415 17.0252 182.449 16.9102C182.483 16.7953 182.484 16.6732 182.452 16.5576L182.082 15.1974L183.506 14.7254C183.619 14.6876 183.72 14.6188 183.797 14.5267C183.873 14.4345 183.923 14.3228 183.939 14.2041C183.956 14.0855 183.939 13.9645 183.89 13.855C183.841 13.7455 183.763 13.6518 183.664 13.5845Z" fill="#F4BE38"/>
<path opacity="0.47" d="M193.57 16.3669L192.512 15.6489L193.401 14.5932C193.478 14.5016 193.528 14.3902 193.545 14.2716C193.562 14.153 193.546 14.032 193.498 13.9222C193.45 13.8125 193.372 13.7184 193.273 13.6506C193.174 13.5828 193.058 13.5441 192.939 13.5388L191.291 13.4637L191.282 12.0808C191.281 11.9611 191.247 11.844 191.183 11.7428C191.119 11.6415 191.028 11.5602 190.92 11.5079C190.812 11.4556 190.692 11.4345 190.573 11.4469C190.454 11.4594 190.341 11.5048 190.246 11.5782L189.442 12.2025L188.746 11.0849C188.682 10.9832 188.592 10.9012 188.484 10.8482C188.377 10.7952 188.257 10.7733 188.138 10.7851C188.018 10.7968 187.905 10.8418 187.81 10.9147C187.715 10.9877 187.642 11.0858 187.6 11.1979L186.959 12.9052L185.463 12.4299C185.349 12.3936 185.227 12.39 185.111 12.4194C184.995 12.4489 184.89 12.5102 184.807 12.5964C184.724 12.6827 184.667 12.7904 184.642 12.9075C184.617 13.0246 184.625 13.1463 184.666 13.2589L184.998 14.1737L183.974 14.4277C183.858 14.456 183.751 14.5165 183.667 14.6021C183.583 14.6878 183.525 14.7952 183.499 14.9123C183.473 15.0294 183.48 15.1514 183.52 15.2646C183.56 15.3777 183.631 15.4775 183.724 15.5525L185.046 16.6076L183.997 18.0702C183.927 18.1675 183.885 18.2825 183.877 18.402C183.869 18.5216 183.895 18.641 183.951 18.7468C184.008 18.8525 184.093 18.9404 184.197 19.0003C184.3 19.0603 184.419 19.09 184.539 19.0861L185.742 19.0482L185.675 20.0015C185.666 20.1216 185.691 20.2417 185.747 20.3482C185.803 20.4547 185.888 20.5434 185.992 20.604C186.096 20.6647 186.215 20.6949 186.335 20.6912C186.456 20.6875 186.573 20.6501 186.673 20.5833L187.869 19.7928L188.912 21.2089C188.983 21.3043 189.079 21.3781 189.19 21.4221C189.3 21.466 189.421 21.4783 189.538 21.4576C189.656 21.4369 189.765 21.384 189.854 21.3049C189.943 21.2258 190.008 21.1235 190.042 21.0094L190.43 19.6718L191.502 20.1066C191.613 20.1515 191.734 20.1645 191.852 20.1441C191.97 20.1237 192.08 20.0707 192.17 19.9911C192.259 19.9115 192.325 19.8085 192.359 19.6937C192.393 19.5789 192.394 19.4569 192.362 19.3414L191.988 17.9818L193.411 17.5071C193.525 17.4695 193.626 17.4007 193.703 17.3087C193.779 17.2166 193.829 17.1049 193.845 16.9863C193.862 16.8676 193.845 16.7467 193.796 16.6372C193.747 16.5278 193.669 16.4341 193.57 16.3669Z" fill="#F4BE38"/>
<path d="M182.37 13.5322L181.566 12.9864L182.241 12.1846C182.299 12.115 182.336 12.0306 182.349 11.941C182.361 11.8514 182.349 11.7601 182.312 11.6773C182.276 11.5945 182.217 11.5234 182.142 11.4721C182.068 11.4208 181.981 11.3913 181.89 11.3868L180.638 11.3243L180.632 10.2746C180.631 10.1835 180.605 10.0945 180.556 10.0175C180.508 9.9405 180.439 9.87862 180.357 9.83886C180.275 9.79909 180.184 9.78302 180.093 9.79246C180.003 9.80191 179.916 9.83649 179.845 9.8923L179.234 10.3663L178.702 9.51734C178.654 9.44064 178.585 9.37896 178.504 9.33924C178.422 9.29953 178.331 9.28336 178.241 9.29255C178.151 9.30174 178.065 9.33592 177.993 9.39126C177.921 9.44659 177.866 9.52088 177.834 9.60576L177.346 10.9022L176.211 10.5412C176.124 10.5136 176.031 10.5108 175.943 10.5332C175.855 10.5556 175.774 10.6022 175.711 10.6677C175.648 10.7333 175.605 10.8152 175.586 10.9042C175.567 10.9932 175.573 11.0858 175.604 11.1714L175.854 11.8662L175.077 12.059C174.989 12.0808 174.908 12.1269 174.845 12.1921C174.781 12.2574 174.737 12.3391 174.718 12.428C174.698 12.5169 174.704 12.6095 174.735 12.6953C174.765 12.781 174.819 12.8566 174.89 12.9133L175.894 13.7177L175.096 14.8293C175.044 14.9032 175.014 14.9901 175.008 15.0804C175.002 15.1707 175.022 15.2608 175.065 15.3406C175.107 15.4204 175.171 15.4867 175.249 15.5323C175.328 15.5778 175.417 15.6007 175.507 15.5985L176.421 15.5692L176.371 16.2939C176.365 16.3847 176.384 16.4755 176.427 16.5561C176.469 16.6366 176.533 16.7037 176.612 16.7497C176.69 16.7957 176.78 16.8187 176.871 16.8163C176.962 16.8139 177.051 16.7861 177.127 16.736L178.037 16.1377L178.831 17.2107C178.885 17.2848 178.959 17.3423 179.043 17.3765C179.128 17.4108 179.221 17.4206 179.311 17.4046C179.401 17.3887 179.485 17.3477 179.553 17.2864C179.621 17.225 179.671 17.1458 179.696 17.0578L179.985 16.0446L180.799 16.377C180.884 16.4111 180.976 16.421 181.065 16.4055C181.155 16.3899 181.239 16.3496 181.307 16.2891C181.375 16.2286 181.424 16.1503 181.45 16.063C181.476 15.9758 181.477 15.883 181.453 15.7953L181.168 14.7628L182.249 14.4038C182.337 14.3759 182.415 14.3238 182.474 14.2534C182.534 14.183 182.572 14.0972 182.584 14.006C182.597 13.9148 182.584 13.8219 182.545 13.738C182.507 13.6542 182.446 13.5828 182.37 13.5322Z" fill="#F4BE38"/>
<path d="M174.804 20.4323C175.05 19.6658 174.978 18.3953 173.179 16.2865C173.111 16.2061 173.062 16.1111 173.036 16.0088C173.011 15.9065 173.009 15.7998 173.032 15.6969C173.055 15.5939 173.101 15.4976 173.167 15.4154C173.232 15.3331 173.316 15.2672 173.412 15.2228C173.511 15.1768 173.62 15.1553 173.73 15.1601C173.839 15.1648 173.946 15.1957 174.041 15.2501C174.136 15.3046 174.216 15.3809 174.275 15.4729C174.335 15.5648 174.371 15.6696 174.382 15.7785C174.651 18.4538 175.61 19.7549 176.47 20.4523C181.014 24.1347 191.455 17.9718 198.338 20.8611C198.966 21.1271 200.724 21.863 200.744 22.9048C200.764 24.0264 198.759 24.886 198.426 25.0289C193.635 27.0826 187.901 23.4333 187.535 24.1301C187.169 24.8268 193.045 27.8119 192.538 29.4739C192.221 30.5124 189.434 30.9485 187.041 30.3788C182.293 29.2486 180.209 24.4193 178.844 25.0695C178.083 25.4311 178.747 26.9203 177.817 29.4314C177.658 29.8622 176.212 33.766 173.945 33.7581C172.229 33.7521 170.468 31.507 170.456 29.4792C170.441 26.6783 173.767 24.9551 173.298 24.2371C172.952 23.7052 170.748 24.0649 169.049 25.3673C166.489 27.3259 167.151 29.8289 165.164 30.6666C163.225 31.4837 160.691 29.9014 159.493 28.7912C158.612 27.9741 157.553 26.9915 157.722 26.0607C158.319 22.7685 173.393 24.8142 174.804 20.4323Z" fill="#C4D650"/>
<path d="M153.543 48.8867C153.543 43.9005 155.487 39.4834 158.468 36.7949C155.875 34.4015 154.925 33.5153 154.897 33.4827C150.994 30.7636 145.809 31.6378 143.318 35.4346C140.826 39.2341 141.971 44.5161 145.874 47.2353L153.972 52.8756C153.685 51.5654 153.542 50.2279 153.543 48.8867Z" fill="#459696"/>
<path fill-rule="evenodd" clip-rule="evenodd" d="M297.251 71.6846H179.46H30.0721C15.6729 71.6846 4 83.3575 4 97.7568C4 112.156 15.6729 123.829 30.0721 123.829H325.92C341.936 123.829 354.92 110.845 354.92 94.8289V71.6846H354.919L354.919 55.1235C354.165 56.6563 352.806 58.1902 350.876 59.6787C348.214 61.7325 344.518 63.6597 340 65.3503C335.483 67.0408 330.231 68.4617 324.545 69.5318C318.859 70.6018 312.85 71.3 306.862 71.5866C306.271 71.6149 305.68 71.6391 305.092 71.6593L305.022 71.6846H304.279C301.9 71.7512 299.55 71.751 297.251 71.6846Z" fill="#C5D751"/>
<path d="M26.7137 100.496C26.0421 100.496 25.4441 100.351 24.9197 100.061C24.3954 99.7706 23.9837 99.3806 23.6847 98.8909C23.3901 98.4012 23.2427 97.8617 23.2427 97.2724C23.2427 96.7264 23.3662 96.2259 23.6132 95.7709C23.8602 95.3159 24.1982 94.9411 24.6272 94.6464C25.0562 94.3474 25.5394 94.1676 26.0767 94.1069V92.6899H27.5717V95.5304C27.4851 95.5087 27.3832 95.4914 27.2662 95.4784C27.1492 95.4654 27.0236 95.4589 26.8892 95.4589C26.4646 95.4589 26.0919 95.5304 25.7712 95.6734C25.4549 95.8121 25.2079 96.0179 25.0302 96.2909C24.8569 96.5596 24.7702 96.8889 24.7702 97.2789C24.7702 97.6472 24.8504 97.9636 25.0107 98.2279C25.1754 98.4922 25.4051 98.6959 25.6997 98.8389C25.9944 98.9819 26.3389 99.0534 26.7332 99.0534C27.3009 99.0534 27.7624 98.9017 28.1177 98.5984C28.4731 98.2951 28.6767 97.8769 28.7287 97.3439L30.0872 97.6104C30.0136 98.2127 29.8186 98.7306 29.5022 99.1639C29.1859 99.5972 28.7851 99.9266 28.2997 100.152C27.8187 100.382 27.2901 100.496 26.7137 100.496ZM26.8307 91.5134C26.6357 91.5134 26.4559 91.4657 26.2912 91.3704C26.1266 91.2707 25.9966 91.1407 25.9012 90.9804C25.8102 90.8201 25.7647 90.6402 25.7647 90.4409C25.7647 90.2416 25.8102 90.0617 25.9012 89.9014C25.9966 89.7411 26.1266 89.6132 26.2912 89.5179C26.4559 89.4182 26.6357 89.3684 26.8307 89.3684C27.0301 89.3684 27.2099 89.4182 27.3702 89.5179C27.5349 89.6132 27.6649 89.7411 27.7602 89.9014C27.8556 90.0617 27.9032 90.2416 27.9032 90.4409C27.9032 90.6402 27.8556 90.8201 27.7602 90.9804C27.6649 91.1407 27.5349 91.2707 27.3702 91.3704C27.2099 91.4657 27.0301 91.5134 26.8307 91.5134ZM41.864 97.2724C41.5217 97.1381 41.175 96.9821 40.824 96.8044C40.4774 96.6224 40.1285 96.4209 39.7775 96.1999C38.8849 96.8196 37.8752 97.1294 36.7485 97.1294C35.9902 97.1294 35.2839 96.9886 34.6295 96.7069C33.9752 96.4252 33.401 96.0331 32.907 95.5304C32.4174 95.0234 32.036 94.4341 31.763 93.7624C31.49 93.0907 31.3535 92.3649 31.3535 91.5849C31.3535 90.8092 31.4922 90.0834 31.7695 89.4074C32.0469 88.7314 32.4325 88.1399 32.9265 87.6329C33.4205 87.1216 33.9947 86.7229 34.649 86.4369C35.3034 86.1466 36.0075 86.0014 36.7615 86.0014C37.5112 86.0014 38.2132 86.1444 38.8675 86.4304C39.5219 86.7164 40.096 87.1151 40.59 87.6264C41.084 88.1334 41.4697 88.7249 41.747 89.4009C42.0287 90.0726 42.1695 90.7962 42.1695 91.5719C42.1695 92.2219 42.059 92.8459 41.838 93.4439C41.6214 94.0376 41.3115 94.5662 40.9085 95.0299C41.2032 95.1816 41.4935 95.3181 41.7795 95.4394C42.0655 95.5607 42.345 95.6647 42.618 95.7514L41.864 97.2724ZM36.742 95.4914C37.0324 95.4914 37.3097 95.4546 37.574 95.3809C37.8384 95.3029 38.081 95.1924 38.302 95.0494C37.9987 94.8024 37.7062 94.5424 37.4245 94.2694C37.1472 93.9964 36.8894 93.7147 36.651 93.4244L37.3855 92.5274C37.9792 93.1471 38.6335 93.6974 39.3485 94.1784C39.6649 93.8404 39.9075 93.4461 40.0765 92.9954C40.2455 92.5447 40.33 92.0702 40.33 91.5719C40.33 91.0042 40.2412 90.4821 40.0635 90.0054C39.8859 89.5287 39.6367 89.1149 39.316 88.7639C38.9954 88.4086 38.6162 88.1334 38.1785 87.9384C37.7452 87.7391 37.2729 87.6394 36.7615 87.6394C36.2459 87.6394 35.7692 87.7391 35.3315 87.9384C34.8982 88.1334 34.5212 88.4086 34.2005 88.7639C33.8799 89.1149 33.6285 89.5309 33.4465 90.0119C33.2689 90.4929 33.18 91.0172 33.18 91.5849C33.18 92.1526 33.2667 92.6747 33.44 93.1514C33.6177 93.6281 33.8669 94.0419 34.1875 94.3929C34.5082 94.7396 34.8852 95.0104 35.3185 95.2054C35.7519 95.3961 36.2264 95.4914 36.742 95.4914ZM47.5675 97.1294C46.4235 97.1294 45.6023 96.8954 45.104 96.4274C44.6056 95.9551 44.3565 95.1772 44.3565 94.0939V90.2654H45.975V93.7299C45.975 94.4796 46.0941 95.0126 46.3325 95.3289C46.5751 95.6452 46.9868 95.8034 47.5675 95.8034C48.1481 95.8034 48.5576 95.6452 48.796 95.3289C49.0386 95.0126 49.16 94.4796 49.16 93.7299V90.2654H50.7785V94.0939C50.7785 95.1772 50.5293 95.9551 50.031 96.4274C49.5326 96.8954 48.7115 97.1294 47.5675 97.1294ZM53.1323 96.9214V90.2654H54.7508V96.9214H53.1323ZM53.9448 88.9004C53.7671 88.9004 53.6024 88.8571 53.4508 88.7704C53.3034 88.6794 53.1843 88.5602 53.0933 88.4129C53.0066 88.2612 52.9633 88.0944 52.9633 87.9124C52.9633 87.7347 53.0066 87.5722 53.0933 87.4249C53.1843 87.2776 53.3034 87.1606 53.4508 87.0739C53.6024 86.9829 53.7671 86.9374 53.9448 86.9374C54.1268 86.9374 54.2893 86.9829 54.4323 87.0739C54.5796 87.1606 54.6966 87.2776 54.7833 87.4249C54.8743 87.5722 54.9198 87.7347 54.9198 87.9124C54.9198 88.0944 54.8743 88.2612 54.7833 88.4129C54.6966 88.5602 54.5796 88.6794 54.4323 88.7704C54.2893 88.8571 54.1268 88.9004 53.9448 88.9004ZM60.4368 97.1294C59.7261 97.1294 59.0891 96.9756 58.5258 96.6679C57.9668 96.3602 57.5226 95.9399 57.1933 95.4069C56.8683 94.8739 56.7058 94.2737 56.7058 93.6064C56.7058 93.1124 56.7989 92.6509 56.9853 92.2219C57.1716 91.7929 57.4294 91.4159 57.7588 91.0909C58.0881 90.7659 58.4716 90.5124 58.9093 90.3304C59.3469 90.1484 59.8193 90.0574 60.3263 90.0574C61.0196 90.0574 61.6263 90.2004 62.1463 90.4864C62.6706 90.7724 63.0779 91.1711 63.3683 91.6824C63.6629 92.1937 63.8103 92.7896 63.8103 93.4699C63.8103 93.5262 63.8081 93.5739 63.8038 93.6129C63.7994 93.6476 63.7908 93.7082 63.7778 93.7949H58.3568C58.3568 94.1979 58.4478 94.5532 58.6298 94.8609C58.8118 95.1642 59.0653 95.4026 59.3903 95.5759C59.7196 95.7449 60.0966 95.8294 60.5213 95.8294C60.9243 95.8294 61.2818 95.7492 61.5938 95.5889C61.9101 95.4242 62.1961 95.1751 62.4518 94.8414L63.6283 95.4459C63.3119 95.9746 62.8721 96.3884 62.3088 96.6874C61.7498 96.9821 61.1258 97.1294 60.4368 97.1294ZM58.4283 92.7809H62.2048C62.1484 92.4776 62.0336 92.2154 61.8603 91.9944C61.6869 91.7734 61.4681 91.6022 61.2038 91.4809C60.9394 91.3552 60.6448 91.2924 60.3198 91.2924C59.9774 91.2924 59.6719 91.3531 59.4033 91.4744C59.1346 91.5957 58.9158 91.7669 58.7468 91.9879C58.5778 92.2089 58.4716 92.4732 58.4283 92.7809ZM60.0923 89.4854L59.3773 88.9199L60.9698 86.1899L62.1008 87.0284L60.0923 89.4854ZM65.7706 96.9214V90.2654H67.3891V91.0649C67.6188 90.7702 67.9243 90.5297 68.3056 90.3434C68.6913 90.1527 69.1311 90.0574 69.6251 90.0574C70.1364 90.0574 70.5828 90.1679 70.9641 90.3889C71.3498 90.6056 71.6488 90.9132 71.8611 91.3119C72.0734 91.7106 72.1796 92.1829 72.1796 92.7289V96.9214H70.5611V93.0669C70.5611 92.5122 70.4224 92.0854 70.1451 91.7864C69.8721 91.4831 69.4929 91.3314 69.0076 91.3314C68.6739 91.3314 68.3858 91.4007 68.1431 91.5394C67.9004 91.6737 67.7141 91.8557 67.5841 92.0854C67.4541 92.3107 67.3891 92.5621 67.3891 92.8394V96.9214H65.7706ZM81.1809 97.1294C80.4702 97.1294 79.8332 96.9756 79.2699 96.6679C78.7109 96.3602 78.2667 95.9399 77.9374 95.4069C77.6124 94.8739 77.4499 94.2737 77.4499 93.6064C77.4499 93.1124 77.5431 92.6509 77.7294 92.2219C77.9157 91.7929 78.1736 91.4159 78.5029 91.0909C78.8322 90.7659 79.2157 90.5124 79.6534 90.3304C80.0911 90.1484 80.5634 90.0574 81.0704 90.0574C81.7637 90.0574 82.3704 90.2004 82.8904 90.4864C83.4147 90.7724 83.8221 91.1711 84.1124 91.6824C84.4071 92.1937 84.5544 92.7896 84.5544 93.4699C84.5544 93.5262 84.5522 93.5739 84.5479 93.6129C84.5436 93.6476 84.5349 93.7082 84.5219 93.7949H79.1009C79.1009 94.1979 79.1919 94.5532 79.3739 94.8609C79.5559 95.1642 79.8094 95.4026 80.1344 95.5759C80.4637 95.7449 80.8407 95.8294 81.2654 95.8294C81.6684 95.8294 82.0259 95.7492 82.3379 95.5889C82.6542 95.4242 82.9402 95.1751 83.1959 94.8414L84.3724 95.4459C84.0561 95.9746 83.6162 96.3884 83.0529 96.6874C82.4939 96.9821 81.8699 97.1294 81.1809 97.1294ZM79.1724 92.7809H82.9489C82.8926 92.4776 82.7777 92.2154 82.6044 91.9944C82.4311 91.7734 82.2122 91.6022 81.9479 91.4809C81.6836 91.3552 81.3889 91.2924 81.0639 91.2924C80.7216 91.2924 80.4161 91.3531 80.1474 91.4744C79.8787 91.5957 79.6599 91.7669 79.4909 91.9879C79.3219 92.2089 79.2157 92.4732 79.1724 92.7809ZM88.297 97.1294C87.738 97.1294 87.2396 97.0254 86.802 96.8174C86.3686 96.6051 86.0155 96.3017 85.7425 95.9074L86.4575 94.8544C86.7131 95.1924 86.997 95.4546 87.309 95.6409C87.6253 95.8272 87.9525 95.9204 88.2905 95.9204C88.4985 95.9204 88.6826 95.8836 88.843 95.8099C89.0033 95.7319 89.1311 95.6214 89.2265 95.4784C89.3218 95.3311 89.3695 95.1577 89.3695 94.9584C89.3695 94.7504 89.3153 94.5879 89.207 94.4709C89.0986 94.3539 88.9361 94.2477 88.7195 94.1524C88.5028 94.0571 88.2298 93.9444 87.9005 93.8144C87.6231 93.6974 87.3588 93.5674 87.1075 93.4244C86.8561 93.2814 86.6481 93.1016 86.4835 92.8849C86.3231 92.6639 86.243 92.3844 86.243 92.0464C86.243 91.6607 86.3491 91.3184 86.5615 91.0194C86.7781 90.7204 87.0728 90.4864 87.4455 90.3174C87.8225 90.1484 88.2515 90.0639 88.7325 90.0639C89.0791 90.0639 89.428 90.1267 89.779 90.2524C90.13 90.3737 90.481 90.5514 90.832 90.7854L90.247 91.8059C89.74 91.3856 89.2395 91.1754 88.7455 91.1754C88.4551 91.1754 88.2211 91.2447 88.0435 91.3834C87.8701 91.5221 87.7835 91.6997 87.7835 91.9164C87.7835 92.0941 87.8593 92.2457 88.011 92.3714C88.1626 92.4971 88.3511 92.6076 88.5765 92.7029C88.8018 92.7982 89.0271 92.8892 89.2525 92.9759C89.6078 93.1059 89.9198 93.2446 90.1885 93.3919C90.4571 93.5392 90.6673 93.7299 90.819 93.9639C90.9706 94.1979 91.0465 94.5099 91.0465 94.8999C91.0465 95.3679 90.9338 95.7687 90.7085 96.1024C90.4875 96.4361 90.1711 96.6917 89.7595 96.8694C89.3478 97.0427 88.8603 97.1294 88.297 97.1294ZM96.2661 96.9214V86.1964H99.0546C100.09 86.1964 100.898 86.4261 101.479 86.8854C102.064 87.3404 102.357 88.0121 102.357 88.9004C102.357 90.0357 101.876 90.8287 100.914 91.2794C101.685 91.3964 102.276 91.6867 102.688 92.1504C103.1 92.6097 103.306 93.2142 103.306 93.9639C103.306 94.5792 103.167 95.1079 102.89 95.5499C102.612 95.9919 102.216 96.3321 101.7 96.5704C101.189 96.8044 100.58 96.9214 99.8736 96.9214H96.2661ZM97.9691 90.7139H98.6776C99.3362 90.7139 99.8411 90.5752 100.192 90.2979C100.543 90.0206 100.719 89.6241 100.719 89.1084C100.719 88.5884 100.545 88.1941 100.199 87.9254C99.8519 87.6567 99.3449 87.5224 98.6776 87.5224H97.9691V90.7139ZM97.9691 95.5824H99.3211C100.045 95.5824 100.593 95.4394 100.966 95.1534C101.343 94.8674 101.531 94.4536 101.531 93.9119C101.531 93.3616 101.338 92.9369 100.953 92.6379C100.571 92.3389 100.027 92.1894 99.3211 92.1894H97.9691V95.5824ZM105.018 96.9214V90.2654H106.637V96.9214H105.018ZM105.831 88.9004C105.653 88.9004 105.488 88.8571 105.337 88.7704C105.189 88.6794 105.07 88.5602 104.979 88.4129C104.892 88.2612 104.849 88.0944 104.849 87.9124C104.849 87.7347 104.892 87.5722 104.979 87.4249C105.07 87.2776 105.189 87.1606 105.337 87.0739C105.488 86.9829 105.653 86.9374 105.831 86.9374C106.013 86.9374 106.175 86.9829 106.318 87.0739C106.465 87.1606 106.582 87.2776 106.669 87.4249C106.76 87.5722 106.806 87.7347 106.806 87.9124C106.806 88.0944 106.76 88.2612 106.669 88.4129C106.582 88.5602 106.465 88.6794 106.318 88.7704C106.175 88.8571 106.013 88.9004 105.831 88.9004ZM112.42 97.1294C111.701 97.1294 111.051 96.9799 110.47 96.6809C109.894 96.3819 109.436 95.9659 109.098 95.4329C108.76 94.8999 108.591 94.2867 108.591 93.5934C108.591 92.8957 108.76 92.2826 109.098 91.7539C109.436 91.2209 109.894 90.8049 110.47 90.5059C111.046 90.2069 111.696 90.0574 112.42 90.0574C113.139 90.0574 113.787 90.2069 114.363 90.5059C114.944 90.8049 115.401 91.2209 115.735 91.7539C116.073 92.2826 116.242 92.8957 116.242 93.5934C116.242 94.2867 116.073 94.8999 115.735 95.4329C115.401 95.9659 114.944 96.3819 114.363 96.6809C113.787 96.9799 113.139 97.1294 112.42 97.1294ZM112.42 95.7384C112.827 95.7384 113.191 95.6474 113.512 95.4654C113.837 95.2791 114.093 95.0256 114.279 94.7049C114.465 94.3799 114.558 94.0094 114.558 93.5934C114.558 93.1731 114.465 92.8026 114.279 92.4819C114.093 92.1569 113.837 91.9034 113.512 91.7214C113.191 91.5394 112.827 91.4484 112.42 91.4484C112.017 91.4484 111.653 91.5394 111.328 91.7214C111.003 91.9034 110.747 92.1569 110.561 92.4819C110.375 92.8026 110.281 93.1731 110.281 93.5934C110.281 94.0094 110.375 94.3799 110.561 94.7049C110.747 95.0256 111.003 95.2791 111.328 95.4654C111.653 95.6474 112.017 95.7384 112.42 95.7384ZM120.763 97.1294C120.568 97.1294 120.388 97.0796 120.224 96.9799C120.063 96.8846 119.936 96.7567 119.84 96.5964C119.745 96.4317 119.697 96.2519 119.697 96.0569C119.697 95.8576 119.745 95.6777 119.84 95.5174C119.936 95.3527 120.063 95.2227 120.224 95.1274C120.388 95.0321 120.568 94.9844 120.763 94.9844C120.963 94.9844 121.142 95.0321 121.303 95.1274C121.467 95.2227 121.597 95.3527 121.693 95.5174C121.788 95.6777 121.836 95.8576 121.836 96.0569C121.836 96.2519 121.788 96.4317 121.693 96.5964C121.597 96.7567 121.467 96.8846 121.303 96.9799C121.142 97.0796 120.963 97.1294 120.763 97.1294ZM120.022 93.8079V90.9674C120.113 90.9847 120.217 91.0021 120.334 91.0194C120.451 91.0324 120.575 91.0389 120.705 91.0389C121.134 91.0389 121.506 90.9696 121.823 90.8309C122.139 90.6879 122.384 90.4799 122.557 90.2069C122.735 89.9339 122.824 89.6046 122.824 89.2189C122.824 88.8506 122.744 88.5342 122.583 88.2699C122.423 88.0056 122.195 87.8019 121.901 87.6589C121.606 87.5159 121.259 87.4444 120.861 87.4444C120.297 87.4444 119.838 87.5961 119.483 87.8994C119.127 88.1984 118.922 88.6166 118.865 89.1539L117.513 88.8874C117.587 88.2807 117.78 87.7629 118.092 87.3339C118.408 86.9006 118.807 86.5712 119.288 86.3459C119.773 86.1162 120.304 86.0014 120.88 86.0014C121.556 86.0014 122.154 86.1466 122.674 86.4369C123.199 86.7272 123.608 87.1172 123.903 87.6069C124.202 88.0922 124.351 88.6317 124.351 89.2254C124.351 89.7671 124.228 90.2676 123.981 90.7269C123.734 91.1819 123.396 91.5567 122.967 91.8514C122.542 92.1461 122.061 92.3259 121.524 92.3909V93.8079H120.022Z" fill="white"/>
<path d="M27.8757 112.285C27.1937 112.285 26.5576 112.166 25.9672 111.927C25.3806 111.685 24.8654 111.352 24.4217 110.926C23.9817 110.497 23.6389 109.997 23.3932 109.425C23.1476 108.853 23.0247 108.237 23.0247 107.577C23.0247 106.917 23.1476 106.301 23.3932 105.729C23.6426 105.157 23.9872 104.658 24.4272 104.233C24.8672 103.804 25.3806 103.47 25.9672 103.232C26.5539 102.99 27.1882 102.869 27.8702 102.869C28.4349 102.869 28.9666 102.951 29.4652 103.116C29.9676 103.278 30.4057 103.5 30.7797 103.782L30.2737 104.722C29.9731 104.48 29.6211 104.295 29.2177 104.167C28.8144 104.035 28.3891 103.969 27.9417 103.969C27.4027 103.969 26.9077 104.061 26.4567 104.244C26.0057 104.427 25.6134 104.684 25.2797 105.014C24.9497 105.34 24.6931 105.723 24.5097 106.163C24.3301 106.6 24.2402 107.071 24.2402 107.577C24.2402 108.083 24.3301 108.556 24.5097 108.996C24.6931 109.432 24.9497 109.815 25.2797 110.145C25.6134 110.472 26.0057 110.727 26.4567 110.91C26.9077 111.093 27.4027 111.185 27.9417 111.185C28.3891 111.185 28.8144 111.121 29.2177 110.992C29.6211 110.86 29.9731 110.673 30.2737 110.431L30.7797 111.372C30.4131 111.647 29.9804 111.869 29.4817 112.037C28.9831 112.202 28.4477 112.285 27.8757 112.285ZM35.0419 112.285C34.4442 112.285 33.9052 112.158 33.4249 111.905C32.9482 111.652 32.5687 111.3 32.2864 110.849C32.0077 110.398 31.8684 109.88 31.8684 109.293C31.8684 108.703 32.0077 108.184 32.2864 107.736C32.5687 107.285 32.9482 106.933 33.4249 106.68C33.9052 106.427 34.4442 106.301 35.0419 106.301C35.6396 106.301 36.1767 106.427 36.6534 106.68C37.1337 106.933 37.5132 107.285 37.7919 107.736C38.0742 108.184 38.2154 108.703 38.2154 109.293C38.2154 109.88 38.0742 110.398 37.7919 110.849C37.5132 111.3 37.1337 111.652 36.6534 111.905C36.1767 112.158 35.6396 112.285 35.0419 112.285ZM35.0474 111.355C35.4397 111.355 35.7917 111.267 36.1034 111.091C36.4151 110.915 36.6607 110.672 36.8404 110.36C37.0201 110.048 37.1099 109.693 37.1099 109.293C37.1099 108.89 37.0201 108.534 36.8404 108.226C36.6607 107.914 36.4151 107.67 36.1034 107.494C35.7917 107.318 35.4397 107.23 35.0474 107.23C34.6514 107.23 34.2976 107.318 33.9859 107.494C33.6742 107.67 33.4286 107.914 33.2489 108.226C33.0692 108.534 32.9794 108.89 32.9794 109.293C32.9794 109.693 33.0692 110.048 33.2489 110.36C33.4286 110.672 33.6742 110.915 33.9859 111.091C34.2976 111.267 34.6514 111.355 35.0474 111.355ZM40.0001 112.109V106.477H41.0671V107.203C41.2394 106.946 41.4869 106.732 41.8096 106.559C42.1322 106.387 42.5154 106.301 42.9591 106.301C43.3954 106.301 43.7731 106.393 44.0921 106.576C44.4111 106.756 44.6567 107.016 44.8291 107.357C45.0051 107.698 45.0931 108.105 45.0931 108.578V112.109H44.0261V108.792C44.0261 108.264 43.8996 107.859 43.6466 107.577C43.3936 107.295 43.0379 107.153 42.5796 107.153C42.2642 107.153 41.9929 107.218 41.7656 107.346C41.5419 107.471 41.3696 107.639 41.2486 107.852C41.1276 108.061 41.0671 108.29 41.0671 108.539V112.109H40.0001ZM49.9628 112.285C49.3651 112.285 48.8261 112.158 48.3458 111.905C47.8691 111.652 47.4896 111.3 47.2073 110.849C46.9286 110.398 46.7893 109.88 46.7893 109.293C46.7893 108.703 46.9286 108.184 47.2073 107.736C47.4896 107.285 47.8691 106.933 48.3458 106.68C48.8261 106.427 49.3651 106.301 49.9628 106.301C50.5605 106.301 51.0976 106.427 51.5743 106.68C52.0546 106.933 52.4341 107.285 52.7128 107.736C52.9951 108.184 53.1363 108.703 53.1363 109.293C53.1363 109.88 52.9951 110.398 52.7128 110.849C52.4341 111.3 52.0546 111.652 51.5743 111.905C51.0976 112.158 50.5605 112.285 49.9628 112.285ZM49.9683 111.355C50.3606 111.355 50.7126 111.267 51.0243 111.091C51.336 110.915 51.5816 110.672 51.7613 110.36C51.941 110.048 52.0308 109.693 52.0308 109.293C52.0308 108.89 51.941 108.534 51.7613 108.226C51.5816 107.914 51.336 107.67 51.0243 107.494C50.7126 107.318 50.3606 107.23 49.9683 107.23C49.5723 107.23 49.2185 107.318 48.9068 107.494C48.5951 107.67 48.3495 107.914 48.1698 108.226C47.9901 108.534 47.9003 108.89 47.9003 109.293C47.9003 109.693 47.9901 110.048 48.1698 110.36C48.3495 110.672 48.5951 110.915 48.9068 111.091C49.2185 111.267 49.5723 111.355 49.9683 111.355ZM57.5659 112.285C57.1406 112.285 56.7409 112.21 56.3669 112.059C55.9966 111.909 55.6703 111.698 55.3879 111.427C55.1056 111.156 54.8838 110.838 54.7224 110.475C54.5648 110.112 54.4859 109.718 54.4859 109.293C54.4859 108.875 54.5629 108.486 54.7169 108.127C54.8709 107.764 55.0873 107.447 55.3659 107.175C55.6446 106.9 55.9709 106.686 56.3449 106.532C56.7189 106.378 57.1241 106.301 57.5604 106.301C57.9308 106.301 58.2828 106.356 58.6164 106.466C58.9501 106.572 59.2324 106.717 59.4634 106.9L59.0619 107.621C58.6916 107.335 58.2388 107.192 57.7034 107.192C57.2781 107.192 56.9059 107.287 56.5869 107.478C56.2679 107.665 56.0204 107.918 55.8444 108.237C55.6721 108.556 55.5859 108.908 55.5859 109.293C55.5859 109.689 55.6758 110.046 55.8554 110.365C56.0351 110.681 56.2844 110.932 56.6034 111.119C56.9261 111.302 57.2964 111.394 57.7144 111.394C57.9748 111.394 58.2204 111.357 58.4514 111.284C58.6824 111.207 58.8841 111.101 59.0564 110.965L59.4634 111.685C59.2288 111.865 58.9464 112.01 58.6164 112.12C58.2864 112.23 57.9363 112.285 57.5659 112.285ZM63.7542 112.285C63.1639 112.285 62.634 112.155 62.1647 111.894C61.6954 111.634 61.325 111.28 61.0537 110.833C60.7824 110.382 60.6467 109.874 60.6467 109.309C60.6467 108.891 60.7237 108.501 60.8777 108.138C61.0317 107.775 61.2462 107.456 61.5212 107.181C61.7962 106.902 62.1152 106.686 62.4782 106.532C62.8412 106.378 63.2299 106.301 63.6442 106.301C64.2309 106.301 64.7442 106.422 65.1842 106.664C65.6279 106.906 65.9725 107.243 66.2182 107.676C66.4675 108.109 66.5922 108.611 66.5922 109.183C66.5922 109.231 66.5904 109.269 66.5867 109.298C66.583 109.328 66.5757 109.366 66.5647 109.414H61.7247C61.7247 109.806 61.8127 110.153 61.9887 110.453C62.1684 110.754 62.414 110.991 62.7257 111.163C63.041 111.332 63.4022 111.416 63.8092 111.416C64.1942 111.416 64.5389 111.337 64.8432 111.179C65.1475 111.022 65.4115 110.787 65.6352 110.475L66.4162 110.882C66.1485 111.326 65.78 111.671 65.3107 111.916C64.845 112.162 64.3262 112.285 63.7542 112.285ZM61.7797 108.627H65.5197C65.4684 108.338 65.3547 108.085 65.1787 107.868C65.0064 107.648 64.7882 107.478 64.5242 107.357C64.2639 107.232 63.976 107.17 63.6607 107.17C63.3307 107.17 63.0319 107.23 62.7642 107.351C62.5002 107.469 62.282 107.637 62.1097 107.857C61.941 108.074 61.831 108.33 61.7797 108.627ZM73.6253 112.285C73.101 112.285 72.6262 112.157 72.2008 111.9C71.7792 111.64 71.4437 111.284 71.1943 110.833C70.9487 110.382 70.8258 109.867 70.8258 109.287C70.8258 108.715 70.9468 108.206 71.1888 107.758C71.4308 107.307 71.7627 106.952 72.1843 106.691C72.606 106.431 73.0863 106.301 73.6253 106.301C74.102 106.301 74.5365 106.407 74.9288 106.62C75.3248 106.833 75.631 107.128 75.8473 107.505V106.477H76.9143V112.109H75.8473V111.053C75.6017 111.442 75.2863 111.744 74.9013 111.96C74.5163 112.177 74.091 112.285 73.6253 112.285ZM73.9113 111.366C74.2963 111.366 74.6355 111.278 74.9288 111.102C75.2258 110.923 75.4587 110.677 75.6273 110.365C75.796 110.054 75.8803 109.696 75.8803 109.293C75.8803 108.89 75.796 108.532 75.6273 108.22C75.4587 107.909 75.2258 107.665 74.9288 107.489C74.6355 107.309 74.2963 107.219 73.9113 107.219C73.53 107.219 73.1908 107.309 72.8938 107.489C72.5968 107.665 72.3622 107.909 72.1898 108.22C72.0212 108.532 71.9368 108.89 71.9368 109.293C71.9368 109.693 72.0212 110.05 72.1898 110.365C72.3622 110.677 72.5968 110.923 72.8938 111.102C73.1908 111.278 73.53 111.366 73.9113 111.366ZM81.9022 112.109V103.034H84.0252C84.9052 103.034 85.5909 103.23 86.0822 103.622C86.5736 104.011 86.8192 104.578 86.8192 105.322C86.8192 106.305 86.3976 106.983 85.5542 107.357C86.2179 107.452 86.7276 107.698 87.0832 108.094C87.4426 108.486 87.6222 109.003 87.6222 109.645C87.6222 110.158 87.5067 110.6 87.2757 110.97C87.0447 111.337 86.7147 111.619 86.2857 111.817C85.8567 112.012 85.3452 112.109 84.7512 112.109H81.9022ZM83.0187 106.994H83.7997C84.4267 106.994 84.9071 106.862 85.2407 106.598C85.5781 106.33 85.7467 105.947 85.7467 105.448C85.7467 104.95 85.5799 104.57 85.2462 104.31C84.9126 104.046 84.4304 103.914 83.7997 103.914H83.0187V106.994ZM83.0187 111.218H84.4157C85.0794 111.218 85.5872 111.08 85.9392 110.805C86.2912 110.527 86.4672 110.129 86.4672 109.612C86.4672 109.091 86.2876 108.688 85.9282 108.402C85.5726 108.112 85.0684 107.967 84.4157 107.967H83.0187V111.218ZM89.2045 112.109V106.477H90.2715V112.109H89.2045ZM89.738 105.338C89.617 105.338 89.5052 105.309 89.4025 105.25C89.3035 105.188 89.2229 105.106 89.1605 105.003C89.1019 104.9 89.0725 104.788 89.0725 104.667C89.0725 104.543 89.1019 104.431 89.1605 104.332C89.2229 104.233 89.3035 104.154 89.4025 104.095C89.5052 104.033 89.617 104.002 89.738 104.002C89.8627 104.002 89.9745 104.033 90.0735 104.095C90.1725 104.154 90.2514 104.233 90.31 104.332C90.3724 104.431 90.4035 104.543 90.4035 104.667C90.4035 104.788 90.3724 104.9 90.31 105.003C90.2514 105.106 90.1725 105.188 90.0735 105.25C89.9745 105.309 89.8627 105.338 89.738 105.338ZM95.2519 112.285C94.6542 112.285 94.1152 112.158 93.6349 111.905C93.1582 111.652 92.7787 111.3 92.4964 110.849C92.2177 110.398 92.0784 109.88 92.0784 109.293C92.0784 108.703 92.2177 108.184 92.4964 107.736C92.7787 107.285 93.1582 106.933 93.6349 106.68C94.1152 106.427 94.6542 106.301 95.2519 106.301C95.8495 106.301 96.3867 106.427 96.8634 106.68C97.3437 106.933 97.7232 107.285 98.0019 107.736C98.2842 108.184 98.4254 108.703 98.4254 109.293C98.4254 109.88 98.2842 110.398 98.0019 110.849C97.7232 111.3 97.3437 111.652 96.8634 111.905C96.3867 112.158 95.8495 112.285 95.2519 112.285ZM95.2574 111.355C95.6497 111.355 96.0017 111.267 96.3134 111.091C96.625 110.915 96.8707 110.672 97.0504 110.36C97.23 110.048 97.3199 109.693 97.3199 109.293C97.3199 108.89 97.23 108.534 97.0504 108.226C96.8707 107.914 96.625 107.67 96.3134 107.494C96.0017 107.318 95.6497 107.23 95.2574 107.23C94.8614 107.23 94.5075 107.318 94.1959 107.494C93.8842 107.67 93.6385 107.914 93.4589 108.226C93.2792 108.534 93.1894 108.89 93.1894 109.293C93.1894 109.693 93.2792 110.048 93.4589 110.36C93.6385 110.672 93.8842 110.915 94.1959 111.091C94.5075 111.267 94.8614 111.355 95.2574 111.355Z" fill="white"/>
</g>
<defs>
<filter id="filter0_d_253_110" x="0" y="0.921387" width="374.92" height="143" filterUnits="userSpaceOnUse" color-interpolation-filters="sRGB">
<feFlood flood-opacity="0" result="BackgroundImageFix"/>
<feColorMatrix in="SourceAlpha" type="matrix" values="0 0 0 0 0 0 0 0 0 0 0 0 0 0 0 0 0 0 127 0" result="hardAlpha"/>
<feOffset dx="8" dy="8"/>
<feGaussianBlur stdDeviation="6"/>
<feComposite in2="hardAlpha" operator="out"/>
<feColorMatrix type="matrix" values="0 0 0 0 0.486275 0 0 0 0 0.419608 0 0 0 0 0.686275 0 0 0 0.22 0"/>
<feBlend mode="normal" in2="BackgroundImageFix" result="effect1_dropShadow_253_110"/>
<feBlend mode="normal" in="SourceGraphic" in2="effect1_dropShadow_253_110" result="shape"/>
</filter>
</defs>
</svg>
