<svg width="176" height="152" viewBox="0 0 176 152" fill="none" xmlns="http://www.w3.org/2000/svg">
<g filter="url(#filter0_d_240_58)">
<path d="M4 29C4 12.9837 16.9837 0 33 0H143C159.016 0 172 12.9837 172 29V115C172 131.016 159.016 144 143 144H33C16.9837 144 4 131.016 4 115V29Z" fill="#AB9ED3"/>
<path d="M90.1961 85.6975C111.499 85.6975 128.768 68.3553 128.768 46.9625C128.768 25.5698 111.499 8.22754 90.1961 8.22754C68.8936 8.22754 51.6246 25.5698 51.6246 46.9625C51.6246 68.3553 68.8936 85.6975 90.1961 85.6975Z" fill="#635A8C"/>
<path d="M84.826 67.1013C83.6364 68.7431 81.8481 69.8455 79.8518 70.1675L79.8006 70.1761C75.8342 70.8068 72.6102 68.9215 71.6937 68.3396L52.3627 55.2211C47.3527 51.819 45.8832 45.2109 49.0816 40.4598C52.2791 35.7097 58.9336 34.6162 63.9444 38.0183C64.0144 38.0963 68.3537 42.0127 83.2908 55.4534C86.729 58.5445 87.3877 63.5594 84.826 67.1013Z" fill="#459696"/>
<path d="M103.881 37.6712C105.615 36.6267 107.69 36.3128 109.653 36.798L109.704 36.8109C113.601 37.7844 115.836 40.7846 116.457 41.681L129.15 61.339C132.44 66.4345 131.224 73.0949 126.433 76.2143C121.642 79.3345 115.091 77.732 111.8 72.6364C111.766 72.5379 109.294 67.2307 100.767 49.0012C98.8056 44.8072 100.146 39.9302 103.881 37.6712Z" fill="#459696"/>
<path d="M87.5123 85.6041H79.1998C76.7831 85.6041 74.7624 84.299 74.5175 82.5842L73.5609 75.8021C73.2588 73.664 75.8137 71.8772 78.8064 72.1343L88.0747 72.9287C90.4393 73.1318 92.2186 74.563 92.2186 76.2606V82.2465C92.2186 84.1019 90.1108 85.6041 87.5123 85.6041Z" fill="#459696"/>
<path d="M96.6688 86H104.154C106.33 86 108.152 84.6949 108.37 82.9801L109.232 76.198C109.503 74.0599 107.203 72.2731 104.509 72.5302L96.1619 73.3263C94.0285 73.5294 92.4302 74.9606 92.4302 76.6582V82.6441C92.4302 84.4978 94.328 86 96.6688 86Z" fill="#459696"/>
<path d="M120.287 55.611C120.221 55.222 120.058 54.2553 119.504 54.1242C119.468 54.1158 119.431 54.1112 119.394 54.1105C119.363 54.1087 119.333 54.0947 119.312 54.0713C119.29 54.048 119.279 54.0172 119.279 53.9854C119.278 51.9148 119.082 49.8489 118.695 47.8152C118.69 47.792 118.693 47.7679 118.701 47.7459C118.71 47.724 118.725 47.7049 118.744 47.6911C118.763 47.6772 118.785 47.6691 118.809 47.6677C118.832 47.6663 118.856 47.6717 118.876 47.6832C119.274 47.9017 119.617 47.9857 119.678 47.9146C119.824 47.7432 118.543 46.42 118.312 46.0147C118.307 46.0044 118.302 45.9935 118.3 45.9821L118.282 45.9067C118.367 45.821 119.068 46.5983 119.327 46.4312C119.534 46.2975 119.394 45.6034 119.066 45.1192C119.033 45.0712 118.493 44.2905 118.021 44.4199C118.004 44.4249 117.988 44.4266 117.971 44.425C117.954 44.4234 117.938 44.4185 117.923 44.4105C117.908 44.4025 117.895 44.3917 117.884 44.3786C117.874 44.3655 117.866 44.3504 117.861 44.3342C117.42 42.8015 116.874 41.3014 116.227 39.8445C112.786 32.1789 104.28 21.4763 92.0445 20.8344C92.0234 20.8334 92.0029 20.827 91.9849 20.8158C91.967 20.8046 91.9521 20.7891 91.9418 20.7706C91.9315 20.7521 91.926 20.7312 91.9259 20.71C91.9258 20.6888 91.9311 20.6679 91.9412 20.6493C92.4029 19.8189 92.763 18.9696 92.4729 18.7211C92.1546 18.4486 91.1178 18.9482 90.6715 19.6012C90.5829 19.7323 90.5096 19.8732 90.453 20.0211C90.3793 20.234 90.3483 20.4594 90.3617 20.6844C90.3623 20.7011 90.3595 20.7177 90.3536 20.7332C90.3477 20.7488 90.3388 20.763 90.3273 20.7751C90.3159 20.7871 90.3022 20.7967 90.287 20.8034C90.2718 20.8101 90.2554 20.8136 90.2388 20.8138L90.0221 20.8198C90.0031 20.8207 89.9842 20.8171 89.9669 20.8094C89.9496 20.8016 89.9343 20.79 89.9222 20.7753C89.6321 20.4213 89.2745 19.9406 89.0313 20.0143C88.8606 20.0657 88.7642 20.3793 88.7565 20.795C88.7561 20.8253 88.7445 20.8543 88.724 20.8766C88.7036 20.8989 88.6756 20.9129 88.6456 20.9158C73.2597 22.4643 66.2349 39.5257 65.4942 41.4059C65.3781 41.7024 65.1972 42.1609 64.9821 42.7599C64.5018 44.1404 64.1093 45.5501 63.8071 46.9805C63.803 46.9983 63.795 47.0151 63.7837 47.0294C63.7724 47.0438 63.7581 47.0555 63.7418 47.0637C63.7255 47.0719 63.7076 47.0764 63.6894 47.0768C63.6712 47.0772 63.6531 47.0736 63.6364 47.0662C63.4815 47.0014 63.3173 46.9617 63.15 46.9488C62.1516 46.8751 61.2948 47.7938 61.4074 48.086C61.4808 48.2737 61.934 48.1537 62.4212 48.1383C62.4497 48.1373 62.4776 48.1463 62.5004 48.1635C62.5231 48.1808 62.5392 48.2053 62.5461 48.2331C62.553 48.2608 62.5502 48.2901 62.5382 48.3161C62.5262 48.342 62.5057 48.363 62.4801 48.3756C62.062 48.5822 61.7403 48.8795 61.7531 49.1109C61.7735 49.5 62.7481 49.7245 63.2097 49.9816C63.2317 49.9936 63.2494 50.0119 63.2607 50.0343C63.272 50.0566 63.2762 50.0819 63.2729 50.1067C63.2626 50.1873 63.2532 50.2678 63.243 50.3492C63.2403 50.373 63.2308 50.3954 63.2156 50.4138C63.2005 50.4322 63.1804 50.4458 63.1577 50.4529C62.9443 50.5266 62.6559 50.6166 62.4596 50.8814C62.0389 51.4522 62.271 52.5234 62.6414 52.6211C62.7148 52.6363 62.7913 52.6241 62.8564 52.5868C62.8758 52.5766 62.8975 52.5718 62.9193 52.5728C62.9411 52.5737 62.9622 52.5805 62.9806 52.5923C62.999 52.6042 63.0139 52.6207 63.0239 52.6402C63.0338 52.6597 63.0385 52.6814 63.0373 52.7033C62.8377 56.5229 63.2498 60.9731 65.1212 65.3299C65.1286 65.3467 65.1322 65.3648 65.1318 65.3831C65.1314 65.4014 65.1269 65.4194 65.1188 65.4358C65.1106 65.4522 65.099 65.4665 65.0846 65.4779C65.0703 65.4892 65.0537 65.4972 65.0359 65.5013C64.1774 65.665 63.4589 65.9075 63.4691 65.9958C63.4819 66.1029 64.5956 66.0549 65.402 66.1003C65.424 66.1017 65.4453 66.1089 65.4636 66.1212C65.4819 66.1336 65.4966 66.1506 65.5061 66.1706C65.563 66.2917 65.6216 66.4126 65.6819 66.5331C65.6961 66.5613 65.699 66.594 65.6899 66.6243C65.6809 66.6546 65.6606 66.6802 65.6332 66.6959C65.3405 66.8673 65.0129 67.1081 64.8439 67.516C64.7876 67.6489 64.6894 67.8837 64.7782 68.1065C64.971 68.5898 65.9558 68.8152 66.6504 68.5007C66.6779 68.4888 66.7086 68.4872 66.7371 68.4961C66.7656 68.5051 66.79 68.5241 66.8058 68.5495C66.8484 68.6207 66.8911 68.6909 66.9372 68.7612C66.9448 68.7741 66.9525 68.7861 66.9611 68.7981C66.974 68.8184 66.9808 68.8421 66.9808 68.8662C66.9808 68.8903 66.974 68.914 66.9611 68.9343C66.554 69.5745 66.4857 70.3766 66.6359 70.4769C66.7708 70.5626 67.0874 70.0835 67.5166 69.8299C67.5435 69.8138 67.5754 69.8084 67.606 69.8148C67.6366 69.8211 67.6638 69.8387 67.6821 69.8641C68.7471 71.3501 69.9815 72.7059 71.3601 73.9039C71.3762 73.9177 71.3885 73.9353 71.3958 73.9552C71.4031 73.9751 71.4053 73.9966 71.402 74.0175C71.3988 74.0385 71.3902 74.0583 71.3772 74.075C71.3642 74.0917 71.3471 74.1048 71.3277 74.113C71.0652 74.2186 70.8455 74.4096 70.7039 74.6555C70.5204 74.9837 70.4393 75.5056 70.6475 75.6512C70.9932 75.8938 71.8294 74.8911 72.1836 75.1165C72.5983 75.3796 71.8269 76.9821 72.0709 77.1081C72.257 77.2041 73.1538 76.4962 73.2716 75.6264C73.2742 75.6052 73.2822 75.5851 73.2949 75.568C73.3075 75.5508 73.3244 75.5373 73.3438 75.5286C73.3633 75.52 73.3846 75.5166 73.4057 75.5187C73.4269 75.5208 73.4471 75.5284 73.4645 75.5407C81.9596 81.4384 92.3696 80.8933 92.9602 80.8539C94.5704 80.7434 103.347 79.9969 110.493 73.7325C110.509 73.7184 110.527 73.7086 110.548 73.7039C110.568 73.6992 110.589 73.6998 110.61 73.7056C110.63 73.7115 110.648 73.7224 110.663 73.7372C110.677 73.7521 110.688 73.7706 110.694 73.7908C110.719 73.8852 110.752 73.9775 110.792 74.0667C110.845 74.1841 111.068 74.6812 111.389 74.6837C111.69 74.6837 112.006 74.2552 112.025 73.8893C112.031 73.7822 112.007 73.7711 111.927 73.19C111.884 72.8798 111.886 72.8472 111.908 72.8138C112.092 72.531 113.043 73.0341 113.203 72.7993C113.275 72.6938 113.137 72.5122 112.614 71.7915C112.597 71.7684 112.588 71.7402 112.59 71.7117C112.591 71.6831 112.602 71.6559 112.621 71.6346C113.507 70.6547 114.315 69.6075 115.04 68.5024L115.053 68.4818C115.118 68.996 115.207 69.3542 115.268 69.3542C115.367 69.3542 115.457 68.4176 115.587 67.648C115.59 67.6326 115.595 67.6178 115.603 67.6043C115.717 67.4175 115.826 67.2301 115.93 67.0421C115.941 67.0211 115.959 67.0038 115.98 66.9925C116.001 66.9811 116.025 66.9761 116.049 66.9781C116.072 66.9801 116.095 66.989 116.114 67.0037C116.133 67.0184 116.147 67.0383 116.155 67.061C116.28 67.4115 116.471 67.9043 116.948 68.1836C117.072 68.2565 117.289 68.385 117.524 68.325C118.059 68.1888 118.422 67.1158 118.106 66.3711C117.902 65.8921 117.461 65.6487 116.919 65.4079C116.904 65.4012 116.89 65.3916 116.879 65.3795C116.867 65.3674 116.858 65.3532 116.853 65.3376C116.847 65.322 116.844 65.3054 116.845 65.2888C116.845 65.2721 116.849 65.2558 116.857 65.2408C117.87 63.0511 118.571 60.7286 118.939 58.3422C118.941 58.3179 118.951 58.2949 118.966 58.276C118.981 58.2571 119.002 58.2432 119.025 58.236C119.048 58.2288 119.073 58.2286 119.097 58.2354C119.12 58.2423 119.141 58.2559 119.156 58.2745C119.359 58.4905 119.526 58.6096 119.592 58.5813C119.708 58.5324 119.506 58.02 119.456 56.4389C119.429 55.6068 119.476 55.5288 119.505 55.5245C119.644 55.5048 119.877 57.2873 120.114 57.2736C120.274 57.2633 120.424 56.42 120.287 55.611Z" fill="#4EADAF"/>
<path d="M69.0773 57.7106C73.7431 57.7106 77.5255 55.0675 77.5255 51.807C77.5255 48.5465 73.7431 45.9033 69.0773 45.9033C64.4115 45.9033 60.6292 48.5465 60.6292 51.807C60.6292 55.0675 64.4115 57.7106 69.0773 57.7106Z" fill="#E37A39"/>
<path d="M113.146 58.0602C117.812 58.0602 121.594 55.4171 121.594 52.1566C121.594 48.8961 117.812 46.2529 113.146 46.2529C108.48 46.2529 104.698 48.8961 104.698 52.1566C104.698 55.4171 108.48 58.0602 113.146 58.0602Z" fill="#E37A39"/>
<path d="M75.9323 48.0021C81.4564 48.0021 85.9345 43.7194 85.9345 38.4366C85.9345 33.1537 81.4564 28.8711 75.9323 28.8711C70.4083 28.8711 65.9302 33.1537 65.9302 38.4366C65.9302 43.7194 70.4083 48.0021 75.9323 48.0021Z" fill="#E2E2E2"/>
<path d="M78.722 46.2512C82.4933 46.2512 85.5505 43.3276 85.5505 39.7211C85.5505 36.1147 82.4933 33.191 78.722 33.191C74.9507 33.191 71.8934 36.1147 71.8934 39.7211C71.8934 43.3276 74.9507 46.2512 78.722 46.2512Z" fill="black"/>
<path d="M77.2982 35.6203C77.6111 34.7088 76.5507 33.515 74.9297 32.9539C73.3087 32.3927 71.7411 32.6767 71.4282 33.5882C71.1153 34.4996 72.1757 35.6934 73.7967 36.2546C75.4177 36.8157 76.9853 36.5317 77.2982 35.6203Z" fill="white"/>
<path d="M107.063 48.7887C112.587 48.7887 117.065 44.5894 117.065 39.4092C117.065 34.229 112.587 30.0297 107.063 30.0297C101.539 30.0297 97.0605 34.229 97.0605 39.4092C97.0605 44.5894 101.539 48.7887 107.063 48.7887Z" fill="#E2E2E2"/>
<path d="M103.888 46.2658C107.659 46.2658 110.717 43.3989 110.717 39.8625C110.717 36.3261 107.659 33.4592 103.888 33.4592C100.117 33.4592 97.0596 36.3261 97.0596 39.8625C97.0596 43.3989 100.117 46.2658 103.888 46.2658Z" fill="black"/>
<path d="M109.191 37.8537C110.787 37.226 111.802 36.0031 111.458 35.1222C111.114 34.2412 109.542 34.0359 107.947 34.6635C106.351 35.2911 105.336 36.5141 105.68 37.395C106.024 38.2759 107.596 38.4813 109.191 37.8537Z" fill="white"/>
<path d="M101.294 28.6234C99.5454 27.9186 97.9462 26.8862 96.5818 25.5812C95.8945 24.9274 95.2699 24.2101 94.7164 23.4388C94.1653 22.6637 93.6892 21.8376 93.2947 20.9715L93.1505 20.6536L93.0182 20.3228C92.9243 20.1034 92.8561 19.8755 92.7767 19.651L92.6606 19.3142C92.6205 19.2019 92.5941 19.0854 92.5608 18.9714L92.4652 18.6286C92.4353 18.5138 92.3969 18.4006 92.3799 18.2858L92.234 17.5882C92.1913 17.3543 92.1606 17.1186 92.1239 16.8838L92.0974 16.7124C92.0897 16.6533 92.0855 16.5941 92.0786 16.535L92.0445 16.1802C92.036 16.062 92.0206 15.9446 92.0164 15.8263L92.0027 15.4707C91.9252 13.5793 92.215 11.6908 92.8561 9.91064C92.4208 11.7213 92.2711 13.5894 92.4123 15.4467C92.484 16.3664 92.6347 17.2782 92.8629 18.1718C92.9192 18.3946 92.9883 18.614 93.0506 18.8351C93.0839 18.9457 93.1095 19.0579 93.1496 19.1659L93.2648 19.4907C93.3442 19.7067 93.4116 19.9269 93.5037 20.1377L93.6343 20.4565L93.776 20.771C94.1519 21.6107 94.6038 22.4139 95.126 23.1705C95.3871 23.5476 95.6593 23.9195 95.9537 24.2734C96.2481 24.6274 96.5511 24.9736 96.8728 25.3018C98.1699 26.6281 99.6608 27.7482 101.294 28.6234Z" fill="#29ABE2"/>
<path d="M94.765 25.3944C94.4552 24.7124 94.2735 23.9788 94.2291 23.2305C94.1886 22.4759 94.2623 21.7194 94.4476 20.987C94.6443 20.2571 94.9258 19.553 95.2864 18.8891L95.5748 18.4032C95.6706 18.2414 95.7746 18.0847 95.8863 17.9336L96.2114 17.4726L96.5639 17.0338C96.6799 16.8855 96.8096 16.7501 96.9351 16.6113C97.0605 16.4725 97.1843 16.3302 97.3199 16.2017L97.7185 15.8057C97.8558 15.6832 97.9932 15.5538 98.134 15.4261C98.2748 15.2984 98.4182 15.1836 98.5607 15.0653C98.7032 14.9471 98.8483 14.8271 98.9985 14.7165C99.1487 14.606 99.2946 14.4894 99.4456 14.3806L99.9056 14.0627C101.139 13.2332 102.462 12.5472 103.849 12.0179C102.541 12.691 101.286 13.4631 100.094 14.3275C99.504 14.7625 98.9366 15.2279 98.3943 15.7218C97.8539 16.2107 97.3492 16.738 96.8839 17.2994L96.5383 17.7219L96.2157 18.1684C95.9921 18.4572 95.8215 18.7786 95.6252 19.0845C95.2656 19.7153 94.9743 20.383 94.7565 21.0761C94.5499 21.7738 94.4399 22.4967 94.4296 23.2245C94.425 23.9612 94.5383 24.6938 94.765 25.3944Z" fill="#29ABE2"/>
<path d="M109.446 13.5407L108.415 12.838L109.281 11.8037C109.355 11.7138 109.403 11.6051 109.419 11.4897C109.434 11.3743 109.418 11.2568 109.371 11.1501C109.325 11.0435 109.249 10.952 109.154 10.8858C109.059 10.8196 108.947 10.7814 108.831 10.7753L107.224 10.7025L107.215 9.34845C107.215 9.23111 107.181 9.11632 107.119 9.01707C107.057 8.91782 106.968 8.83805 106.863 8.78679C106.758 8.73553 106.64 8.71482 106.524 8.72699C106.408 8.73917 106.297 8.78375 106.205 8.85569L105.417 9.46328L104.742 8.36893C104.68 8.26967 104.592 8.18987 104.487 8.13853C104.381 8.08719 104.264 8.06636 104.148 8.07839C104.032 8.09043 103.921 8.13484 103.829 8.20662C103.737 8.27841 103.666 8.3747 103.625 8.48462L103 10.1557L101.541 9.68438C101.429 9.64905 101.31 9.64566 101.197 9.67458C101.084 9.7035 100.981 9.76358 100.9 9.84806C100.82 9.93253 100.764 10.038 100.739 10.1527C100.715 10.2673 100.723 10.3865 100.762 10.4968L101.084 11.3983L100.086 11.6468C99.9722 11.675 99.8689 11.7344 99.7874 11.8185C99.7059 11.9026 99.6494 12.0079 99.6245 12.1225C99.5995 12.2371 99.607 12.3565 99.6462 12.467C99.6853 12.5776 99.7545 12.6749 99.8459 12.748L101.134 13.7815L100.11 15.2153C100.044 15.3105 100.004 15.4225 99.9973 15.5388C99.9903 15.6552 100.016 15.7711 100.07 15.8738C100.125 15.9766 100.207 16.0619 100.308 16.1204C100.408 16.1789 100.523 16.2082 100.639 16.2051L101.812 16.1682L101.748 17.1014C101.74 17.2185 101.764 17.3356 101.819 17.4394C101.873 17.5432 101.955 17.6296 102.056 17.6889C102.157 17.7482 102.273 17.778 102.389 17.7749C102.506 17.7718 102.62 17.7359 102.717 17.6713L103.886 16.9001L104.905 18.2841C104.975 18.3771 105.07 18.4487 105.178 18.4911C105.286 18.5335 105.403 18.5448 105.518 18.5239C105.632 18.5031 105.738 18.4507 105.824 18.3728C105.91 18.2949 105.973 18.1945 106.006 18.0827L106.384 16.7732L107.43 17.2017C107.538 17.2458 107.656 17.2586 107.771 17.2388C107.886 17.219 107.993 17.1674 108.08 17.0896C108.167 17.0119 108.231 16.9113 108.264 16.799C108.298 16.6868 108.299 16.5674 108.268 16.4544L107.904 15.1227L109.292 14.6548C109.402 14.6177 109.5 14.5504 109.574 14.4604C109.648 14.3705 109.696 14.2616 109.712 14.1458C109.728 14.0301 109.712 13.9121 109.665 13.8052C109.618 13.6983 109.542 13.6067 109.446 13.5407Z" fill="#F4BE38"/>
<path opacity="0.47" d="M98.4788 10.1986L97.122 9.2739L98.262 7.91303C98.3613 7.79456 98.4254 7.65053 98.4472 7.49728C98.469 7.34404 98.4476 7.18772 98.3854 7.04608C98.3232 6.90445 98.2227 6.78316 98.0953 6.69601C97.9679 6.60885 97.8187 6.55932 97.6647 6.55302L95.5501 6.45619L95.5381 4.67455C95.5362 4.52095 95.4917 4.37092 95.4097 4.24126C95.3277 4.1116 95.2113 4.00741 95.0737 3.94035C94.9361 3.8733 94.7826 3.84602 94.6304 3.86157C94.4782 3.87711 94.3334 3.93488 94.212 4.02839L93.1803 4.83052L92.2869 3.38995C92.2055 3.25887 92.0893 3.15325 91.9512 3.08506C91.8132 3.01686 91.659 2.9888 91.5059 3.00404C91.3529 3.01929 91.2071 3.07723 91.0851 3.17133C90.9631 3.26542 90.8698 3.39191 90.8157 3.53649L89.9922 5.73633L88.073 5.1236C87.9265 5.07713 87.77 5.07269 87.6211 5.11079C87.4723 5.14888 87.337 5.228 87.2305 5.3392C87.124 5.45041 87.0506 5.58929 87.0185 5.74017C86.9865 5.89104 86.997 6.04792 87.049 6.1931L87.4757 7.37143L86.1572 7.69879C86.008 7.73605 85.8722 7.81447 85.7651 7.92518C85.6579 8.03589 85.5837 8.17448 85.5509 8.3253C85.518 8.47612 85.5279 8.63316 85.5792 8.77867C85.6306 8.92419 85.7214 9.05239 85.8415 9.14878L87.5371 10.5088L86.1905 12.3941C86.101 12.5197 86.0482 12.6679 86.0381 12.822C86.0281 12.9761 86.0611 13.1299 86.1335 13.2661C86.206 13.4023 86.3149 13.5155 86.448 13.5928C86.5812 13.6701 86.7332 13.7085 86.8869 13.7036L88.4306 13.6539L88.3452 14.8828C88.3344 15.0368 88.3666 15.1908 88.4383 15.3274C88.5101 15.464 88.6184 15.5777 88.7511 15.6558C88.8838 15.7338 89.0356 15.7729 89.1893 15.7688C89.3431 15.7647 89.4926 15.7176 89.621 15.6326L91.157 14.6145L92.4951 16.439C92.5862 16.5624 92.7097 16.6578 92.8518 16.7146C92.9939 16.7714 93.1489 16.7874 93.2995 16.7607C93.4502 16.734 93.5904 16.6657 93.7045 16.5635C93.8187 16.4613 93.9022 16.3291 93.9458 16.1819L94.4441 14.4577L95.8197 15.0182C95.9623 15.0762 96.1182 15.093 96.2698 15.0666C96.4213 15.0403 96.5625 14.9719 96.6774 14.8692C96.7923 14.7665 96.8763 14.6336 96.9198 14.4854C96.9634 14.3373 96.9649 14.1798 96.924 14.0309L96.4487 12.2776L98.2757 11.6691C98.4217 11.6204 98.5511 11.5317 98.6495 11.413C98.7479 11.2942 98.8112 11.1502 98.8323 10.9972C98.8535 10.8442 98.8316 10.6884 98.7691 10.5472C98.7066 10.4061 98.606 10.2853 98.4788 10.1986Z" fill="#F4BE38"/>
<path opacity="0.47" d="M111.194 13.785L109.837 12.8595L110.977 11.4986C111.076 11.3806 111.14 11.2369 111.162 11.0841C111.184 10.9312 111.163 10.7752 111.102 10.6337C111.04 10.4923 110.94 10.371 110.813 10.2836C110.686 10.1963 110.538 10.1464 110.384 10.1395L108.268 10.0427L108.257 8.26016C108.256 8.10582 108.212 7.95489 108.13 7.82439C108.048 7.69389 107.931 7.58904 107.793 7.52166C107.655 7.45428 107.5 7.42706 107.347 7.44307C107.195 7.45909 107.049 7.5177 106.928 7.61229L105.896 8.41699L105.002 6.97642C104.921 6.84527 104.805 6.73955 104.667 6.67124C104.529 6.60294 104.375 6.57477 104.221 6.58993C104.068 6.6051 103.923 6.66298 103.801 6.75703C103.679 6.85109 103.586 6.97755 103.531 7.12211L102.708 9.3228L100.789 8.71007C100.642 8.66335 100.486 8.6587 100.337 8.69665C100.188 8.7346 100.053 8.81362 99.9461 8.9248C99.8395 9.03598 99.7661 9.17487 99.7341 9.32577C99.702 9.47667 99.7127 9.63356 99.7648 9.77871L100.191 10.9579L98.8773 11.2853C98.7277 11.3218 98.5913 11.3998 98.4836 11.5102C98.3758 11.6206 98.301 11.7591 98.2676 11.91C98.2342 12.0609 98.2436 12.2182 98.2946 12.3641C98.3457 12.5099 98.4363 12.6385 98.5564 12.7353L100.253 14.0953L98.9063 15.9806C98.8165 16.106 98.7634 16.2542 98.7531 16.4083C98.7429 16.5624 98.7758 16.7164 98.8482 16.8527C98.9206 16.989 99.0296 17.1022 99.1627 17.1795C99.2959 17.2568 99.448 17.2951 99.6018 17.29L101.146 17.2412L101.061 18.4701C101.05 18.6248 101.082 18.7796 101.153 18.9169C101.225 19.0543 101.334 19.1685 101.468 19.2467C101.601 19.3248 101.754 19.3638 101.908 19.3591C102.063 19.3543 102.213 19.3061 102.341 19.2199L103.877 18.201L105.215 20.0263C105.306 20.1494 105.43 20.2445 105.572 20.3012C105.714 20.3578 105.869 20.3736 106.019 20.347C106.17 20.3203 106.31 20.2522 106.424 20.1501C106.538 20.0481 106.622 19.9163 106.666 19.7693L107.163 18.045L108.54 18.6055C108.682 18.6634 108.838 18.6802 108.989 18.6539C109.141 18.6276 109.282 18.5593 109.397 18.4567C109.512 18.3541 109.596 18.2213 109.639 18.0733C109.683 17.9253 109.685 17.768 109.644 17.6191L109.164 15.8666L110.991 15.2547C111.137 15.2062 111.266 15.1176 111.365 14.9989C111.463 14.8803 111.526 14.7363 111.547 14.5833C111.569 14.4304 111.547 14.2745 111.484 14.1334C111.422 13.9924 111.321 13.8717 111.194 13.785Z" fill="#F4BE38"/>
<path d="M96.8173 10.1308L95.7864 9.42726L96.6526 8.39375C96.7267 8.30398 96.7745 8.19526 96.7906 8.07976C96.8067 7.96426 96.7904 7.84655 96.7436 7.7398C96.6969 7.63305 96.6214 7.54149 96.5258 7.47536C96.4301 7.40924 96.318 7.37116 96.202 7.36539L94.5952 7.28484L94.5866 5.93168C94.5859 5.81434 94.5524 5.69956 94.4901 5.60031C94.4277 5.50106 94.339 5.42129 94.2339 5.37003C94.1288 5.31877 94.0115 5.29806 93.8953 5.31023C93.7791 5.32241 93.6686 5.36698 93.5763 5.43893L92.7929 6.04994L92.1102 4.9556C92.0481 4.85672 91.9597 4.77722 91.8551 4.72602C91.7504 4.67483 91.6336 4.65399 91.5178 4.66583C91.402 4.67767 91.2918 4.72174 91.1995 4.79307C91.1073 4.86439 91.0367 4.96015 90.9957 5.06957L90.3694 6.74066L88.9118 6.27533C88.8005 6.23979 88.6815 6.23623 88.5682 6.26505C88.455 6.29388 88.352 6.35394 88.2709 6.43845C88.1899 6.52296 88.134 6.62855 88.1096 6.74329C88.0852 6.85802 88.0932 6.97733 88.1327 7.08773L88.4544 7.98327L87.4569 8.23179C87.3434 8.25991 87.2401 8.31937 87.1586 8.40344C87.0771 8.48751 87.0207 8.59282 86.9957 8.70745C86.9707 8.82207 86.9782 8.94143 87.0174 9.05199C87.0565 9.16255 87.1257 9.25989 87.2171 9.33299L88.5056 10.3699L87.4816 11.8028C87.4147 11.898 87.3754 12.0101 87.3682 12.1265C87.361 12.2429 87.3862 12.359 87.4409 12.4618C87.4956 12.5647 87.5777 12.6502 87.678 12.7089C87.7783 12.7676 87.8929 12.7972 88.009 12.7943L89.1815 12.7566L89.1183 13.6907C89.11 13.8077 89.1345 13.9248 89.189 14.0286C89.2435 14.1324 89.3258 14.2189 89.4267 14.2782C89.5275 14.3374 89.6429 14.3672 89.7597 14.3641C89.8765 14.361 89.9902 14.3251 90.0877 14.2606L91.256 13.4893L92.2757 14.8724C92.3448 14.9679 92.4391 15.042 92.5481 15.0862C92.657 15.1304 92.7761 15.143 92.8918 15.1224C93.0075 15.1019 93.1151 15.049 93.2024 14.97C93.2896 14.8909 93.3529 14.7888 93.3851 14.6753L93.7563 13.3693L94.8017 13.7978C94.91 13.8418 95.0283 13.8545 95.1434 13.8345C95.2585 13.8145 95.3658 13.7625 95.453 13.6845C95.5403 13.6065 95.6041 13.5056 95.6372 13.3931C95.6703 13.2806 95.6715 13.1611 95.6405 13.048L95.2753 11.7171L96.6628 11.2543C96.7755 11.2184 96.8757 11.1512 96.9518 11.0604C97.028 10.9697 97.077 10.8591 97.0931 10.7415C97.1093 10.624 97.092 10.5042 97.0432 10.3961C96.9943 10.288 96.916 10.1961 96.8173 10.1308Z" fill="#F4BE38"/>
<path d="M87.1061 19.0254C87.4227 18.0373 87.3305 16.3996 85.0205 13.6813C84.933 13.5777 84.8705 13.4552 84.8379 13.3234C84.8053 13.1916 84.8034 13.054 84.8323 12.9213C84.8613 12.7886 84.9204 12.6644 85.005 12.5584C85.0896 12.4524 85.1974 12.3675 85.32 12.3101C85.4476 12.2509 85.5873 12.2232 85.7277 12.2294C85.8681 12.2355 86.0049 12.2753 86.1268 12.3454C86.2487 12.4156 86.3521 12.514 86.4284 12.6325C86.5046 12.751 86.5515 12.8861 86.5651 13.0266C86.9107 16.475 88.1412 18.1521 89.2455 19.0511C95.0773 23.7978 108.479 15.8537 117.315 19.5781C118.12 19.9209 120.377 20.8696 120.402 22.2124C120.429 23.6581 117.855 24.7662 117.427 24.9504C111.277 27.5976 103.918 22.8937 103.448 23.7918C102.978 24.6899 110.52 28.5377 109.87 30.6801C109.463 32.0187 105.886 32.5809 102.814 31.8465C96.7191 30.3896 94.0447 24.1646 92.2919 25.0027C91.3157 25.4689 92.1682 27.3885 90.9744 30.6253C90.7696 31.1806 88.9144 36.2127 86.0036 36.2024C83.8011 36.1947 81.5405 33.3007 81.526 30.687C81.5064 27.0766 85.7757 24.8553 85.1741 23.9298C84.7295 23.2442 81.9007 23.7078 79.7195 25.3866C76.4332 27.9113 77.2832 31.1378 74.7334 32.2175C72.2441 33.2707 68.992 31.2312 67.4543 29.8C66.3236 28.7468 64.9633 27.4802 65.1801 26.2805C65.9472 22.0367 85.2962 24.6736 87.1061 19.0254Z" fill="#C4D650"/>
<path d="M59.8168 55.7036C59.8168 49.2764 62.312 43.5827 66.1375 40.1171C62.8095 37.032 61.5909 35.8896 61.5542 35.8477C56.5442 32.3427 49.8897 33.4696 46.6922 38.3637C43.4938 43.2613 44.9633 50.0699 49.9733 53.5749L60.3672 60.8454C59.9992 59.1565 59.8146 57.4325 59.8168 55.7036Z" fill="#459696"/>
<path fill-rule="evenodd" clip-rule="evenodd" d="M144.393 87.8126H88H32.044C16.5557 87.8126 4 100.368 4 115.857C4 131.345 16.5557 143.901 32.044 143.901H143C159.016 143.901 172 130.917 172 114.901V87.8126L172 70C171.639 71.6483 170.988 73.2978 170.064 74.8986C168.79 77.1077 167.021 79.1806 164.858 80.9991C162.695 82.8175 160.181 84.3459 157.459 85.4968C154.736 86.6478 151.86 87.3988 148.993 87.7071C148.71 87.7376 148.427 87.7636 148.145 87.7853L148.112 87.8126H147.756C146.617 87.8841 145.493 87.884 144.393 87.8126Z" fill="#C5D751"/>
</g>
<path d="M23.265 115.75C22.7483 115.75 22.2883 115.638 21.885 115.415C21.4817 115.192 21.165 114.892 20.935 114.515C20.7083 114.138 20.595 113.723 20.595 113.27C20.595 112.85 20.69 112.465 20.88 112.115C21.07 111.765 21.33 111.477 21.66 111.25C21.99 111.02 22.3617 110.882 22.775 110.835V109.745H23.925V111.93C23.8583 111.913 23.78 111.9 23.69 111.89C23.6 111.88 23.5033 111.875 23.4 111.875C23.0733 111.875 22.7867 111.93 22.54 112.04C22.2967 112.147 22.1067 112.305 21.97 112.515C21.8367 112.722 21.77 112.975 21.77 113.275C21.77 113.558 21.8317 113.802 21.955 114.005C22.0817 114.208 22.2583 114.365 22.485 114.475C22.7117 114.585 22.9767 114.64 23.28 114.64C23.7167 114.64 24.0717 114.523 24.345 114.29C24.6183 114.057 24.775 113.735 24.815 113.325L25.86 113.53C25.8033 113.993 25.6533 114.392 25.41 114.725C25.1667 115.058 24.8583 115.312 24.485 115.485C24.115 115.662 23.7083 115.75 23.265 115.75ZM23.355 108.84C23.205 108.84 23.0667 108.803 22.94 108.73C22.8133 108.653 22.7133 108.553 22.64 108.43C22.57 108.307 22.535 108.168 22.535 108.015C22.535 107.862 22.57 107.723 22.64 107.6C22.7133 107.477 22.8133 107.378 22.94 107.305C23.0667 107.228 23.205 107.19 23.355 107.19C23.5083 107.19 23.6467 107.228 23.77 107.305C23.8967 107.378 23.9967 107.477 24.07 107.6C24.1433 107.723 24.18 107.862 24.18 108.015C24.18 108.168 24.1433 108.307 24.07 108.43C23.9967 108.553 23.8967 108.653 23.77 108.73C23.6467 108.803 23.5083 108.84 23.355 108.84ZM34.9191 113.27C34.6557 113.167 34.3891 113.047 34.1191 112.91C33.8524 112.77 33.5841 112.615 33.3141 112.445C32.6274 112.922 31.8507 113.16 30.9841 113.16C30.4007 113.16 29.8574 113.052 29.3541 112.835C28.8507 112.618 28.4091 112.317 28.0291 111.93C27.6524 111.54 27.3591 111.087 27.1491 110.57C26.9391 110.053 26.8341 109.495 26.8341 108.895C26.8341 108.298 26.9407 107.74 27.1541 107.22C27.3674 106.7 27.6641 106.245 28.0441 105.855C28.4241 105.462 28.8657 105.155 29.3691 104.935C29.8724 104.712 30.4141 104.6 30.9941 104.6C31.5707 104.6 32.1107 104.71 32.6141 104.93C33.1174 105.15 33.5591 105.457 33.9391 105.85C34.3191 106.24 34.6157 106.695 34.8291 107.215C35.0457 107.732 35.1541 108.288 35.1541 108.885C35.1541 109.385 35.0691 109.865 34.8991 110.325C34.7324 110.782 34.4941 111.188 34.1841 111.545C34.4107 111.662 34.6341 111.767 34.8541 111.86C35.0741 111.953 35.2891 112.033 35.4991 112.1L34.9191 113.27ZM30.9791 111.9C31.2024 111.9 31.4157 111.872 31.6191 111.815C31.8224 111.755 32.0091 111.67 32.1791 111.56C31.9457 111.37 31.7207 111.17 31.5041 110.96C31.2907 110.75 31.0924 110.533 30.9091 110.31L31.4741 109.62C31.9307 110.097 32.4341 110.52 32.9841 110.89C33.2274 110.63 33.4141 110.327 33.5441 109.98C33.6741 109.633 33.7391 109.268 33.7391 108.885C33.7391 108.448 33.6707 108.047 33.5341 107.68C33.3974 107.313 33.2057 106.995 32.9591 106.725C32.7124 106.452 32.4207 106.24 32.0841 106.09C31.7507 105.937 31.3874 105.86 30.9941 105.86C30.5974 105.86 30.2307 105.937 29.8941 106.09C29.5607 106.24 29.2707 106.452 29.0241 106.725C28.7774 106.995 28.5841 107.315 28.4441 107.685C28.3074 108.055 28.2391 108.458 28.2391 108.895C28.2391 109.332 28.3057 109.733 28.4391 110.1C28.5757 110.467 28.7674 110.785 29.0141 111.055C29.2607 111.322 29.5507 111.53 29.8841 111.68C30.2174 111.827 30.5824 111.9 30.9791 111.9ZM39.3063 113.16C38.4263 113.16 37.7947 112.98 37.4113 112.62C37.028 112.257 36.8363 111.658 36.8363 110.825V107.88H38.0813V110.545C38.0813 111.122 38.173 111.532 38.3563 111.775C38.543 112.018 38.8597 112.14 39.3063 112.14C39.753 112.14 40.068 112.018 40.2513 111.775C40.438 111.532 40.5313 111.122 40.5313 110.545V107.88H41.7763V110.825C41.7763 111.658 41.5847 112.257 41.2013 112.62C40.818 112.98 40.1863 113.16 39.3063 113.16ZM43.587 113V107.88H44.832V113H43.587ZM44.212 106.83C44.0753 106.83 43.9486 106.797 43.832 106.73C43.7186 106.66 43.627 106.568 43.557 106.455C43.4903 106.338 43.457 106.21 43.457 106.07C43.457 105.933 43.4903 105.808 43.557 105.695C43.627 105.582 43.7186 105.492 43.832 105.425C43.9486 105.355 44.0753 105.32 44.212 105.32C44.352 105.32 44.477 105.355 44.587 105.425C44.7003 105.492 44.7903 105.582 44.857 105.695C44.927 105.808 44.962 105.933 44.962 106.07C44.962 106.21 44.927 106.338 44.857 106.455C44.7903 106.568 44.7003 106.66 44.587 106.73C44.477 106.797 44.352 106.83 44.212 106.83ZM49.2058 113.16C48.6591 113.16 48.1691 113.042 47.7358 112.805C47.3058 112.568 46.9641 112.245 46.7108 111.835C46.4608 111.425 46.3358 110.963 46.3358 110.45C46.3358 110.07 46.4074 109.715 46.5508 109.385C46.6941 109.055 46.8924 108.765 47.1458 108.515C47.3991 108.265 47.6941 108.07 48.0308 107.93C48.3674 107.79 48.7308 107.72 49.1208 107.72C49.6541 107.72 50.1208 107.83 50.5208 108.05C50.9241 108.27 51.2374 108.577 51.4608 108.97C51.6874 109.363 51.8008 109.822 51.8008 110.345C51.8008 110.388 51.7991 110.425 51.7958 110.455C51.7924 110.482 51.7858 110.528 51.7758 110.595H47.6058C47.6058 110.905 47.6758 111.178 47.8158 111.415C47.9558 111.648 48.1508 111.832 48.4008 111.965C48.6541 112.095 48.9441 112.16 49.2708 112.16C49.5808 112.16 49.8558 112.098 50.0958 111.975C50.3391 111.848 50.5591 111.657 50.7558 111.4L51.6608 111.865C51.4174 112.272 51.0791 112.59 50.6458 112.82C50.2158 113.047 49.7358 113.16 49.2058 113.16ZM47.6608 109.815H50.5658C50.5224 109.582 50.4341 109.38 50.3008 109.21C50.1674 109.04 49.9991 108.908 49.7958 108.815C49.5924 108.718 49.3658 108.67 49.1158 108.67C48.8524 108.67 48.6174 108.717 48.4108 108.81C48.2041 108.903 48.0358 109.035 47.9058 109.205C47.7758 109.375 47.6941 109.578 47.6608 109.815ZM48.9408 107.28L48.3908 106.845L49.6158 104.745L50.4858 105.39L48.9408 107.28ZM53.3088 113V107.88H54.5538V108.495C54.7304 108.268 54.9654 108.083 55.2588 107.94C55.5554 107.793 55.8938 107.72 56.2738 107.72C56.6671 107.72 57.0104 107.805 57.3038 107.975C57.6004 108.142 57.8304 108.378 57.9937 108.685C58.1571 108.992 58.2388 109.355 58.2388 109.775V113H56.9938V110.035C56.9938 109.608 56.8871 109.28 56.6738 109.05C56.4638 108.817 56.1721 108.7 55.7988 108.7C55.5421 108.7 55.3204 108.753 55.1338 108.86C54.9471 108.963 54.8038 109.103 54.7038 109.28C54.6038 109.453 54.5538 109.647 54.5538 109.86V113H53.3088ZM65.1628 113.16C64.6161 113.16 64.1261 113.042 63.6928 112.805C63.2628 112.568 62.9211 112.245 62.6678 111.835C62.4178 111.425 62.2928 110.963 62.2928 110.45C62.2928 110.07 62.3645 109.715 62.5078 109.385C62.6511 109.055 62.8495 108.765 63.1028 108.515C63.3561 108.265 63.6511 108.07 63.9878 107.93C64.3245 107.79 64.6878 107.72 65.0778 107.72C65.6111 107.72 66.0778 107.83 66.4778 108.05C66.8811 108.27 67.1945 108.577 67.4178 108.97C67.6445 109.363 67.7578 109.822 67.7578 110.345C67.7578 110.388 67.7561 110.425 67.7528 110.455C67.7495 110.482 67.7428 110.528 67.7328 110.595H63.5628C63.5628 110.905 63.6328 111.178 63.7728 111.415C63.9128 111.648 64.1078 111.832 64.3578 111.965C64.6111 112.095 64.9011 112.16 65.2278 112.16C65.5378 112.16 65.8128 112.098 66.0528 111.975C66.2961 111.848 66.5161 111.657 66.7128 111.4L67.6178 111.865C67.3745 112.272 67.0361 112.59 66.6028 112.82C66.1728 113.047 65.6928 113.16 65.1628 113.16ZM63.6178 109.815H66.5228C66.4795 109.582 66.3911 109.38 66.2578 109.21C66.1245 109.04 65.9561 108.908 65.7528 108.815C65.5495 108.718 65.3228 108.67 65.0728 108.67C64.8095 108.67 64.5745 108.717 64.3678 108.81C64.1611 108.903 63.9928 109.035 63.8628 109.205C63.7328 109.375 63.6511 109.578 63.6178 109.815ZM70.6367 113.16C70.2067 113.16 69.8234 113.08 69.4867 112.92C69.1534 112.757 68.8817 112.523 68.6717 112.22L69.2217 111.41C69.4184 111.67 69.6367 111.872 69.8767 112.015C70.1201 112.158 70.3717 112.23 70.6317 112.23C70.7917 112.23 70.9334 112.202 71.0567 112.145C71.1801 112.085 71.2784 112 71.3517 111.89C71.4251 111.777 71.4617 111.643 71.4617 111.49C71.4617 111.33 71.4201 111.205 71.3367 111.115C71.2534 111.025 71.1284 110.943 70.9617 110.87C70.7951 110.797 70.5851 110.71 70.3317 110.61C70.1184 110.52 69.9151 110.42 69.7217 110.31C69.5284 110.2 69.3684 110.062 69.2417 109.895C69.1184 109.725 69.0567 109.51 69.0567 109.25C69.0567 108.953 69.1384 108.69 69.3017 108.46C69.4684 108.23 69.6951 108.05 69.9817 107.92C70.2717 107.79 70.6017 107.725 70.9717 107.725C71.2384 107.725 71.5067 107.773 71.7767 107.87C72.0467 107.963 72.3167 108.1 72.5867 108.28L72.1367 109.065C71.7467 108.742 71.3617 108.58 70.9817 108.58C70.7584 108.58 70.5784 108.633 70.4417 108.74C70.3084 108.847 70.2417 108.983 70.2417 109.15C70.2417 109.287 70.3001 109.403 70.4167 109.5C70.5334 109.597 70.6784 109.682 70.8517 109.755C71.0251 109.828 71.1984 109.898 71.3717 109.965C71.6451 110.065 71.8851 110.172 72.0917 110.285C72.2984 110.398 72.4601 110.545 72.5767 110.725C72.6934 110.905 72.7517 111.145 72.7517 111.445C72.7517 111.805 72.6651 112.113 72.4917 112.37C72.3217 112.627 72.0784 112.823 71.7617 112.96C71.4451 113.093 71.0701 113.16 70.6367 113.16ZM76.7668 113V104.75H78.9118C79.7085 104.75 80.3301 104.927 80.7768 105.28C81.2268 105.63 81.4518 106.147 81.4518 106.83C81.4518 107.703 81.0818 108.313 80.3418 108.66C80.9351 108.75 81.3901 108.973 81.7068 109.33C82.0235 109.683 82.1818 110.148 82.1818 110.725C82.1818 111.198 82.0751 111.605 81.8618 111.945C81.6485 112.285 81.3435 112.547 80.9468 112.73C80.5535 112.91 80.0851 113 79.5418 113H76.7668ZM78.0768 108.225H78.6218C79.1285 108.225 79.5168 108.118 79.7868 107.905C80.0568 107.692 80.1918 107.387 80.1918 106.99C80.1918 106.59 80.0585 106.287 79.7918 106.08C79.5251 105.873 79.1351 105.77 78.6218 105.77H78.0768V108.225ZM78.0768 111.97H79.1168C79.6735 111.97 80.0951 111.86 80.3818 111.64C80.6718 111.42 80.8168 111.102 80.8168 110.685C80.8168 110.262 80.6685 109.935 80.3718 109.705C80.0785 109.475 79.6601 109.36 79.1168 109.36H78.0768V111.97ZM83.4991 113V107.88H84.7441V113H83.4991ZM84.1241 106.83C83.9874 106.83 83.8607 106.797 83.7441 106.73C83.6307 106.66 83.5391 106.568 83.4691 106.455C83.4024 106.338 83.3691 106.21 83.3691 106.07C83.3691 105.933 83.4024 105.808 83.4691 105.695C83.5391 105.582 83.6307 105.492 83.7441 105.425C83.8607 105.355 83.9874 105.32 84.1241 105.32C84.2641 105.32 84.3891 105.355 84.4991 105.425C84.6124 105.492 84.7024 105.582 84.7691 105.695C84.8391 105.808 84.8741 105.933 84.8741 106.07C84.8741 106.21 84.8391 106.338 84.7691 106.455C84.7024 106.568 84.6124 106.66 84.4991 106.73C84.3891 106.797 84.2641 106.83 84.1241 106.83ZM89.1929 113.16C88.6396 113.16 88.1396 113.045 87.6929 112.815C87.2496 112.585 86.8979 112.265 86.6379 111.855C86.3779 111.445 86.2479 110.973 86.2479 110.44C86.2479 109.903 86.3779 109.432 86.6379 109.025C86.8979 108.615 87.2496 108.295 87.6929 108.065C88.1362 107.835 88.6362 107.72 89.1929 107.72C89.7462 107.72 90.2446 107.835 90.6879 108.065C91.1346 108.295 91.4862 108.615 91.7429 109.025C92.0029 109.432 92.1329 109.903 92.1329 110.44C92.1329 110.973 92.0029 111.445 91.7429 111.855C91.4862 112.265 91.1346 112.585 90.6879 112.815C90.2446 113.045 89.7462 113.16 89.1929 113.16ZM89.1929 112.09C89.5062 112.09 89.7862 112.02 90.0329 111.88C90.2829 111.737 90.4796 111.542 90.6229 111.295C90.7662 111.045 90.8379 110.76 90.8379 110.44C90.8379 110.117 90.7662 109.832 90.6229 109.585C90.4796 109.335 90.2829 109.14 90.0329 109C89.7862 108.86 89.5062 108.79 89.1929 108.79C88.8829 108.79 88.6029 108.86 88.3529 109C88.1029 109.14 87.9062 109.335 87.7629 109.585C87.6196 109.832 87.5479 110.117 87.5479 110.44C87.5479 110.76 87.6196 111.045 87.7629 111.295C87.9062 111.542 88.1029 111.737 88.3529 111.88C88.6029 112.02 88.8829 112.09 89.1929 112.09ZM95.6108 113.16C95.4608 113.16 95.3224 113.122 95.1958 113.045C95.0724 112.972 94.9741 112.873 94.9008 112.75C94.8274 112.623 94.7908 112.485 94.7908 112.335C94.7908 112.182 94.8274 112.043 94.9008 111.92C94.9741 111.793 95.0724 111.693 95.1958 111.62C95.3224 111.547 95.4608 111.51 95.6108 111.51C95.7641 111.51 95.9024 111.547 96.0258 111.62C96.1524 111.693 96.2524 111.793 96.3258 111.92C96.3991 112.043 96.4358 112.182 96.4358 112.335C96.4358 112.485 96.3991 112.623 96.3258 112.75C96.2524 112.873 96.1524 112.972 96.0258 113.045C95.9024 113.122 95.7641 113.16 95.6108 113.16ZM95.0408 110.605V108.42C95.1108 108.433 95.1908 108.447 95.2808 108.46C95.3708 108.47 95.4658 108.475 95.5658 108.475C95.8958 108.475 96.1824 108.422 96.4258 108.315C96.6691 108.205 96.8574 108.045 96.9908 107.835C97.1274 107.625 97.1958 107.372 97.1958 107.075C97.1958 106.792 97.1341 106.548 97.0108 106.345C96.8874 106.142 96.7124 105.985 96.4858 105.875C96.2591 105.765 95.9924 105.71 95.6858 105.71C95.2524 105.71 94.8991 105.827 94.6258 106.06C94.3524 106.29 94.1941 106.612 94.1508 107.025L93.1108 106.82C93.1674 106.353 93.3158 105.955 93.5558 105.625C93.7991 105.292 94.1058 105.038 94.4758 104.865C94.8491 104.688 95.2574 104.6 95.7008 104.6C96.2208 104.6 96.6808 104.712 97.0808 104.935C97.4841 105.158 97.7991 105.458 98.0258 105.835C98.2558 106.208 98.3708 106.623 98.3708 107.08C98.3708 107.497 98.2758 107.882 98.0858 108.235C97.8958 108.585 97.6358 108.873 97.3058 109.1C96.9791 109.327 96.6091 109.465 96.1958 109.515V110.605H95.0408Z" fill="white"/>
<path d="M23.932 128.128C23.436 128.128 22.9733 128.041 22.544 127.868C22.1173 127.692 21.7427 127.449 21.42 127.14C21.1 126.828 20.8507 126.464 20.672 126.048C20.4933 125.632 20.404 125.184 20.404 124.704C20.404 124.224 20.4933 123.776 20.672 123.36C20.8533 122.944 21.104 122.581 21.424 122.272C21.744 121.96 22.1173 121.717 22.544 121.544C22.9707 121.368 23.432 121.28 23.928 121.28C24.3387 121.28 24.7253 121.34 25.088 121.46C25.4533 121.577 25.772 121.739 26.044 121.944L25.676 122.628C25.4573 122.452 25.2013 122.317 24.908 122.224C24.6147 122.128 24.3053 122.08 23.98 122.08C23.588 122.08 23.228 122.147 22.9 122.28C22.572 122.413 22.2867 122.6 22.044 122.84C21.804 123.077 21.6173 123.356 21.484 123.676C21.3533 123.993 21.288 124.336 21.288 124.704C21.288 125.072 21.3533 125.416 21.484 125.736C21.6173 126.053 21.804 126.332 22.044 126.572C22.2867 126.809 22.572 126.995 22.9 127.128C23.228 127.261 23.588 127.328 23.98 127.328C24.3053 127.328 24.6147 127.281 24.908 127.188C25.2013 127.092 25.4573 126.956 25.676 126.78L26.044 127.464C25.7773 127.664 25.4627 127.825 25.1 127.948C24.7373 128.068 24.348 128.128 23.932 128.128ZM29.1438 128.128C28.7091 128.128 28.3171 128.036 27.9678 127.852C27.6211 127.668 27.3451 127.412 27.1398 127.084C26.9371 126.756 26.8358 126.379 26.8358 125.952C26.8358 125.523 26.9371 125.145 27.1398 124.82C27.3451 124.492 27.6211 124.236 27.9678 124.052C28.3171 123.868 28.7091 123.776 29.1438 123.776C29.5784 123.776 29.9691 123.868 30.3158 124.052C30.6651 124.236 30.9411 124.492 31.1438 124.82C31.3491 125.145 31.4518 125.523 31.4518 125.952C31.4518 126.379 31.3491 126.756 31.1438 127.084C30.9411 127.412 30.6651 127.668 30.3158 127.852C29.9691 128.036 29.5784 128.128 29.1438 128.128ZM29.1478 127.452C29.4331 127.452 29.6891 127.388 29.9158 127.26C30.1424 127.132 30.3211 126.955 30.4518 126.728C30.5824 126.501 30.6478 126.243 30.6478 125.952C30.6478 125.659 30.5824 125.4 30.4518 125.176C30.3211 124.949 30.1424 124.772 29.9158 124.644C29.6891 124.516 29.4331 124.452 29.1478 124.452C28.8598 124.452 28.6024 124.516 28.3758 124.644C28.1491 124.772 27.9704 124.949 27.8398 125.176C27.7091 125.4 27.6438 125.659 27.6438 125.952C27.6438 126.243 27.7091 126.501 27.8398 126.728C27.9704 126.955 28.1491 127.132 28.3758 127.26C28.6024 127.388 28.8598 127.452 29.1478 127.452ZM32.7497 128V123.904H33.5257V124.432C33.651 124.245 33.831 124.089 34.0657 123.964C34.3004 123.839 34.579 123.776 34.9017 123.776C35.219 123.776 35.4937 123.843 35.7257 123.976C35.9577 124.107 36.1364 124.296 36.2617 124.544C36.3897 124.792 36.4537 125.088 36.4537 125.432V128H35.6777V125.588C35.6777 125.204 35.5857 124.909 35.4017 124.704C35.2177 124.499 34.959 124.396 34.6257 124.396C34.3964 124.396 34.199 124.443 34.0337 124.536C33.871 124.627 33.7457 124.749 33.6577 124.904C33.5697 125.056 33.5257 125.223 33.5257 125.404V128H32.7497ZM39.9953 128.128C39.5606 128.128 39.1686 128.036 38.8193 127.852C38.4726 127.668 38.1966 127.412 37.9913 127.084C37.7886 126.756 37.6873 126.379 37.6873 125.952C37.6873 125.523 37.7886 125.145 37.9913 124.82C38.1966 124.492 38.4726 124.236 38.8193 124.052C39.1686 123.868 39.5606 123.776 39.9953 123.776C40.43 123.776 40.8206 123.868 41.1673 124.052C41.5166 124.236 41.7926 124.492 41.9953 124.82C42.2006 125.145 42.3033 125.523 42.3033 125.952C42.3033 126.379 42.2006 126.756 41.9953 127.084C41.7926 127.412 41.5166 127.668 41.1673 127.852C40.8206 128.036 40.43 128.128 39.9953 128.128ZM39.9993 127.452C40.2846 127.452 40.5406 127.388 40.7673 127.26C40.994 127.132 41.1726 126.955 41.3033 126.728C41.434 126.501 41.4993 126.243 41.4993 125.952C41.4993 125.659 41.434 125.4 41.3033 125.176C41.1726 124.949 40.994 124.772 40.7673 124.644C40.5406 124.516 40.2846 124.452 39.9993 124.452C39.7113 124.452 39.454 124.516 39.2273 124.644C39.0006 124.772 38.822 124.949 38.6913 125.176C38.5606 125.4 38.4953 125.659 38.4953 125.952C38.4953 126.243 38.5606 126.501 38.6913 126.728C38.822 126.955 39.0006 127.132 39.2273 127.26C39.454 127.388 39.7113 127.452 39.9993 127.452ZM45.5249 128.128C45.2155 128.128 44.9249 128.073 44.6529 127.964C44.3835 127.855 44.1462 127.701 43.9409 127.504C43.7355 127.307 43.5742 127.076 43.4569 126.812C43.3422 126.548 43.2849 126.261 43.2849 125.952C43.2849 125.648 43.3409 125.365 43.4529 125.104C43.5649 124.84 43.7222 124.609 43.9249 124.412C44.1275 124.212 44.3649 124.056 44.6369 123.944C44.9089 123.832 45.2035 123.776 45.5209 123.776C45.7902 123.776 46.0462 123.816 46.2889 123.896C46.5315 123.973 46.7369 124.079 46.9049 124.212L46.6129 124.736C46.3435 124.528 46.0142 124.424 45.6249 124.424C45.3155 124.424 45.0449 124.493 44.8129 124.632C44.5809 124.768 44.4009 124.952 44.2729 125.184C44.1475 125.416 44.0849 125.672 44.0849 125.952C44.0849 126.24 44.1502 126.5 44.2809 126.732C44.4115 126.961 44.5929 127.144 44.8249 127.28C45.0595 127.413 45.3289 127.48 45.6329 127.48C45.8222 127.48 46.0009 127.453 46.1689 127.4C46.3369 127.344 46.4835 127.267 46.6089 127.168L46.9049 127.692C46.7342 127.823 46.5289 127.928 46.2889 128.008C46.0489 128.088 45.7942 128.128 45.5249 128.128ZM50.0254 128.128C49.5961 128.128 49.2108 128.033 48.8694 127.844C48.5281 127.655 48.2588 127.397 48.0614 127.072C47.8641 126.744 47.7654 126.375 47.7654 125.964C47.7654 125.66 47.8214 125.376 47.9334 125.112C48.0454 124.848 48.2014 124.616 48.4014 124.416C48.6014 124.213 48.8334 124.056 49.0974 123.944C49.3614 123.832 49.6441 123.776 49.9454 123.776C50.3721 123.776 50.7454 123.864 51.0654 124.04C51.3881 124.216 51.6388 124.461 51.8174 124.776C51.9988 125.091 52.0894 125.456 52.0894 125.872C52.0894 125.907 52.0881 125.935 52.0854 125.956C52.0828 125.977 52.0774 126.005 52.0694 126.04H48.5494C48.5494 126.325 48.6134 126.577 48.7414 126.796C48.8721 127.015 49.0508 127.187 49.2774 127.312C49.5068 127.435 49.7694 127.496 50.0654 127.496C50.3454 127.496 50.5961 127.439 50.8174 127.324C51.0388 127.209 51.2308 127.039 51.3934 126.812L51.9614 127.108C51.7668 127.431 51.4988 127.681 51.1574 127.86C50.8188 128.039 50.4414 128.128 50.0254 128.128ZM48.5894 125.468H51.3094C51.2721 125.257 51.1894 125.073 51.0614 124.916C50.9361 124.756 50.7774 124.632 50.5854 124.544C50.3961 124.453 50.1868 124.408 49.9574 124.408C49.7174 124.408 49.5001 124.452 49.3054 124.54C49.1134 124.625 48.9548 124.748 48.8294 124.908C48.7068 125.065 48.6268 125.252 48.5894 125.468ZM57.2044 128.128C56.8231 128.128 56.4778 128.035 56.1684 127.848C55.8618 127.659 55.6178 127.4 55.4364 127.072C55.2578 126.744 55.1684 126.369 55.1684 125.948C55.1684 125.532 55.2564 125.161 55.4324 124.836C55.6084 124.508 55.8498 124.249 56.1564 124.06C56.4631 123.871 56.8124 123.776 57.2044 123.776C57.5511 123.776 57.8671 123.853 58.1524 124.008C58.4404 124.163 58.6631 124.377 58.8204 124.652V123.904H59.5964V128H58.8204V127.232C58.6418 127.515 58.4124 127.735 58.1324 127.892C57.8524 128.049 57.5431 128.128 57.2044 128.128ZM57.4124 127.46C57.6924 127.46 57.9391 127.396 58.1524 127.268C58.3684 127.137 58.5378 126.959 58.6604 126.732C58.7831 126.505 58.8444 126.245 58.8444 125.952C58.8444 125.659 58.7831 125.399 58.6604 125.172C58.5378 124.945 58.3684 124.768 58.1524 124.64C57.9391 124.509 57.6924 124.444 57.4124 124.444C57.1351 124.444 56.8884 124.509 56.6724 124.64C56.4564 124.768 56.2858 124.945 56.1604 125.172C56.0378 125.399 55.9764 125.659 55.9764 125.952C55.9764 126.243 56.0378 126.503 56.1604 126.732C56.2858 126.959 56.4564 127.137 56.6724 127.268C56.8884 127.396 57.1351 127.46 57.4124 127.46ZM63.224 128V121.4H64.768C65.408 121.4 65.9067 121.543 66.264 121.828C66.6213 122.111 66.8 122.523 66.8 123.064C66.8 123.779 66.4933 124.272 65.88 124.544C66.3627 124.613 66.7333 124.792 66.992 125.08C67.2533 125.365 67.384 125.741 67.384 126.208C67.384 126.581 67.3 126.903 67.132 127.172C66.964 127.439 66.724 127.644 66.412 127.788C66.1 127.929 65.728 128 65.296 128H63.224ZM64.036 124.28H64.604C65.06 124.28 65.4093 124.184 65.652 123.992C65.8973 123.797 66.02 123.519 66.02 123.156C66.02 122.793 65.8987 122.517 65.656 122.328C65.4133 122.136 65.0627 122.04 64.604 122.04H64.036V124.28ZM64.036 127.352H65.052C65.5347 127.352 65.904 127.252 66.16 127.052C66.416 126.849 66.544 126.56 66.544 126.184C66.544 125.805 66.4133 125.512 66.152 125.304C65.8933 125.093 65.5267 124.988 65.052 124.988H64.036V127.352ZM68.5348 128V123.904H69.3108V128H68.5348ZM68.9228 123.076C68.8348 123.076 68.7534 123.055 68.6788 123.012C68.6068 122.967 68.5481 122.907 68.5028 122.832C68.4601 122.757 68.4388 122.676 68.4388 122.588C68.4388 122.497 68.4601 122.416 68.5028 122.344C68.5481 122.272 68.6068 122.215 68.6788 122.172C68.7534 122.127 68.8348 122.104 68.9228 122.104C69.0134 122.104 69.0948 122.127 69.1668 122.172C69.2388 122.215 69.2961 122.272 69.3388 122.344C69.3841 122.416 69.4068 122.497 69.4068 122.588C69.4068 122.676 69.3841 122.757 69.3388 122.832C69.2961 122.907 69.2388 122.967 69.1668 123.012C69.0948 123.055 69.0134 123.076 68.9228 123.076ZM72.9328 128.128C72.4981 128.128 72.1061 128.036 71.7568 127.852C71.4101 127.668 71.1341 127.412 70.9288 127.084C70.7261 126.756 70.6248 126.379 70.6248 125.952C70.6248 125.523 70.7261 125.145 70.9288 124.82C71.1341 124.492 71.4101 124.236 71.7568 124.052C72.1061 123.868 72.4981 123.776 72.9328 123.776C73.3675 123.776 73.7581 123.868 74.1048 124.052C74.4541 124.236 74.7301 124.492 74.9328 124.82C75.1381 125.145 75.2408 125.523 75.2408 125.952C75.2408 126.379 75.1381 126.756 74.9328 127.084C74.7301 127.412 74.4541 127.668 74.1048 127.852C73.7581 128.036 73.3675 128.128 72.9328 128.128ZM72.9368 127.452C73.2221 127.452 73.4781 127.388 73.7048 127.26C73.9315 127.132 74.1101 126.955 74.2408 126.728C74.3715 126.501 74.4368 126.243 74.4368 125.952C74.4368 125.659 74.3715 125.4 74.2408 125.176C74.1101 124.949 73.9315 124.772 73.7048 124.644C73.4781 124.516 73.2221 124.452 72.9368 124.452C72.6488 124.452 72.3915 124.516 72.1648 124.644C71.9381 124.772 71.7595 124.949 71.6288 125.176C71.4981 125.4 71.4328 125.659 71.4328 125.952C71.4328 126.243 71.4981 126.501 71.6288 126.728C71.7595 126.955 71.9381 127.132 72.1648 127.26C72.3915 127.388 72.6488 127.452 72.9368 127.452Z" fill="white"/>
<defs>
<filter id="filter0_d_240_58" x="0" y="0" width="176" height="152" filterUnits="userSpaceOnUse" color-interpolation-filters="sRGB">
<feFlood flood-opacity="0" result="BackgroundImageFix"/>
<feColorMatrix in="SourceAlpha" type="matrix" values="0 0 0 0 0 0 0 0 0 0 0 0 0 0 0 0 0 0 127 0" result="hardAlpha"/>
<feOffset dy="4"/>
<feGaussianBlur stdDeviation="2"/>
<feComposite in2="hardAlpha" operator="out"/>
<feColorMatrix type="matrix" values="0 0 0 0 0 0 0 0 0 0 0 0 0 0 0 0 0 0 0.25 0"/>
<feBlend mode="normal" in2="BackgroundImageFix" result="effect1_dropShadow_240_58"/>
<feBlend mode="normal" in="SourceGraphic" in2="effect1_dropShadow_240_58" result="shape"/>
</filter>
</defs>
</svg>
